<svg width="981" height="866" viewBox="0 0 981 866" fill="none" xmlns="http://www.w3.org/2000/svg">
<path d="M4.55033 565.329L548.961 251.035L544.417 248.41L0 562.706L4.55033 565.329Z" fill="#9E9DB2"/>
<path d="M4.55029 569.332L548.961 255.031V251.035L4.55029 565.329V569.332Z" fill="#6D6E8A"/>
<path d="M517.978 861.745L980.312 594.827L975.768 592.201L513.433 859.122L517.978 861.745Z" fill="#9E9DB2"/>
<path d="M517.978 865.743L980.313 598.829V594.827L517.978 861.745V865.743Z" fill="#6D6E8A"/>
<path d="M517.978 865.743L513.433 863.117V859.122L518.022 861.721L517.978 865.743Z" fill="#6D6E8A"/>
<path d="M659.026 187.472L653.991 190.392L648.056 193.815L631.201 203.526L407.171 332.892V327.656L619.979 204.785L639.748 193.356L645.891 189.838L654.494 184.86L659.026 187.472Z" fill="#808192"/>
<path d="M659.026 187.472V191.506L653.846 194.521L638.445 203.375L407.171 336.92V332.892L631.201 203.526L648.056 193.816L653.991 190.392L659.026 187.472Z" fill="#52546A"/>
<path d="M682.224 376.001C682.224 376.001 849.957 458.79 849.957 489.942C849.957 521.099 446.487 744.803 439.816 746.585C433.132 748.365 257.33 675.822 245.02 622.877C232.716 569.924 424.705 458.048 424.705 458.048L636.702 359.236L682.224 376.001Z" fill="#3E3A33"/>
<path d="M421.445 740.763C421.432 740.756 421.426 740.756 421.407 740.751C437.676 739.283 453.335 734.947 465.847 727.734L550.063 679.113V679.126L465.828 727.754C453.341 734.959 437.695 739.296 421.445 740.763ZM601.847 649.227V649.22L792.024 539.426C792.011 539.433 792.005 539.438 791.999 539.445L601.847 649.227ZM251.314 630.15L246.411 627.326C246.411 627.318 246.411 627.318 246.411 627.313L251.32 630.15H251.314ZM423.729 623.247L423.71 623.235C439.155 621.578 453.927 617.318 465.847 610.447L500.563 590.402V590.409L465.828 610.464C453.927 617.33 439.161 621.593 423.729 623.247ZM318.883 591.144L318.606 590.987V590.982L318.889 591.139L318.883 591.144ZM412.073 533.258C397.85 533.258 383.645 530.634 371.895 525.386L438.62 486.864L453.266 495.203V497.38L467.276 505.466L431.974 525.851L439.099 529.954C430.52 532.156 421.294 533.258 412.073 533.258ZM785.85 503.724L785.831 503.719L825.808 480.627C825.815 480.635 825.821 480.64 825.834 480.64L785.85 503.724ZM684.874 445.424L684.867 445.416L724.864 422.321L724.883 422.326L684.874 445.424ZM657.314 407.463L624.561 388.551C628.973 388.027 633.454 387.764 637.942 387.764C652.102 387.764 666.244 390.382 677.925 395.618L676.944 396.191L657.314 407.463Z" fill="#342E26"/>
<path d="M132.331 491.559L127.781 488.934L173.914 462.3V467.549L132.331 491.559Z" fill="#807C83"/>
<path d="M135.793 493.561L132.331 491.56L173.914 467.549V471.554L135.793 493.561Z" fill="#585565"/>
<path d="M128.448 463.7L173.914 489.942L247.953 342.345L128.448 411.34V463.7Z" fill="#8B5819"/>
<path d="M170.88 372.321L191.032 383.956L233.421 77.9493L170.88 114.054V372.321Z" fill="#8B5819"/>
<path d="M170.88 114.054L191.032 125.684L253.567 89.5792L233.421 77.9492L170.88 114.054Z" fill="#744516"/>
<path d="M128.448 411.34L173.914 437.587L191.033 383.956L170.88 372.321L128.448 411.34Z" fill="#E3A416"/>
<path d="M247.959 342.345L293.419 368.594L253.567 347.845L240.734 340.444L247.959 342.345Z" fill="#E3A416"/>
<path d="M173.913 489.942L293.418 420.954V368.594L173.913 437.588V489.942Z" fill="#C48618"/>
<path d="M191.033 383.956L253.567 347.845V89.5793L191.033 125.684V383.956Z" fill="#C48618"/>
<path d="M210.682 372.609L233.918 359.192V117.629L210.682 131.04V372.609Z" fill="#3E3A33"/>
<path d="M173.913 437.587L293.418 368.594L253.567 347.845L191.032 383.956L173.913 437.587Z" fill="#FBD217"/>
<path d="M217.12 120.8L267.765 91.5615V29.2386L217.12 58.4774V120.8Z" fill="#C48618"/>
<path d="M217.12 120.8L166.468 91.5615V29.2386L217.12 58.4774V120.8Z" fill="#8B5819"/>
<path d="M217.12 58.4775L166.468 29.2387L217.12 -6.36125e-05L267.765 29.2387L217.12 58.4775Z" fill="#FBD217"/>
<path d="M863.332 461.559C862.419 459.997 861.318 458.439 860.053 456.922C856.327 452.247 851.147 447.871 844.457 444.05L843.551 443.492L832.832 437.349L819.647 429.703L799.268 417.984L786.083 410.332L765.811 398.664L752.626 391.056L732.442 379.438L719.206 371.79L697.071 359.009C669.693 343.157 626.771 341.394 595.623 353.622C591.494 355.233 587.617 357.096 583.999 359.211L333.654 503.724L317.353 513.135L300.191 523.047L283.934 532.398L266.777 542.315L250.527 551.674L233.219 561.686L216.963 571.045L207.05 576.783L205.691 577.59C198.894 581.51 193.563 585.94 189.736 590.717C184.909 596.663 182.391 603.097 182.184 609.535V610.396C182.184 615.229 183.493 620.057 186.061 624.689C189.787 631.328 196.231 637.615 205.338 642.902L206.748 643.706L352.674 727.936C383.727 745.855 434.599 745.747 465.847 727.735L843.853 509.508L844.104 509.359C853.419 503.977 859.958 497.583 863.728 490.842C866.346 486.159 867.605 481.326 867.605 476.55V475.593C867.454 470.812 866.05 466.133 863.332 461.559ZM210.537 622.889C206.78 617.508 205.244 611.711 205.936 605.966C207.012 597.079 213.413 588.357 225.138 581.575L590.909 370.413C616.619 355.573 658.547 355.492 684.094 370.236L824.946 451.566C834.802 457.249 840.851 464.354 843.06 471.785C845.13 478.728 843.865 485.957 839.264 492.585C836.036 497.249 831.171 501.605 824.651 505.366L458.892 716.527C433.183 731.368 391.254 731.437 365.708 716.692L224.842 635.383C218.479 631.712 213.715 627.457 210.537 622.889Z" fill="#91939E"/>
<mask id="mask0_0_1" style="mask-type:luminance" maskUnits="userSpaceOnUse" x="206" y="359" width="637" height="254">
<path d="M221.06 612.687L206.729 604.412L206.238 604.13C206.238 604.122 206.238 604.115 206.238 604.115L206.748 604.405L221.072 612.682C221.066 612.682 221.066 612.682 221.06 612.687ZM343.913 528.445L330.545 520.723L330.558 520.716L343.913 528.445ZM371.895 525.386C369.748 524.423 367.678 523.378 365.708 522.24C366.513 522.692 367.313 523.145 368.118 523.491V499.031L438.62 458.331V486.865L371.895 525.386ZM825.834 480.64C825.821 480.64 825.815 480.635 825.808 480.627L842.751 470.848C842.751 470.853 842.757 470.861 842.757 470.868L825.834 480.64ZM724.883 422.326L724.864 422.321L749.585 408.048L749.604 408.053L724.883 422.326ZM618.714 385.178L592.042 369.777C592.772 369.373 593.521 368.985 594.276 368.602C606.693 362.345 622.283 359.217 637.828 359.217C640.05 359.217 642.272 359.28 644.481 359.406C634.921 367.311 626.468 375.509 619.677 383.969C619.35 384.372 619.029 384.775 618.714 385.178Z" fill="white"/>
</mask>
<g mask="url(#mask0_0_1)">
<path d="M221.06 612.687L206.729 604.412L206.238 604.13C206.238 604.122 206.238 604.115 206.238 604.115L206.748 604.405L221.072 612.682C221.066 612.682 221.066 612.682 221.06 612.687ZM343.913 528.445L330.545 520.723L330.558 520.716L343.913 528.445ZM371.895 525.386C369.748 524.423 367.678 523.378 365.708 522.24C366.513 522.692 367.313 523.145 368.118 523.491V499.031L438.62 458.331V486.865L371.895 525.386ZM825.834 480.64C825.821 480.64 825.815 480.635 825.808 480.627L842.751 470.848C842.751 470.853 842.757 470.861 842.757 470.868L825.834 480.64ZM724.883 422.326L724.864 422.321L749.585 408.048L749.604 408.053L724.883 422.326ZM618.714 385.178L592.042 369.777C592.772 369.373 593.521 368.985 594.276 368.602C606.693 362.345 622.283 359.217 637.828 359.217C640.05 359.217 642.272 359.28 644.481 359.406C634.921 367.311 626.468 375.509 619.677 383.969C619.35 384.372 619.029 384.775 618.714 385.178Z" fill="url(#paint0_linear_0_1)"/>
</g>
<mask id="mask1_0_1" style="mask-type:luminance" maskUnits="userSpaceOnUse" x="182" y="609" width="1" height="2">
<path d="M182.184 609.565V610.416L182.209 609.54L182.184 609.565Z" fill="white"/>
</mask>
<g mask="url(#mask1_0_1)">
<path d="M182.184 609.565V610.416L182.209 609.54L182.184 609.565Z" fill="url(#paint1_linear_0_1)"/>
</g>
<mask id="mask2_0_1" style="mask-type:luminance" maskUnits="userSpaceOnUse" x="182" y="476" width="686" height="294">
<path d="M408.946 769.858C388.523 769.858 368.144 765.408 352.693 756.489L243.151 693.249L235.303 688.718L205.345 671.417C190.29 662.731 182.58 651.347 182.209 639.861L182.184 639.849V610.415C182.184 615.116 183.411 619.799 185.853 624.305C185.916 624.426 185.985 624.543 186.054 624.664C186.212 624.954 186.382 625.241 186.552 625.531C189.006 629.647 192.499 633.593 197.031 637.238C199.498 639.215 202.267 641.103 205.345 642.878L206.729 643.681L300.348 697.735L352.693 727.955C368.144 736.874 388.516 741.322 408.946 741.322C413.125 741.322 417.304 741.135 421.445 740.764C437.695 739.296 453.341 734.959 465.828 727.754L550.063 679.126V707.659L601.847 677.762V649.228L791.999 539.446L843.865 509.501L844.111 509.358C853.419 503.989 859.964 497.607 863.747 490.818C866.327 486.186 867.611 481.345 867.611 476.525V505.066V505.317C867.498 517.117 859.662 528.929 844.111 537.897L735.079 600.843L727.224 605.373L519.104 725.534L511.256 730.065L465.828 756.296C450.163 765.332 429.532 769.858 408.946 769.858Z" fill="white"/>
</mask>
<g mask="url(#mask2_0_1)">
<path d="M408.946 769.858C388.523 769.858 368.144 765.408 352.693 756.489L243.151 693.249L235.303 688.718L205.345 671.417C190.29 662.731 182.58 651.347 182.209 639.861L182.184 639.849V610.415C182.184 615.116 183.411 619.799 185.853 624.305C185.916 624.426 185.985 624.543 186.054 624.664C186.212 624.954 186.382 625.241 186.552 625.531C189.006 629.647 192.499 633.593 197.031 637.238C199.498 639.215 202.267 641.103 205.345 642.878L206.729 643.681L300.348 697.735L352.693 727.955C368.144 736.874 388.516 741.322 408.946 741.322C413.125 741.322 417.304 741.135 421.445 740.764C437.695 739.296 453.341 734.959 465.828 727.754L550.063 679.126V707.659L601.847 677.762V649.228L791.999 539.446L843.865 509.501L844.111 509.358C853.419 503.989 859.964 497.607 863.747 490.818C866.327 486.186 867.611 481.345 867.611 476.525V505.066V505.317C867.498 517.117 859.662 528.929 844.111 537.897L735.079 600.843L727.224 605.373L519.104 725.534L511.256 730.065L465.828 756.296C450.163 765.332 429.532 769.858 408.946 769.858Z" fill="url(#paint2_linear_0_1)"/>
</g>
<path d="M839.277 453.303C836.055 457.979 831.171 462.308 824.632 466.076L458.899 677.269C433.189 692.108 391.273 692.159 365.708 677.42L224.861 596.105C218.467 592.435 213.74 588.207 210.518 583.624C209.007 581.414 207.849 579.093 207.05 576.782C206.446 575.023 206.037 573.26 205.892 571.453C205.741 569.892 205.741 568.282 205.942 566.721C206.037 566.116 206.144 565.454 206.245 564.857C207.296 559.572 210.317 554.392 215.194 549.709C217.913 547.046 221.236 544.581 225.157 542.314L229.739 539.696L245.996 530.288L254.203 525.561L263.159 520.376L279.409 511.017L296.565 501.105L312.822 491.697L342.711 474.442L590.896 331.13C616.606 316.29 658.573 316.24 684.081 330.985L736.973 361.52L750.209 369.174L770.386 380.797L783.572 388.442L803.8 400.117L816.985 407.713L824.934 412.295C828.71 414.511 831.976 416.871 834.595 419.437C838.623 423.213 841.285 427.336 842.701 431.615L843.047 432.52C844.104 436.146 844.306 439.822 843.551 443.492C843.299 444.95 842.846 446.361 842.241 447.765C841.537 449.677 840.536 451.489 839.277 453.303ZM860.053 417.625C856.283 412.949 851.097 408.625 844.457 404.792L843.551 404.239L833.242 398.354L820.056 390.709L799.822 379.027L786.637 371.433L766.459 359.764L753.23 352.112L697.071 319.714C666.068 301.796 615.196 301.891 583.999 319.909L407.171 422.006V426.529L318.606 477.658V473.132L299.586 484.101L283.336 493.452L266.173 503.364L249.917 512.775L232.76 522.692L216.503 532.051L207.05 537.481L205.691 538.287C198.894 542.214 193.563 546.695 189.736 551.472C184.909 557.406 182.391 563.852 182.184 570.288V571.15C182.184 575.322 183.147 579.445 185.054 583.474C185.412 584.128 185.715 584.782 186.061 585.392C187.074 587.198 188.276 588.961 189.736 590.716C193.456 595.399 198.692 599.728 205.338 603.601L206.748 604.404L352.674 688.691C383.727 706.602 434.599 706.502 465.847 688.485L843.853 470.212L844.104 470.11C850.297 466.536 855.276 462.458 858.995 458.185L860.053 456.921C861.519 455.164 862.721 453.352 863.728 451.541C866.346 446.914 867.605 442.08 867.605 437.248V436.348C867.404 429.905 864.886 423.515 860.053 417.625Z" fill="#91939E"/>
<mask id="mask3_0_1" style="mask-type:luminance" maskUnits="userSpaceOnUse" x="206" y="319" width="637" height="255">
<path d="M221.072 573.418L215.207 570.038L216.962 571.045L221.085 573.41C221.079 573.41 221.072 573.418 221.072 573.418ZM206.314 564.902L206.232 564.852L206.244 564.858L206.314 564.902ZM321.249 515.362L319.16 514.152L321.274 515.349L321.249 515.362ZM298.655 502.315L296.54 501.093L296.565 501.105L298.655 502.315ZM368.118 488.3V459.766L391.952 446.01L421.564 428.91L429.412 424.378L438.62 419.061V447.595L368.118 488.3ZM827.904 440.173L828.508 439.822L829.251 439.394L827.904 440.173ZM838.54 434.032L842.701 431.616L842.763 431.577C842.763 431.584 842.763 431.591 842.763 431.591L838.54 434.032ZM792.842 421.665L794.894 420.45L797.279 419.106L792.842 421.665ZM810.836 411.281L816.985 407.714L816.997 407.701L817.01 407.714L810.836 411.281ZM758.894 402.692L758.875 402.679L761.48 401.174L765.81 398.664L783.571 388.443L783.603 388.426H783.609L758.894 402.692ZM582.727 364.403L558.012 350.136L590.909 331.143C603.76 323.723 620.665 319.991 637.558 319.959C637.633 319.959 637.709 319.959 637.784 319.959C654.595 319.959 671.38 323.628 684.093 330.973L684.641 331.287C674.804 337.272 665.313 343.54 656.489 350.048C650.397 349.016 644.09 348.5 637.778 348.5C620.816 348.5 603.817 352.232 590.909 359.677L582.727 364.403Z" fill="white"/>
</mask>
<g mask="url(#mask3_0_1)">
<path d="M221.072 573.418L215.207 570.038L216.962 571.045L221.085 573.41C221.079 573.41 221.072 573.418 221.072 573.418ZM206.314 564.902L206.232 564.852L206.244 564.858L206.314 564.902ZM321.249 515.362L319.16 514.152L321.274 515.349L321.249 515.362ZM298.655 502.315L296.54 501.093L296.565 501.105L298.655 502.315ZM368.118 488.3V459.766L391.952 446.01L421.564 428.91L429.412 424.378L438.62 419.061V447.595L368.118 488.3ZM827.904 440.173L828.508 439.822L829.251 439.394L827.904 440.173ZM838.54 434.032L842.701 431.616L842.763 431.577C842.763 431.584 842.763 431.591 842.763 431.591L838.54 434.032ZM792.842 421.665L794.894 420.45L797.279 419.106L792.842 421.665ZM810.836 411.281L816.985 407.714L816.997 407.701L817.01 407.714L810.836 411.281ZM758.894 402.692L758.875 402.679L761.48 401.174L765.81 398.664L783.571 388.443L783.603 388.426H783.609L758.894 402.692ZM582.727 364.403L558.012 350.136L590.909 331.143C603.76 323.723 620.665 319.991 637.558 319.959C637.633 319.959 637.709 319.959 637.784 319.959C654.595 319.959 671.38 323.628 684.093 330.973L684.641 331.287C674.804 337.272 665.313 343.54 656.489 350.048C650.397 349.016 644.09 348.5 637.778 348.5C620.816 348.5 603.817 352.232 590.909 359.677L582.727 364.403Z" fill="url(#paint3_linear_0_1)"/>
</g>
<mask id="mask4_0_1" style="mask-type:luminance" maskUnits="userSpaceOnUse" x="182" y="570" width="1" height="2">
<path d="M182.184 570.295V571.15L182.209 570.271L182.184 570.295Z" fill="white"/>
</mask>
<g mask="url(#mask4_0_1)">
<path d="M182.184 570.295V571.15L182.209 570.271L182.184 570.295Z" fill="url(#paint4_linear_0_1)"/>
</g>
<mask id="mask5_0_1" style="mask-type:luminance" maskUnits="userSpaceOnUse" x="182" y="437" width="686" height="294">
<path d="M408.939 730.586C388.516 730.586 368.137 726.137 352.693 717.226L205.345 632.147C192.222 624.583 184.676 614.954 182.712 604.997C182.423 603.537 182.259 602.065 182.209 600.597L182.184 600.585V585.122V571.151C182.184 571.183 182.184 571.22 182.184 571.259C182.184 571.264 182.184 571.276 182.184 571.284C182.184 571.316 182.184 571.341 182.184 571.365C182.184 571.373 182.184 571.385 182.184 571.39C182.19 571.422 182.19 571.446 182.19 571.478C182.19 571.485 182.19 571.49 182.19 571.498C182.19 571.535 182.19 571.566 182.19 571.599C182.19 571.599 182.19 571.599 182.19 571.604C182.259 575.626 183.222 579.642 185.085 583.531C185.387 584.153 185.708 584.778 186.054 585.392C187.068 587.212 188.289 589.006 189.705 590.757C193.494 595.42 198.705 599.781 205.345 603.606L206.232 604.123L206.238 604.13L206.729 604.413L221.06 612.687L246.411 627.327L251.314 630.151L279.711 646.546L352.693 688.687C368.144 697.598 388.516 702.052 408.946 702.052C429.526 702.052 450.163 697.529 465.828 688.485L550.063 639.857V668.391L465.828 717.019C450.157 726.063 429.526 730.586 408.939 730.586ZM601.847 638.49V609.956L785.85 503.724L825.834 480.64L842.757 470.869H842.764L843.865 470.232L843.991 470.156L844.111 470.086C846.446 468.74 848.611 467.331 850.599 465.863C854.388 463.071 857.548 460.074 860.078 456.947C861.5 455.184 862.727 453.378 863.747 451.546C864.395 450.376 864.968 449.198 865.453 448.004C866.006 446.651 866.453 445.284 866.793 443.908C867.341 441.705 867.611 439.476 867.611 437.255V465.404V465.789V466.052C867.599 467.739 867.422 469.433 867.089 471.112C865.094 481.176 857.434 490.943 844.111 498.628L601.847 638.49Z" fill="white"/>
</mask>
<g mask="url(#mask5_0_1)">
<path d="M408.939 730.586C388.516 730.586 368.137 726.137 352.693 717.226L205.345 632.147C192.222 624.583 184.676 614.954 182.712 604.997C182.423 603.537 182.259 602.065 182.209 600.597L182.184 600.585V585.122V571.151C182.184 571.183 182.184 571.22 182.184 571.259C182.184 571.264 182.184 571.276 182.184 571.284C182.184 571.316 182.184 571.341 182.184 571.365C182.184 571.373 182.184 571.385 182.184 571.39C182.19 571.422 182.19 571.446 182.19 571.478C182.19 571.485 182.19 571.49 182.19 571.498C182.19 571.535 182.19 571.566 182.19 571.599C182.19 571.599 182.19 571.599 182.19 571.604C182.259 575.626 183.222 579.642 185.085 583.531C185.387 584.153 185.708 584.778 186.054 585.392C187.068 587.212 188.289 589.006 189.705 590.757C193.494 595.42 198.705 599.781 205.345 603.606L206.232 604.123L206.238 604.13L206.729 604.413L221.06 612.687L246.411 627.327L251.314 630.151L279.711 646.546L352.693 688.687C368.144 697.598 388.516 702.052 408.946 702.052C429.526 702.052 450.163 697.529 465.828 688.485L550.063 639.857V668.391L465.828 717.019C450.157 726.063 429.526 730.586 408.939 730.586ZM601.847 638.49V609.956L785.85 503.724L825.834 480.64L842.757 470.869H842.764L843.865 470.232L843.991 470.156L844.111 470.086C846.446 468.74 848.611 467.331 850.599 465.863C854.388 463.071 857.548 460.074 860.078 456.947C861.5 455.184 862.727 453.378 863.747 451.546C864.395 450.376 864.968 449.198 865.453 448.004C866.006 446.651 866.453 445.284 866.793 443.908C867.341 441.705 867.611 439.476 867.611 437.255V465.404V465.789V466.052C867.599 467.739 867.422 469.433 867.089 471.112C865.094 481.176 857.434 490.943 844.111 498.628L601.847 638.49Z" fill="url(#paint5_linear_0_1)"/>
</g>
<path d="M860.26 378.631C856.484 373.85 851.254 369.425 844.457 365.496L843.651 365.052L833.89 359.406L820.66 351.759L800.483 340.142L787.241 332.489L697.071 280.462C666.068 262.551 615.196 262.646 583.999 280.664L407.171 382.754V397.951L590.896 291.885C616.606 277.039 658.573 276.944 684.081 291.677L770.99 341.898L784.226 349.5L804.404 361.174L817.583 368.82L824.934 373.043C828.855 375.315 832.228 377.828 834.846 380.495C838.868 384.315 841.537 388.494 842.902 392.774L843.047 393.219C844.104 396.85 844.306 400.569 843.551 404.239C842.902 407.569 841.486 410.885 839.277 414.056C837.968 415.919 836.458 417.731 834.595 419.437C831.882 422.107 828.553 424.573 824.632 426.832L819.647 429.703L815.273 432.22L812.655 433.73L458.899 637.968C433.189 652.814 391.273 652.915 365.708 638.17L237.14 563.953L233.219 561.686L227.983 558.665L224.861 556.853C221.035 554.695 217.812 552.278 215.194 549.709C213.388 547.998 211.827 546.191 210.518 544.328C209.007 542.12 207.805 539.849 207.05 537.481C205.892 534.165 205.533 530.792 205.942 527.42L206.144 526.065C207.094 520.679 210.015 515.443 214.898 510.718C217.668 507.947 221.085 505.385 225.157 503.02L229.084 500.754L245.341 491.339L262.548 481.434L278.805 472.075L318.606 449.073V433.88L265.619 464.479L249.369 473.831L232.212 483.743L215.956 493.101L206.893 498.337L205.691 499.043C198.742 503.02 193.361 507.596 189.535 512.478C184.852 518.311 182.391 524.656 182.184 530.994V531.893C182.184 536.678 183.493 541.511 186.061 546.142C187.074 547.947 188.276 549.709 189.736 551.472C193.456 556.155 198.692 560.477 205.338 564.353L206.245 564.857L206.748 565.16L211.726 568.029L216.963 571.045L221.085 573.41L352.674 649.39C383.727 667.306 434.599 667.205 465.847 649.24L825.84 441.383L828.509 439.822L832.832 437.349L842.701 431.615L843.853 430.962L844.104 430.809C850.895 426.889 856.232 422.41 860.053 417.625C861.519 415.919 862.721 414.107 863.728 412.296C866.346 407.664 867.605 402.784 867.605 398.003V397.047C867.404 390.759 864.943 384.472 860.26 378.631Z" fill="#91939E"/>
<path d="M278.805 472.075L318.606 449.073V477.658L303.514 486.361L287.263 495.719L271.856 504.623L270.1 505.639L253.844 515.047L244.938 520.175L236.687 524.959L225.157 531.599C223.546 532.503 222.042 533.455 220.682 534.467C216.359 537.481 212.935 540.805 210.518 544.328C209.007 542.12 207.805 539.849 207.05 537.481C205.892 534.165 205.533 530.792 205.942 527.42L206.144 526.065C207.094 520.679 210.015 515.443 214.898 510.718C217.668 507.947 221.085 505.385 225.157 503.02L229.084 500.754L245.341 491.339L262.548 481.434L278.805 472.075Z" fill="#BBBBC2"/>
<mask id="mask6_0_1" style="mask-type:luminance" maskUnits="userSpaceOnUse" x="407" y="280" width="421" height="147">
<path d="M407.189 426.473V397.946L438.62 379.797V408.323L407.189 426.473ZM826.249 402.384C826.242 402.377 826.242 402.377 826.242 402.377L827.463 401.678L826.249 402.384ZM792.892 383.061L792.873 383.056L799.821 379.027L812.528 371.728L792.892 383.061ZM548.709 344.768L524 330.501L590.896 291.885C603.817 284.427 620.841 280.689 637.822 280.689C654.632 280.689 671.392 284.345 684.08 291.677L719.218 311.979C710.703 316.372 702.181 320.998 693.823 325.837L684.08 320.211C671.392 312.879 654.626 309.217 637.822 309.217C620.841 309.217 603.817 312.955 590.896 320.412L548.709 344.768Z" fill="white"/>
</mask>
<g mask="url(#mask6_0_1)">
<path d="M407.189 426.473V397.946L438.62 379.797V408.323L407.189 426.473ZM826.249 402.384C826.242 402.377 826.242 402.377 826.242 402.377L827.463 401.678L826.249 402.384ZM792.892 383.061L792.873 383.056L799.821 379.027L812.528 371.728L792.892 383.061ZM548.709 344.768L524 330.501L590.896 291.885C603.817 284.427 620.841 280.689 637.822 280.689C654.632 280.689 671.392 284.345 684.08 291.677L719.218 311.979C710.703 316.372 702.181 320.998 693.823 325.837L684.08 320.211C671.392 312.879 654.626 309.217 637.822 309.217C620.841 309.217 603.817 312.955 590.896 320.412L548.709 344.768Z" fill="url(#paint6_linear_0_1)"/>
</g>
<mask id="mask7_0_1" style="mask-type:luminance" maskUnits="userSpaceOnUse" x="182" y="531" width="1" height="1">
<path d="M182.184 531.025V531.881L182.209 531.006L182.184 531.025Z" fill="white"/>
</mask>
<g mask="url(#mask7_0_1)">
<path d="M182.184 531.025V531.881L182.209 531.006L182.184 531.025Z" fill="url(#paint7_linear_0_1)"/>
</g>
<mask id="mask8_0_1" style="mask-type:luminance" maskUnits="userSpaceOnUse" x="182" y="397" width="686" height="295">
<path d="M408.946 691.321C388.523 691.321 368.144 686.867 352.693 677.948L318.606 658.269V629.735L352.693 649.415C368.137 658.333 388.51 662.783 408.933 662.783C418.927 662.783 428.928 661.718 438.369 659.585C448.382 657.325 457.76 653.864 465.828 649.213L500.563 629.158V657.697L465.828 677.754C450.163 686.798 429.532 691.321 408.946 691.321ZM230.047 607.136L205.345 592.875C192.228 585.311 184.682 575.689 182.719 565.74C182.429 564.273 182.259 562.8 182.209 561.32L182.184 561.308V540.087V531.894V531.882C182.184 532.354 182.196 532.826 182.222 533.298C182.36 535.872 182.864 538.445 183.738 540.982C184.336 542.718 185.11 544.436 186.054 546.123C187.074 547.947 188.295 549.748 189.717 551.497C191.31 553.461 193.147 555.361 195.243 557.2C195.293 557.237 195.344 557.281 195.388 557.325C195.388 557.325 195.388 557.325 195.394 557.325C195.873 557.745 196.37 558.161 196.88 558.577C196.886 558.577 196.886 558.577 196.886 558.577C196.942 558.621 196.993 558.665 197.049 558.709L197.056 558.716C197.106 558.753 197.15 558.791 197.201 558.83C197.226 558.854 197.257 558.879 197.289 558.903C197.301 558.911 197.314 558.923 197.326 558.93C198.283 559.69 199.29 560.433 200.335 561.17C201.902 562.259 203.576 563.316 205.345 564.341L206.175 564.821L206.232 564.852L206.314 564.902L206.729 565.14L215.207 570.037L221.072 573.418L230.047 578.602V607.136ZM601.847 599.225V570.686L827.904 440.173L829.251 439.394L838.541 434.032L842.764 431.591L843.865 430.955L844.111 430.822C850.908 426.896 856.232 422.434 860.084 417.663C861.506 415.907 862.727 414.108 863.747 412.281C864.024 411.78 864.288 411.276 864.54 410.771C865.553 408.695 866.321 406.593 866.837 404.466C867.353 402.32 867.611 400.149 867.611 397.983V426.517V426.775C867.611 427.179 867.599 427.575 867.573 427.972C867.504 429.268 867.341 430.564 867.089 431.854C865.088 441.911 857.428 451.678 844.111 459.356L601.847 599.225Z" fill="white"/>
</mask>
<g mask="url(#mask8_0_1)">
<path d="M408.946 691.321C388.523 691.321 368.144 686.867 352.693 677.948L318.606 658.269V629.735L352.693 649.415C368.137 658.333 388.51 662.783 408.933 662.783C418.927 662.783 428.928 661.718 438.369 659.585C448.382 657.325 457.76 653.864 465.828 649.213L500.563 629.158V657.697L465.828 677.754C450.163 686.798 429.532 691.321 408.946 691.321ZM230.047 607.136L205.345 592.875C192.228 585.311 184.682 575.689 182.719 565.74C182.429 564.273 182.259 562.8 182.209 561.32L182.184 561.308V540.087V531.894V531.882C182.184 532.354 182.196 532.826 182.222 533.298C182.36 535.872 182.864 538.445 183.738 540.982C184.336 542.718 185.11 544.436 186.054 546.123C187.074 547.947 188.295 549.748 189.717 551.497C191.31 553.461 193.147 555.361 195.243 557.2C195.293 557.237 195.344 557.281 195.388 557.325C195.388 557.325 195.388 557.325 195.394 557.325C195.873 557.745 196.37 558.161 196.88 558.577C196.886 558.577 196.886 558.577 196.886 558.577C196.942 558.621 196.993 558.665 197.049 558.709L197.056 558.716C197.106 558.753 197.15 558.791 197.201 558.83C197.226 558.854 197.257 558.879 197.289 558.903C197.301 558.911 197.314 558.923 197.326 558.93C198.283 559.69 199.29 560.433 200.335 561.17C201.902 562.259 203.576 563.316 205.345 564.341L206.175 564.821L206.232 564.852L206.314 564.902L206.729 565.14L215.207 570.037L221.072 573.418L230.047 578.602V607.136ZM601.847 599.225V570.686L827.904 440.173L829.251 439.394L838.541 434.032L842.764 431.591L843.865 430.955L844.111 430.822C850.908 426.896 856.232 422.434 860.084 417.663C861.506 415.907 862.727 414.108 863.747 412.281C864.024 411.78 864.288 411.276 864.54 410.771C865.553 408.695 866.321 406.593 866.837 404.466C867.353 402.32 867.611 400.149 867.611 397.983V426.517V426.775C867.611 427.179 867.599 427.575 867.573 427.972C867.504 429.268 867.341 430.564 867.089 431.854C865.088 441.911 857.428 451.678 844.111 459.356L601.847 599.225Z" fill="url(#paint8_linear_0_1)"/>
</g>
<path d="M860.361 339.985C856.585 335.208 851.304 330.734 844.457 326.756L843.651 326.303L834.047 320.771L820.805 313.118L697.071 241.721C666.068 223.804 615.196 223.854 583.999 241.916L407.171 344.013V359.211L590.896 253.137C616.606 238.297 658.573 238.196 684.081 252.935L804.555 322.477L817.79 330.123L824.934 334.252C828.905 336.561 832.279 339.085 834.947 341.797C838.975 345.674 841.593 349.903 842.946 354.176L843.047 354.478C844.104 357.952 844.306 361.521 843.651 365.052C842.997 368.513 841.537 371.986 839.277 375.316C838.069 377.071 836.558 378.833 834.846 380.495C832.077 383.207 828.66 385.78 824.632 388.091L820.056 390.709L813.108 394.736L803.8 400.118L786.083 410.332L781.709 412.841L779.091 414.359L458.899 599.225C433.189 614.066 391.273 614.172 365.708 599.427L270.705 544.581L266.777 542.315L261.547 539.293L245.996 530.289L236.687 524.959L232.76 522.692L224.861 518.11C220.94 515.851 217.611 513.328 214.898 510.718C213.187 509.056 211.726 507.343 210.518 505.583C208.907 503.223 207.705 500.803 206.893 498.338C205.892 495.171 205.533 491.9 205.942 488.676L206.144 487.469C207.05 482.081 209.964 476.802 214.798 472.026C217.561 469.25 221.035 466.689 225.157 464.272L228.99 462.062L245.24 452.698L318.606 410.332V395.135L232.055 445.102L215.805 454.461L206.843 459.59L205.691 460.3C198.692 464.272 193.261 468.904 189.484 473.831C184.802 479.672 182.391 485.957 182.184 492.251V493.102C182.184 497.934 183.493 502.762 186.061 507.394C187.017 509.105 188.175 510.816 189.535 512.478C193.311 517.255 198.591 521.68 205.338 525.605L206.144 526.065L206.748 526.412L216.503 532.051L220.682 534.468L229.739 539.697L245.291 548.652L250.527 551.674L254.448 553.933L352.674 610.649C383.727 628.558 434.599 628.46 465.847 610.448L792.276 422.006L794.894 420.45L799.268 417.984L816.985 407.714L826.243 402.377L833.242 398.355L842.902 392.775L843.853 392.219L844.104 392.069C851.053 388.039 856.434 383.509 860.26 378.631C861.613 376.969 862.778 375.259 863.728 373.548C866.346 368.872 867.605 364.044 867.605 359.261V358.298C867.404 352.011 864.993 345.775 860.361 339.985Z" fill="#91939E"/>
<path d="M245.24 452.699L318.606 410.332V438.858L269.949 466.94L253.699 476.348L236.536 486.26L225.157 492.807C223.502 493.756 221.941 494.763 220.531 495.771C216.251 498.79 212.935 502.114 210.518 505.583C208.907 503.223 207.705 500.804 206.893 498.338C205.892 495.172 205.533 491.9 205.942 488.676L206.144 487.469C207.05 482.081 209.964 476.803 214.798 472.026C217.561 469.251 221.035 466.689 225.157 464.273L228.99 462.062L245.24 452.699Z" fill="#BBBBC2"/>
<mask id="mask9_0_1" style="mask-type:luminance" maskUnits="userSpaceOnUse" x="407" y="241" width="349" height="147">
<path d="M407.189 387.732V359.198L438.62 341.054V369.582L407.189 387.732ZM515.158 325.396L490.449 311.13L590.896 253.136C603.817 245.679 620.848 241.941 637.828 241.941C654.632 241.941 671.392 245.603 684.08 252.935L755.835 294.351C747.024 298.323 737.891 302.615 728.659 307.202L684.08 281.463C671.392 274.137 654.626 270.475 637.822 270.475C620.841 270.475 603.817 274.206 590.896 281.67L515.158 325.396Z" fill="white"/>
</mask>
<g mask="url(#mask9_0_1)">
<path d="M407.189 387.732V359.198L438.62 341.054V369.582L407.189 387.732ZM515.158 325.396L490.449 311.13L590.896 253.136C603.817 245.679 620.848 241.941 637.828 241.941C654.632 241.941 671.392 245.603 684.08 252.935L755.835 294.351C747.024 298.323 737.891 302.615 728.659 307.202L684.08 281.463C671.392 274.137 654.626 270.475 637.822 270.475C620.841 270.475 603.817 274.206 590.896 281.67L515.158 325.396Z" fill="url(#paint9_linear_0_1)"/>
</g>
<mask id="mask10_0_1" style="mask-type:luminance" maskUnits="userSpaceOnUse" x="182" y="492" width="1" height="2">
<path d="M182.184 492.278V493.126L182.209 492.258L182.184 492.278Z" fill="white"/>
</mask>
<g mask="url(#mask10_0_1)">
<path d="M182.184 492.278V493.126L182.209 492.258L182.184 492.278Z" fill="url(#paint10_linear_0_1)"/>
</g>
<mask id="mask11_0_1" style="mask-type:luminance" maskUnits="userSpaceOnUse" x="182" y="359" width="686" height="294">
<path d="M408.946 652.568C388.523 652.568 368.144 648.119 352.693 639.2L318.606 619.521V590.987L318.883 591.145L352.693 610.666C368.144 619.577 388.516 624.027 408.939 624.027C413.886 624.027 418.846 623.769 423.729 623.248C439.162 621.594 453.927 617.331 465.828 610.465L500.563 590.41V618.948L465.828 639.006C450.163 648.043 429.532 652.568 408.946 652.568ZM230.047 568.388L205.345 554.127C192.109 546.494 184.55 536.771 182.662 526.726C182.404 525.347 182.253 523.958 182.209 522.575L182.184 522.559V520.34V493.126C182.184 497.947 183.474 502.762 186.054 507.374C187.024 509.112 188.175 510.831 189.516 512.505C191.92 515.512 194.916 518.395 198.503 521.094C200.587 522.66 202.865 524.16 205.345 525.593L206.729 526.387L230.047 539.854V568.388ZM601.847 560.477V531.931L614.517 524.62L792.842 421.665L797.279 419.106L810.836 411.281L817.01 407.714L826.249 402.384L827.464 401.678L843.865 392.206L843.947 392.162L844.111 392.073C851.027 388.079 856.421 383.528 860.285 378.664C861.62 376.985 862.778 375.266 863.747 373.521C864.175 372.754 864.571 371.974 864.93 371.193C865.471 370.01 865.931 368.815 866.308 367.613C867.177 364.843 867.611 362.037 867.611 359.236V387.769V388.027C867.599 389.64 867.441 391.25 867.133 392.856C865.213 403.001 857.541 412.862 844.111 420.607L601.847 560.477Z" fill="white"/>
</mask>
<g mask="url(#mask11_0_1)">
<path d="M408.946 652.568C388.523 652.568 368.144 648.119 352.693 639.2L318.606 619.521V590.987L318.883 591.145L352.693 610.666C368.144 619.577 388.516 624.027 408.939 624.027C413.886 624.027 418.846 623.769 423.729 623.248C439.162 621.594 453.927 617.331 465.828 610.465L500.563 590.41V618.948L465.828 639.006C450.163 648.043 429.532 652.568 408.946 652.568ZM230.047 568.388L205.345 554.127C192.109 546.494 184.55 536.771 182.662 526.726C182.404 525.347 182.253 523.958 182.209 522.575L182.184 522.559V520.34V493.126C182.184 497.947 183.474 502.762 186.054 507.374C187.024 509.112 188.175 510.831 189.516 512.505C191.92 515.512 194.916 518.395 198.503 521.094C200.587 522.66 202.865 524.16 205.345 525.593L206.729 526.387L230.047 539.854V568.388ZM601.847 560.477V531.931L614.517 524.62L792.842 421.665L797.279 419.106L810.836 411.281L817.01 407.714L826.249 402.384L827.464 401.678L843.865 392.206L843.947 392.162L844.111 392.073C851.027 388.079 856.421 383.528 860.285 378.664C861.62 376.985 862.778 375.266 863.747 373.521C864.175 372.754 864.571 371.974 864.93 371.193C865.471 370.01 865.931 368.815 866.308 367.613C867.177 364.843 867.611 362.037 867.611 359.236V387.769V388.027C867.599 389.64 867.441 391.25 867.133 392.856C865.213 403.001 857.541 412.862 844.111 420.607L601.847 560.477Z" fill="url(#paint11_linear_0_1)"/>
</g>
<path d="M839.277 336.718C838.069 338.48 836.609 340.192 834.947 341.797C832.184 344.566 828.71 347.134 824.632 349.5L820.66 351.759L813.259 356.089L804.404 361.174L786.637 371.434L779.695 375.46L770.386 380.797L752.626 391.056L748.296 393.578L745.677 395.083L458.899 560.686C433.189 575.524 391.273 575.576 365.708 560.831L304.112 525.261L300.191 523.046L279.409 511.017L270.1 505.639L269.993 505.582L266.173 503.365L245.341 491.339L236.536 486.26L232.212 483.743L224.861 479.522C220.884 477.203 217.517 474.693 214.798 472.026C213.136 470.413 211.726 468.746 210.518 467.041C208.863 464.624 207.648 462.114 206.843 459.589C206.194 457.475 205.842 455.317 205.785 453.151C205.741 452.15 205.785 451.093 205.942 450.08L206.087 448.979L206.144 448.871C206.496 446.708 207.195 444.598 208.202 442.484C209.712 439.362 211.928 436.297 214.848 433.427C217.611 430.665 221.085 428.091 225.157 425.726L318.606 371.79V362.024L391.418 320.016L407.171 310.903V320.614L590.896 214.546C599.248 209.713 609.312 206.49 619.98 204.785C623.649 204.181 627.419 203.778 631.201 203.526C633.561 203.426 636.035 203.331 638.445 203.375C655.048 203.476 671.556 207.151 684.081 214.395L824.934 295.705C828.905 298.021 832.279 300.538 834.947 303.257C838.975 307.133 841.593 311.306 842.946 315.636L843.047 315.938C844.054 319.355 844.262 322.829 843.651 326.303C843.047 329.821 841.593 333.345 839.277 336.718ZM860.361 301.394C856.585 296.561 851.304 292.086 844.457 288.159L843.651 287.712L697.071 203.124C686.246 196.887 673.017 192.809 659.026 190.946C657.364 190.694 655.659 190.543 653.991 190.392C651.278 190.09 648.61 189.945 645.891 189.838C623.705 189.033 600.954 193.564 583.999 203.331L206.843 420.998L205.691 421.704C198.692 425.726 193.261 430.305 189.484 435.239C184.802 441.076 182.391 447.369 182.184 453.655V454.562C182.184 455.518 182.24 456.474 182.341 457.431C182.492 458.985 182.845 460.597 183.241 462.158C183.6 463.265 183.996 464.373 184.456 465.479C184.909 466.588 185.463 467.69 186.061 468.803C187.017 470.514 188.131 472.171 189.484 473.831C193.261 478.614 198.541 483.089 205.338 487.014L206.144 487.469L206.748 487.821L215.956 493.101L220.531 495.771L229.084 500.754L249.917 512.775L252.484 514.241L253.844 515.047L263.159 520.377L283.934 532.398L287.811 534.669L352.674 572.102C383.727 589.97 434.599 589.913 465.847 571.901L758.863 402.686L761.481 401.174L765.811 398.664L783.572 388.443L792.874 383.056L799.822 379.027L817.583 368.82L826.394 363.742L833.89 359.406L842.946 354.176L843.853 353.622L844.104 353.471C851.097 349.443 856.534 344.868 860.361 339.985C861.664 338.329 862.778 336.668 863.728 334.95C866.346 330.324 867.605 325.491 867.605 320.664V319.758C867.404 313.471 864.993 307.228 860.361 301.394Z" fill="#91939E"/>
<path d="M225.157 425.725L318.606 371.79V400.319L236.536 447.668L225.157 454.264C223.502 455.215 221.941 456.221 220.531 457.173C216.252 460.25 212.935 463.567 210.518 467.041C208.863 464.624 207.648 462.113 206.843 459.589C206.194 457.475 205.842 455.317 205.785 453.15C205.741 452.15 205.785 451.093 205.942 450.08L206.087 448.979L206.144 448.87C206.496 446.707 207.195 444.598 208.202 442.484C209.712 439.362 211.928 436.296 214.848 433.427C217.611 430.664 221.085 428.09 225.157 425.725Z" fill="#BBBBC2"/>
<mask id="mask12_0_1" style="mask-type:luminance" maskUnits="userSpaceOnUse" x="407" y="203" width="388" height="147">
<path d="M407.189 349.135V320.601L438.62 302.458V330.985L407.189 349.135ZM481.732 306.101L457.023 291.834L590.896 214.546C599.248 209.713 609.311 206.491 619.979 204.785C623.648 204.181 627.418 203.778 631.201 203.526C633.127 203.445 635.128 203.363 637.111 203.363C637.557 203.363 638.004 203.369 638.445 203.375C655.048 203.476 671.556 207.151 684.08 214.395L794.333 278.039C785.661 281.494 775.956 285.503 765.634 290.003L684.08 242.923C671.373 235.578 654.569 231.903 637.734 231.903C620.785 231.903 603.798 235.629 590.896 243.08L481.732 306.101Z" fill="white"/>
</mask>
<g mask="url(#mask12_0_1)">
<path d="M407.189 349.135V320.601L438.62 302.458V330.985L407.189 349.135ZM481.732 306.101L457.023 291.834L590.896 214.546C599.248 209.713 609.311 206.491 619.979 204.785C623.648 204.181 627.418 203.778 631.201 203.526C633.127 203.445 635.128 203.363 637.111 203.363C637.557 203.363 638.004 203.369 638.445 203.375C655.048 203.476 671.556 207.151 684.08 214.395L794.333 278.039C785.661 281.494 775.956 285.503 765.634 290.003L684.08 242.923C671.373 235.578 654.569 231.903 637.734 231.903C620.785 231.903 603.798 235.629 590.896 243.08L481.732 306.101Z" fill="url(#paint12_linear_0_1)"/>
</g>
<mask id="mask13_0_1" style="mask-type:luminance" maskUnits="userSpaceOnUse" x="182" y="453" width="1" height="2">
<path d="M182.184 453.699V454.547L182.209 453.679L182.184 453.699Z" fill="white"/>
</mask>
<g mask="url(#mask13_0_1)">
<path d="M182.184 453.699V454.547L182.209 453.679L182.184 453.699Z" fill="url(#paint13_linear_0_1)"/>
</g>
<mask id="mask14_0_1" style="mask-type:luminance" maskUnits="userSpaceOnUse" x="182" y="320" width="686" height="294">
<path d="M408.946 613.997C388.523 613.997 368.144 609.54 352.693 600.624L318.606 580.945V552.411L352.693 572.09C359.106 575.79 366.375 578.722 374.141 580.886C384.123 583.669 394.936 585.178 405.83 585.419C406.862 585.444 407.901 585.456 408.933 585.456C429.52 585.456 450.157 580.93 465.828 571.888L500.563 551.831V580.372L465.828 600.427C450.163 609.472 429.532 613.997 408.946 613.997ZM230.047 529.812L205.345 515.551C192.071 507.898 184.506 498.136 182.65 488.059C182.467 487.086 182.341 486.103 182.272 485.122C182.24 484.743 182.222 484.372 182.209 483.996L182.184 483.983V454.562V454.547C182.184 454.623 182.184 454.7 182.184 454.769C182.184 454.776 182.184 454.781 182.184 454.788C182.19 454.813 182.19 454.837 182.19 454.864C182.19 454.881 182.19 454.901 182.19 454.921C182.203 455.769 182.253 456.612 182.341 457.455C182.41 458.06 182.492 458.67 182.599 459.275C182.687 459.771 182.788 460.263 182.901 460.754C183.078 461.497 183.279 462.244 183.518 462.987C184.141 464.951 184.985 466.89 186.054 468.796C187.011 470.514 188.15 472.208 189.466 473.858C192.31 477.432 195.992 480.836 200.505 483.956C202.022 485.008 203.633 486.028 205.345 487.015L205.54 487.13L206.144 487.474L206.729 487.821L220.519 495.783L223.81 497.684L230.047 501.283V529.812ZM601.847 521.9V493.36L610.161 488.558L684.874 445.424L724.883 422.326L749.604 408.053L758.894 402.691L783.609 388.426L792.892 383.061L812.529 371.728L843.28 353.975L843.865 353.635L844.111 353.496C848.195 351.136 851.751 348.581 854.772 345.882C856.509 344.333 858.07 342.735 859.455 341.099C859.769 340.734 860.071 340.362 860.361 339.991C861.657 338.348 862.784 336.674 863.728 334.975C863.734 334.969 863.741 334.956 863.747 334.95C864.137 334.245 864.496 333.54 864.829 332.835C865.818 330.708 866.548 328.55 867.007 326.372C867.196 325.51 867.334 324.642 867.435 323.773C867.555 322.735 867.611 321.696 867.611 320.658V323.666V332.735V349.192V349.45C867.599 351.03 867.448 352.609 867.152 354.176C865.264 364.359 857.579 374.266 844.111 382.031L601.847 521.9Z" fill="white"/>
</mask>
<g mask="url(#mask14_0_1)">
<path d="M408.946 613.997C388.523 613.997 368.144 609.54 352.693 600.624L318.606 580.945V552.411L352.693 572.09C359.106 575.79 366.375 578.722 374.141 580.886C384.123 583.669 394.936 585.178 405.83 585.419C406.862 585.444 407.901 585.456 408.933 585.456C429.52 585.456 450.157 580.93 465.828 571.888L500.563 551.831V580.372L465.828 600.427C450.163 609.472 429.532 613.997 408.946 613.997ZM230.047 529.812L205.345 515.551C192.071 507.898 184.506 498.136 182.65 488.059C182.467 487.086 182.341 486.103 182.272 485.122C182.24 484.743 182.222 484.372 182.209 483.996L182.184 483.983V454.562V454.547C182.184 454.623 182.184 454.7 182.184 454.769C182.184 454.776 182.184 454.781 182.184 454.788C182.19 454.813 182.19 454.837 182.19 454.864C182.19 454.881 182.19 454.901 182.19 454.921C182.203 455.769 182.253 456.612 182.341 457.455C182.41 458.06 182.492 458.67 182.599 459.275C182.687 459.771 182.788 460.263 182.901 460.754C183.078 461.497 183.279 462.244 183.518 462.987C184.141 464.951 184.985 466.89 186.054 468.796C187.011 470.514 188.15 472.208 189.466 473.858C192.31 477.432 195.992 480.836 200.505 483.956C202.022 485.008 203.633 486.028 205.345 487.015L205.54 487.13L206.144 487.474L206.729 487.821L220.519 495.783L223.81 497.684L230.047 501.283V529.812ZM601.847 521.9V493.36L610.161 488.558L684.874 445.424L724.883 422.326L749.604 408.053L758.894 402.691L783.609 388.426L792.892 383.061L812.529 371.728L843.28 353.975L843.865 353.635L844.111 353.496C848.195 351.136 851.751 348.581 854.772 345.882C856.509 344.333 858.07 342.735 859.455 341.099C859.769 340.734 860.071 340.362 860.361 339.991C861.657 338.348 862.784 336.674 863.728 334.975C863.734 334.969 863.741 334.956 863.747 334.95C864.137 334.245 864.496 333.54 864.829 332.835C865.818 330.708 866.548 328.55 867.007 326.372C867.196 325.51 867.334 324.642 867.435 323.773C867.555 322.735 867.611 321.696 867.611 320.658V323.666V332.735V349.192V349.45C867.599 351.03 867.448 352.609 867.152 354.176C865.264 364.359 857.579 374.266 844.111 382.031L601.847 521.9Z" fill="url(#paint14_linear_0_1)"/>
</g>
<mask id="mask15_0_1" style="mask-type:luminance" maskUnits="userSpaceOnUse" x="205" y="164" width="629" height="265">
<path d="M210.537 428.449C210.19 427.953 209.863 427.456 209.555 426.952C208.384 425.013 207.484 423.039 206.842 420.998C206.553 420.099 206.326 419.191 206.15 418.287C205.804 416.404 205.697 414.511 205.829 412.615C205.86 412.257 205.892 411.897 205.942 411.539C207 402.627 213.438 393.932 225.157 387.135L296.2 346.121L296.213 346.127V374.636L225.144 415.669C218.63 419.432 213.765 423.794 210.537 428.449ZM360.125 337.744V309.21L503.15 226.636L510.991 222.111L590.909 175.974C603.817 168.517 620.816 164.791 637.784 164.791C645.998 164.791 654.204 165.666 661.933 167.415C670.027 169.253 677.586 172.047 684.081 175.804L824.934 257.114C824.952 257.127 824.971 257.139 824.99 257.146C825.727 257.574 826.438 258.002 827.13 258.442C827.583 258.738 828.024 259.034 828.458 259.329C829.566 260.085 830.623 260.84 831.63 261.645C832.329 262.249 833.034 262.854 833.688 263.452C833.059 263.647 821.869 267.379 804.718 273.98L684.093 204.338C671.374 196.994 654.595 193.325 637.778 193.325C620.816 193.325 603.817 197.057 590.909 204.508L448.331 286.819L438.62 281.211V292.426L360.125 337.744Z" fill="white"/>
</mask>
<g mask="url(#mask15_0_1)">
<path d="M210.537 428.449C210.19 427.953 209.863 427.456 209.555 426.952C208.384 425.013 207.484 423.039 206.842 420.998C206.553 420.099 206.326 419.191 206.15 418.287C205.804 416.404 205.697 414.511 205.829 412.615C205.86 412.257 205.892 411.897 205.942 411.539C207 402.627 213.438 393.932 225.157 387.135L296.2 346.121L296.213 346.127V374.636L225.144 415.669C218.63 419.432 213.765 423.794 210.537 428.449ZM360.125 337.744V309.21L503.15 226.636L510.991 222.111L590.909 175.974C603.817 168.517 620.816 164.791 637.784 164.791C645.998 164.791 654.204 165.666 661.933 167.415C670.027 169.253 677.586 172.047 684.081 175.804L824.934 257.114C824.952 257.127 824.971 257.139 824.99 257.146C825.727 257.574 826.438 258.002 827.13 258.442C827.583 258.738 828.024 259.034 828.458 259.329C829.566 260.085 830.623 260.84 831.63 261.645C832.329 262.249 833.034 262.854 833.688 263.452C833.059 263.647 821.869 267.379 804.718 273.98L684.093 204.338C671.374 196.994 654.595 193.325 637.778 193.325C620.816 193.325 603.817 197.057 590.909 204.508L448.331 286.819L438.62 281.211V292.426L360.125 337.744Z" fill="url(#paint15_linear_0_1)"/>
</g>
<path d="M670.599 415.116L656.162 423.466L608.298 451.093L492.821 517.758L479.529 510.162L438.62 486.865V281.211L657.314 407.463L670.599 415.116Z" fill="#828390"/>
<path d="M528.897 481.66L581.248 429.276L657.314 407.463L603.975 438.305L577.982 453.316L528.897 481.66Z" fill="#69676B"/>
<path d="M843.651 287.712C843.047 291.281 841.593 294.805 839.277 298.122C838.069 299.884 836.609 301.596 834.947 303.257C832.184 305.976 828.71 308.587 824.632 310.903L820.805 313.119L813.259 317.499L804.555 322.477L787.241 332.489L779.846 336.769L770.99 341.898L753.23 352.112L746.281 356.14L736.973 361.521L719.206 371.79L714.882 374.302L712.264 375.762L676.944 396.191L657.314 407.463L603.975 438.305L479.53 510.162L458.899 522.087C433.189 536.928 391.273 536.977 365.708 522.24L337.531 505.983L333.654 503.724L312.822 491.698L305.924 487.72L303.514 486.361L299.586 484.102L278.805 472.076L269.949 466.94L265.619 464.479L245.24 452.698L236.536 447.669L232.055 445.102L225.919 441.528L224.861 440.924C224.056 440.471 223.25 439.967 222.495 439.463C221.035 438.559 219.675 437.607 218.417 436.599C217.107 435.594 215.956 434.537 214.848 433.428C213.187 431.867 211.726 430.156 210.518 428.445C208.863 426.029 207.648 423.567 206.843 420.998C205.842 417.876 205.533 414.705 205.942 411.539C207 402.627 213.438 393.933 225.157 387.135L590.896 175.955C616.606 161.103 658.573 161.059 684.081 175.804L824.934 257.114C826.192 257.819 827.351 258.574 828.458 259.329C829.566 260.085 830.623 260.84 831.63 261.645C832.329 262.25 833.034 262.854 833.688 263.452L835.149 264.811C835.897 265.516 836.609 266.271 837.206 267.026C837.867 267.731 838.421 268.436 838.925 269.191C839.479 269.896 839.925 270.601 840.335 271.356L840.983 272.514C841.436 273.219 841.738 273.867 842.04 274.578C842.449 275.478 842.795 276.441 843.047 277.341C844.054 280.765 844.262 284.238 843.651 287.712ZM844.457 249.619L697.071 164.527C666.068 146.616 615.196 146.717 583.999 164.734L205.691 383.113C190.391 391.968 182.593 403.49 182.184 415.116V415.971C182.184 420.797 183.493 425.63 186.061 430.205C187.017 431.918 188.131 433.573 189.484 435.239C192.556 439.161 196.678 442.888 201.763 446.204C202.922 446.958 204.08 447.713 205.338 448.426L206.144 448.871L206.194 448.927L206.748 449.23L209.668 450.936L215.805 454.461L220.531 457.173L228.99 462.062L249.369 473.831L253.699 476.348L262.548 481.434L283.336 493.453L287.263 495.72L288.415 496.425L296.565 501.105L317.353 513.135L321.274 515.349L352.674 533.512C383.727 551.423 434.599 551.322 465.847 533.31L492.822 517.758L608.298 451.094L670.6 415.116L690.173 403.845L725.5 383.416L728.118 381.898L732.442 379.438L750.209 369.175L759.517 363.793L766.459 359.765L784.226 349.5L793.031 344.415L800.483 340.142L817.79 330.123L826.444 325.145L834.047 320.771L842.946 315.636L843.853 315.076L844.104 314.931C851.097 310.903 856.534 306.278 860.361 301.394C861.664 299.733 862.778 298.071 863.728 296.366C865.497 293.244 866.648 290.022 867.152 286.8C867.454 285.239 867.605 283.628 867.605 282.074V281.167C867.202 269.695 859.499 258.272 844.457 249.619ZM303.514 486.361L287.263 495.72L288.415 496.425L305.924 487.72L303.514 486.361Z" fill="#DDDEDE"/>
<mask id="mask16_0_1" style="mask-type:luminance" maskUnits="userSpaceOnUse" x="296" y="322" width="41" height="25">
<path d="M296.213 346.127L296.2 346.121L336.361 322.93L296.213 346.127Z" fill="white"/>
</mask>
<g mask="url(#mask16_0_1)">
<path d="M296.213 346.127L296.2 346.121L336.361 322.93L296.213 346.127Z" fill="url(#paint16_linear_0_1)"/>
</g>
<path d="M329.865 311.432L345.933 302.149H345.939L329.865 311.432Z" fill="#224E94"/>
<path d="M296.2 346.121L281.316 339.481L329.865 311.432L345.939 302.149L360.125 309.04V309.198L336.36 322.93L296.2 346.121Z" fill="#A2A4A6"/>
<mask id="mask17_0_1" style="mask-type:luminance" maskUnits="userSpaceOnUse" x="182" y="415" width="1" height="1">
<path d="M182.184 415.128V415.976L182.209 415.101L182.184 415.128Z" fill="white"/>
</mask>
<g mask="url(#mask17_0_1)">
<path d="M182.184 415.128V415.976L182.209 415.101L182.184 415.128Z" fill="url(#paint17_linear_0_1)"/>
</g>
<mask id="mask18_0_1" style="mask-type:luminance" maskUnits="userSpaceOnUse" x="182" y="282" width="686" height="294">
<path d="M408.946 575.418C388.523 575.418 368.144 570.961 352.693 562.045L205.345 476.972C192.071 469.32 184.5 459.557 182.65 449.475C182.398 448.129 182.253 446.776 182.209 445.417L182.184 445.405V432.811V415.976C182.184 420.792 183.474 425.605 186.054 430.22C186.105 430.313 186.155 430.402 186.205 430.49C187.131 432.113 188.213 433.711 189.459 435.279C193.261 440.056 198.554 444.522 205.345 448.438L206.131 448.898L206.729 449.242L220.506 457.197L228.958 462.075L253.686 476.355L262.517 481.451L287.251 495.731L287.76 496.022L295.565 500.528L296.54 501.093L298.655 502.315L319.16 514.152L321.249 515.362L330.545 520.723L343.913 528.445L352.693 533.512C368.137 542.428 388.51 546.877 408.933 546.877C429.52 546.877 450.157 542.354 465.828 533.31L536.771 492.351V520.893L465.828 561.851C450.163 570.893 429.532 575.418 408.946 575.418ZM601.847 483.322V454.781L843.865 315.057L844.111 314.918C849.19 311.986 853.444 308.751 856.88 305.321C858.158 304.043 859.322 302.734 860.367 301.406C861.67 299.764 862.797 298.084 863.747 296.378C866.327 291.734 867.611 286.907 867.611 282.08V310.62V310.872C867.599 312.458 867.441 314.044 867.152 315.617C865.257 325.793 857.573 335.693 844.111 343.452L601.847 483.322Z" fill="white"/>
</mask>
<g mask="url(#mask18_0_1)">
<path d="M408.946 575.418C388.523 575.418 368.144 570.961 352.693 562.045L205.345 476.972C192.071 469.32 184.5 459.557 182.65 449.475C182.398 448.129 182.253 446.776 182.209 445.417L182.184 445.405V432.811V415.976C182.184 420.792 183.474 425.605 186.054 430.22C186.105 430.313 186.155 430.402 186.205 430.49C187.131 432.113 188.213 433.711 189.459 435.279C193.261 440.056 198.554 444.522 205.345 448.438L206.131 448.898L206.729 449.242L220.506 457.197L228.958 462.075L253.686 476.355L262.517 481.451L287.251 495.731L287.76 496.022L295.565 500.528L296.54 501.093L298.655 502.315L319.16 514.152L321.249 515.362L330.545 520.723L343.913 528.445L352.693 533.512C368.137 542.428 388.51 546.877 408.933 546.877C429.52 546.877 450.157 542.354 465.828 533.31L536.771 492.351V520.893L465.828 561.851C450.163 570.893 429.532 575.418 408.946 575.418ZM601.847 483.322V454.781L843.865 315.057L844.111 314.918C849.19 311.986 853.444 308.751 856.88 305.321C858.158 304.043 859.322 302.734 860.367 301.406C861.67 299.764 862.797 298.084 863.747 296.378C866.327 291.734 867.611 286.907 867.611 282.08V310.62V310.872C867.599 312.458 867.441 314.044 867.152 315.617C865.257 325.793 857.573 335.693 844.111 343.452L601.847 483.322Z" fill="url(#paint18_linear_0_1)"/>
</g>
<mask id="mask19_0_1" style="mask-type:luminance" maskUnits="userSpaceOnUse" x="219" y="68" width="236" height="146">
<path d="M454.606 199.467L446.248 213.954L220.896 83.852L220.883 83.8394H220.877C219.813 83.2164 219.159 81.8885 219.159 80.0005C219.159 76.2182 221.796 71.6304 225.056 69.7487C226.692 68.8047 228.165 68.7228 229.235 69.3522L454.606 199.467Z" fill="white"/>
</mask>
<g mask="url(#mask19_0_1)">
<path d="M454.606 199.467L446.248 213.954L220.896 83.852L220.883 83.8394H220.877C219.813 83.2164 219.159 81.8885 219.159 80.0005C219.159 76.2182 221.796 71.6304 225.056 69.7487C226.692 68.8047 228.165 68.7228 229.235 69.3522L454.606 199.467Z" fill="url(#paint19_linear_0_1)"/>
</g>
<path d="M450.427 199.864C447.173 201.746 444.536 206.327 444.536 210.116C444.536 213.892 447.173 215.434 450.427 213.558C453.687 211.683 456.324 207.089 456.324 203.313C456.324 199.524 453.687 197.982 450.427 199.864Z" fill="#918B80"/>
<mask id="mask20_0_1" style="mask-type:luminance" maskUnits="userSpaceOnUse" x="256" y="47" width="236" height="146">
<path d="M491.959 178.416L483.595 192.903L258.243 62.8012L258.224 62.7887H258.218C257.16 62.1656 256.506 60.8377 256.506 58.9497C256.506 55.1674 259.149 50.5796 262.403 48.6979C264.033 47.7602 265.518 47.6721 266.582 48.3077L491.959 178.416Z" fill="white"/>
</mask>
<g mask="url(#mask20_0_1)">
<path d="M491.959 178.416L483.595 192.903L258.243 62.8012L258.224 62.7887H258.218C257.16 62.1656 256.506 60.8377 256.506 58.9497C256.506 55.1674 259.149 50.5796 262.403 48.6979C264.033 47.7602 265.518 47.6721 266.582 48.3077L491.959 178.416Z" fill="url(#paint20_linear_0_1)"/>
</g>
<path d="M487.774 178.812C484.52 180.694 481.877 185.276 481.877 189.064C481.877 192.84 484.52 194.395 487.774 192.513C491.034 190.631 493.671 186.037 493.671 182.261C493.671 178.473 491.034 176.931 487.774 178.812Z" fill="#918B80"/>
<path d="M473.412 491.673L493.558 480.043L473.412 468.412L453.266 480.043L473.412 491.673Z" fill="#B7AD98"/>
<path d="M473.412 431.358L493.558 419.72L473.412 408.097L453.266 419.72L473.412 431.358Z" fill="#B7AD98"/>
<path d="M473.412 520.025L483.482 514.209V499.761L473.412 505.582V520.025Z" fill="#3E3A33"/>
<path d="M473.412 520.025L463.336 514.209V499.761L473.412 505.582V520.025Z" fill="#504E47"/>
<path d="M473.412 509.011L493.558 497.381V480.043L473.412 491.673V509.011Z" fill="#928165"/>
<path d="M473.412 509.011L453.266 497.381V480.043L473.412 491.673V509.011Z" fill="#AEA18B"/>
<path d="M473.412 488.244L483.482 482.422V464.366L473.412 470.182V488.244Z" fill="#6D5734"/>
<path d="M473.412 488.244L463.336 482.422V464.366L473.412 470.182V488.244Z" fill="#948467"/>
<path d="M473.412 473.617L493.558 461.981V419.72L473.412 431.358V473.617Z" fill="#9A8A6E"/>
<path d="M473.412 473.617L453.266 461.981V419.72L473.412 431.358V473.617Z" fill="#AEA18B"/>
<path d="M493.558 480.043L483.482 474.228V467.795L488.536 464.882C488.611 464.882 488.693 464.882 488.769 464.882C489.782 464.882 490.713 465.091 491.538 465.499V465.492L498.467 469.111L495.176 475.133C494.949 477.154 494.389 479.244 493.558 481.281V480.043Z" fill="#69676B"/>
<path d="M473.412 491.673L472.386 491.081C471.964 489.999 471.719 488.708 471.681 487.243L473.412 488.244L483.482 482.422V474.228L493.558 480.043L473.412 491.673Z" fill="#968771"/>
<path d="M482.525 498.273L475.3 494.524C474.576 494.139 473.941 493.598 473.412 492.92V491.673L493.558 480.043V481.281C491.922 485.298 489.247 489.104 486.094 491.742L482.525 498.273Z" fill="#78674C"/>
<path d="M473.412 492.919C473.003 492.391 472.657 491.778 472.386 491.081L473.412 491.673V492.919Z" fill="#8E7E67"/>
<path d="M473.412 488.244V478.784C474.601 475.863 476.345 473.051 478.428 470.723L483.482 467.795V474.228V482.422L473.412 488.244Z" fill="#594428"/>
<path d="M473.412 488.244L471.681 487.243C471.681 487.118 471.675 486.985 471.675 486.852C471.675 484.266 472.311 481.478 473.412 478.784V488.244Z" fill="#79694D"/>
<path d="M478.428 470.723C479.957 468.997 481.675 467.544 483.482 466.499C485.288 465.455 487 464.931 488.535 464.882L483.482 467.795L478.428 470.723Z" fill="#7D6C52"/>
<path d="M478.447 490.395C478.447 497.873 483.727 500.887 490.254 497.123C496.774 493.352 502.055 484.242 502.055 476.763C502.055 469.28 496.774 466.273 490.254 470.03C483.727 473.793 478.447 482.911 478.447 490.395Z" fill="#877556"/>
<mask id="mask21_0_1" style="mask-type:luminance" maskUnits="userSpaceOnUse" x="465" y="210" width="17" height="215">
<path d="M465.048 210.953H481.77V419.275C481.757 420.502 480.933 421.741 479.303 422.68C476.03 424.573 470.737 424.581 467.477 422.698C465.847 421.754 465.035 420.514 465.048 419.275V210.953Z" fill="white"/>
</mask>
<g mask="url(#mask21_0_1)">
<path d="M465.048 210.953H481.77V419.275C481.757 420.502 480.933 421.741 479.303 422.68C476.03 424.573 470.737 424.581 467.477 422.698C465.847 421.754 465.035 420.514 465.048 419.275V210.953Z" fill="url(#paint21_linear_0_1)"/>
</g>
<path d="M467.477 214.376C470.737 216.258 476.03 216.252 479.303 214.357C482.582 212.469 482.601 209.411 479.341 207.529C476.087 205.654 470.794 205.666 467.515 207.554C464.242 209.442 464.223 212.501 467.477 214.376Z" fill="#918B80"/>
<path d="M441.585 195.691L484.967 170.644C487.371 169.253 489.65 169.203 491.148 170.486L493.332 172.356C494.458 173.318 495.062 174.967 495.062 177.031C495.062 182.054 491.519 188.171 487.139 190.701L439.401 218.259C435.027 220.783 431.483 218.763 431.483 213.741C431.483 211.676 432.088 209.323 433.214 207.057L435.398 202.671C436.902 199.65 439.174 197.076 441.585 195.691Z" fill="#C48618"/>
<path d="M433.353 218.53L465.054 236.862L521.968 188.208L490.393 169.989L487.334 171.304L436.286 208.869L433.353 218.53Z" fill="#C48618"/>
<path d="M473.06 213.86L516.442 188.819C518.846 187.428 521.125 187.365 522.629 188.655L524.806 190.524C525.927 191.493 526.543 193.136 526.543 195.2C526.543 200.222 523 206.346 518.62 208.869L470.882 236.428C466.508 238.958 462.958 236.931 462.958 231.909C462.958 229.845 463.569 227.491 464.695 225.232L466.879 220.845C468.377 217.818 470.655 215.251 473.06 213.86Z" fill="#8B5819"/>
<mask id="mask22_0_1" style="mask-type:luminance" maskUnits="userSpaceOnUse" x="471" y="214" width="254" height="156">
<path d="M724.826 355.466L716.468 369.953L473.172 229.499L473.16 229.493L473.147 229.486C472.09 228.851 471.435 227.529 471.435 225.641C471.435 221.865 474.073 217.271 477.333 215.389C478.969 214.445 480.442 214.363 481.512 214.999L724.826 355.466Z" fill="white"/>
</mask>
<g mask="url(#mask22_0_1)">
<path d="M724.826 355.466L716.468 369.953L473.172 229.499L473.16 229.493L473.147 229.486C472.09 228.851 471.435 227.529 471.435 225.641C471.435 221.865 474.073 217.271 477.333 215.389C478.969 214.445 480.442 214.363 481.512 214.999L724.826 355.466Z" fill="url(#paint22_linear_0_1)"/>
</g>
<mask id="mask23_0_1" style="mask-type:luminance" maskUnits="userSpaceOnUse" x="508" y="193" width="255" height="156">
<path d="M762.179 334.422L753.815 348.903L510.519 208.448L510.501 208.435L510.494 208.429C509.437 207.8 508.782 206.472 508.782 204.596C508.782 200.814 511.426 196.226 514.673 194.345C516.31 193.394 517.795 193.319 518.859 193.948L762.179 334.422Z" fill="white"/>
</mask>
<g mask="url(#mask23_0_1)">
<path d="M762.179 334.422L753.815 348.903L510.519 208.448L510.501 208.435L510.494 208.429C509.437 207.8 508.782 206.472 508.782 204.596C508.782 200.814 511.426 196.226 514.673 194.345C516.31 193.394 517.795 193.319 518.859 193.948L762.179 334.422Z" fill="url(#paint23_linear_0_1)"/>
</g>
<path d="M505.812 226.787L537.287 208.612V202.394L505.812 220.569V226.787Z" fill="#C48618"/>
<path d="M426.253 174.634L457.734 156.458L537.287 202.393L505.812 220.569L426.253 174.634Z" fill="#FBD217"/>
<path d="M505.812 226.787L426.253 180.858V174.634L505.812 220.569V226.787Z" fill="#C48618"/>
<path d="M589.128 491.648V607.326L500.563 658.451V542.77L518.531 532.398L573.381 500.754L589.128 491.648Z" fill="#3E3A33"/>
<path d="M500.569 640.232L500.563 601.54L534.624 620.566L500.569 640.232Z" fill="#342E26"/>
<path d="M573.381 500.754L589.128 491.648V572.656L518.531 532.398L573.381 500.754Z" fill="#696B7B"/>
<path d="M573.362 563.663L518.531 532.398L536.77 521.873V521.881L542.926 518.327L573.362 500.766V563.663Z" fill="#55545A"/>
<path d="M589.128 607.305L500.569 658.438V640.232L573.362 598.207L589.128 607.305Z" fill="#E4E4E5"/>
<path d="M589.127 491.641V607.305L573.362 598.207V500.742L589.127 491.641Z" fill="#828390"/>
<path d="M573.362 529.571V500.747L588.309 492.12V493.868L582.33 510.044L573.362 529.571Z" fill="#69676B"/>
<path d="M500.569 657.591L588.335 606.846L588.309 492.113L589.128 491.641V607.305L500.569 658.438V657.591Z" fill="#91939E"/>
<path d="M407.189 426.556L318.631 477.69V459.489L391.418 417.456L407.189 426.556Z" fill="#E4E4E5"/>
<path d="M407.19 310.891V426.556L391.418 417.456V319.997L407.19 310.891Z" fill="#828390"/>
<path d="M318.631 476.839L406.396 426.102L406.365 311.363L407.189 310.891V426.556L318.631 477.69V476.839Z" fill="#EAE7EA"/>
<mask id="mask24_0_1" style="mask-type:luminance" maskUnits="userSpaceOnUse" x="391" y="310" width="17" height="39">
<path d="M407.19 310.891L400.393 329.299L391.418 348.833V319.997L407.19 310.891Z" fill="white"/>
</mask>
<g mask="url(#mask24_0_1)">
<path d="M407.19 310.891L400.393 329.299L391.418 348.833V319.997L407.19 310.891Z" fill="url(#paint24_linear_0_1)"/>
</g>
<path d="M318.606 542.77V658.451L230.047 607.326V491.648L245.845 500.754L296.213 529.836L305.471 535.173L318.606 542.77Z" fill="#3E3A33"/>
<mask id="mask25_0_1" style="mask-type:luminance" maskUnits="userSpaceOnUse" x="230" y="491" width="16" height="41">
<path d="M230.066 491.64V531.006L245.838 519.626V500.741L230.066 491.64Z" fill="white"/>
</mask>
<g mask="url(#mask25_0_1)">
<path d="M230.066 491.64V531.006L245.838 519.626V500.741L230.066 491.64Z" fill="url(#paint25_linear_0_1)"/>
</g>
<path d="M292.336 527.569L230.047 563.55V578.747L305.471 535.173L296.213 529.836L292.336 527.569Z" fill="#91939E"/>
<path d="M262.196 510.214L258.275 507.948L230.047 524.254V539.495L271.51 515.551L262.196 510.214ZM230.047 607.326L318.606 658.451V650.246L230.047 599.075V607.326Z" fill="#91939E"/>
<path d="M296.213 529.836L230.047 568.029V539.495L271.51 515.551L292.336 527.569L296.213 529.836Z" fill="#BBBBC2"/>
<path d="M262.196 510.214L230.047 528.779V500.193L237.442 495.926L245.845 500.754L258.275 507.948L262.196 510.214Z" fill="#BBBBC2"/>
<path d="M318.606 542.77V556.155L230.047 607.277V578.748L305.471 535.173L318.606 542.77Z" fill="#BBBBC2"/>
<path d="M230.066 607.305L318.631 658.438V640.232L245.838 598.207L230.066 607.305Z" fill="#E4E4E5"/>
<path d="M230.066 491.641V607.305L245.838 598.207V500.742L230.066 491.641Z" fill="#B6B6BC"/>
<path d="M318.631 657.591L230.859 606.846L230.891 492.113L230.066 491.641V607.305L318.631 658.438V657.591Z" fill="#7A7C8B"/>
<path d="M407.171 426.529L318.606 477.707V477.658L407.171 426.529Z" fill="#3E3A33"/>
<path d="M690.173 403.845L670.599 415.116L657.314 407.463L438.62 281.211L458.2 269.896L676.944 396.191L690.173 403.845Z" fill="#DDDEDE"/>
<path d="M550.063 679.126V679.114L601.847 649.22V649.228L550.063 679.126Z" fill="#28231E"/>
<path d="M550.063 679.114V668.39L601.847 638.489V649.22L550.063 679.114Z" fill="#696D77"/>
<mask id="mask26_0_1" style="mask-type:luminance" maskUnits="userSpaceOnUse" x="550" y="649" width="52" height="59">
<path d="M550.063 707.659V679.126L601.847 649.228V677.762L550.063 707.659Z" fill="white"/>
</mask>
<g mask="url(#mask26_0_1)">
<path d="M550.063 707.659V679.126L601.847 649.228V677.762L550.063 707.659Z" fill="url(#paint26_linear_0_1)"/>
</g>
<path d="M550.063 639.856V629.881H550.057L589.128 607.325V607.305V606.57L601.847 599.225V609.955L589.921 616.842L577.069 624.261L550.063 639.856Z" fill="#696D77"/>
<mask id="mask27_0_1" style="mask-type:luminance" maskUnits="userSpaceOnUse" x="550" y="609" width="52" height="60">
<path d="M550.063 668.39V639.856L577.069 624.261L589.921 616.842L601.847 609.956V638.489L550.063 668.39Z" fill="white"/>
</mask>
<g mask="url(#mask27_0_1)">
<path d="M550.063 668.39V639.856L577.069 624.261L589.921 616.842L601.847 609.956V638.489L550.063 668.39Z" fill="url(#paint27_linear_0_1)"/>
</g>
<path d="M589.128 578.024V567.815L601.847 560.477V570.686L589.128 578.024Z" fill="#696D77"/>
<mask id="mask28_0_1" style="mask-type:luminance" maskUnits="userSpaceOnUse" x="589" y="570" width="13" height="37">
<path d="M589.128 606.57V578.024L601.847 570.686V599.225L589.128 606.57Z" fill="white"/>
</mask>
<g mask="url(#mask28_0_1)">
<path d="M589.128 606.57V578.024L601.847 570.686V599.225L589.128 606.57Z" fill="url(#paint28_linear_0_1)"/>
</g>
<path d="M589.128 539.276V529.239L601.847 521.9V531.931L589.128 539.276Z" fill="#696D77"/>
<mask id="mask29_0_1" style="mask-type:luminance" maskUnits="userSpaceOnUse" x="589" y="531" width="13" height="37">
<path d="M589.128 567.815V539.276L601.847 531.931V560.477L589.128 567.815Z" fill="white"/>
</mask>
<g mask="url(#mask29_0_1)">
<path d="M589.128 567.815V539.276L601.847 531.931V560.477L589.128 567.815Z" fill="url(#paint29_linear_0_1)"/>
</g>
<path d="M536.771 521.873V520.893L601.847 483.322V493.359L589.128 500.705V491.641L588.31 492.113L573.362 500.742V500.747L542.926 518.326L536.771 521.873Z" fill="#696D77"/>
<mask id="mask30_0_1" style="mask-type:luminance" maskUnits="userSpaceOnUse" x="589" y="493" width="13" height="37">
<path d="M589.128 529.239V500.705L601.847 493.359V521.9L589.128 529.239Z" fill="white"/>
</mask>
<g mask="url(#mask30_0_1)">
<path d="M589.128 529.239V500.705L601.847 493.359V521.9L589.128 529.239Z" fill="url(#paint30_linear_0_1)"/>
</g>
<path d="M536.77 492.351V491.648L524.901 483.963L528.897 481.66L577.982 453.315L589.575 446.624L601.847 454.781L536.77 492.351Z" fill="#A2A4A6"/>
<mask id="mask31_0_1" style="mask-type:luminance" maskUnits="userSpaceOnUse" x="536" y="454" width="66" height="67">
<path d="M536.771 520.893V492.352L601.847 454.781V483.322L536.771 520.893Z" fill="white"/>
</mask>
<g mask="url(#mask31_0_1)">
<path d="M536.771 520.893V492.352L601.847 454.781V483.322L536.771 520.893Z" fill="url(#paint31_linear_0_1)"/>
</g>
<path d="M550.056 629.881L550.05 629.868L589.128 607.305V607.325L550.056 629.881Z" fill="#2F2B26"/>
<path d="M536.771 521.881V521.873L542.926 518.326L536.771 521.881Z" fill="#403F43"/>
<path d="M549.402 629.359L536.771 619.335L573.362 598.207L588.335 606.846L549.402 629.359Z" fill="#A6A9AA"/>
<path d="M573.362 500.747V500.742L588.309 492.113L573.362 500.747Z" fill="#4E4D50"/>
<path d="M550.05 629.868L549.402 629.359L588.335 606.846L589.128 607.305L550.05 629.868ZM588.309 492.113L589.128 491.641L588.309 492.12" fill="#696D77"/>
<path d="M318.606 477.658V462.704L318.631 462.691V477.645L318.606 477.658ZM350.062 315.019L360.125 309.204V309.21L350.062 315.019Z" fill="#224E94"/>
<path d="M346.808 511.34L346.802 511.332L368.118 499.031L346.808 511.34Z" fill="#28231E"/>
<path d="M318.606 462.704V449.072V438.858V410.331V404.345V459.496L352.422 439.967L352.428 439.974L318.631 459.489V462.691L318.606 462.704Z" fill="#1F3E6C"/>
<path d="M346.801 511.332L337.531 505.983L337.506 505.971L368.118 488.301V499.031L346.801 511.332Z" fill="#696D77"/>
<mask id="mask32_0_1" style="mask-type:luminance" maskUnits="userSpaceOnUse" x="346" y="499" width="23" height="25">
<path d="M368.118 523.491C367.313 523.145 366.513 522.692 365.708 522.24L346.808 511.34L368.118 499.031V523.491Z" fill="white"/>
</mask>
<g mask="url(#mask32_0_1)">
<path d="M368.118 523.491C367.313 523.145 366.513 522.692 365.708 522.24L346.808 511.34L368.118 499.031V523.491Z" fill="url(#paint32_linear_0_1)"/>
</g>
<path d="M312.816 491.693L305.924 487.72L303.514 486.361L318.606 477.659V477.708L328.128 472.208L368.118 449.117V459.767L312.816 491.693Z" fill="#696D77"/>
<mask id="mask33_0_1" style="mask-type:luminance" maskUnits="userSpaceOnUse" x="312" y="459" width="57" height="47">
<path d="M337.506 505.971L333.654 503.724L312.822 491.697L312.816 491.692L368.118 459.766V488.3L337.506 505.971Z" fill="white"/>
</mask>
<g mask="url(#mask33_0_1)">
<path d="M337.506 505.971L333.654 503.724L312.822 491.697L312.816 491.692L368.118 459.766V488.3L337.506 505.971Z" fill="url(#paint33_linear_0_1)"/>
</g>
<path d="M296.213 462.013V451.779L318.606 438.858V449.073L296.213 462.013Z" fill="#696D77"/>
<path d="M303.513 486.361L299.586 484.101L296.213 482.132V462.013L318.606 449.073V462.704V477.658L303.513 486.361Z" fill="#8A8B92"/>
<path d="M296.213 423.265V413.24L318.606 400.319V410.331L296.213 423.265Z" fill="#696D77"/>
<path d="M296.213 451.78V423.265L318.606 410.332V438.858L296.213 451.78Z" fill="#8A8B92"/>
<path d="M296.213 384.718V374.636L360.125 337.744V337.775L318.606 362.024V369.474V371.79L296.213 384.718Z" fill="#696D77"/>
<path d="M296.213 413.24V384.718L318.606 371.79V400.319L296.213 413.24Z" fill="#8A8B92"/>
<mask id="mask34_0_1" style="mask-type:luminance" maskUnits="userSpaceOnUse" x="296" y="309" width="65" height="66">
<path d="M296.213 374.636V346.127L336.36 322.93L350.062 315.019L360.125 309.21V337.744L296.213 374.636Z" fill="white"/>
</mask>
<g mask="url(#mask34_0_1)">
<path d="M296.213 374.636V346.127L336.36 322.93L350.062 315.019L360.125 309.21V337.744L296.213 374.636Z" fill="url(#paint34_linear_0_1)"/>
</g>
<path d="M365.708 522.24L337.531 505.983L333.654 503.724L312.822 491.698L305.924 487.72L312.816 491.693L312.822 491.698L333.654 503.724L337.506 505.971L337.531 505.983L346.801 511.332L346.808 511.34L365.708 522.24ZM336.36 322.93L360.125 309.198V309.204L350.062 315.019L336.36 322.93Z" fill="#A2A4A6"/>
<path d="M318.631 477.646V459.489L352.428 439.974L367.394 448.652L318.631 476.839V477.646Z" fill="#A6A9AA"/>
<path d="M318.631 477.646V476.839L367.394 448.652L368.118 449.073L318.631 477.646ZM328.128 472.207L368.118 449.1V449.117L328.128 472.207Z" fill="#AAAAAD"/>
<path d="M318.606 477.707V477.658L318.631 477.646L368.118 449.08V449.1L328.128 472.208L318.606 477.707Z" fill="#2F2B26"/>
<path d="M318.606 581.667L296.213 569.086V569.081L318.606 556.155V580.945V581.667Z" fill="#2F2B26"/>
<path d="M296.213 540.523V529.837L305.471 535.173L296.213 540.523Z" fill="#696D77"/>
<path d="M296.213 569.081V540.522L305.471 535.173L318.606 542.77V552.411V556.155L296.213 569.081Z" fill="#8A8B92"/>
<defs>
<linearGradient id="paint0_linear_0_1" x1="205.773" y1="491.044" x2="844.01" y2="491.044" gradientUnits="userSpaceOnUse">
<stop stop-color="#CDCED1"/>
<stop offset="0.638021" stop-color="#A9AAB2"/>
<stop offset="0.669271" stop-color="#9A99A4"/>
<stop offset="0.791667" stop-color="#828491"/>
<stop offset="1" stop-color="#828491"/>
</linearGradient>
<linearGradient id="paint1_linear_0_1" x1="182.184" y1="609.981" x2="182.207" y2="609.981" gradientUnits="userSpaceOnUse">
<stop stop-color="#9C9CA6"/>
<stop offset="0.231771" stop-color="#ABACB4"/>
<stop offset="1" stop-color="#CDCED1"/>
</linearGradient>
<linearGradient id="paint2_linear_0_1" x1="182.184" y1="623.191" x2="867.617" y2="623.191" gradientUnits="userSpaceOnUse">
<stop stop-color="#828491"/>
<stop offset="0.325521" stop-color="#9A99A4"/>
<stop offset="0.372396" stop-color="#A8A7B1"/>
<stop offset="1" stop-color="#CDCED1"/>
</linearGradient>
<linearGradient id="paint3_linear_0_1" x1="205.779" y1="451.792" x2="844.029" y2="451.792" gradientUnits="userSpaceOnUse">
<stop stop-color="#CDCED1"/>
<stop offset="0.638021" stop-color="#A9AAB2"/>
<stop offset="0.669271" stop-color="#9A99A4"/>
<stop offset="0.791667" stop-color="#828491"/>
<stop offset="1" stop-color="#828491"/>
</linearGradient>
<linearGradient id="paint4_linear_0_1" x1="182.184" y1="570.711" x2="182.207" y2="570.711" gradientUnits="userSpaceOnUse">
<stop stop-color="#9C9CA6"/>
<stop offset="0.231771" stop-color="#ABACB4"/>
<stop offset="1" stop-color="#CDCED1"/>
</linearGradient>
<linearGradient id="paint5_linear_0_1" x1="182.184" y1="583.921" x2="867.617" y2="583.921" gradientUnits="userSpaceOnUse">
<stop stop-color="#828491"/>
<stop offset="0.325521" stop-color="#9A99A4"/>
<stop offset="0.372396" stop-color="#A8A7B1"/>
<stop offset="1" stop-color="#CDCED1"/>
</linearGradient>
<linearGradient id="paint6_linear_0_1" x1="219.272" y1="353.585" x2="832.936" y2="353.585" gradientUnits="userSpaceOnUse">
<stop stop-color="#CDCED1"/>
<stop offset="0.638021" stop-color="#A9AAB2"/>
<stop offset="0.669271" stop-color="#9A99A4"/>
<stop offset="0.791667" stop-color="#828491"/>
<stop offset="1" stop-color="#828491"/>
</linearGradient>
<linearGradient id="paint7_linear_0_1" x1="182.184" y1="531.44" x2="182.207" y2="531.44" gradientUnits="userSpaceOnUse">
<stop stop-color="#9C9CA6"/>
<stop offset="0.231771" stop-color="#ABACB4"/>
<stop offset="1" stop-color="#CDCED1"/>
</linearGradient>
<linearGradient id="paint8_linear_0_1" x1="182.184" y1="544.65" x2="867.617" y2="544.65" gradientUnits="userSpaceOnUse">
<stop stop-color="#828491"/>
<stop offset="0.325521" stop-color="#9A99A4"/>
<stop offset="0.372396" stop-color="#A8A7B1"/>
<stop offset="1" stop-color="#CDCED1"/>
</linearGradient>
<linearGradient id="paint9_linear_0_1" x1="219.272" y1="314.843" x2="832.938" y2="314.843" gradientUnits="userSpaceOnUse">
<stop stop-color="#CDCED1"/>
<stop offset="0.638021" stop-color="#A9AAB2"/>
<stop offset="0.669271" stop-color="#9A99A4"/>
<stop offset="0.791667" stop-color="#828491"/>
<stop offset="1" stop-color="#828491"/>
</linearGradient>
<linearGradient id="paint10_linear_0_1" x1="182.184" y1="492.693" x2="182.207" y2="492.693" gradientUnits="userSpaceOnUse">
<stop stop-color="#9C9CA6"/>
<stop offset="0.231771" stop-color="#ABACB4"/>
<stop offset="1" stop-color="#CDCED1"/>
</linearGradient>
<linearGradient id="paint11_linear_0_1" x1="182.184" y1="505.902" x2="867.617" y2="505.902" gradientUnits="userSpaceOnUse">
<stop stop-color="#828491"/>
<stop offset="0.325521" stop-color="#9A99A4"/>
<stop offset="0.372396" stop-color="#A8A7B1"/>
<stop offset="1" stop-color="#CDCED1"/>
</linearGradient>
<linearGradient id="paint12_linear_0_1" x1="219.272" y1="276.252" x2="832.936" y2="276.252" gradientUnits="userSpaceOnUse">
<stop stop-color="#CDCED1"/>
<stop offset="0.638021" stop-color="#A9AAB2"/>
<stop offset="0.669271" stop-color="#9A99A4"/>
<stop offset="0.791667" stop-color="#828491"/>
<stop offset="1" stop-color="#828491"/>
</linearGradient>
<linearGradient id="paint13_linear_0_1" x1="182.184" y1="454.114" x2="182.207" y2="454.114" gradientUnits="userSpaceOnUse">
<stop stop-color="#9C9CA6"/>
<stop offset="0.231771" stop-color="#ABACB4"/>
<stop offset="1" stop-color="#CDCED1"/>
</linearGradient>
<linearGradient id="paint14_linear_0_1" x1="182.184" y1="467.324" x2="867.617" y2="467.324" gradientUnits="userSpaceOnUse">
<stop stop-color="#828491"/>
<stop offset="0.325521" stop-color="#9A99A4"/>
<stop offset="0.372396" stop-color="#A8A7B1"/>
<stop offset="1" stop-color="#CDCED1"/>
</linearGradient>
<linearGradient id="paint15_linear_0_1" x1="205.779" y1="296.617" x2="844.029" y2="296.617" gradientUnits="userSpaceOnUse">
<stop stop-color="#CDCED1"/>
<stop offset="0.638021" stop-color="#A9AAB2"/>
<stop offset="0.669271" stop-color="#9A99A4"/>
<stop offset="0.791667" stop-color="#828491"/>
<stop offset="1" stop-color="#828491"/>
</linearGradient>
<linearGradient id="paint16_linear_0_1" x1="205.779" y1="296.617" x2="844.029" y2="296.617" gradientUnits="userSpaceOnUse">
<stop stop-color="#96989B"/>
<stop offset="0.638021" stop-color="#7D7F87"/>
<stop offset="0.669271" stop-color="#70747D"/>
<stop offset="0.791667" stop-color="#5F636D"/>
<stop offset="1" stop-color="#5F636D"/>
</linearGradient>
<linearGradient id="paint17_linear_0_1" x1="182.184" y1="415.536" x2="182.207" y2="415.536" gradientUnits="userSpaceOnUse">
<stop stop-color="#9C9CA6"/>
<stop offset="0.231771" stop-color="#ABACB4"/>
<stop offset="1" stop-color="#CDCED1"/>
</linearGradient>
<linearGradient id="paint18_linear_0_1" x1="182.184" y1="428.746" x2="867.617" y2="428.746" gradientUnits="userSpaceOnUse">
<stop stop-color="#828491"/>
<stop offset="0.325521" stop-color="#9A99A4"/>
<stop offset="0.372396" stop-color="#A8A7B1"/>
<stop offset="1" stop-color="#CDCED1"/>
</linearGradient>
<linearGradient id="paint19_linear_0_1" x1="331.47" y1="147.692" x2="339.833" y2="133.205" gradientUnits="userSpaceOnUse">
<stop stop-color="#7C796F"/>
<stop offset="0.367188" stop-color="#C1BBAC"/>
<stop offset="0.486979" stop-color="#C9C5B8"/>
<stop offset="0.723958" stop-color="#A7A292"/>
<stop offset="0.768229" stop-color="#A7A393"/>
<stop offset="1" stop-color="#D2C9B9"/>
</linearGradient>
<linearGradient id="paint20_linear_0_1" x1="368.817" y1="126.641" x2="377.18" y2="112.155" gradientUnits="userSpaceOnUse">
<stop stop-color="#7C796F"/>
<stop offset="0.367188" stop-color="#C1BBAC"/>
<stop offset="0.486979" stop-color="#C9C5B8"/>
<stop offset="0.723958" stop-color="#A7A292"/>
<stop offset="0.768229" stop-color="#A7A393"/>
<stop offset="1" stop-color="#D2C9B9"/>
</linearGradient>
<linearGradient id="paint21_linear_0_1" x1="481.77" y1="317.53" x2="465.045" y2="317.53" gradientUnits="userSpaceOnUse">
<stop stop-color="#7C796F"/>
<stop offset="0.367188" stop-color="#C1BBAC"/>
<stop offset="0.486979" stop-color="#C9C5B8"/>
<stop offset="0.723958" stop-color="#A7A292"/>
<stop offset="0.768229" stop-color="#A7A393"/>
<stop offset="1" stop-color="#A7A393"/>
</linearGradient>
<linearGradient id="paint22_linear_0_1" x1="592.715" y1="298.511" x2="601.079" y2="284.024" gradientUnits="userSpaceOnUse">
<stop stop-color="#7C796F"/>
<stop offset="0.367188" stop-color="#C1BBAC"/>
<stop offset="0.486979" stop-color="#C9C5B8"/>
<stop offset="0.723958" stop-color="#A7A292"/>
<stop offset="0.768229" stop-color="#A7A393"/>
<stop offset="1" stop-color="#D2C9B9"/>
</linearGradient>
<linearGradient id="paint23_linear_0_1" x1="630.062" y1="277.461" x2="638.425" y2="262.975" gradientUnits="userSpaceOnUse">
<stop stop-color="#7C796F"/>
<stop offset="0.367188" stop-color="#C1BBAC"/>
<stop offset="0.486979" stop-color="#C9C5B8"/>
<stop offset="0.723958" stop-color="#A7A292"/>
<stop offset="0.768229" stop-color="#A7A393"/>
<stop offset="1" stop-color="#D2C9B9"/>
</linearGradient>
<linearGradient id="paint24_linear_0_1" x1="412.212" y1="338.071" x2="386.038" y2="321.425" gradientUnits="userSpaceOnUse">
<stop stop-color="#B2B4BB"/>
<stop offset="0.854167" stop-color="#6A6B7E"/>
<stop offset="1" stop-color="#6A6B7E"/>
</linearGradient>
<linearGradient id="paint25_linear_0_1" x1="202.185" y1="529.049" x2="252.161" y2="497.263" gradientUnits="userSpaceOnUse">
<stop stop-color="#B2B4BB"/>
<stop offset="0.854167" stop-color="#6A6B7E"/>
<stop offset="1" stop-color="#6A6B7E"/>
</linearGradient>
<linearGradient id="paint26_linear_0_1" x1="182.183" y1="623.191" x2="867.617" y2="623.191" gradientUnits="userSpaceOnUse">
<stop stop-color="#5F636D"/>
<stop offset="0.325521" stop-color="#70747D"/>
<stop offset="0.372396" stop-color="#7B7E86"/>
<stop offset="1" stop-color="#96989B"/>
</linearGradient>
<linearGradient id="paint27_linear_0_1" x1="182.183" y1="583.921" x2="867.617" y2="583.921" gradientUnits="userSpaceOnUse">
<stop stop-color="#5F636D"/>
<stop offset="0.325521" stop-color="#70747D"/>
<stop offset="0.372396" stop-color="#7B7E86"/>
<stop offset="1" stop-color="#96989B"/>
</linearGradient>
<linearGradient id="paint28_linear_0_1" x1="182.185" y1="544.65" x2="867.617" y2="544.65" gradientUnits="userSpaceOnUse">
<stop stop-color="#5F636D"/>
<stop offset="0.325521" stop-color="#70747D"/>
<stop offset="0.372396" stop-color="#7B7E86"/>
<stop offset="1" stop-color="#96989B"/>
</linearGradient>
<linearGradient id="paint29_linear_0_1" x1="182.185" y1="505.902" x2="867.617" y2="505.902" gradientUnits="userSpaceOnUse">
<stop stop-color="#5F636D"/>
<stop offset="0.325521" stop-color="#70747D"/>
<stop offset="0.372396" stop-color="#7B7E86"/>
<stop offset="1" stop-color="#96989B"/>
</linearGradient>
<linearGradient id="paint30_linear_0_1" x1="182.185" y1="467.324" x2="867.617" y2="467.324" gradientUnits="userSpaceOnUse">
<stop stop-color="#5F636D"/>
<stop offset="0.325521" stop-color="#70747D"/>
<stop offset="0.372396" stop-color="#7B7E86"/>
<stop offset="1" stop-color="#96989B"/>
</linearGradient>
<linearGradient id="paint31_linear_0_1" x1="182.184" y1="428.746" x2="867.617" y2="428.746" gradientUnits="userSpaceOnUse">
<stop stop-color="#5F636D"/>
<stop offset="0.325521" stop-color="#70747D"/>
<stop offset="0.372396" stop-color="#7B7E86"/>
<stop offset="1" stop-color="#96989B"/>
</linearGradient>
<linearGradient id="paint32_linear_0_1" x1="205.772" y1="491.044" x2="844.011" y2="491.044" gradientUnits="userSpaceOnUse">
<stop stop-color="#96989B"/>
<stop offset="0.638021" stop-color="#7D7F87"/>
<stop offset="0.669271" stop-color="#70747D"/>
<stop offset="0.791667" stop-color="#5F636D"/>
<stop offset="1" stop-color="#5F636D"/>
</linearGradient>
<linearGradient id="paint33_linear_0_1" x1="205.779" y1="451.792" x2="844.029" y2="451.792" gradientUnits="userSpaceOnUse">
<stop stop-color="#96989B"/>
<stop offset="0.638021" stop-color="#7D7F87"/>
<stop offset="0.669271" stop-color="#70747D"/>
<stop offset="0.791667" stop-color="#5F636D"/>
<stop offset="1" stop-color="#5F636D"/>
</linearGradient>
<linearGradient id="paint34_linear_0_1" x1="205.779" y1="296.617" x2="844.029" y2="296.617" gradientUnits="userSpaceOnUse">
<stop stop-color="#96989B"/>
<stop offset="0.638021" stop-color="#7D7F87"/>
<stop offset="0.669271" stop-color="#70747D"/>
<stop offset="0.791667" stop-color="#5F636D"/>
<stop offset="1" stop-color="#5F636D"/>
</linearGradient>
</defs>
</svg>
