<svg width="568" height="1035" viewBox="0 0 568 1035" fill="none" xmlns="http://www.w3.org/2000/svg">

<path d="M540.403 758.802L545.614 755.817L473.129 714.212L467.912 717.19L540.403 758.802Z" fill="#424446"/>
<path d="M540.95 768.001L540.402 758.802L463.657 714.754V723.389L540.95 768.001Z" fill="#353638"/>
<path d="M87.775 958.131L68.5302 947.041V750.738L87.775 761.828V958.131Z" fill="#63635B"/>
<path d="M87.775 761.828L68.5302 750.738L82.5456 742.646L101.789 753.743L87.775 761.828Z" fill="#CDC6B5"/>
<path d="M101.789 950.038L87.7751 958.131V761.828L101.789 753.743V950.038Z" fill="#B8B2A1"/>
<path d="M386.918 758.802L381.701 755.817L458.446 563.204L463.657 566.187L386.918 758.802Z" fill="#353638"/>
<path d="M386.918 767.694V758.802L463.657 566.188V574.822L386.918 767.694Z" fill="#424446"/>
<path d="M469.454 806.455L464.243 803.465L540.982 610.857L546.199 613.841L469.454 806.455Z" fill="#9C9F9F"/>
<path d="M463.695 723.427L458.446 720.4V563.205L463.695 566.238V723.427Z" fill="#5B5F61"/>
<path d="M463.695 723.427L468.938 720.4V563.205L463.695 566.238V723.427Z" fill="#86898A"/>
<path d="M458.446 720.4L463.695 723.427L384.086 606.137L381.159 607.823L458.446 720.4Z" fill="#353638"/>
<path d="M386.918 758.802L381.701 755.817L454.191 714.212L459.409 717.19L386.918 758.802Z" fill="#353638"/>
<path d="M386.918 767.694V758.802L463.657 714.754V723.39L386.918 767.694Z" fill="#424446"/>
<path d="M463.695 723.427L463.783 717.598L389.335 609.166L386.402 610.857L463.695 723.427Z" fill="#424446"/>
<path d="M425.53 661.884L422.264 670.083L424.492 673.256L427.739 665.1L425.53 661.884Z" fill="#424446"/>
<path d="M468.938 720.4L463.695 723.427L543.298 606.137L546.231 607.823L468.938 720.4Z" fill="#424446"/>
<path d="M463.695 723.427L463.601 717.598L538.049 609.166L540.981 610.857L463.695 723.427Z" fill="#353638"/>
<path d="M546.199 771.034L540.95 768.001V610.812L546.199 613.841V771.034Z" fill="#5B5F61"/>
<path d="M546.199 771.034L551.448 768.001V610.812L546.199 613.841V771.034Z" fill="#86898A"/>
<path d="M540.95 768.001L546.199 771.034L466.596 653.74L463.657 655.434L540.95 768.001Z" fill="#353638"/>
<path d="M501.35 710.331L506.568 713.313L504.963 717.334L501.35 710.331Z" fill="#9C9F9F"/>
<path d="M546.199 771.034L546.287 765.201L471.839 656.774L468.906 658.46L546.199 771.034Z" fill="#86898A"/>
<path d="M469.454 806.455L464.243 803.465L536.727 761.86L541.945 764.837L469.454 806.455Z" fill="#9C9F9F"/>
<path d="M469.454 815.341V806.455L546.199 762.401V771.034L469.454 815.341Z" fill="#86898A"/>
<path d="M469.454 815.341V806.455L546.199 613.841V622.475L469.454 815.341Z" fill="#86898A"/>
<path d="M381.669 770.72L376.42 767.694V610.493L381.669 613.527V770.72Z" fill="#5B5F61"/>
<path d="M381.669 770.72L386.918 767.694V610.493L381.669 613.527V770.72Z" fill="#86898A"/>
<path d="M458.962 806.455L464.173 803.465L387.434 610.857L382.217 613.841L458.962 806.455Z" fill="#86898A"/>
<path d="M386.918 767.694L381.669 770.72L461.278 653.421L464.205 655.119L386.918 767.694Z" fill="#353638"/>
<path d="M458.408 806.135L463.626 803.15L391.135 761.545L385.917 764.527L458.408 806.135Z" fill="#86898A"/>
<path d="M381.669 770.72L381.575 764.886L456.029 656.452L458.962 658.145L381.669 770.72Z" fill="#5B5F61"/>
<path d="M458.962 815.341V806.455L382.217 613.841V622.475L458.962 815.341Z" fill="#5B5F61"/>
<path d="M464.205 661.179L376.42 610.493V597.685L464.205 648.366V661.179Z" fill="#63635B"/>
<path d="M464.205 648.366L376.42 597.685L463.657 547.32L551.448 598L464.205 648.366Z" fill="#CDC6B5"/>
<path d="M464.148 637.276L395.622 597.717L463.72 558.409L532.24 597.968L464.148 637.276Z" fill="#B3A790"/>
<path d="M551.448 610.812L464.205 661.179V648.366L551.448 598V610.812Z" fill="#B8B2A1"/>
<path d="M457.798 498.918L455.293 497.471V552.827L457.798 554.274V498.918Z" fill="#D4641C"/>
<path d="M457.798 498.918L455.293 497.471L457.798 496.03L460.303 497.471L457.798 498.918Z" fill="#F7F254"/>
<path d="M457.798 498.918L460.303 497.471V552.827L457.798 554.274V498.918Z" fill="#F6C716"/>
<path d="M393.287 540.391L449.345 507.943C452.354 506.212 454.802 507.603 454.802 511.052V539.743C454.802 543.198 452.354 547.421 449.345 549.158L393.287 581.6C390.273 583.337 387.831 581.94 387.831 578.491V549.8C387.831 546.351 390.273 542.128 393.287 540.391ZM451.359 504.758C450.717 504.928 450.038 505.205 449.345 505.602L393.287 538.05C392.268 538.635 391.299 539.428 390.417 540.366L390.367 540.41C387.68 543.267 385.785 547.427 385.785 550.977V579.668C385.785 584.413 389.152 586.326 393.287 583.941L449.345 551.493C452.92 549.435 455.916 544.822 456.665 540.542C456.778 539.869 456.841 539.208 456.841 538.566V509.881C456.841 505.935 454.519 503.947 451.359 504.758Z" fill="#F6C616"/>
<path d="M393.281 581.6L392.608 581.94V582.091H394.32V581.009L393.281 581.6ZM424.064 563.815V563.935H425.775V562.827L424.064 563.815ZM423.642 564.061V564.212H425.354V563.073L423.642 564.061ZM421.175 565.42V565.59H422.887V564.426L421.175 565.42ZM428.173 561.373V561.587H429.879V560.392L428.173 561.373ZM435.172 557.339V557.572H436.877V556.358L435.172 557.339ZM442.158 553.305V553.551H443.864V552.317L442.158 553.305ZM449.345 549.152L449.156 549.271V549.548H450.868V548.032L449.345 549.152Z" fill="#F6C616"/>
<path d="M456.199 538.705C456.199 542.556 453.474 547.257 450.119 549.196L393.91 581.776C390.556 583.708 387.831 582.148 387.831 578.309V549.315C387.831 545.464 390.556 540.756 393.91 538.818L450.119 506.25C453.474 504.312 456.199 505.866 456.199 509.711V538.705ZM451.359 504.758L450.119 505.35L393.91 537.924C393.124 538.371 392.368 538.963 391.67 539.649L391.626 539.699C388.957 542.317 387.044 546.345 387.044 549.768V578.755C387.044 583.104 390.122 584.86 393.91 582.67L450.119 550.096C453.178 548.334 455.777 544.526 456.665 540.838C456.778 540.171 456.841 539.51 456.841 538.868V509.881C456.841 505.935 454.519 503.947 451.359 504.758Z" fill="#F7F254"/>
<path d="M456.199 525.558L455.545 524.431L455.129 524.368L455.041 524.412L387.831 563.305V565.432L456.01 525.979V525.973H456.017L456.199 525.558Z" fill="#F6C616"/>
<path d="M384.829 541.128L382.324 539.68V595.036L384.829 596.483V541.128Z" fill="#D4641C"/>
<path d="M384.829 541.128L382.324 539.68L384.829 538.233L387.334 539.68L384.829 541.128Z" fill="#F7F254"/>
<path d="M384.829 541.128L387.334 539.68V595.036L384.829 596.483V541.128Z" fill="#F6C716"/>
<path d="M468.642 498.836L471.147 497.389V552.745L468.642 554.192V498.836Z" fill="#D4641C"/>
<path d="M468.642 498.836L471.147 497.389L468.642 495.942L466.137 497.389L468.642 498.836Z" fill="#F7F254"/>
<path d="M468.642 498.836L466.137 497.389V552.745L468.642 554.192V498.836Z" fill="#F6C716"/>
<path d="M538.615 549.718V578.403C538.615 581.858 536.167 583.255 533.152 581.518L477.094 549.07C474.086 547.333 471.638 543.116 471.638 539.655V510.976C471.638 507.521 474.086 506.124 477.094 507.861L533.152 540.31C536.167 542.046 538.615 546.263 538.615 549.718ZM469.598 509.793V538.484C469.598 539.12 469.661 539.787 469.781 540.454C470.524 544.734 473.519 549.347 477.094 551.411L533.152 583.859C537.287 586.245 540.654 584.325 540.654 579.58V550.895C540.654 547.339 538.76 543.186 536.072 540.328L536.022 540.278C535.141 539.34 534.172 538.554 533.152 537.968L477.094 505.52C476.402 505.117 475.722 504.84 475.08 504.677C471.921 503.865 469.598 505.854 469.598 509.793Z" fill="#F6C616"/>
<path d="M532.12 580.921V582.009H533.832V581.858L533.159 581.518L532.12 580.921ZM500.664 562.739V563.853H502.376V563.727L500.664 562.739ZM501.092 562.991V564.13H502.804V563.973L501.092 562.991ZM503.553 564.344V565.508H505.265V565.332L503.553 564.344ZM496.561 560.304V561.499H498.266V561.298L496.561 560.304ZM489.568 556.27V557.484H491.274V557.258L489.568 556.27ZM482.576 552.229V553.475H484.282V553.224L482.576 552.229ZM475.571 547.95V549.46H477.283V549.183L477.094 549.07L475.571 547.95Z" fill="#F6C616"/>
<path d="M470.24 509.629C470.24 505.784 472.966 504.223 476.326 506.162L532.529 538.742C535.884 540.674 538.609 545.382 538.609 549.233V578.22C538.609 582.066 535.884 583.626 532.529 581.688L476.326 549.114C472.966 547.182 470.24 542.474 470.24 538.617V509.629ZM469.598 509.793V538.786C469.598 539.422 469.661 540.089 469.781 540.756C470.662 544.444 473.261 548.245 476.326 550.014L532.529 582.594C536.318 584.778 539.402 583.022 539.402 578.667V549.686C539.402 546.263 537.482 542.229 534.82 539.611L534.77 539.567C534.071 538.881 533.316 538.289 532.529 537.836L476.326 505.262L475.08 504.677C471.921 503.865 469.598 505.853 469.598 509.793Z" fill="#F7F254"/>
<path d="M470.24 525.476L470.895 524.35L471.31 524.28L471.398 524.337L538.615 563.224L538.609 565.344L470.435 525.898H470.429V525.892L470.24 525.476Z" fill="#F6C616"/>
<path d="M541.611 541.039L544.116 539.592V594.948L541.611 596.394V541.039Z" fill="#D4641C"/>
<path d="M541.611 541.039L544.116 539.592L541.611 538.151L539.106 539.592L541.611 541.039Z" fill="#F7F254"/>
<path d="M541.611 541.039L539.106 539.592V594.948L541.611 596.394V541.039Z" fill="#F6C716"/>
<path d="M381.669 600.714L376.42 597.685V395.16L381.669 398.187V600.714Z" fill="#5B5F61"/>
<path d="M381.669 600.714L386.918 597.685V395.16L381.669 398.187V600.714Z" fill="#86898A"/>
<path d="M385.603 545.98L388.108 544.539V599.895L385.603 601.336V545.98Z" fill="#D4641C"/>
<path d="M385.603 545.98L388.108 544.539L385.603 543.085L383.098 544.539L385.603 545.98Z" fill="#F7F254"/>
<path d="M385.603 545.98L383.098 544.539V599.895L385.603 601.336V545.98Z" fill="#F6C716"/>
<path d="M455.57 596.861V625.553C455.57 629.007 453.128 630.398 450.113 628.663L394.049 596.22C391.047 594.476 388.599 590.26 388.599 586.804V558.12C388.599 554.664 391.047 553.267 394.049 555.011L450.113 587.453C453.128 589.19 455.57 593.406 455.57 596.861ZM386.559 556.936V585.628C386.559 586.263 386.622 586.93 386.736 587.597C387.478 591.877 390.474 596.491 394.049 598.56L450.113 631.003C454.248 633.388 457.609 631.468 457.609 626.723V598.044C457.609 594.482 455.721 590.329 453.027 587.472L452.983 587.421C452.102 586.496 451.133 585.703 450.113 585.112L394.049 552.669C393.357 552.26 392.683 551.984 392.041 551.826C388.882 551.008 386.559 552.997 386.559 556.936Z" fill="#F6C616"/>
<path d="M449.081 628.063V629.152H450.793V629.007L450.119 628.663L449.081 628.063ZM417.619 609.881V610.997H419.331V610.877L417.619 609.881ZM418.047 610.134V611.273H419.759V611.123L418.047 610.134ZM420.508 611.487V612.652H422.219V612.482L420.508 611.487ZM413.521 607.453V608.642H415.227V608.441L413.521 607.453ZM406.523 603.414V604.628H408.229V604.402L406.523 603.414ZM399.531 599.379V600.618H401.236V600.368L399.531 599.379ZM392.532 595.093V596.609H394.244V596.326L394.055 596.22L392.532 595.093Z" fill="#F6C616"/>
<path d="M387.195 556.779C387.195 552.934 389.927 551.379 393.281 553.312L449.484 585.886C452.838 587.824 455.57 592.532 455.57 596.377V625.364C455.57 629.216 452.838 630.769 449.484 628.832L393.281 596.257C389.927 594.325 387.195 589.618 387.195 585.766V556.779ZM386.559 556.936V585.93C386.559 586.565 386.622 587.233 386.736 587.9C387.623 591.588 390.222 595.395 393.281 597.164L449.484 629.737C453.279 631.922 456.357 630.164 456.357 625.823V596.83C456.357 593.406 454.443 589.379 451.775 586.761L451.731 586.717C451.032 586.024 450.27 585.439 449.484 584.98L393.281 552.412L392.041 551.826C388.882 551.008 386.559 552.997 386.559 556.936Z" fill="#F7F254"/>
<path d="M387.195 572.625L387.85 571.493L388.271 571.43L388.359 571.48L455.57 610.372V612.487L387.39 573.041L387.384 573.035L387.195 572.625Z" fill="#F6C616"/>
<path d="M458.572 588.183L461.07 586.742V642.097L458.572 643.538V588.183Z" fill="#D4641C"/>
<path d="M458.572 588.183L461.07 586.742L458.572 585.294L456.067 586.742L458.572 588.183Z" fill="#F7F254"/>
<path d="M458.572 588.183L456.067 586.742V642.097L458.572 643.538V588.183Z" fill="#F6C716"/>
<mask id="mask0_0_1" style="mask-type:luminance" maskUnits="userSpaceOnUse" x="452" y="520" width="25" height="31">
<path d="M476.005 520.001H452.524V543.513C452.543 545.243 453.694 546.968 455.985 548.289C460.586 550.945 468.025 550.958 472.594 548.321C474.891 546.993 476.024 545.256 476.005 543.513V520.001Z" fill="white"/>
</mask>
<g mask="url(#mask0_0_1)">
<path d="M476.005 520.001H452.524V543.513C452.543 545.243 453.694 546.968 455.985 548.289C460.586 550.945 468.025 550.958 472.594 548.321C474.891 546.993 476.024 545.256 476.005 543.513V520.001Z" fill="url(#paint0_linear_0_1)"/>
</g>
<path d="M472.594 524.809C468.025 527.452 460.586 527.433 455.985 524.777C451.384 522.122 451.366 517.83 455.935 515.193C460.504 512.556 467.943 512.568 472.544 515.218C477.145 517.874 477.163 522.172 472.594 524.809Z" fill="#FBD217"/>
<mask id="mask1_0_1" style="mask-type:luminance" maskUnits="userSpaceOnUse" x="235" y="481" width="229" height="77">
<path d="M459.415 540.121L238.951 481.869L235.554 499.327L455.991 557.585H456.01L456.017 557.591C457.307 557.824 458.761 557.213 460.07 555.703C462.713 552.669 463.796 547.144 462.499 543.355C461.845 541.461 460.712 540.366 459.415 540.121Z" fill="white"/>
</mask>
<g mask="url(#mask1_0_1)">
<path d="M459.415 540.121L238.951 481.869L235.554 499.327L455.991 557.585H456.01L456.017 557.591C457.307 557.824 458.761 557.213 460.07 555.703C462.713 552.669 463.796 547.144 462.499 543.355C461.845 541.461 460.712 540.366 459.415 540.121Z" fill="url(#paint1_linear_0_1)"/>
</g>
<path d="M242.034 609.493C243.335 613.274 242.248 618.792 239.61 621.833C236.97 624.867 233.774 624.269 232.471 620.487C231.17 616.705 232.254 611.172 234.9 608.138C237.538 605.104 240.734 605.709 242.034 609.493Z" fill="#FBD217"/>
<path d="M456.294 534.104L436.909 522.915V515.407L456.294 526.603V534.104Z" fill="#F4A316"/>
<path d="M456.294 526.603L436.909 515.407L463.871 499.843L483.262 511.033L456.294 526.603Z" fill="#FBD217"/>
<path d="M483.262 518.541L456.294 534.104V526.603L483.262 511.033V518.541Z" fill="#F4AE18"/>
<path d="M463.695 553.425L458.446 550.391V458.213L463.695 461.24V553.425Z" fill="#D4641C"/>
<path d="M463.695 553.425L468.938 550.391V458.213L463.695 461.24V553.425Z" fill="#F9AF27"/>
<path d="M546.199 601.029L540.95 598V395.475L546.199 398.508V601.029Z" fill="#5B5F61"/>
<path d="M546.199 601.029L551.448 598V395.475L546.199 398.508V601.029Z" fill="#86898A"/>
<path d="M541.189 545.671L538.684 544.23V599.586L541.189 601.029V545.671Z" fill="#D4641C"/>
<path d="M541.189 545.672L538.684 544.23L541.189 542.783L543.694 544.23L541.189 545.672Z" fill="#F7F254"/>
<path d="M541.189 545.671L543.694 544.23V599.586L541.189 601.029V545.671Z" fill="#F6C716"/>
<path d="M476.672 587.145L532.737 554.702C535.745 552.959 538.193 554.363 538.193 557.811V586.503C538.193 589.951 535.745 594.174 532.737 595.917L476.672 628.36C473.664 630.091 471.222 628.699 471.222 625.243V596.552C471.222 593.098 473.664 588.888 476.672 587.145ZM534.744 551.518C534.109 551.675 533.429 551.959 532.737 552.361L476.672 584.81C475.659 585.395 474.69 586.188 473.809 587.119L473.758 587.163C471.071 590.021 469.177 594.174 469.177 597.737V626.421C469.177 631.165 472.544 633.085 476.672 630.701L532.737 598.253C536.312 596.193 539.307 591.569 540.056 587.296C540.17 586.622 540.226 585.968 540.226 585.32V556.635C540.226 552.695 537.904 550.7 534.744 551.518Z" fill="#F6C616"/>
<path d="M476.673 628.36L475.999 628.7V628.845H477.711V627.756L476.673 628.36ZM507.455 610.57V610.687H509.167V609.586L507.455 610.57ZM507.027 610.82V610.966H508.745V609.832L507.027 610.82ZM504.566 612.18V612.35H506.278V611.179L504.566 612.18ZM511.565 608.134V608.335H513.27V607.145L511.565 608.134ZM518.557 604.092V604.326H520.263V603.111L518.557 604.092ZM525.549 600.065V600.311H527.255V599.077L525.549 600.065ZM532.737 595.911L532.542 596.023V596.302H534.254V594.791L532.737 595.911Z" fill="#F6C616"/>
<path d="M539.591 585.464C539.591 589.309 536.859 594.017 533.511 595.954L477.302 628.522C473.947 630.462 471.222 628.906 471.222 625.061V596.068C471.222 592.223 473.947 587.516 477.302 585.577L533.511 553.003C536.859 551.071 539.591 552.626 539.591 556.471V585.464ZM534.744 551.518L533.511 552.103L477.302 584.677C476.515 585.131 475.76 585.722 475.055 586.408L475.011 586.452C472.343 589.076 470.429 593.098 470.429 596.522V625.516C470.429 629.857 473.513 631.62 477.302 629.429L533.511 596.854C536.57 595.087 539.163 591.279 540.056 587.591C540.17 586.924 540.226 586.263 540.226 585.621V556.634C540.226 552.695 537.904 550.7 534.744 551.518Z" fill="#F7F254"/>
<path d="M539.59 572.318L538.936 571.191L538.521 571.122H538.514L538.432 571.172L471.222 610.066V612.192L539.402 572.733L539.59 572.318Z" fill="#F6C616"/>
<path d="M468.22 587.881L465.715 586.433V641.79L468.22 643.238V587.881Z" fill="#D4641C"/>
<path d="M468.22 587.881L465.715 586.433L468.22 584.986L470.725 586.433L468.22 587.881Z" fill="#F7F254"/>
<path d="M468.22 587.881L470.725 586.433V641.79L468.22 643.238V587.881Z" fill="#F6C716"/>
<mask id="mask2_0_1" style="mask-type:luminance" maskUnits="userSpaceOnUse" x="383" y="396" width="162" height="120">
<path d="M544.015 398.621L383.853 396.557C383.853 396.557 436.758 502.424 437.683 504.041C439.024 506.382 441.302 508.585 444.531 510.448C455.501 516.772 473.224 516.804 484.124 510.511C487.177 508.748 489.373 506.678 490.707 504.463C491.758 502.719 544.015 398.621 544.015 398.621Z" fill="white"/>
</mask>
<g mask="url(#mask2_0_1)">
<path d="M544.015 398.621L383.853 396.557C383.853 396.557 436.758 502.424 437.683 504.041C439.024 506.382 441.302 508.585 444.531 510.448C455.501 516.772 473.224 516.804 484.124 510.511C487.177 508.748 489.373 506.678 490.707 504.463C491.758 502.719 544.015 398.621 544.015 398.621Z" fill="url(#paint2_linear_0_1)"/>
</g>
<mask id="mask3_0_1" style="mask-type:luminance" maskUnits="userSpaceOnUse" x="376" y="386" width="176" height="57">
<path d="M551.536 386.979H376.999V391.755C377.138 404.594 385.722 417.439 402.747 427.269C436.934 447.011 492.193 447.105 526.166 427.495C543.222 417.646 551.668 404.707 551.53 391.755H551.536V386.979Z" fill="white"/>
</mask>
<g mask="url(#mask3_0_1)">
<path d="M551.536 386.979H376.999V391.755C377.138 404.594 385.722 417.439 402.747 427.269C436.934 447.011 492.193 447.105 526.166 427.495C543.222 417.646 551.668 404.707 551.53 391.755H551.536V386.979Z" fill="url(#paint3_linear_0_1)"/>
</g>
<path d="M526.166 422.719C492.193 442.329 436.934 442.234 402.747 422.492C368.559 402.756 368.389 370.855 402.363 351.245C436.336 331.629 491.595 331.73 525.782 351.466C559.97 371.208 560.14 403.102 526.166 422.719Z" fill="#8C9195"/>
<mask id="mask4_0_1" style="mask-type:luminance" maskUnits="userSpaceOnUse" x="381" y="303" width="166" height="131">
<path d="M546.979 303.195V385.663H546.967C547.099 397.942 539.093 410.201 522.925 419.534C504.742 430.031 480.122 434.562 456.3 433.153C440.553 432.228 425.152 428.703 412.187 422.567C410.041 421.56 407.958 420.478 405.957 419.32C389.82 410.012 381.694 397.835 381.562 385.663H381.556V303.195H546.979Z" fill="white"/>
</mask>
<g mask="url(#mask4_0_1)">
<path d="M546.979 303.195V385.663H546.967C547.099 397.942 539.093 410.201 522.925 419.534C504.742 430.031 480.122 434.562 456.3 433.153C440.553 432.228 425.152 428.703 412.187 422.567C410.041 421.56 407.958 420.478 405.957 419.32C389.82 410.012 381.694 397.835 381.562 385.663H381.556V303.195H546.979Z" fill="url(#paint4_linear_0_1)"/>
</g>
<path d="M522.931 337.066C490.733 355.657 438.363 355.562 405.963 336.859C373.557 318.148 373.399 287.915 405.598 269.325C437.796 250.734 490.166 250.835 522.566 269.532C554.972 288.243 555.136 318.476 522.931 337.066Z" fill="#6458B1"/>
<mask id="mask5_0_1" style="mask-type:luminance" maskUnits="userSpaceOnUse" x="376" y="304" width="176" height="57">
<path d="M551.536 304.964H376.999V309.741C377.138 322.585 385.722 335.43 402.747 345.26C436.934 364.99 492.193 365.097 526.166 345.48C543.222 335.631 551.668 322.692 551.53 309.747L551.536 309.741V304.964Z" fill="white"/>
</mask>
<g mask="url(#mask5_0_1)">
<path d="M551.536 304.964H376.999V309.741C377.138 322.585 385.722 335.43 402.747 345.26C436.934 364.99 492.193 365.097 526.166 345.48C543.222 335.631 551.668 322.692 551.53 309.747L551.536 309.741V304.964Z" fill="url(#paint5_linear_0_1)"/>
</g>
<path d="M526.166 340.704C492.193 360.32 436.934 360.219 402.747 340.483C368.559 320.741 368.389 288.847 402.363 269.23C436.336 249.614 491.595 249.715 525.782 269.457C559.97 289.186 560.14 321.094 526.166 340.704Z" fill="#8C9195"/>
<mask id="mask6_0_1" style="mask-type:luminance" maskUnits="userSpaceOnUse" x="381" y="221" width="166" height="131">
<path d="M546.979 221.181V303.649H546.967C547.099 315.921 539.093 328.193 522.925 337.519C504.742 348.029 480.122 352.567 456.3 351.144C440.553 350.219 425.146 346.689 412.187 340.559C410.041 339.539 407.958 338.463 405.957 337.305C389.82 327.991 381.694 315.826 381.562 303.649H381.556V221.181H546.979Z" fill="white"/>
</mask>
<g mask="url(#mask6_0_1)">
<path d="M546.979 221.181V303.649H546.967C547.099 315.921 539.093 328.193 522.925 337.519C504.742 348.029 480.122 352.567 456.3 351.144C440.553 350.219 425.146 346.689 412.187 340.559C410.041 339.539 407.958 338.463 405.957 337.305C389.82 327.991 381.694 315.826 381.562 303.649H381.556V221.181H546.979Z" fill="url(#paint6_linear_0_1)"/>
</g>
<path d="M522.931 255.058C490.733 273.642 438.363 273.548 405.963 254.838C373.557 236.14 373.399 205.901 405.598 187.31C437.796 168.726 490.166 168.814 522.566 187.524C554.972 206.234 555.136 236.461 522.931 255.058Z" fill="#6458B1"/>
<mask id="mask7_0_1" style="mask-type:luminance" maskUnits="userSpaceOnUse" x="376" y="222" width="176" height="57">
<path d="M551.536 222.955H376.999V227.732C377.138 240.57 385.722 253.415 402.747 263.239C436.934 282.981 492.193 283.082 526.166 263.466C543.222 253.623 551.668 240.677 551.53 227.732H551.536V222.955Z" fill="white"/>
</mask>
<g mask="url(#mask7_0_1)">
<path d="M551.536 222.955H376.999V227.732C377.138 240.57 385.722 253.415 402.747 263.239C436.934 282.981 492.193 283.082 526.166 263.466C543.222 253.623 551.668 240.677 551.53 227.732H551.536V222.955Z" fill="url(#paint7_linear_0_1)"/>
</g>
<path d="M526.166 258.695C492.193 278.305 436.934 278.205 402.747 258.469C368.559 238.733 368.389 206.826 402.363 187.216C436.336 167.599 491.595 167.706 525.782 187.436C559.97 207.178 560.14 239.079 526.166 258.695Z" fill="#8C9195"/>
<mask id="mask8_0_1" style="mask-type:luminance" maskUnits="userSpaceOnUse" x="381" y="52" width="166" height="218">
<path d="M546.979 52.6958V221.64H546.967C547.099 233.912 539.093 246.172 522.925 255.511C504.742 266.021 480.122 270.546 456.3 269.13C440.553 268.198 425.146 264.68 412.187 258.538C410.041 257.531 407.958 256.449 405.957 255.297C389.82 245.983 381.694 233.812 381.562 221.64H381.556V52.6958H546.979Z" fill="white"/>
</mask>
<g mask="url(#mask8_0_1)">
<path d="M546.979 52.6958V221.64H546.967C547.099 233.912 539.093 246.172 522.925 255.511C504.742 266.021 480.122 270.546 456.3 269.13C440.553 268.198 425.146 264.68 412.187 258.538C410.041 257.531 407.958 256.449 405.957 255.297C389.82 245.983 381.694 233.812 381.562 221.64H381.556V52.6958H546.979Z" fill="url(#paint8_linear_0_1)"/>
</g>
<mask id="mask9_0_1" style="mask-type:luminance" maskUnits="userSpaceOnUse" x="376" y="54" width="176" height="56">
<path d="M551.536 54.4705H376.999V59.2409C377.138 72.0856 385.722 84.9303 402.747 94.7605C436.934 114.496 492.193 114.597 526.166 94.9807C543.222 85.138 551.668 72.1926 551.53 59.2472L551.536 59.2409V54.4705Z" fill="white"/>
</mask>
<g mask="url(#mask9_0_1)">
<path d="M551.536 54.4705H376.999V59.2409C377.138 72.0856 385.722 84.9303 402.747 94.7605C436.934 114.496 492.193 114.597 526.166 94.9807C543.222 85.138 551.668 72.1926 551.53 59.2472L551.536 59.2409V54.4705Z" fill="url(#paint9_linear_0_1)"/>
</g>
<path d="M526.166 90.2041C492.193 109.82 436.934 109.72 402.747 89.9839C368.559 70.2417 368.389 38.347 402.363 18.7307C436.336 -0.879347 491.595 -0.784956 525.782 18.9572C559.97 38.6931 560.14 70.5941 526.166 90.2041Z" fill="#8C9195"/>
<path d="M503.893 71.2231C482.142 83.7846 446.765 83.7154 424.882 71.0784C402.992 58.4414 402.879 38.0195 424.63 25.458C446.381 12.9028 481.758 12.972 503.647 25.609C525.537 38.2398 525.65 58.6679 503.893 71.2231Z" fill="#9EA1A3"/>
<mask id="mask10_0_1" style="mask-type:luminance" maskUnits="userSpaceOnUse" x="436" y="16" width="57" height="45">
<path d="M492.256 16.1629H436.267V44.0739H436.273C436.317 48.196 439.068 52.3181 444.531 55.4711C455.5 61.8022 473.224 61.8273 484.124 55.5403C489.593 52.381 492.3 48.2275 492.256 44.0739V16.1629Z" fill="white"/>
</mask>
<g mask="url(#mask10_0_1)">
<path d="M492.256 16.1629H436.267V44.0739H436.273C436.317 48.196 439.068 52.3181 444.531 55.4711C455.5 61.8022 473.224 61.8273 484.124 55.5403C489.593 52.381 492.3 48.2275 492.256 44.0739V16.1629Z" fill="url(#paint10_linear_0_1)"/>
</g>
<path d="M484.124 27.6294C473.224 33.9228 455.501 33.885 444.531 27.5539C433.567 21.2228 433.51 10.9899 444.405 4.69656C455.305 -1.59677 473.029 -1.55901 483.998 4.77208C494.968 11.1032 495.019 21.3361 484.124 27.6294Z" fill="#FBD217"/>
<path d="M464.205 648.366L458.962 645.332V442.813L464.205 445.84V648.366Z" fill="#5B5F61"/>
<path d="M464.205 648.366L469.454 645.332V442.813L464.205 445.84V648.366Z" fill="#86898A"/>
<path d="M464.205 818.367L458.962 815.341V658.145L464.205 661.179V818.367Z" fill="#5B5F61"/>
<path d="M464.205 818.367L469.454 815.341V658.145L464.205 661.179V818.367Z" fill="#86898A"/>
<path d="M426.782 709.625L421.565 712.607L423.453 717.334L426.782 709.625Z" fill="#86898A"/>
<path d="M300.462 183.421L435.858 105.258L386.207 76.5853L250.811 154.755L300.462 183.421Z" fill="#ACB0AF"/>
<path d="M300.462 179.336L435.858 101.173L386.207 72.5134L250.811 150.677L300.462 179.336Z" fill="#9EA1A3"/>
<path d="M464.293 454.613L457.08 450.441V437.294L464.293 441.454V454.613Z" fill="#D4641C"/>
<path d="M464.293 441.454L457.08 437.294L464.243 433.153L471.455 437.319L464.293 441.454Z" fill="#F7F254"/>
<path d="M471.455 450.472L464.293 454.613V441.454L471.455 437.319V450.472Z" fill="#F9AF27"/>
<path d="M551.467 418.005L544.261 413.845V400.692L551.467 404.852V418.005Z" fill="#D4641C"/>
<path d="M551.467 404.852L544.261 400.692L551.423 396.557L558.629 400.717L551.467 404.852Z" fill="#F7F254"/>
<path d="M558.629 413.87L551.467 418.005V404.852L558.629 400.717V413.87Z" fill="#F9AF27"/>
<path d="M153.704 991.397L91.8854 955.759V759.456L153.704 795.094V991.397Z" fill="#4B4B43"/>
<path d="M153.704 795.094L91.8854 759.456L101.201 754.082L163.022 789.721L153.704 795.094Z" fill="#CDC6B5"/>
<path d="M163.022 986.023L153.704 991.397V795.094L163.022 789.72V986.023Z" fill="#B8B2A1"/>
<path d="M168.836 1004.86L149.595 993.769V797.474L168.836 808.568V1004.86Z" fill="#63635B"/>
<path d="M168.836 808.568L149.595 797.474L163.609 789.381L182.851 800.476L168.836 808.568Z" fill="#CDC6B5"/>
<path d="M182.851 996.778L168.836 1004.86V808.568L182.851 800.476V996.778Z" fill="#B8B2A1"/>
<path d="M276.256 849.318L257.011 838.228V641.92L276.256 653.017V849.318Z" fill="#63635B"/>
<path d="M276.256 653.017L257.011 641.92L271.03 633.835L290.27 644.929L276.256 653.017Z" fill="#CDC6B5"/>
<path d="M290.27 841.225L276.256 849.318V653.017L290.27 644.929V841.225Z" fill="#B8B2A1"/>
<path d="M342.189 882.584L280.37 846.945V650.645L342.189 686.284V882.584Z" fill="#322F27"/>
<path d="M342.189 686.283L280.37 650.645L289.682 645.264L351.504 680.909L342.189 686.283Z" fill="#CDC6B5"/>
<path d="M351.503 877.205L342.189 882.584V686.284L351.503 680.91V877.205Z" fill="#B8B2A1"/>
<path d="M357.319 896.053L338.079 884.958V688.656L357.319 699.75V896.053Z" fill="#63635B"/>
<path d="M357.319 699.75L338.079 688.656L352.089 680.568L371.335 691.665L357.319 699.75Z" fill="#CDC6B5"/>
<path d="M371.335 887.96L357.319 896.053V699.75L371.335 691.664V887.96Z" fill="#B8B2A1"/>
<path d="M328.645 905.909L346.292 895.714V695.628L328.645 705.817V905.909Z" fill="#1C1913"/>
<path d="M186.977 850.116L346.292 758.141V695.628L186.977 787.606V850.116Z" fill="#1C1913"/>
<path d="M308.404 917.588L326.052 907.399V707.315L308.404 717.497V917.588Z" fill="#1C1913"/>
<path d="M288.168 929.267L305.818 919.08V718.996L288.168 729.183V929.267Z" fill="#1C1913"/>
<path d="M267.932 940.955L285.576 930.768V730.684L267.932 740.871V940.955Z" fill="#1C1913"/>
<path d="M247.691 952.637L265.341 942.447V742.363L247.691 752.553V952.637Z" fill="#1C1913"/>
<path d="M227.454 964.324L245.102 954.134V754.05L227.454 764.24V964.324Z" fill="#1C1913"/>
<path d="M207.215 976.003L224.864 965.821V765.73L207.215 775.919V976.003Z" fill="#1C1913"/>
<path d="M186.977 987.69L204.626 977.5V777.416L186.977 787.606V987.69Z" fill="#1C1913"/>
<path d="M180.265 815.159L55.5588 743.263V730.45L180.265 802.339V815.159Z" fill="#63635B"/>
<path d="M221.568 743.125L179.036 718.569L189.902 712.288L221.299 694.163L252.977 708.197L263.841 718.718L221.568 743.125ZM257.471 613.878L55.5613 730.455L180.268 802.339L382.179 685.78L257.471 613.878Z" fill="#CDC6B5"/>
<path d="M274.007 712.042L263.841 718.719L221.299 694.163L179.036 718.569L168.602 712.049L221.299 681.62L274.007 712.042Z" fill="#63635B"/>
<path d="M382.173 698.587L180.265 815.159V802.339L382.173 685.775V698.587Z" fill="#B8B2A1"/>
<path d="M55.5588 730.45L26.5443 747.265L64.1661 768.953L93.1838 752.143L55.5588 730.45Z" fill="#CDC6B5"/>
<path d="M93.1838 764.95L64.1636 781.765V768.953L93.1838 752.143V764.95Z" fill="#B8B2A1"/>
<path d="M257.471 561.512L259.974 560.064V615.42L257.471 616.868V561.512Z" fill="#D4641C"/>
<path d="M257.471 561.512L259.974 560.064L257.471 558.617L254.966 560.064L257.471 561.512Z" fill="#F7F254"/>
<path d="M257.471 561.512L254.966 560.064V615.42L257.471 616.868V561.512Z" fill="#F6C716"/>
<path d="M376.672 640.632V669.323C376.672 672.777 374.224 674.169 371.215 672.438L265.921 611.744C262.917 610.009 260.463 605.79 260.463 602.331V573.651C260.463 570.196 262.917 568.799 265.921 570.536L371.215 631.222C374.224 632.96 376.672 637.183 376.672 640.632ZM258.43 572.468V601.159C258.43 601.795 258.491 602.462 258.605 603.13C259.352 607.408 262.349 612.022 265.921 614.087L371.215 674.778C375.35 677.163 378.711 675.245 378.711 670.498V641.815C378.711 638.252 376.823 634.105 374.129 631.241L374.085 631.197C373.198 630.266 372.235 629.474 371.215 628.889L265.921 568.195C265.228 567.792 264.552 567.515 263.907 567.352C260.751 566.54 258.43 568.529 258.43 572.468Z" fill="#F6C616"/>
<path d="M370.177 671.833V672.923H371.889V672.777L371.215 672.438L370.177 671.833ZM318.468 641.977V643.093H320.18V642.965L318.468 641.977ZM318.89 642.23V643.368H320.608V643.219L318.89 642.23ZM311.904 638.184V639.354H313.615V639.184L311.904 638.184ZM304.911 634.149V635.344H306.617V635.138L304.911 634.149ZM303.867 633.646V634.855H305.572V634.626L303.867 633.646ZM296.876 629.607V630.838H298.58V630.592L296.876 629.607ZM264.402 610.626V612.135H266.115V611.858L265.921 611.744L264.402 610.626Z" fill="#F6C616"/>
<path d="M259.069 572.305C259.069 568.46 261.798 566.899 265.151 568.837L370.586 629.656C373.94 631.593 376.672 636.301 376.672 640.148V669.134C376.672 672.986 373.94 674.54 370.586 672.6L265.151 611.789C261.798 609.857 259.069 605.144 259.069 601.299V572.305ZM258.43 572.468V601.461C258.43 602.098 258.491 602.764 258.605 603.43C259.492 607.12 262.091 610.921 265.151 612.689L370.586 673.508C374.375 675.691 377.459 673.935 377.459 669.594V640.6C377.459 637.176 375.545 633.154 372.877 630.536L372.833 630.487C372.128 629.794 371.373 629.209 370.586 628.749L265.151 567.937L263.907 567.352C260.751 566.54 258.43 568.529 258.43 572.468Z" fill="#F7F254"/>
<path d="M259.069 588.151L259.721 587.025L260.139 586.956L260.141 586.962L260.225 587.012L376.672 654.143V656.27L259.259 588.573L259.254 588.567L259.069 588.151Z" fill="#F6C616"/>
<path d="M379.668 631.959L382.173 630.511V685.868L379.668 687.316V631.959Z" fill="#D4641C"/>
<path d="M379.668 631.959L382.173 630.511L379.668 629.063L377.163 630.511L379.668 631.959Z" fill="#F7F254"/>
<path d="M379.668 631.959L377.163 630.511V685.868L379.668 687.316V631.959Z" fill="#F6C716"/>
<path d="M111.045 707.076L113.547 705.629V760.985L111.045 762.433V707.076Z" fill="#D4641C"/>
<path d="M111.045 707.076L113.547 705.629L111.045 704.188L108.542 705.629L111.045 707.076Z" fill="#F7F254"/>
<path d="M111.045 707.076L108.542 705.629V760.985L111.045 762.433V707.076Z" fill="#F6C716"/>
<path d="M177.266 755.66V784.351C177.266 787.8 174.82 789.204 171.81 787.461L119.496 757.317C116.49 755.571 114.039 751.356 114.039 747.901V719.21C114.039 715.766 116.49 714.365 119.496 716.1L171.81 746.252C174.82 747.995 177.266 752.211 177.266 755.66ZM112.003 718.033V746.724C112.003 747.366 112.065 748.027 112.18 748.693C112.928 752.973 115.922 757.587 119.496 759.65L171.81 789.802C175.941 792.189 179.307 790.274 179.307 785.529V756.845C179.307 753.288 177.414 749.128 174.724 746.272L174.68 746.22C173.797 745.288 172.826 744.496 171.81 743.912L119.496 713.76C118.804 713.365 118.127 713.079 117.486 712.917C114.326 712.106 112.003 714.095 112.003 718.033Z" fill="#F6C616"/>
<path d="M112.645 717.876C112.645 714.023 115.372 712.47 118.727 714.41L171.181 744.679C174.537 746.618 177.266 751.324 177.266 755.176V784.169C177.266 788.015 174.537 789.57 171.181 787.638L118.727 757.354C115.372 755.415 112.645 750.709 112.645 746.862V717.876ZM112.003 718.033V747.019C112.003 747.664 112.065 748.322 112.18 748.996C113.067 752.683 115.666 756.486 118.727 758.261L171.181 788.531C174.97 790.728 178.052 788.966 178.052 784.617V755.629C178.052 752.211 176.14 748.177 173.475 745.562L173.426 745.51C172.725 744.824 171.968 744.231 171.181 743.786L118.727 713.502L117.486 712.918C114.326 712.106 112.003 714.095 112.003 718.033Z" fill="#F7F254"/>
<path d="M112.645 733.717L113.297 732.588L113.714 732.527L113.8 732.576L177.266 769.173V771.292L112.834 734.137H112.83L112.645 733.717Z" fill="#F6C616"/>
<path d="M180.265 746.989L182.77 745.541V800.898L180.265 802.339V746.989Z" fill="#D4641C"/>
<path d="M180.265 746.99L182.77 745.541L180.265 744.101L177.76 745.541L180.265 746.99Z" fill="#F7F254"/>
<path d="M180.265 746.989L177.76 745.541V800.898L180.265 802.339V746.989Z" fill="#F6C716"/>
<path d="M257.471 561.512L254.966 560.064V615.42L257.471 616.868V561.512Z" fill="#D4641C"/>
<path d="M257.471 561.512L254.966 560.064L257.471 558.617L259.974 560.064L257.471 561.512Z" fill="#F7F254"/>
<path d="M257.471 561.512L259.974 560.064V615.42L257.471 616.868V561.512Z" fill="#F6C716"/>
<path d="M169.2 616.528L249.016 570.536C252.023 568.799 254.474 570.196 254.474 573.651V602.331C254.474 605.79 252.023 610.009 249.016 611.744L169.2 657.737C166.188 659.473 163.742 658.076 163.742 654.628V625.936C163.742 622.482 166.188 618.264 169.2 616.528ZM251.03 567.352C250.388 567.515 249.712 567.792 249.016 568.195L169.2 614.188C168.182 614.773 167.211 615.564 166.328 616.496L166.281 616.548C163.594 619.405 161.701 623.556 161.701 627.119V655.798C161.701 660.545 165.067 662.462 169.2 660.078L249.016 614.087C252.594 612.022 255.588 607.408 256.333 603.13C256.451 602.462 256.512 601.795 256.512 601.159V572.468C256.512 568.529 254.189 566.54 251.03 567.352Z" fill="#F6C616"/>
<path d="M169.195 657.737L168.521 658.077V658.226H170.234V657.14L169.195 657.737ZM220.235 628.272V628.39H221.947V627.283L220.235 628.272ZM219.807 628.517V628.668H221.519V627.529L219.807 628.517ZM226.799 624.483V624.653H228.513V623.495L226.799 624.483ZM233.799 620.442V620.644H235.504V619.454L233.799 620.442ZM234.839 619.933V620.159H236.547V618.945L234.839 619.933ZM241.83 615.892V616.15H243.536V614.903L241.83 615.892ZM249.016 611.744L248.822 611.858V612.135H250.538V610.626L249.016 611.744Z" fill="#F6C616"/>
<path d="M255.871 601.299C255.871 605.144 253.144 609.856 249.789 611.788L169.827 657.907C166.471 659.844 163.744 658.29 163.744 654.438V625.452C163.744 621.6 166.471 616.892 169.827 614.955L249.789 568.837C253.144 566.899 255.871 568.459 255.871 572.305V601.299ZM251.03 567.352L249.789 567.937L169.827 614.06C169.04 614.515 168.283 615.1 167.582 615.786L167.535 615.835C164.868 618.453 162.955 622.482 162.955 625.899V654.893C162.955 659.234 166.038 660.997 169.827 658.807L249.789 612.688C252.849 610.921 255.448 607.12 256.333 603.43C256.451 602.764 256.512 602.098 256.512 601.461V572.468C256.512 568.529 254.189 566.54 251.03 567.352Z" fill="#F7F254"/>
<path d="M255.871 588.151L255.219 587.025L254.801 586.956V586.962L254.715 587.012L163.742 639.447L163.744 641.569L255.679 588.573L255.686 588.567L255.871 588.151Z" fill="#F6C616"/>
<path d="M160.742 617.259L158.237 615.818V671.173L160.742 672.616V617.259Z" fill="#D4641C"/>
<path d="M160.742 617.259L158.237 615.818L160.742 614.37L163.248 615.818L160.742 617.259Z" fill="#F7F254"/>
<path d="M160.742 617.259L163.248 615.818V671.173L160.742 672.616V617.259Z" fill="#F6C716"/>
<path d="M160.742 617.259L158.237 615.818V671.173L160.742 672.616V617.259Z" fill="#D4641C"/>
<path d="M160.742 617.259L158.237 615.818L160.742 614.37L163.248 615.818L160.742 617.259Z" fill="#F7F254"/>
<path d="M160.742 617.259L163.248 615.818V671.173L160.742 672.616V617.259Z" fill="#F6C716"/>
<path d="M98.6215 657.27L152.29 626.287C155.297 624.545 157.746 625.943 157.746 629.398V658.089C157.746 661.538 155.297 665.754 152.29 667.497L98.6215 698.479C95.615 700.217 93.1662 698.818 93.1662 695.364V666.678C93.1662 663.224 95.615 659.008 98.6215 657.27ZM154.304 623.104C153.662 623.262 152.986 623.539 152.29 623.948L98.6215 654.93C97.6038 655.515 96.6378 656.309 95.7554 657.246L95.7056 657.29C93.0163 660.146 91.1232 664.301 91.1232 667.856V696.542C91.1232 701.286 94.4916 703.207 98.6215 700.819L152.29 669.839C155.865 667.774 158.862 663.155 159.609 658.883C159.724 658.209 159.784 657.553 159.784 656.906V628.22C159.784 624.282 157.461 622.286 154.304 623.104Z" fill="#F6C616"/>
<path d="M98.6215 698.479L97.9456 698.818V698.97H99.6594V697.882L98.6215 698.479ZM117.554 687.547V687.675H119.268V686.561L117.554 687.547ZM117.129 687.793V687.95H118.84V686.812L117.129 687.793ZM124.121 683.766V683.928H125.832V682.765L124.121 683.766ZM131.12 679.72V679.921H132.827V678.731L131.12 679.72ZM138.112 675.678V675.912H139.816V674.69L138.112 675.678ZM145.107 671.644V671.897H146.813V670.663L145.107 671.644ZM152.288 667.497L152.096 667.61V667.888H153.81V666.371L152.288 667.497Z" fill="#F6C616"/>
<path d="M159.144 657.051C159.144 660.896 156.415 665.604 153.062 667.541L99.2484 698.649C95.8951 700.589 93.1662 699.027 93.1662 695.183V666.194C93.1662 662.344 95.8951 657.637 99.2484 655.704L153.062 624.589C156.415 622.657 159.144 624.213 159.144 628.058V657.051ZM154.304 623.104L153.062 623.689L99.2484 654.797C98.4642 655.252 97.7096 655.842 97.0066 656.535L96.9601 656.572C94.2922 659.197 92.377 663.224 92.377 666.649V695.635C92.377 699.984 95.4628 701.739 99.2484 699.548L153.062 668.441C156.123 666.673 158.719 662.865 159.609 659.178C159.725 658.511 159.784 657.851 159.784 657.209V628.22C159.784 624.282 157.461 622.286 154.304 623.104Z" fill="#F7F254"/>
<path d="M159.144 643.904L158.493 642.771L158.075 642.707H158.07L157.987 642.759L93.1662 680.184V682.313L158.953 644.32H158.96L158.957 644.312L159.144 643.904Z" fill="#F6C616"/>
<path d="M90.1698 658.001L87.6642 656.553V711.909L90.1698 713.365V658.001Z" fill="#D4641C"/>
<path d="M90.1698 658.001L87.6642 656.553L90.1698 655.112L92.6721 656.553L90.1698 658.001Z" fill="#F7F254"/>
<path d="M90.1698 658.001L92.6721 656.553V711.909L90.1698 713.365V658.001Z" fill="#F6C716"/>
<path d="M90.1698 658.001L87.6642 656.553V711.909L90.1698 713.365V658.001Z" fill="#D4641C"/>
<path d="M90.1698 658.001L87.6642 656.553L90.1698 655.112L92.6721 656.553L90.1698 658.001Z" fill="#F7F254"/>
<path d="M90.1698 658.001L92.6721 656.553V711.909L90.1698 713.365V658.001Z" fill="#F6C716"/>
<path d="M37.5016 692.621L81.7148 667.025C84.7213 665.294 87.1727 666.693 87.1727 670.14V698.826C87.1727 702.28 84.7213 706.503 81.7148 708.241L37.5016 733.83C34.4926 735.566 32.0462 734.162 32.0462 730.72V702.029C32.0462 698.575 34.4926 694.352 37.5016 692.621ZM83.7257 663.846C83.0894 664.011 82.4084 664.289 81.7148 664.684L37.5016 690.278C36.4889 690.866 35.5178 691.657 34.6348 692.589L34.5857 692.638C31.8964 695.497 30.0058 699.65 30.0058 703.212V731.89C30.0058 736.635 33.3717 738.555 37.5016 736.17L81.7148 710.574C85.2922 708.516 88.2861 703.905 89.0312 699.625C89.1496 698.959 89.2081 698.29 89.2081 697.656V668.965C89.2081 665.019 86.8876 663.035 83.7257 663.846Z" fill="#F6C616"/>
<path d="M88.5718 697.789C88.5718 701.639 85.8428 706.346 82.487 708.279L38.131 734C34.7752 735.937 32.0462 734.383 32.0462 730.531V701.545C32.0462 697.693 34.7752 692.985 38.131 691.048L82.487 665.334C85.8428 663.394 88.5718 664.948 88.5718 668.8V697.789ZM83.7256 663.847L82.487 664.427L38.131 690.148C37.3443 690.601 36.5897 691.185 35.8866 691.879L35.8394 691.928C33.1722 694.546 31.2595 698.568 31.2595 701.992V730.986C31.2595 735.327 34.3422 737.09 38.131 734.9L82.487 709.186C85.5477 707.415 88.1463 703.61 89.0312 699.92C89.1495 699.254 89.2081 698.593 89.2081 697.958V668.965C89.2081 665.019 86.8876 663.035 83.7256 663.847Z" fill="#F7F254"/>
<path d="M88.5718 684.641L87.9153 683.52L87.4974 683.451L87.4112 683.5L32.0462 715.54V717.654L88.3773 685.069L88.3798 685.062H88.3823L88.5718 684.641Z" fill="#F6C616"/>
<path d="M175.4 718.815V658.271H175.228L174.761 657.868C173.912 657.379 172.543 657.378 171.698 657.862L171.23 658.271H171.068V718.815H171.071L171.71 719.694C172.558 720.186 173.93 720.186 174.77 719.7L175.4 718.815Z" fill="#5B5F61"/>
<path d="M177.497 679.322V677.34L177.121 677.347L176.334 676.706C174.793 675.811 172.297 675.804 170.761 676.698L169.915 677.421H169.613V679.336C169.598 679.926 169.986 680.531 170.778 680.983C172.322 681.878 174.82 681.883 176.354 680.998C177.153 680.538 177.534 679.926 177.497 679.322Z" fill="#B7B8B5"/>
<path d="M176.334 675.799C174.793 674.904 172.297 674.904 170.761 675.791C169.227 676.679 169.234 678.115 170.778 679.015C172.322 679.902 174.82 679.902 176.354 679.022C177.888 678.134 177.881 676.699 176.334 675.799Z" fill="#888988"/>
<path d="M229.739 716.956H229.742V626.642H229.57L229.103 626.239C228.252 625.747 226.88 625.742 226.039 626.231L225.567 626.642H225.408V716.956L226.047 717.839C226.898 718.328 228.267 718.335 229.113 717.844L229.739 716.956Z" fill="#899896"/>
<path d="M227.935 702.336L165.787 666.459V645.244L227.935 681.123V702.336Z" fill="#899896"/>
<path d="M227.935 681.124L165.787 645.244L178.618 631.008L224.232 657.295L227.935 681.124Z" fill="#A4AFAD"/>
<path d="M223.426 730.745L207.871 721.765L165.787 666.459L227.935 702.336L223.426 730.745Z" fill="#617478"/>
<path d="M227.935 702.336L290.085 666.459V645.244L227.935 681.123V702.336Z" fill="#B4BEBB"/>
<path d="M227.935 681.124L290.085 645.244L273.55 628.825L224.232 657.295L227.935 681.124Z" fill="#D7DDDA"/>
<path d="M223.426 730.745L238.986 721.765L290.085 666.459L227.935 702.336L223.426 730.745Z" fill="#9DABAB"/>
<path d="M224.232 657.295L178.618 631.008L227.935 602.531L273.55 628.825L224.232 657.295Z" fill="#B4BEBB"/>
<path d="M269.481 628.82L242.12 644.622L224.235 654.954L210.05 646.805L182.69 631.003L227.938 604.878L269.481 628.82Z" fill="#617478"/>
<path d="M242.12 644.622L224.235 654.954L210.05 646.805L227.938 636.478L242.12 644.622Z" fill="#A4A35F"/>
<path d="M227.935 604.878L226.401 619.071L256.085 636.559L269.481 628.825L227.935 604.878Z" fill="#76888A"/>
<path d="M182.687 631.008L227.935 604.878L226.401 619.07L195.24 638.252L182.687 631.008Z" fill="#516668"/>
<path d="M230.101 749.846V707.718H229.934L229.467 707.322C229.462 708.58 226.399 708.573 226.401 707.314L225.932 707.718H225.772V749.846L226.411 750.721C227.259 751.21 228.631 751.21 229.474 750.726L230.101 749.846Z" fill="#5B5F61"/>
<path d="M284.443 718.21V675.263H284.274L283.804 674.867C282.956 674.371 281.584 674.371 280.743 674.86L280.273 675.263H280.114V718.21L280.753 719.09C281.601 719.581 282.97 719.581 283.814 719.097L284.443 718.21Z" fill="#5B5F61"/>
<path d="M231.879 706.673V708.657C231.915 709.259 231.534 709.871 230.735 710.324C229.199 711.218 226.703 711.211 225.16 710.319C224.387 709.877 223.999 709.286 223.999 708.706V706.761L224.294 706.757L225.135 706.031L226.226 707.617L230.458 705.898L230.716 706.039L231.5 706.68L231.871 706.673H231.879Z" fill="#B7B8B5"/>
<path d="M231.879 706.757C231.879 707.334 231.5 707.919 230.735 708.355C229.199 709.247 226.703 709.242 225.16 708.347C224.397 707.907 224.017 707.334 223.999 706.761L224.397 705.729L225.135 706.031L226.494 707.027L230.458 705.898L231.274 705.534L231.871 706.673L231.879 706.757Z" fill="#888988"/>
<path d="M286.221 677.045V675.069H285.842L285.058 674.427C283.511 673.539 281.016 673.532 279.48 674.415L278.639 675.15H278.336V677.05C278.319 677.655 278.705 678.259 279.499 678.712C281.046 679.607 283.541 679.612 285.075 678.724C285.872 678.264 286.252 677.65 286.221 677.045Z" fill="#B7B8B5"/>
<path d="M285.058 673.527C283.511 672.632 281.016 672.627 279.48 673.52C277.945 674.402 277.955 675.843 279.499 676.731C281.046 677.623 283.541 677.63 285.075 676.743C286.609 675.863 286.599 674.415 285.058 673.527Z" fill="#888988"/>
<path d="M284.443 673.023L279.241 676.566L279.302 678.586L277.208 678.158C277.208 678.158 277.151 674.496 277.864 673.854C278.577 673.218 281.975 671.713 282.071 671.713L284.443 673.023Z" fill="#9DABAB"/>
<mask id="mask11_0_1" style="mask-type:luminance" maskUnits="userSpaceOnUse" x="213" y="609" width="25" height="31">
<path d="M237.056 609.316H213.568V632.827H213.573C213.59 634.553 214.745 636.283 217.034 637.604C221.634 640.266 229.068 640.278 233.641 637.636C235.937 636.313 237.071 634.565 237.053 632.827H237.056V609.316Z" fill="white"/>
</mask>
<g mask="url(#mask11_0_1)">
<path d="M237.056 609.316H213.568V632.827H213.573C213.59 634.553 214.745 636.283 217.034 637.604C221.634 640.266 229.068 640.278 233.641 637.636C235.937 636.313 237.071 634.565 237.053 632.827H237.056V609.316Z" fill="url(#paint11_linear_0_1)"/>
</g>
<path d="M233.641 614.124C229.068 616.762 221.634 616.747 217.034 614.092C212.434 611.437 212.412 607.145 216.983 604.507C221.555 601.864 228.99 601.876 233.59 604.532C238.189 607.194 238.214 611.481 233.641 614.124Z" fill="#FBD217"/>
<mask id="mask12_0_1" style="mask-type:luminance" maskUnits="userSpaceOnUse" x="142" y="496" width="161" height="120">
<path d="M302.897 498.83L142.734 496.76C142.734 496.76 195.643 602.627 196.57 604.244C197.905 606.585 200.189 608.787 203.414 610.651C214.379 616.976 232.11 617.005 243.005 610.719C246.061 608.957 248.254 606.879 249.587 604.665C250.641 602.921 302.897 498.83 302.897 498.83Z" fill="white"/>
</mask>
<g mask="url(#mask12_0_1)">
<path d="M302.897 498.83L142.734 496.76C142.734 496.76 195.643 602.627 196.57 604.244C197.905 606.585 200.189 608.787 203.414 610.651C214.379 616.976 232.11 617.005 243.005 610.719C246.061 608.957 248.254 606.879 249.587 604.665C250.641 602.921 302.897 498.83 302.897 498.83Z" fill="url(#paint12_linear_0_1)"/>
</g>
<mask id="mask13_0_1" style="mask-type:luminance" maskUnits="userSpaceOnUse" x="135" y="487" width="176" height="56">
<path d="M310.418 487.181H135.88V491.958H135.882C136.022 504.803 144.608 517.641 161.63 527.477C195.818 547.207 251.077 547.308 285.05 527.698C302.104 517.849 310.55 504.909 310.412 491.958H310.418V487.181Z" fill="white"/>
</mask>
<g mask="url(#mask13_0_1)">
<path d="M310.418 487.181H135.88V491.958H135.882C136.022 504.803 144.608 517.641 161.63 527.477C195.818 547.207 251.077 547.308 285.05 527.698C302.104 517.849 310.55 504.909 310.412 491.958H310.418V487.181Z" fill="url(#paint13_linear_0_1)"/>
</g>
<path d="M285.05 522.921C251.077 542.531 195.818 542.437 161.63 522.701C127.442 502.959 127.271 471.058 161.246 451.448C195.22 431.831 250.477 431.932 284.665 451.668C318.852 471.41 319.022 503.305 285.05 522.921Z" fill="#8C9195"/>
<mask id="mask14_0_1" style="mask-type:luminance" maskUnits="userSpaceOnUse" x="140" y="199" width="166" height="335">
<path d="M305.862 199.029V485.866H305.849C305.981 498.144 297.976 510.41 281.813 519.737C263.625 530.234 239.008 534.772 215.181 533.356C199.436 532.43 184.039 528.906 171.071 522.77C168.924 521.757 166.842 520.681 164.841 519.523C148.708 510.215 140.578 498.044 140.448 485.866H140.436V199.029H305.862Z" fill="white"/>
</mask>
<g mask="url(#mask14_0_1)">
<path d="M305.862 199.029V485.866H305.849C305.981 498.144 297.976 510.41 281.813 519.737C263.625 530.234 239.008 534.772 215.181 533.356C199.436 532.43 184.039 528.906 171.071 522.77C168.924 521.757 166.842 520.681 164.841 519.523C148.708 510.215 140.578 498.044 140.448 485.866H140.436V199.029H305.862Z" fill="url(#paint14_linear_0_1)"/>
</g>
<mask id="mask15_0_1" style="mask-type:luminance" maskUnits="userSpaceOnUse" x="140" y="196" width="166" height="50">
<path d="M305.862 196.914V197.449H305.849C305.981 209.721 297.976 221.993 281.813 231.32C263.625 241.829 239.008 246.361 215.181 244.938C199.436 244.013 184.027 240.489 171.071 234.359C168.924 233.34 166.842 232.264 164.841 231.106C148.708 221.791 140.578 209.626 140.448 197.449H140.436V196.914H305.862Z" fill="white"/>
</mask>
<g mask="url(#mask15_0_1)">
<path d="M305.862 196.914V197.449H305.849C305.981 209.721 297.976 221.993 281.813 231.32C263.625 241.829 239.008 246.361 215.181 244.938C199.436 244.013 184.027 240.489 171.071 234.359C168.924 233.34 166.842 232.264 164.841 231.106C148.708 221.791 140.578 209.626 140.448 197.449H140.436V196.914H305.862Z" fill="url(#paint15_linear_0_1)"/>
</g>
<path d="M215.181 196.914V244.938C199.436 244.013 184.027 240.489 171.071 234.359V196.914H215.181Z" fill="#B0B2B1"/>
<path d="M281.815 230.785C249.616 249.375 197.246 249.287 164.846 230.577C132.443 211.867 132.278 181.64 164.479 163.043C196.678 144.453 249.046 144.553 281.448 163.263C313.855 181.961 314.018 212.2 281.815 230.785Z" fill="#6458B1"/>
<mask id="mask16_0_1" style="mask-type:luminance" maskUnits="userSpaceOnUse" x="135" y="190" width="176" height="56">
<path d="M310.091 190.557H135.548V195.328H135.55C135.693 208.172 144.275 221.017 161.298 230.847C195.486 250.583 250.742 250.684 284.721 231.067C301.777 221.225 310.223 208.279 310.078 195.334L310.091 195.328V190.557Z" fill="white"/>
</mask>
<g mask="url(#mask16_0_1)">
<path d="M310.091 190.557H135.548V195.328H135.55C135.693 208.172 144.275 221.017 161.298 230.847C195.486 250.583 250.742 250.684 284.721 231.067C301.777 221.225 310.223 208.279 310.078 195.334L310.091 195.328V190.557Z" fill="url(#paint16_linear_0_1)"/>
</g>
<path d="M284.721 226.291C250.742 245.907 195.486 245.813 161.298 226.071C127.111 206.335 126.938 174.434 160.915 154.818C194.886 135.208 250.145 135.302 284.333 155.044C318.518 174.78 318.695 206.681 284.721 226.291Z" fill="#8C9195"/>
<path d="M379.064 412.31L371.857 408.15V394.99L379.064 399.156V412.31Z" fill="#D4641C"/>
<path d="M379.064 399.156L371.857 394.99L379.026 390.855L386.232 395.022L379.064 399.156Z" fill="#F7F254"/>
<path d="M386.232 408.175L379.064 412.31V399.156L386.232 395.022V408.175Z" fill="#F9AF27"/>
<path d="M140.151 714.252L134.904 711.223V503.399L140.151 506.433V714.252Z" fill="#5B5F61"/>
<path d="M140.151 714.252L145.399 711.223V503.399L140.151 506.433V714.252Z" fill="#86898A"/>
<path d="M304.678 714.572L299.429 711.546V503.72L304.678 506.747V714.572Z" fill="#5B5F61"/>
<path d="M304.678 714.572L309.927 711.546V503.72L304.678 506.747V714.572Z" fill="#86898A"/>
<path d="M222.689 761.909L217.44 758.878V551.052L222.689 554.079V761.909Z" fill="#5B5F61"/>
<path d="M222.689 761.909L227.935 758.878V551.052L222.689 554.079V761.909Z" fill="#86898A"/>
<path d="M222.772 558.126L215.559 553.966V540.813L222.772 544.973V558.126Z" fill="#D4641C"/>
<path d="M222.772 544.973L215.559 540.813L222.726 536.678L229.936 540.838L222.772 544.973Z" fill="#F7F254"/>
<path d="M229.936 553.991L222.772 558.126V544.973L229.936 540.838V553.991Z" fill="#F9AF27"/>
<path d="M306.365 521.744L299.159 517.578V504.425L306.365 508.591V521.744Z" fill="#D4641C"/>
<path d="M306.365 508.591L299.159 504.425L306.321 500.29L313.527 504.45L306.365 508.591Z" fill="#F7F254"/>
<path d="M313.527 517.603L306.365 521.744V508.591L313.527 504.45V517.603Z" fill="#F9AF27"/>
<path d="M137.549 520.548L130.341 516.388V503.235L137.549 507.395V520.548Z" fill="#D4641C"/>
<path d="M137.549 507.395L130.341 503.235L137.503 499.101L144.713 503.261L137.549 507.395Z" fill="#F7F254"/>
<path d="M144.714 516.42L137.549 520.548V507.395L144.714 503.261V516.42Z" fill="#F9AF27"/>
<path d="M262.45 208.28C240.697 220.835 205.32 220.766 183.429 208.135C161.544 195.498 161.433 175.076 183.186 162.514C204.936 149.959 240.313 150.022 262.201 162.659C284.089 175.296 284.2 195.718 262.45 208.28Z" fill="#9EA1A3"/>
<mask id="mask17_0_1" style="mask-type:luminance" maskUnits="userSpaceOnUse" x="194" y="153" width="57" height="45">
<path d="M250.811 153.219H194.822V181.13C194.869 185.252 197.622 189.368 203.082 192.521C214.052 198.852 231.778 198.89 242.674 192.596C248.144 189.437 250.853 185.284 250.809 181.13H250.811V153.219Z" fill="white"/>
</mask>
<g mask="url(#mask17_0_1)">
<path d="M250.811 153.219H194.822V181.13C194.869 185.252 197.622 189.368 203.082 192.521C214.052 198.852 231.778 198.89 242.674 192.596C248.144 189.437 250.853 185.284 250.809 181.13H250.811V153.219Z" fill="url(#paint17_linear_0_1)"/>
</g>
<path d="M242.674 164.68C231.773 170.973 214.052 170.941 203.082 164.61C192.115 158.279 192.058 148.046 202.957 141.753C213.858 135.466 231.583 135.497 242.551 141.822C253.516 148.153 253.572 158.386 242.674 164.68Z" fill="#FBD217"/>
<path d="M379.668 631.959L377.163 630.511V685.868L379.668 687.316V631.959Z" fill="#D4641C"/>
<path d="M379.668 631.959L377.163 630.511L379.668 629.063L382.173 630.511L379.668 631.959Z" fill="#F7F254"/>
<path d="M379.668 631.959L382.173 630.511V685.868L379.668 687.316V631.959Z" fill="#F6C716"/>
<path d="M291.401 686.974L371.215 640.984C374.224 639.246 376.678 640.645 376.678 644.099V672.785C376.678 676.234 374.224 680.455 371.215 682.198L291.401 728.183C288.389 729.921 285.943 728.525 285.943 725.069V696.385C285.943 692.936 288.389 688.713 291.401 686.974ZM373.229 637.8C372.587 637.963 371.914 638.24 371.215 638.643L291.401 684.634C290.383 685.219 289.412 686.013 288.529 686.95L288.485 686.994C285.795 689.85 283.902 694.013 283.902 697.56V726.251C283.902 730.998 287.268 732.911 291.401 730.526L371.215 684.533C374.79 682.476 377.786 677.857 378.535 673.584C378.648 672.91 378.711 672.249 378.711 671.607V642.916C378.711 638.975 376.389 636.986 373.229 637.8Z" fill="#F6C616"/>
<path d="M291.398 728.183L290.722 728.525V728.668H292.433V727.593L291.398 728.183ZM342.434 698.718V698.839H344.146V697.732L342.434 698.718ZM342.006 698.971V699.116H343.718V697.975L342.006 698.971ZM348.999 694.93V695.099H350.711V693.936L348.999 694.93ZM355.997 690.891V691.097H357.703V689.902L355.997 690.891ZM357.036 690.379V690.613H358.741V689.394L357.036 690.379ZM364.034 686.345V686.591H365.74V685.359L364.034 686.345ZM371.215 682.198L371.027 682.306V682.583H372.738V681.072L371.215 682.198Z" fill="#F6C616"/>
<path d="M378.069 671.745C378.069 675.597 375.344 680.305 371.989 682.237L292.027 728.36C288.672 730.293 285.943 728.732 285.943 724.892V695.901C285.943 692.048 288.672 687.341 292.027 685.401L371.989 639.285C375.344 637.353 378.069 638.906 378.069 642.751V671.745ZM373.229 637.8L371.989 638.39L292.027 684.509C291.241 684.956 290.486 685.546 289.786 686.232L289.738 686.283C287.071 688.901 285.156 692.928 285.156 696.353V725.339C285.156 729.688 288.239 731.443 292.027 729.255L371.989 683.137C375.048 681.374 377.648 677.561 378.535 673.878C378.648 673.213 378.711 672.544 378.711 671.909V642.916C378.711 638.975 376.389 636.986 373.229 637.8Z" fill="#F7F254"/>
<path d="M378.069 658.598L377.421 657.472L376.999 657.403L376.911 657.455L285.943 709.888V712.017L377.88 659.021V659.013H377.887L378.069 658.598Z" fill="#F6C616"/>
<path d="M282.943 687.712L280.438 686.263V741.62L282.943 743.068V687.712Z" fill="#D4641C"/>
<path d="M282.943 687.712L280.438 686.264L282.943 684.816L285.449 686.264L282.943 687.712Z" fill="#F7F254"/>
<path d="M282.943 687.712L285.449 686.263V741.62L282.943 743.068V687.712Z" fill="#F6C716"/>
<path d="M282.943 687.712L280.438 686.263V741.62L282.943 743.068V687.712Z" fill="#D4641C"/>
<path d="M282.943 687.712L280.438 686.264L282.943 684.816L285.449 686.264L282.943 687.712Z" fill="#F7F254"/>
<path d="M282.943 687.712L285.449 686.263V741.62L282.943 743.068V687.712Z" fill="#F6C716"/>
<path d="M188.72 746.252L274.494 696.731C277.498 694.998 279.947 696.397 279.947 699.846V728.53C279.947 731.991 277.498 736.207 274.494 737.945L188.72 787.461C185.711 789.204 183.265 787.8 183.265 784.351V755.66C183.265 752.211 185.711 747.995 188.72 746.252ZM276.502 693.545C275.863 693.715 275.187 693.992 274.494 694.396L188.72 743.912C187.704 744.496 186.733 745.288 185.854 746.22L185.804 746.272C183.117 749.128 181.224 753.288 181.224 756.845V785.529C181.224 790.274 184.59 792.189 188.72 789.802L274.494 740.286C278.066 738.223 281.063 733.609 281.81 729.329C281.923 728.655 281.985 727.997 281.985 727.352V698.668C281.985 694.728 279.662 692.734 276.502 693.545Z" fill="#F6C616"/>
<path d="M188.718 787.461L188.044 787.8V787.953H189.755V786.864L188.718 787.461ZM239.758 758.003V758.116H241.469V757.007L239.758 758.003ZM239.328 758.246V758.391H241.041V757.253L239.328 758.246ZM246.322 754.207V754.377H248.033V753.219L246.322 754.207ZM253.321 750.166V750.375H255.027V749.18L253.321 750.166ZM260.313 746.132V746.36H262.019V745.146L260.313 746.132ZM267.305 742.093V742.339H269.011V741.104L267.305 742.093ZM274.489 737.945L274.299 738.058V738.336H276.011V736.819L274.489 737.945Z" fill="#F6C616"/>
<path d="M281.345 727.493C281.345 731.345 278.616 736.05 275.263 737.99L189.347 787.638C185.994 789.57 183.265 788.015 183.265 784.169V755.176C183.265 751.324 185.994 746.618 189.347 744.679L275.263 695.038C278.616 693.098 281.345 694.659 281.345 698.499V727.493ZM276.502 693.545L275.263 694.138L189.347 743.786C188.563 744.231 187.805 744.824 187.105 745.51L187.058 745.562C184.391 748.177 182.476 752.211 182.476 755.629V784.617C182.476 788.966 185.561 790.728 189.347 788.531L275.263 738.882C278.324 737.122 280.923 733.319 281.81 729.631C281.923 728.958 281.985 728.297 281.985 727.655V698.669C281.985 694.728 279.662 692.734 276.502 693.545Z" fill="#F7F254"/>
<path d="M281.345 714.345L280.691 713.219L280.276 713.156H280.273L280.188 713.2L183.265 769.173V771.292L281.151 714.766H281.156L281.159 714.76L281.345 714.345Z" fill="#F6C616"/>
<path d="M180.265 746.989L177.76 745.541V800.898L180.265 802.339V746.989Z" fill="#D4641C"/>
<path d="M180.265 746.99L177.76 745.541L180.265 744.101L182.77 745.541L180.265 746.99Z" fill="#F7F254"/>
<path d="M180.265 746.989L182.77 745.541V800.898L180.265 802.339V746.989Z" fill="#F6C716"/>
<path d="M151.511 1003.31L153.704 1002.01L97.3949 754.579L95.2022 755.874L151.511 1003.31Z" fill="#9DABAB"/>
<path d="M151.511 1003.31L147.381 1001.27L90.9879 753.445L95.2022 755.874L151.511 1003.31Z" fill="#757878"/>
<path d="M125.223 999.943L149.595 985.495L149.409 982.341L125.036 996.783L125.223 999.943Z" fill="#7A8B8E"/>
<path d="M125.223 999.943L114.713 992.014L114.526 989.885L125.036 996.783L125.223 999.943Z" fill="#617478"/>
<path d="M125.036 996.783L149.409 982.34L138.899 975.437L114.526 989.885L125.036 996.783Z" fill="#C0C0BE"/>
<path d="M117.844 967.426L142.218 952.983L142.034 949.829L117.66 964.272L117.844 967.426Z" fill="#7A8B8E"/>
<path d="M117.844 967.426L107.335 959.495L107.15 957.368L117.66 964.272L117.844 967.426Z" fill="#617478"/>
<path d="M117.66 964.272L142.034 949.829L131.524 942.926L107.15 957.369L117.66 964.272Z" fill="#C0C0BE"/>
<path d="M110.469 934.914L134.842 920.464L134.653 917.31L110.283 931.755L110.469 934.914Z" fill="#7A8B8E"/>
<path d="M110.469 934.914L99.959 926.983L99.772 924.849L110.283 931.755L110.469 934.914Z" fill="#617478"/>
<path d="M110.283 931.755L134.653 917.31L124.148 910.407L99.772 924.85L110.283 931.755Z" fill="#C0C0BE"/>
<path d="M103.094 902.396L127.467 887.953L127.28 884.794L102.907 899.244L103.094 902.396Z" fill="#7A8B8E"/>
<path d="M103.094 902.396L92.584 894.467L92.3971 892.338L102.907 899.244L103.094 902.396Z" fill="#617478"/>
<path d="M102.907 899.244L127.28 884.794L116.768 877.896L92.3971 892.338L102.907 899.244Z" fill="#C0C0BE"/>
<path d="M95.7182 869.879L120.092 855.437L119.905 852.283L95.5313 866.725L95.7182 869.879Z" fill="#7A8B8E"/>
<path d="M95.7183 869.879L85.2084 861.949L85.0215 859.822L95.5313 866.725L95.7183 869.879Z" fill="#617478"/>
<path d="M95.5313 866.725L119.905 852.283L109.394 845.38L85.0215 859.822L95.5313 866.725Z" fill="#C0C0BE"/>
<path d="M88.3427 837.368L112.716 822.925L112.529 819.764L88.1532 834.209L88.3427 837.368Z" fill="#7A8B8E"/>
<path d="M88.3428 837.368L77.8304 829.437L77.646 827.311L88.1533 834.209L88.3428 837.368Z" fill="#617478"/>
<path d="M88.1533 834.208L112.529 819.763L102.02 812.86L77.646 827.31L88.1533 834.208Z" fill="#C0C0BE"/>
<path d="M80.9652 804.849L105.336 790.407L105.149 787.255L80.7783 801.698L80.9652 804.849Z" fill="#7A8B8E"/>
<path d="M80.7783 801.698L105.149 787.255L94.6414 780.35L70.2684 794.792L80.7783 801.698Z" fill="#C0C0BE"/>
<path d="M124.684 1019.21L120.559 1017.16L64.1636 768.952L68.3779 771.772L124.684 1019.21Z" fill="#757878"/>
<path d="M124.684 1019.21L126.88 1017.91L70.5706 770.469L68.3778 771.772L124.684 1019.21Z" fill="#9DABAB"/>
<path d="M90.9879 753.445L93.1838 752.142L97.3949 754.579L95.2022 755.874L90.9879 753.445Z" fill="#CDC6B5"/>
<path d="M458.962 815.341L458.408 806.135L381.669 762.087V770.72L458.962 815.341Z" fill="#5B5F61"/>
<path d="M385.691 16.8931L383.186 15.4456V70.8018L385.691 72.2493V16.8931Z" fill="#D4641C"/>
<path d="M385.691 16.8928L383.186 15.4453L385.691 14.0041L388.196 15.4453L385.691 16.8928Z" fill="#F7F254"/>
<path d="M385.691 16.8931L388.196 15.4456V70.8018L385.691 72.2493V16.8931Z" fill="#F6C716"/>
<path d="M329.331 53.6399L377.238 25.9177C380.247 24.1807 382.695 25.5841 382.695 29.0329V57.7179C382.695 61.173 380.247 65.3958 377.238 67.1327L329.331 94.8486C326.316 96.5793 323.868 95.1821 323.868 91.7271V63.0421C323.868 59.5933 326.316 55.3705 329.331 53.6399ZM379.252 22.7395C378.61 22.8969 377.937 23.1801 377.238 23.5766L329.331 51.2987C328.311 51.8777 327.342 52.6707 326.461 53.6084L326.411 53.6524C323.723 56.5159 321.829 60.6695 321.829 64.2189V92.9102C321.829 97.6554 325.196 99.5749 329.331 97.1897L377.238 69.4675C380.813 67.4096 383.809 62.7904 384.558 58.5109C384.671 57.8438 384.734 57.183 384.734 56.5411V27.8497C384.734 23.9101 382.412 21.9214 379.252 22.7395Z" fill="#F6C616"/>
<path d="M329.325 94.8487L328.651 95.1821V95.3333H330.363V94.2507L329.325 94.8487ZM341.943 87.5672V87.6931H343.655V86.5855L341.943 87.5672ZM341.516 87.819V87.97H343.227V86.831L341.516 87.819ZM339.055 89.1784V89.3546H340.767V88.184L339.055 89.1784ZM356.067 79.3545V79.5558H357.772V78.3601L356.067 79.3545ZM363.065 75.3141V75.5407H364.771V74.3261L363.065 75.3141ZM370.051 71.2738V71.5255H371.757V70.2921L370.051 71.2738ZM377.239 67.1265L377.05 67.2461V67.523H378.762V66.0126L377.239 67.1265Z" fill="#F6C616"/>
<path d="M384.092 56.6793C384.092 60.5245 381.367 65.2319 378.013 67.1703L329.954 95.012C326.599 96.9503 323.874 95.3896 323.874 91.5443V62.5635C323.874 58.7057 326.599 53.9983 329.954 52.0663L378.013 24.2245C381.367 22.2861 384.092 23.8406 384.092 27.6921V56.6793ZM379.253 22.7393L378.013 23.3183L329.954 51.1663C329.167 51.6131 328.412 52.2047 327.713 52.897L327.669 52.941C325.001 55.559 323.081 59.5867 323.081 63.0103V91.9974C323.081 96.3461 326.165 98.1019 329.954 95.9119L378.013 68.0765C381.071 66.3017 383.671 62.5006 384.558 58.8127C384.671 58.1456 384.734 57.4848 384.734 56.8366V27.8495C384.734 23.9098 382.412 21.9211 379.253 22.7393Z" fill="#F7F254"/>
<path d="M384.092 43.5326L383.438 42.4124L383.022 42.3432L382.934 42.3935L323.868 76.5474L323.874 78.6746L383.903 43.9543H383.91L384.092 43.5326Z" fill="#F6C616"/>
<path d="M320.872 54.3696L318.367 52.9222V108.278L320.872 109.726V54.3696Z" fill="#D4641C"/>
<path d="M320.872 54.3699L318.367 52.9225L320.872 51.475L323.377 52.9225L320.872 54.3699Z" fill="#F7F254"/>
<path d="M320.872 54.3696L323.377 52.9222V108.278L320.872 109.726V54.3696Z" fill="#F6C716"/>
<path d="M320.872 54.3696L318.367 52.9159V108.278L320.872 109.726V54.3696Z" fill="#D4641C"/>
<path d="M320.872 54.3699L318.367 52.9162L320.872 51.475L323.377 52.9162L320.872 54.3699Z" fill="#F7F254"/>
<path d="M320.872 54.3696L323.377 52.9159V108.278L320.872 109.726V54.3696Z" fill="#F6C716"/>
<path d="M264.508 91.1103L312.42 63.3945C315.428 61.6575 317.876 63.0546 317.876 66.5096V95.1883C317.876 98.6497 315.428 102.866 312.42 104.603L264.508 132.319C261.498 134.056 259.054 132.659 259.054 129.21V100.519C259.054 97.0638 261.498 92.8472 264.508 91.1103ZM314.434 60.21C313.792 60.3736 313.112 60.6505 312.42 61.047L264.508 88.7692C263.489 89.3544 262.523 90.1411 261.638 91.0788L261.592 91.1292C258.902 93.9863 257.011 98.14 257.011 101.696V130.381C257.011 135.126 260.377 137.045 264.508 134.66L312.42 106.938C315.994 104.88 318.99 100.267 319.739 95.9876C319.852 95.3205 319.915 94.6534 319.915 94.0178V65.3265C319.915 61.3869 317.593 59.3982 314.434 60.21Z" fill="#F6C616"/>
<path d="M264.505 132.319L263.831 132.659V132.81H265.545V131.721L264.505 132.319ZM287.14 119.26V119.38H288.854V118.272L287.14 119.26ZM286.712 119.506V119.657H288.426V118.518L286.712 119.506ZM274.231 126.649V126.825L285.965 121.041V119.871L274.231 126.649ZM291.251 116.825V117.032H292.957V115.837L291.251 116.825ZM298.24 112.791V113.017H299.946V111.803L298.24 112.791ZM305.239 108.757V109.002H306.944V107.762L305.239 108.757ZM312.42 104.603L312.225 104.716V104.993H313.936V103.483L312.42 104.603Z" fill="#F6C616"/>
<path d="M319.273 94.1497C319.273 98.0075 316.542 102.715 313.194 104.647L265.135 132.489C261.781 134.427 259.054 132.873 259.054 129.021V100.034C259.054 96.1824 261.781 91.475 265.135 89.543L313.194 61.695C316.542 59.7566 319.273 61.3111 319.273 65.1626V94.1497ZM314.434 60.2097L313.194 60.7951L265.135 88.6368C264.35 89.0899 263.595 89.6814 262.892 90.3674L262.845 90.4114C260.178 93.0295 258.263 97.0635 258.263 100.487V129.474C258.263 133.823 261.348 135.579 265.135 133.395L313.194 105.547C316.253 103.779 318.852 99.9773 319.739 96.2894C319.852 95.6223 319.915 94.9552 319.915 94.3196V65.3262C319.915 61.3866 317.593 59.3979 314.434 60.2097Z" fill="#F7F254"/>
<path d="M319.273 81.0031L318.619 79.8828L318.204 79.8136L318.115 79.8639L259.054 114.024V116.145L319.085 81.431L319.091 81.4247L319.273 81.0031Z" fill="#F6C616"/>
<path d="M256.055 91.8404L253.55 90.3992V145.749L256.055 147.197V91.8404Z" fill="#D4641C"/>
<path d="M256.055 91.8401L253.55 90.3989L256.055 88.9515L258.558 90.3989L256.055 91.8401Z" fill="#F7F254"/>
<path d="M256.055 91.8404L258.558 90.3992V145.749L256.055 147.197V91.8404Z" fill="#F6C716"/>
<path d="M433.353 43.1299L430.848 41.6825V97.0387L433.353 98.4861V43.1299Z" fill="#D4641C"/>
<path d="M433.353 43.1299L430.848 41.6825L433.353 40.235L435.858 41.6825L433.353 43.1299Z" fill="#F7F254"/>
<path d="M433.353 43.1299L435.858 41.6825V97.0387L433.353 98.4861V43.1299Z" fill="#F6C716"/>
<path d="M376.987 79.8702L424.901 52.1544C427.909 50.4174 430.357 51.8146 430.357 55.2633V83.9546C430.357 87.4097 427.909 91.6262 424.901 93.3632L376.987 121.079C373.978 122.816 371.53 121.419 371.53 117.964V89.2787C371.53 85.8237 373.978 81.6072 376.987 79.8702ZM426.914 48.97C426.273 49.1336 425.599 49.4105 424.901 49.8133L376.987 77.5291C375.973 78.1144 375.004 78.9073 374.117 79.845L374.073 79.8891C371.385 82.7463 369.491 86.8999 369.491 90.4557V119.147C369.491 123.886 372.858 125.799 376.987 123.42L424.901 95.7043C428.475 93.6401 431.471 89.027 432.22 84.7476C432.333 84.0805 432.396 83.4134 432.396 82.7778V54.0865C432.396 50.1469 430.074 48.1582 426.914 48.97Z" fill="#F6C616"/>
<path d="M376.987 121.079L376.313 121.419V121.57H378.025V120.481L376.987 121.079ZM389.605 113.804V113.93H391.317V112.816L389.605 113.804ZM389.171 114.05V114.207H390.889V113.068L389.171 114.05ZM386.71 115.415V115.579H388.429V114.421L386.71 115.415ZM403.729 105.591V105.793H405.434V104.597L403.729 105.591ZM410.721 101.551V101.778H412.426V100.563L410.721 101.551ZM417.719 97.5107V97.7624H419.425V96.5226L417.719 97.5107ZM424.901 93.3634L424.705 93.4766V93.7599H426.417V92.2369L424.901 93.3634Z" fill="#F6C616"/>
<path d="M431.754 82.91C431.754 86.7615 429.023 91.4689 425.675 93.4073L377.616 121.249C374.261 123.181 371.536 121.627 371.536 117.781V88.7943C371.536 84.9428 374.261 80.2353 377.616 78.3033L425.675 50.4553C429.023 48.5169 431.754 50.0777 431.754 53.9292V82.91ZM426.914 48.97L425.675 49.5553L377.616 77.3971C376.836 77.8502 376.074 78.4418 375.375 79.1277L375.325 79.1717C372.657 81.7961 370.743 85.8238 370.743 89.2474V118.234C370.743 122.583 373.827 124.339 377.616 122.149L425.675 94.3072C428.733 92.5388 431.333 88.7376 432.22 85.0497C432.333 84.3763 432.396 83.7155 432.396 83.0736V54.0865C432.396 50.1469 430.074 48.1582 426.914 48.97Z" fill="#F7F254"/>
<path d="M431.754 69.7693L431.1 68.6366L430.684 68.5737V68.58L430.596 68.6303L371.53 102.784L371.536 104.911L431.559 70.191H431.566V70.1847L431.754 69.7693Z" fill="#F6C616"/>
<path d="M368.534 80.6068L366.029 79.153V134.509L368.534 135.963V80.6068Z" fill="#D4641C"/>
<path d="M368.534 80.6067L366.029 79.1529L368.534 77.7118L371.039 79.1529L368.534 80.6067Z" fill="#F7F254"/>
<path d="M368.534 80.6068L371.039 79.153V134.509L368.534 135.963V80.6068Z" fill="#F6C716"/>
<path d="M368.534 80.6005L366.029 79.153V134.509L368.534 135.963V80.6005Z" fill="#D4641C"/>
<path d="M368.534 80.6003L366.029 79.1528L368.534 77.7117L371.039 79.1528L368.534 80.6003Z" fill="#F7F254"/>
<path d="M368.534 80.6005L371.039 79.153V134.509L368.534 135.963V80.6005Z" fill="#F6C716"/>
<path d="M312.174 117.347L360.082 89.625C363.09 87.8943 365.538 89.2914 365.538 92.7402V121.425C365.538 124.88 363.09 129.103 360.082 130.84L312.174 158.556C309.159 160.293 306.711 158.889 306.711 155.441V126.756C306.711 123.301 309.159 119.078 312.174 117.347ZM362.096 86.4468C361.454 86.6105 360.774 86.8874 360.082 87.2839L312.174 115.006C311.155 115.585 310.185 116.378 309.304 117.316L309.254 117.366C306.566 120.223 304.672 124.377 304.672 127.926V156.617C304.672 161.363 308.039 163.282 312.174 160.897L360.082 133.175C363.657 131.117 366.652 126.498 367.395 122.218C367.515 121.557 367.578 120.89 367.578 120.255V91.5633C367.578 87.6174 365.255 85.635 362.096 86.4468Z" fill="#F6C616"/>
<path d="M312.168 158.556L311.494 158.89V159.047H313.206V157.958L312.168 158.556ZM334.8 145.497V145.617H336.512V144.509L334.8 145.497ZM334.372 145.743V145.894H336.084V144.755L334.372 145.743ZM321.898 152.886V153.062L333.623 147.278V146.108L321.898 152.886ZM338.91 143.062V143.269H340.615V142.067L338.91 143.062ZM345.902 139.021V139.248H347.608V138.04L345.902 139.021ZM352.894 134.987V135.239H354.6V133.999L352.894 134.987ZM360.082 130.84L359.893 130.953V131.23H361.605V129.72L360.082 130.84Z" fill="#F6C616"/>
<path d="M366.936 120.387C366.936 124.232 364.211 128.946 360.85 130.878L312.797 158.726C309.443 160.664 306.711 159.103 306.711 155.258V126.271C306.711 122.413 309.443 117.706 312.797 115.774L360.85 87.932C364.211 85.9936 366.936 87.5481 366.936 91.3996V120.387ZM362.096 86.4467L360.85 87.0257L312.797 114.874C312.011 115.321 311.255 115.912 310.557 116.604L310.506 116.648C307.844 119.266 305.925 123.294 305.925 126.718V155.705C305.925 160.054 309.009 161.816 312.797 159.626L360.85 131.784C363.915 130.015 366.508 126.208 367.395 122.52C367.515 121.859 367.578 121.192 367.578 120.557V91.5632C367.578 87.6172 365.255 85.6348 362.096 86.4467Z" fill="#F7F254"/>
<path d="M366.936 107.24L366.281 106.12L365.866 106.051L365.778 106.101L306.711 140.261V142.382L366.741 107.662H366.747L366.936 107.24Z" fill="#F6C616"/>
<path d="M303.715 118.077L301.211 116.63V171.986L303.715 173.433V118.077Z" fill="#D4641C"/>
<path d="M303.715 118.077L301.211 116.63L303.715 115.182L306.22 116.63L303.715 118.077Z" fill="#F7F254"/>
<path d="M303.716 118.077L306.22 116.63V171.986L303.716 173.433V118.077Z" fill="#F6C716"/>
<defs>
<linearGradient id="paint0_linear_0_1" x1="452.524" y1="535.149" x2="476.009" y2="535.149" gradientUnits="userSpaceOnUse">
<stop stop-color="#F5A217"/>
<stop offset="0.528646" stop-color="#F2BB16"/>
<stop offset="1" stop-color="#FBD417"/>
</linearGradient>
<linearGradient id="paint1_linear_0_1" x1="352.731" y1="505.74" x2="346.839" y2="536.781" gradientUnits="userSpaceOnUse">
<stop stop-color="#FBD417"/>
<stop offset="0.471354" stop-color="#F2BB16"/>
<stop offset="1" stop-color="#F5A217"/>
</linearGradient>
<linearGradient id="paint2_linear_0_1" x1="407.845" y1="455.74" x2="558.973" y2="457.101" gradientUnits="userSpaceOnUse">
<stop stop-color="#6F7279"/>
<stop offset="0.408854" stop-color="#B4B8B7"/>
<stop offset="0.648438" stop-color="#A8ACB1"/>
<stop offset="0.807292" stop-color="#979AA0"/>
<stop offset="1" stop-color="#C6C8C6"/>
</linearGradient>
<linearGradient id="paint3_linear_0_1" x1="376.999" y1="414.556" x2="551.537" y2="414.556" gradientUnits="userSpaceOnUse">
<stop stop-color="#727168"/>
<stop offset="0.408854" stop-color="#B4B0A3"/>
<stop offset="0.648438" stop-color="#ADAA98"/>
<stop offset="0.807292" stop-color="#9C9889"/>
<stop offset="1" stop-color="#C7C0B0"/>
</linearGradient>
<linearGradient id="paint4_linear_0_1" x1="381.556" y1="368.3" x2="546.98" y2="368.3" gradientUnits="userSpaceOnUse">
<stop stop-color="#787D83"/>
<stop offset="0.367188" stop-color="#C0C1C1"/>
<stop offset="0.486979" stop-color="#C9C9C8"/>
<stop offset="0.723958" stop-color="#A2A6AB"/>
<stop offset="0.768229" stop-color="#A3A7AC"/>
<stop offset="1" stop-color="#D1D4D2"/>
</linearGradient>
<linearGradient id="paint5_linear_0_1" x1="376.999" y1="332.548" x2="551.537" y2="332.548" gradientUnits="userSpaceOnUse">
<stop stop-color="#6F7279"/>
<stop offset="0.408854" stop-color="#B4B8B7"/>
<stop offset="0.648438" stop-color="#A8ACB1"/>
<stop offset="0.807292" stop-color="#979AA0"/>
<stop offset="1" stop-color="#C6C8C6"/>
</linearGradient>
<linearGradient id="paint6_linear_0_1" x1="381.556" y1="286.292" x2="546.98" y2="286.292" gradientUnits="userSpaceOnUse">
<stop stop-color="#787D83"/>
<stop offset="0.367188" stop-color="#C0C1C1"/>
<stop offset="0.486979" stop-color="#C9C9C8"/>
<stop offset="0.723958" stop-color="#A2A6AB"/>
<stop offset="0.768229" stop-color="#A3A7AC"/>
<stop offset="1" stop-color="#D1D4D2"/>
</linearGradient>
<linearGradient id="paint7_linear_0_1" x1="376.999" y1="250.533" x2="551.537" y2="250.533" gradientUnits="userSpaceOnUse">
<stop stop-color="#6F7279"/>
<stop offset="0.408854" stop-color="#B4B8B7"/>
<stop offset="0.648438" stop-color="#A8ACB1"/>
<stop offset="0.807292" stop-color="#979AA0"/>
<stop offset="1" stop-color="#C6C8C6"/>
</linearGradient>
<linearGradient id="paint8_linear_0_1" x1="381.556" y1="161.042" x2="546.98" y2="161.042" gradientUnits="userSpaceOnUse">
<stop stop-color="#787D83"/>
<stop offset="0.367188" stop-color="#C0C1C1"/>
<stop offset="0.486979" stop-color="#C9C9C8"/>
<stop offset="0.723958" stop-color="#A2A6AB"/>
<stop offset="0.768229" stop-color="#A3A7AC"/>
<stop offset="1" stop-color="#D1D4D2"/>
</linearGradient>
<linearGradient id="paint9_linear_0_1" x1="376.999" y1="82.0479" x2="551.537" y2="82.0479" gradientUnits="userSpaceOnUse">
<stop stop-color="#6F7279"/>
<stop offset="0.408854" stop-color="#B4B8B7"/>
<stop offset="0.648438" stop-color="#A8ACB1"/>
<stop offset="0.807292" stop-color="#979AA0"/>
<stop offset="1" stop-color="#C6C8C6"/>
</linearGradient>
<linearGradient id="paint10_linear_0_1" x1="436.273" y1="38.2022" x2="492.262" y2="38.2022" gradientUnits="userSpaceOnUse">
<stop stop-color="#F5A217"/>
<stop offset="0.528646" stop-color="#F2BB16"/>
<stop offset="1" stop-color="#FBD417"/>
</linearGradient>
<linearGradient id="paint11_linear_0_1" x1="213.57" y1="624.458" x2="237.055" y2="624.458" gradientUnits="userSpaceOnUse">
<stop stop-color="#F5A217"/>
<stop offset="0.528646" stop-color="#F2BB16"/>
<stop offset="1" stop-color="#FBD417"/>
</linearGradient>
<linearGradient id="paint12_linear_0_1" x1="165.672" y1="558.743" x2="341.307" y2="534.234" gradientUnits="userSpaceOnUse">
<stop stop-color="#6F7279"/>
<stop offset="0.408854" stop-color="#B4B8B7"/>
<stop offset="0.648438" stop-color="#A8ACB1"/>
<stop offset="0.807292" stop-color="#979AA0"/>
<stop offset="1" stop-color="#C6C8C6"/>
</linearGradient>
<linearGradient id="paint13_linear_0_1" x1="135.88" y1="514.765" x2="310.419" y2="514.765" gradientUnits="userSpaceOnUse">
<stop stop-color="#6F7279"/>
<stop offset="0.408854" stop-color="#B4B8B7"/>
<stop offset="0.648438" stop-color="#A8ACB1"/>
<stop offset="0.807292" stop-color="#979AA0"/>
<stop offset="1" stop-color="#C6C8C6"/>
</linearGradient>
<linearGradient id="paint14_linear_0_1" x1="140.436" y1="366.318" x2="305.86" y2="366.318" gradientUnits="userSpaceOnUse">
<stop stop-color="#787D83"/>
<stop offset="0.367188" stop-color="#C0C1C1"/>
<stop offset="0.486979" stop-color="#C9C9C8"/>
<stop offset="0.723958" stop-color="#A2A6AB"/>
<stop offset="0.768229" stop-color="#A3A7AC"/>
<stop offset="1" stop-color="#D1D4D2"/>
</linearGradient>
<linearGradient id="paint15_linear_0_1" x1="140.436" y1="221.055" x2="305.86" y2="221.055" gradientUnits="userSpaceOnUse">
<stop stop-color="#B4B5B3"/>
<stop offset="0.528646" stop-color="#C4C5C3"/>
<stop offset="1" stop-color="#D1D2D0"/>
</linearGradient>
<linearGradient id="paint16_linear_0_1" x1="135.549" y1="218.135" x2="310.087" y2="218.135" gradientUnits="userSpaceOnUse">
<stop stop-color="#6F7279"/>
<stop offset="0.408854" stop-color="#B4B8B7"/>
<stop offset="0.648438" stop-color="#A8ACB1"/>
<stop offset="0.807292" stop-color="#979AA0"/>
<stop offset="1" stop-color="#C6C8C6"/>
</linearGradient>
<linearGradient id="paint17_linear_0_1" x1="194.822" y1="175.252" x2="250.811" y2="175.252" gradientUnits="userSpaceOnUse">
<stop stop-color="#F5A217"/>
<stop offset="0.528646" stop-color="#F2BB16"/>
<stop offset="1" stop-color="#FBD417"/>
</linearGradient>
</defs>
</svg>
