<svg width="740" height="500" viewBox="0 0 740 500" fill="none" xmlns="http://www.w3.org/2000/svg">
<path d="M237.071 449.898L412.778 348.454V343.378L237.071 444.814V449.898Z" fill="#663B1D"/>
<path d="M228.203 439.695L237.071 444.813L412.778 343.378L403.904 338.247L228.203 439.695Z" fill="#774520"/>
<path d="M237.071 449.898L228.203 444.769V439.696L237.071 444.814V449.898Z" fill="#492413"/>
<path d="M59.6074 347.437L235.315 246.001V240.927L59.6074 342.362V347.437Z" fill="#663B1D"/>
<path d="M50.7393 337.234L59.607 342.362L235.315 240.926L226.44 235.798L50.7393 337.234Z" fill="#774520"/>
<path d="M59.607 347.437L50.7393 342.318V337.234L59.607 342.362V347.437Z" fill="#492413"/>
<path d="M439.068 359.6L179.73 209.876L175.878 209.901L435.222 359.625L439.068 359.6Z" fill="#A1A2AC"/>
<path d="M22.4245 275.201V298.493L18.5979 302.899V309.185L179.729 216.163V209.876L175.877 209.901V186.622L179.729 182.198V175.911L18.5979 268.939V275.226L22.4245 275.201Z" fill="#BFBCC4"/>
<path d="M281.769 424.925L22.4246 275.201V298.493L281.769 448.218V424.925Z" fill="#A1A2AC"/>
<path d="M277.936 458.91L18.5979 309.185V302.899L277.936 452.624V458.91Z" fill="#ABACB4"/>
<path d="M277.936 452.624L18.5979 302.898L22.4245 298.493L281.769 448.218L277.936 452.624Z" fill="#C1C2C7"/>
<path d="M281.769 424.926V448.219L277.936 452.624V458.91L439.067 365.882V359.6L435.222 359.625V336.339L439.067 331.922V325.636L277.936 418.664V424.95L281.769 424.926Z" fill="#CDCED1"/>
<mask id="mask0_0_1" style="mask-type:luminance" maskUnits="userSpaceOnUse" x="291" y="410" width="17" height="33">
<path d="M298.737 412.314L300.379 411.37C304.174 409.173 307.284 410.942 307.284 415.309V428.374C307.284 432.735 304.174 438.104 300.379 440.295L298.737 441.244C294.929 443.434 291.82 441.666 291.82 437.303V424.232C291.82 419.871 294.929 414.509 298.737 412.314Z" fill="white"/>
</mask>
<g mask="url(#mask0_0_1)">
<path d="M298.737 412.314L300.379 411.37C304.174 409.173 307.284 410.942 307.284 415.309V428.374C307.284 432.735 304.174 438.104 300.379 440.295L298.737 441.244C294.929 443.434 291.82 441.666 291.82 437.303V424.232C291.82 419.871 294.929 414.509 298.737 412.314Z" fill="url(#paint0_linear_0_1)"/>
</g>
<mask id="mask1_0_1" style="mask-type:luminance" maskUnits="userSpaceOnUse" x="315" y="396" width="17" height="33">
<path d="M322.583 398.543L324.22 397.599C328.021 395.404 331.13 397.178 331.13 401.54V414.605C331.13 418.972 328.021 424.333 324.22 426.531L322.583 427.475C318.776 429.67 315.667 427.895 315.667 423.534V410.47C315.667 406.109 318.776 400.74 322.583 398.543Z" fill="white"/>
</mask>
<g mask="url(#mask1_0_1)">
<path d="M322.583 398.543L324.22 397.599C328.021 395.404 331.13 397.178 331.13 401.54V414.605C331.13 418.972 328.021 424.333 324.22 426.531L322.583 427.475C318.776 429.67 315.667 427.895 315.667 423.534V410.47C315.667 406.109 318.776 400.74 322.583 398.543Z" fill="url(#paint1_linear_0_1)"/>
</g>
<mask id="mask2_0_1" style="mask-type:luminance" maskUnits="userSpaceOnUse" x="339" y="382" width="16" height="33">
<path d="M346.43 384.781L348.066 383.837C351.868 381.639 354.977 383.409 354.977 387.775V400.841C354.977 405.202 351.868 410.571 348.066 412.762L346.43 413.711C342.622 415.901 339.513 414.133 339.513 409.77V396.699C339.513 392.338 342.622 386.976 346.43 384.781Z" fill="white"/>
</mask>
<g mask="url(#mask2_0_1)">
<path d="M346.43 384.781L348.066 383.837C351.868 381.639 354.977 383.409 354.977 387.775V400.841C354.977 405.202 351.868 410.571 348.066 412.762L346.43 413.711C342.622 415.901 339.513 414.133 339.513 409.77V396.699C339.513 392.338 342.622 386.976 346.43 384.781Z" fill="url(#paint2_linear_0_1)"/>
</g>
<mask id="mask3_0_1" style="mask-type:luminance" maskUnits="userSpaceOnUse" x="363" y="369" width="16" height="32">
<path d="M370.271 371.009L371.913 370.065C375.715 367.87 378.824 369.645 378.824 374.006V387.072C378.824 391.438 375.715 396.799 371.913 398.997L370.271 399.941C366.469 402.136 363.36 400.362 363.36 396.001V382.937C363.36 378.576 366.469 373.207 370.271 371.009Z" fill="white"/>
</mask>
<g mask="url(#mask3_0_1)">
<path d="M370.271 371.009L371.913 370.065C375.715 367.87 378.824 369.645 378.824 374.006V387.072C378.824 391.438 375.715 396.799 371.913 398.997L370.271 399.941C366.469 402.136 363.36 400.362 363.36 396.001V382.937C363.36 378.576 366.469 373.207 370.271 371.009Z" fill="url(#paint3_linear_0_1)"/>
</g>
<mask id="mask4_0_1" style="mask-type:luminance" maskUnits="userSpaceOnUse" x="387" y="355" width="16" height="33">
<path d="M394.118 357.248L395.761 356.304C399.556 354.106 402.671 355.876 402.671 360.242V373.308C402.671 377.669 399.556 383.038 395.761 385.229L394.118 386.178C390.323 388.368 387.201 386.593 387.201 382.237V369.166C387.201 364.805 390.323 359.443 394.118 357.248Z" fill="white"/>
</mask>
<g mask="url(#mask4_0_1)">
<path d="M394.118 357.248L395.761 356.304C399.556 354.106 402.671 355.876 402.671 360.242V373.308C402.671 377.669 399.556 383.038 395.761 385.229L394.118 386.178C390.323 388.368 387.201 386.593 387.201 382.237V369.166C387.201 364.805 390.323 359.443 394.118 357.248Z" fill="url(#paint4_linear_0_1)"/>
</g>
<mask id="mask5_0_1" style="mask-type:luminance" maskUnits="userSpaceOnUse" x="411" y="341" width="16" height="33">
<path d="M417.964 343.476L419.601 342.532C423.402 340.337 426.517 342.111 426.517 346.473V359.538C426.517 363.905 423.402 369.266 419.601 371.464L417.964 372.408C414.163 374.603 411.048 372.829 411.048 368.467V355.404C411.048 351.042 414.163 345.673 417.964 343.476Z" fill="white"/>
</mask>
<g mask="url(#mask5_0_1)">
<path d="M417.964 343.476L419.601 342.532C423.402 340.337 426.517 342.111 426.517 346.473V359.538C426.517 363.905 423.402 369.266 419.601 371.464L417.964 372.408C414.163 374.603 411.048 372.829 411.048 368.467V355.404C411.048 351.042 414.163 345.673 417.964 343.476Z" fill="url(#paint5_linear_0_1)"/>
</g>
<path d="M387.201 376.233C390.046 373.61 392.142 369.399 392.142 365.832V358.764C389.297 361.387 387.201 365.598 387.201 369.165V376.233Z" fill="#56586D"/>
<path d="M363.36 390.005C366.199 387.372 368.295 383.163 368.295 379.601V372.534C365.45 375.157 363.36 379.368 363.36 382.937V390.005Z" fill="#56586D"/>
<path d="M411.048 362.464C413.893 359.839 415.982 355.63 415.982 352.068V345C413.15 347.623 411.048 351.834 411.048 355.404V362.464Z" fill="#56586D"/>
<path d="M291.82 431.3C294.658 428.677 296.748 424.466 296.748 420.899V413.831C293.916 416.454 291.82 420.67 291.82 424.232V431.3Z" fill="#56586D"/>
<path d="M339.513 403.767C342.345 401.144 344.441 396.933 344.441 393.365V386.298C341.603 388.921 339.513 393.132 339.513 396.699V403.767Z" fill="#56586D"/>
<path d="M315.667 417.539C318.505 414.905 320.595 410.696 320.595 407.134V400.067C317.762 402.69 315.667 406.901 315.667 410.471V417.539Z" fill="#56586D"/>
<path d="M277.936 424.95L18.5979 275.225V268.939L277.936 418.664V424.95Z" fill="#ABACB4"/>
<path d="M439.067 325.635L179.729 175.911L18.5979 268.939L277.936 418.664L439.067 325.635Z" fill="#787B88"/>
<path d="M20.8133 267.661L277.936 416.033L435.807 325.245L179.729 175.911L439.067 325.635L277.936 418.664L18.5979 268.939L20.8133 267.661Z" fill="#91939E"/>
<path d="M275.255 405.058L277.671 403.931L277.93 403.565L277.791 402.962L277.477 402.552C276.942 402.105 276.161 402.294 275.362 402.672L273.348 403.604C271.869 404.295 269.641 404.423 268.074 403.9H268.067H268.061L267.608 403.722C265.934 402.956 266.016 401.633 267.734 400.834L270.151 399.708L270.245 399.123L269.421 398.557L269.251 398.562L268.093 398.928L266.104 399.853C263.328 401.149 262.919 403.648 265.248 405.032L266.752 405.706L266.771 405.711L267.495 405.92L267.514 405.925C270.012 406.55 272.976 406.114 275.255 405.058Z" fill="#BFBCC4"/>
<path d="M278.119 400.91V403.391L277.873 403.767L277.199 403.944L276.64 403.88C275.941 403.661 275.758 402.948 275.758 402.124V400.055C275.758 398.53 274.846 396.682 273.587 395.654L273.581 395.649V395.642L273.184 395.367C271.63 394.371 270.333 395.065 270.333 396.832V399.313L269.792 399.664L268.829 399.261L268.76 399.123L268.59 398.014V395.977C268.59 393.12 270.912 391.62 273.392 392.837L274.783 393.742L274.795 393.749L275.356 394.238L275.362 394.246C277.162 395.977 278.112 398.57 278.119 400.91Z" fill="#686C6E"/>
<path d="M273.574 395.642L273.184 395.366C271.629 394.371 270.333 395.064 270.333 396.832V399.312L269.792 399.664L269.817 396.694C269.867 395.868 270.943 393.422 273.574 395.642Z" fill="#4D5051"/>
<path d="M274.783 393.741C274.072 393.181 272.435 392.394 271 392.697C268.829 393.156 268.829 395.379 268.829 395.782V399.261L268.76 399.123L268.59 398.014V395.976C268.59 393.12 270.912 391.62 273.398 392.837L274.783 393.741Z" fill="#4D5051"/>
<path d="M277.873 403.767L277.2 403.944C277.187 398.744 276.835 398.405 276.293 397.029C275.733 395.586 274.821 394.523 272.97 393.471C270.566 392.112 269.075 394.327 269.528 393.54C269.981 392.754 271.195 392.382 272.02 392.547C272.844 392.717 274.695 393.641 276.193 395.605C277.974 397.946 277.873 400.999 277.861 403.415L277.873 403.767Z" fill="#9A9D9D"/>
<path d="M49.1605 274.49L51.5707 273.364L51.8288 272.998L51.6906 272.393L51.3759 271.985C50.8409 271.537 50.0603 271.727 49.261 272.103L47.2472 273.035C45.7681 273.72 43.5399 273.848 41.9728 273.332H41.9667H41.9602L41.5134 273.155C39.833 272.388 39.9151 271.073 41.6332 270.267L44.0499 269.141L44.1507 268.556L43.3198 267.988L43.1498 267.995L41.998 268.359L40.003 269.286C37.2274 270.581 36.8247 273.079 39.1471 274.463L40.6575 275.137L40.6701 275.144L41.4003 275.353H41.4129C43.9178 275.98 46.8759 275.54 49.1605 274.49Z" fill="#BFBCC4"/>
<path d="M52.0241 270.343V272.821L51.7786 273.2L51.0988 273.376L50.5389 273.313C49.8403 273.091 49.6702 272.381 49.6702 271.55V269.488C49.6702 267.964 48.7452 266.107 47.4864 265.087L47.48 265.075L47.0835 264.792C45.529 263.809 44.2326 264.495 44.2326 266.264V268.738L43.6911 269.096L42.7348 268.694L42.6592 268.556L42.4893 267.447V265.409C42.4893 262.55 44.8179 261.053 47.3039 262.267L48.6822 263.174L48.6948 263.179L49.255 263.671L49.2611 263.678C51.0674 265.409 52.0241 268 52.0241 270.343Z" fill="#686C6E"/>
<path d="M47.4736 265.075L47.0833 264.792C45.5288 263.809 44.2324 264.495 44.2324 266.264V268.737L43.6909 269.096L43.7161 266.127C43.7665 265.301 44.8428 262.853 47.4736 265.075Z" fill="#4D5051"/>
<path d="M48.6822 263.174C47.971 262.614 46.3348 261.827 44.8998 262.129C42.7348 262.589 42.7348 264.804 42.7348 265.213V268.693L42.6592 268.556L42.4893 267.447V265.409C42.4893 262.55 44.8179 261.053 47.3039 262.267L48.6822 263.174Z" fill="#4D5051"/>
<path d="M51.7783 273.2L51.0986 273.376C51.086 268.178 50.74 267.838 50.1988 266.459C49.6323 265.018 48.7197 263.954 46.8694 262.904C44.4652 261.544 42.9735 263.752 43.4266 262.965C43.886 262.186 45.0944 261.815 45.9189 261.98C46.7434 262.149 48.6002 263.074 50.0918 265.038C51.873 267.383 51.7783 270.432 51.7657 272.848L51.7783 273.2Z" fill="#9A9D9D"/>
<path d="M413.307 325.366L415.724 324.24L415.975 323.874L415.837 323.269L415.522 322.861H415.516C414.981 322.421 414.207 322.603 413.408 322.981L411.394 323.91C409.915 324.604 407.687 324.729 406.12 324.213L406.113 324.208H406.107L405.654 324.031C403.98 323.264 404.061 321.949 405.786 321.142L408.196 320.021L408.297 319.431L407.466 318.864L407.297 318.876L406.138 319.242L404.156 320.161C401.368 321.457 400.971 323.954 403.294 325.341L404.798 326.012L404.817 326.02L405.541 326.229L405.553 326.234C408.064 326.858 411.022 326.423 413.307 325.366Z" fill="#BFBCC4"/>
<path d="M416.165 321.218V323.704L415.926 324.075L415.246 324.257L414.692 324.195H414.686C413.987 323.967 413.811 323.256 413.811 322.432V320.368C413.811 318.839 412.892 316.982 411.633 315.962L411.627 315.957L411.621 315.95L411.237 315.672C409.676 314.687 408.386 315.37 408.386 317.14V319.621L407.844 319.977L406.875 319.576L406.812 319.431L406.63 318.322V316.284C406.63 313.425 408.958 311.928 411.444 313.15L412.835 314.05L412.848 314.062L413.402 314.546L413.408 314.559C415.214 316.284 416.165 318.875 416.165 321.218Z" fill="#686C6E"/>
<path d="M411.62 315.95L411.236 315.672C409.675 314.686 408.385 315.37 408.385 317.14V319.62L407.844 319.977L407.863 317.002C407.913 316.184 408.989 313.727 411.62 315.95Z" fill="#4D5051"/>
<path d="M412.835 314.05C412.112 313.489 410.482 312.703 409.047 313.01C406.875 313.464 406.875 315.68 406.875 316.087V319.576L406.812 319.431L406.63 318.322V316.284C406.63 313.425 408.958 311.928 411.444 313.15L412.835 314.05Z" fill="#4D5051"/>
<path d="M415.926 324.075L415.246 324.257C415.24 319.06 414.881 318.718 414.346 317.334C413.779 315.901 412.867 314.829 411.023 313.779C408.612 312.42 407.121 314.627 407.58 313.848C408.027 313.069 409.235 312.698 410.066 312.855C410.891 313.03 412.747 313.949 414.239 315.913C416.026 318.261 415.926 321.312 415.913 323.728L415.926 324.075Z" fill="#9A9D9D"/>
<path d="M187.206 194.791L189.623 193.671L189.875 193.306L189.736 192.696L189.428 192.293C188.893 191.852 188.113 192.035 187.307 192.413L185.293 193.35C183.814 194.036 181.592 194.162 180.025 193.646L180.012 193.64H180.006L179.553 193.464C177.885 192.689 177.961 191.374 179.685 190.575L182.102 189.448L182.197 188.863L181.366 188.297L181.196 188.309L180.038 188.674L178.055 189.593C175.273 190.89 174.871 193.388 177.193 194.773L178.703 195.446L178.716 195.452L179.446 195.66L179.459 195.666C181.964 196.289 184.922 195.855 187.206 194.791Z" fill="#BFBCC4"/>
<path d="M190.069 190.65V193.136L189.824 193.507L189.144 193.69L188.59 193.627C187.892 193.407 187.709 192.683 187.709 191.865V189.794C187.709 188.271 186.796 186.415 185.531 185.395V185.389L185.525 185.383L185.135 185.106C183.574 184.118 182.284 184.804 182.284 186.572V189.052L181.743 189.41L180.78 189.008L180.711 188.863L180.534 187.755V185.716C180.534 182.859 182.863 181.361 185.343 182.582L186.734 183.482L186.74 183.488L187.306 183.979L187.313 183.992C189.112 185.716 190.063 188.309 190.069 190.65Z" fill="#686C6E"/>
<path d="M185.526 185.382L185.136 185.106C183.575 184.117 182.285 184.803 182.285 186.572V189.051L181.743 189.41L181.768 186.433C181.819 185.609 182.895 183.161 185.526 185.382Z" fill="#4D5051"/>
<path d="M186.734 183.482C186.016 182.922 184.38 182.135 182.945 182.443C180.78 182.897 180.78 185.112 180.78 185.521V189.007L180.711 188.863L180.534 187.755V185.716C180.534 182.859 182.863 181.361 185.343 182.582L186.734 183.482Z" fill="#4D5051"/>
<path d="M189.824 193.507L189.144 193.69C189.138 188.485 188.786 188.152 188.244 186.767C187.678 185.332 186.772 184.263 184.921 183.212C182.511 181.852 181.025 184.061 181.479 183.281C181.925 182.5 183.14 182.129 183.965 182.293C184.789 182.456 186.646 183.381 188.144 185.339C189.925 187.692 189.824 190.738 189.812 193.161L189.824 193.507Z" fill="#9A9D9D"/>
<path d="M237.071 404.295L412.778 302.859V297.781L237.071 399.216V404.295Z" fill="#663B1D"/>
<path d="M228.203 394.096L237.071 399.216L412.778 297.781L403.904 292.652L228.203 394.096Z" fill="#774520"/>
<path d="M237.071 404.295L228.203 399.18V394.096L237.071 399.216V404.295Z" fill="#492413"/>
<path d="M59.6074 301.847L235.315 200.411V195.326L59.6074 296.767V301.847Z" fill="#663B1D"/>
<path d="M50.7393 291.64L59.607 296.768L235.315 195.326L226.44 190.203L50.7393 291.64Z" fill="#774520"/>
<path d="M59.607 301.847L50.7393 296.723V291.64L59.607 296.767V301.847Z" fill="#492413"/>
<path d="M439.068 314.005L179.73 164.281L175.878 164.306L435.222 314.03L439.068 314.005Z" fill="#A1A2AC"/>
<path d="M22.4245 229.605V252.903L18.5979 257.301V263.589L179.729 170.568V164.281L175.877 164.306V141.02L179.729 136.602V130.315L18.5979 223.344V229.631L22.4245 229.605Z" fill="#BFBCC4"/>
<path d="M281.769 379.331L22.4246 229.606V252.903L281.769 402.621V379.331Z" fill="#A1A2AC"/>
<path d="M277.936 413.315L18.5979 263.59V257.301L277.936 407.026V413.315Z" fill="#ABACB4"/>
<path d="M277.936 407.026L18.5979 257.301L22.4245 252.903L281.769 402.621L277.936 407.026Z" fill="#C1C2C7"/>
<path d="M281.769 379.331V402.621L277.936 407.026V413.315L439.067 320.291V314.006L435.222 314.03V290.745L439.067 286.327V280.041L277.936 373.069V379.355L281.769 379.331Z" fill="#CDCED1"/>
<mask id="mask6_0_1" style="mask-type:luminance" maskUnits="userSpaceOnUse" x="291" y="364" width="17" height="33">
<path d="M298.737 366.72L300.379 365.768C304.174 363.577 307.284 365.353 307.284 369.709V382.78C307.284 387.141 304.174 392.502 300.379 394.698L298.737 395.642C294.929 397.84 291.82 396.069 291.82 391.709V378.637C291.82 374.276 294.929 368.907 298.737 366.72Z" fill="white"/>
</mask>
<g mask="url(#mask6_0_1)">
<path d="M298.737 366.72L300.379 365.768C304.174 363.577 307.284 365.353 307.284 369.709V382.78C307.284 387.141 304.174 392.502 300.379 394.698L298.737 395.642C294.929 397.84 291.82 396.069 291.82 391.709V378.637C291.82 374.276 294.929 368.907 298.737 366.72Z" fill="url(#paint6_linear_0_1)"/>
</g>
<mask id="mask7_0_1" style="mask-type:luminance" maskUnits="userSpaceOnUse" x="315" y="351" width="17" height="32">
<path d="M322.583 352.948L324.22 352.004C328.021 349.808 331.13 351.583 331.13 355.944V369.008C331.13 373.369 328.021 378.738 324.22 380.936L322.583 381.88C318.776 384.075 315.667 382.3 315.667 377.939V364.873C315.667 360.507 318.776 355.146 322.583 352.948Z" fill="white"/>
</mask>
<g mask="url(#mask7_0_1)">
<path d="M322.583 352.948L324.22 352.004C328.021 349.808 331.13 351.583 331.13 355.944V369.008C331.13 373.369 328.021 378.738 324.22 380.936L322.583 381.88C318.776 384.075 315.667 382.3 315.667 377.939V364.873C315.667 360.507 318.776 355.146 322.583 352.948Z" fill="url(#paint7_linear_0_1)"/>
</g>
<mask id="mask8_0_1" style="mask-type:luminance" maskUnits="userSpaceOnUse" x="339" y="337" width="16" height="33">
<path d="M346.43 339.186L348.066 338.235C351.868 336.044 354.977 337.812 354.977 342.176V355.246C354.977 359.608 351.868 364.969 348.066 367.165L346.43 368.109C342.622 370.306 339.513 368.536 339.513 364.175V351.104C339.513 346.743 342.622 341.374 346.43 339.186Z" fill="white"/>
</mask>
<g mask="url(#mask8_0_1)">
<path d="M346.43 339.186L348.066 338.235C351.868 336.044 354.977 337.812 354.977 342.176V355.246C354.977 359.608 351.868 364.969 348.066 367.165L346.43 368.109C342.622 370.306 339.513 368.536 339.513 364.175V351.104C339.513 346.743 342.622 341.374 346.43 339.186Z" fill="url(#paint8_linear_0_1)"/>
</g>
<mask id="mask9_0_1" style="mask-type:luminance" maskUnits="userSpaceOnUse" x="363" y="323" width="16" height="33">
<path d="M370.271 325.415L371.913 324.471C375.715 322.275 378.824 324.05 378.824 328.411V341.475C378.824 345.836 375.715 351.205 371.913 353.402L370.271 354.346C366.469 356.542 363.36 354.767 363.36 350.406V337.34C363.36 332.974 366.469 327.612 370.271 325.415Z" fill="white"/>
</mask>
<g mask="url(#mask9_0_1)">
<path d="M370.271 325.415L371.913 324.471C375.715 322.275 378.824 324.05 378.824 328.411V341.475C378.824 345.836 375.715 351.205 371.913 353.402L370.271 354.346C366.469 356.542 363.36 354.767 363.36 350.406V337.34C363.36 332.974 366.469 327.612 370.271 325.415Z" fill="url(#paint9_linear_0_1)"/>
</g>
<mask id="mask10_0_1" style="mask-type:luminance" maskUnits="userSpaceOnUse" x="387" y="309" width="16" height="33">
<path d="M394.118 311.653L395.761 310.702C399.556 308.511 402.671 310.279 402.671 314.643V327.713C402.671 332.074 399.556 337.436 395.761 339.632L394.118 340.576C390.323 342.773 387.201 341.003 387.201 336.642V323.571C387.201 319.21 390.323 313.841 394.118 311.653Z" fill="white"/>
</mask>
<g mask="url(#mask10_0_1)">
<path d="M394.118 311.653L395.761 310.702C399.556 308.511 402.671 310.279 402.671 314.643V327.713C402.671 332.074 399.556 337.436 395.761 339.632L394.118 340.576C390.323 342.773 387.201 341.003 387.201 336.642V323.571C387.201 319.21 390.323 313.841 394.118 311.653Z" fill="url(#paint10_linear_0_1)"/>
</g>
<mask id="mask11_0_1" style="mask-type:luminance" maskUnits="userSpaceOnUse" x="411" y="295" width="16" height="33">
<path d="M417.964 297.881L419.601 296.937C423.402 294.742 426.517 296.517 426.517 300.878V313.941C426.517 318.303 423.402 323.672 419.601 325.869L417.964 326.813C414.163 329.009 411.048 327.234 411.048 322.873V309.807C411.048 305.44 414.163 300.079 417.964 297.881Z" fill="white"/>
</mask>
<g mask="url(#mask11_0_1)">
<path d="M417.964 297.881L419.601 296.937C423.402 294.742 426.517 296.517 426.517 300.878V313.941C426.517 318.303 423.402 323.672 419.601 325.869L417.964 326.813C414.163 329.009 411.048 327.234 411.048 322.873V309.807C411.048 305.44 414.163 300.079 417.964 297.881Z" fill="url(#paint11_linear_0_1)"/>
</g>
<path d="M387.201 330.639C390.046 328.009 392.142 323.797 392.142 320.235V313.17C389.297 315.793 387.201 320.004 387.201 323.571V330.639Z" fill="#56586D"/>
<path d="M363.36 344.408C366.199 341.778 368.295 337.569 368.295 334.007V326.939C365.45 329.562 363.36 333.766 363.36 337.34V344.408Z" fill="#56586D"/>
<path d="M411.048 316.874C413.893 314.244 415.982 310.035 415.982 306.473V299.406C413.15 302.029 411.048 306.232 411.048 309.807V316.874Z" fill="#56586D"/>
<path d="M291.82 385.706C294.658 383.075 296.748 378.863 296.748 375.301V368.237C293.916 370.867 291.82 375.075 291.82 378.638V385.706Z" fill="#56586D"/>
<path d="M339.513 358.172C342.345 355.542 344.441 351.33 344.441 347.768V340.703C341.603 343.326 339.513 347.537 339.513 351.104V358.172Z" fill="#56586D"/>
<path d="M315.667 371.94C318.505 369.31 320.595 365.101 320.595 361.539V354.472C317.762 357.095 315.667 361.306 315.667 364.873V371.94Z" fill="#56586D"/>
<path d="M277.936 379.355L18.5979 229.63V223.344L277.936 373.069V379.355Z" fill="#ABACB4"/>
<path d="M439.067 280.041L179.729 130.316L18.5979 223.345L277.936 373.069L439.067 280.041Z" fill="#787B88"/>
<path d="M20.8133 222.059L277.936 370.437L435.807 279.65L179.729 130.316L439.067 280.041L277.936 373.069L18.5979 223.345L20.8133 222.059Z" fill="#91939E"/>
<path d="M275.255 359.455L277.671 358.336L277.93 357.97L277.791 357.36L277.477 356.957C276.942 356.51 276.161 356.699 275.362 357.078L273.348 358.01C271.869 358.696 269.641 358.826 268.074 358.309L268.067 358.304H268.061L267.608 358.127C265.934 357.353 266.016 356.046 267.734 355.239L270.151 354.113L270.245 353.528L269.421 352.96L269.251 352.967L268.093 353.339L266.104 354.258C263.328 355.553 262.919 358.051 265.248 359.438L266.752 360.112L266.771 360.116L267.495 360.325L267.514 360.33C270.012 360.954 272.976 360.52 275.255 359.455Z" fill="#BFBCC4"/>
<path d="M278.119 355.315V357.801L277.873 358.172L277.199 358.349L276.64 358.285C275.941 358.067 275.758 357.353 275.758 356.53V354.46C275.758 352.936 274.846 351.08 273.587 350.06L273.581 350.054V350.047L273.184 349.764C271.63 348.784 270.333 349.469 270.333 351.237V353.71L269.792 354.069L268.829 353.666L268.76 353.528L268.59 352.42V350.382C268.59 347.525 270.912 346.026 273.392 347.239L274.783 348.147L274.795 348.155L275.356 348.644L275.362 348.651C277.162 350.382 278.112 352.975 278.119 355.315Z" fill="#686C6E"/>
<path d="M273.574 350.047L273.184 349.764C271.629 348.784 270.333 349.469 270.333 351.237V353.71L269.792 354.069L269.817 351.099C269.867 350.273 270.943 347.825 273.574 350.047Z" fill="#4D5051"/>
<path d="M274.783 348.147C274.072 347.586 272.435 346.8 271 347.102C268.829 347.562 268.829 349.777 268.829 350.185V353.673L268.76 353.529L268.59 352.42V350.382C268.59 347.525 270.912 346.026 273.398 347.24L274.783 348.147Z" fill="#4D5051"/>
<path d="M277.873 358.172L277.2 358.349C277.187 353.15 276.835 352.818 276.293 351.431C275.733 349.991 274.821 348.926 272.97 347.876C270.566 346.517 269.075 348.727 269.528 347.946C269.981 347.159 271.195 346.788 272.02 346.952C272.844 347.122 274.695 348.046 276.193 350.01C277.974 352.358 277.873 355.404 277.861 357.82L277.873 358.172Z" fill="#9A9D9D"/>
<path d="M49.1605 228.888L51.5707 227.767L51.8288 227.403L51.6906 226.794L51.3759 226.39C50.8409 225.948 50.0603 226.132 49.261 226.509L47.2472 227.44C45.7681 228.126 43.5399 228.259 41.9728 227.738H41.9667H41.9602L41.5134 227.553C39.833 226.786 39.9151 225.471 41.6332 224.672L44.0499 223.546L44.1507 222.959L43.3198 222.394L43.1498 222.4L41.998 222.772L40.003 223.689C37.2274 224.987 36.8247 227.484 39.1471 228.869L40.6575 229.542L40.6701 229.55L41.4003 229.756L41.4129 229.763C43.9178 230.385 46.8759 229.952 49.1605 228.888Z" fill="#BFBCC4"/>
<path d="M52.0241 224.748V227.234L51.7786 227.605L51.0988 227.779L50.5389 227.718C49.8403 227.497 49.6702 226.779 49.6702 225.962V223.886C49.6702 222.368 48.7452 220.512 47.4864 219.492L47.48 219.486V219.48L47.0835 219.203C45.529 218.215 44.2326 218.901 44.2326 220.67V223.143L43.6911 223.502L42.7348 223.099L42.6592 222.959L42.4893 221.852V219.812C42.4893 216.956 44.8179 215.458 47.3039 216.673L48.6822 217.579L48.6948 217.592L49.255 218.076L49.2611 218.083C51.0674 219.812 52.0241 222.405 52.0241 224.748Z" fill="#686C6E"/>
<path d="M47.4736 219.48L47.0833 219.203C45.5288 218.215 44.2324 218.901 44.2324 220.67V223.143L43.6909 223.502L43.7161 220.53C43.7665 219.7 44.8428 217.258 47.4736 219.48Z" fill="#4D5051"/>
<path d="M48.6822 217.579C47.971 217.019 46.3348 216.232 44.8998 216.535C42.7348 216.994 42.7348 219.209 42.7348 219.618V223.099L42.6592 222.959L42.4893 221.852V219.812C42.4893 216.956 44.8179 215.458 47.3039 216.673L48.6822 217.579Z" fill="#4D5051"/>
<path d="M51.7783 227.605L51.0986 227.779C51.086 222.575 50.74 222.248 50.1988 220.864C49.6323 219.423 48.7197 218.359 46.8694 217.308C44.4652 215.949 42.9735 218.158 43.4266 217.371C43.886 216.591 45.0944 216.22 45.9189 216.383C46.7434 216.547 48.6002 217.478 50.0918 219.436C51.873 221.789 51.7783 224.834 51.7657 227.251L51.7783 227.605Z" fill="#9A9D9D"/>
<path d="M413.307 279.763L415.724 278.642L415.975 278.278L415.837 277.673L415.522 277.27L415.516 277.265C414.981 276.823 414.207 277.007 413.408 277.379L411.394 278.323C409.915 279.008 407.687 279.134 406.12 278.617L406.113 278.613H406.107L405.654 278.428C403.98 277.669 404.061 276.346 405.786 275.547L408.196 274.426L408.297 273.836L407.466 273.268L407.297 273.281L406.138 273.647L404.156 274.566C401.368 275.861 400.971 278.367 403.294 279.739L404.798 280.417L404.817 280.424L405.541 280.638H405.553C408.064 281.26 411.022 280.827 413.307 279.763Z" fill="#BFBCC4"/>
<path d="M416.165 275.624V278.109L415.926 278.485L415.246 278.662L414.692 278.598H414.686C413.987 278.379 413.811 277.654 413.811 276.838V274.765C413.811 273.249 412.892 271.388 411.633 270.368L411.627 270.36L411.621 270.355L411.237 270.077C409.676 269.089 408.386 269.775 408.386 271.545V274.023L407.844 274.382L406.875 273.974L406.812 273.836L406.63 272.728V270.69C406.63 267.831 408.958 266.333 411.444 267.555L412.835 268.455L412.848 268.46L413.402 268.952L413.408 268.964C415.214 270.69 416.165 273.281 416.165 275.624Z" fill="#686C6E"/>
<path d="M411.62 270.355L411.236 270.078C409.675 269.09 408.385 269.776 408.385 271.545V274.024L407.844 274.382L407.863 271.405C407.913 270.582 408.989 268.133 411.62 270.355Z" fill="#4D5051"/>
<path d="M412.835 268.455C412.112 267.899 410.482 267.108 409.047 267.415C406.875 267.87 406.875 270.085 406.875 270.493V273.974L406.812 273.836L406.63 272.728V270.69C406.63 267.838 408.958 266.334 411.444 267.555L412.835 268.455Z" fill="#4D5051"/>
<path d="M415.926 278.485L415.246 278.662C415.24 273.458 414.881 273.123 414.346 271.739C413.779 270.299 412.867 269.234 411.023 268.189C408.612 266.825 407.121 269.033 407.58 268.254C408.027 267.471 409.235 267.101 410.066 267.265C410.891 267.427 412.747 268.354 414.239 270.311C416.026 272.659 415.926 275.717 415.913 278.133L415.926 278.485Z" fill="#9A9D9D"/>
<path d="M187.206 149.196L189.623 148.076L189.875 147.71L189.736 147.106L189.428 146.704V146.697C188.893 146.257 188.113 146.446 187.307 146.811L185.293 147.755C183.814 148.441 181.592 148.566 180.025 148.05L180.019 148.044H180.006L179.553 147.862C177.885 147.1 177.961 145.778 179.685 144.979L182.102 143.859L182.197 143.267L181.366 142.701L181.196 142.714L180.038 143.079L178.055 144.004C175.273 145.294 174.871 147.799 177.193 149.171L178.703 149.85L178.716 149.857L179.446 150.07H179.459C181.964 150.694 184.922 150.259 187.206 149.196Z" fill="#BFBCC4"/>
<path d="M190.069 145.055V147.54L189.824 147.912L189.144 148.094L188.59 148.031C187.892 147.811 187.709 147.087 187.709 146.269V144.199C187.709 142.682 186.796 140.819 185.531 139.8V139.793L185.525 139.787L185.135 139.51C183.574 138.522 182.284 139.202 182.284 140.977V143.456L181.743 143.815L180.78 143.406L180.711 143.267L180.534 142.16V140.121C180.534 137.263 182.863 135.766 185.343 136.987L186.734 137.88L186.74 137.886L187.306 138.384L187.313 138.396C189.112 140.121 190.063 142.713 190.069 145.055Z" fill="#686C6E"/>
<path d="M185.526 139.787L185.136 139.51C183.575 138.522 182.285 139.202 182.285 140.977V143.456L181.743 143.815L181.768 140.838C181.819 140.014 182.895 137.566 185.526 139.787Z" fill="#4D5051"/>
<path d="M186.734 137.88C186.016 137.333 184.38 136.54 182.945 136.842C180.78 137.301 180.78 139.516 180.78 139.926V143.406L180.711 143.267L180.534 142.166V140.121C180.534 137.27 182.863 135.766 185.343 136.987L186.734 137.88Z" fill="#4D5051"/>
<path d="M189.824 147.912L189.144 148.094C189.138 142.89 188.786 142.556 188.244 141.172C187.678 139.73 186.772 138.661 184.921 137.616C182.511 136.263 181.025 138.465 181.479 137.685C181.925 136.905 183.14 136.533 183.965 136.697C184.789 136.861 186.646 137.786 188.144 139.743C189.925 142.09 189.824 145.149 189.812 147.566L189.824 147.912Z" fill="#9A9D9D"/>
<path d="M237.071 358.7L412.778 257.264V252.193L237.071 353.629V358.7Z" fill="#663B1D"/>
<path d="M228.203 348.498L237.071 353.629L412.778 252.193L403.904 247.058L228.203 348.498Z" fill="#774520"/>
<path d="M237.071 358.7L228.203 353.584V348.498L237.071 353.629V358.7Z" fill="#492413"/>
<path d="M59.6074 256.251L235.315 154.816V149.731L59.6074 251.165V256.251Z" fill="#663B1D"/>
<path d="M50.7393 246.05L59.607 251.166L235.315 149.731L226.44 144.608L50.7393 246.05Z" fill="#774520"/>
<path d="M59.607 256.251L50.7393 251.129V246.049L59.607 251.165V256.251Z" fill="#492413"/>
<path d="M439.068 268.411L179.73 118.686L175.878 118.717L435.222 268.436L439.068 268.411Z" fill="#A1A2AC"/>
<path d="M22.4245 184.011V207.309L18.5979 211.714V217.995L179.729 124.973V118.686L175.877 118.717V95.4257L179.729 91.0077V84.7207L18.5979 177.749V184.03L22.4245 184.011Z" fill="#BFBCC4"/>
<path d="M281.769 333.736L22.4246 184.01V207.308L281.769 357.026V333.736Z" fill="#A1A2AC"/>
<path d="M277.936 367.72L18.5979 217.994V211.714L277.936 361.431V367.72Z" fill="#ABACB4"/>
<path d="M277.936 361.432L18.5979 211.714L22.4245 207.309L281.769 357.026L277.936 361.432Z" fill="#C1C2C7"/>
<path d="M281.769 333.736V357.026L277.936 361.431V367.72L439.067 274.697V268.411L435.222 268.435V245.15L439.067 240.732V234.446L277.936 327.467V333.753L281.769 333.736Z" fill="#CDCED1"/>
<mask id="mask12_0_1" style="mask-type:luminance" maskUnits="userSpaceOnUse" x="291" y="319" width="17" height="32">
<path d="M298.737 321.122L300.379 320.174C304.174 317.983 307.284 319.758 307.284 324.119V337.178C307.284 341.547 304.174 346.908 300.379 349.11L298.737 350.047C294.929 352.245 291.82 350.475 291.82 346.109V333.043C291.82 328.682 294.929 323.313 298.737 321.122Z" fill="white"/>
</mask>
<g mask="url(#mask12_0_1)">
<path d="M298.737 321.122L300.379 320.174C304.174 317.983 307.284 319.758 307.284 324.119V337.178C307.284 341.547 304.174 346.908 300.379 349.11L298.737 350.047C294.929 352.245 291.82 350.475 291.82 346.109V333.043C291.82 328.682 294.929 323.313 298.737 321.122Z" fill="url(#paint12_linear_0_1)"/>
</g>
<mask id="mask13_0_1" style="mask-type:luminance" maskUnits="userSpaceOnUse" x="315" y="305" width="17" height="33">
<path d="M322.583 307.353L324.22 306.409C328.021 304.214 331.13 305.989 331.13 310.355V323.413C331.13 327.775 328.021 333.143 324.22 335.334L322.583 336.283C318.776 338.48 315.667 336.705 315.667 332.344V319.279C315.667 314.912 318.776 309.551 322.583 307.353Z" fill="white"/>
</mask>
<g mask="url(#mask13_0_1)">
<path d="M322.583 307.353L324.22 306.409C328.021 304.214 331.13 305.989 331.13 310.355V323.413C331.13 327.775 328.021 333.143 324.22 335.334L322.583 336.283C318.776 338.48 315.667 336.705 315.667 332.344V319.279C315.667 314.912 318.776 309.551 322.583 307.353Z" fill="url(#paint13_linear_0_1)"/>
</g>
<mask id="mask14_0_1" style="mask-type:luminance" maskUnits="userSpaceOnUse" x="339" y="291" width="16" height="33">
<path d="M346.43 293.589L348.066 292.641C351.868 290.45 354.977 292.225 354.977 296.586V309.645C354.977 314.013 351.868 319.375 348.066 321.57L346.43 322.514C342.622 324.712 339.513 322.942 339.513 318.576V305.51C339.513 301.149 342.622 295.78 346.43 293.589Z" fill="white"/>
</mask>
<g mask="url(#mask14_0_1)">
<path d="M346.43 293.589L348.066 292.641C351.868 290.45 354.977 292.225 354.977 296.586V309.645C354.977 314.013 351.868 319.375 348.066 321.57L346.43 322.514C342.622 324.712 339.513 322.942 339.513 318.576V305.51C339.513 301.149 342.622 295.78 346.43 293.589Z" fill="url(#paint14_linear_0_1)"/>
</g>
<mask id="mask15_0_1" style="mask-type:luminance" maskUnits="userSpaceOnUse" x="363" y="277" width="16" height="33">
<path d="M370.271 279.82L371.913 278.876C375.715 276.681 378.824 278.456 378.824 282.817V295.88C378.824 300.242 375.715 305.61 371.913 307.8L370.271 308.749C366.469 310.94 363.36 309.172 363.36 304.811V291.745C363.36 287.379 366.469 282.018 370.271 279.82Z" fill="white"/>
</mask>
<g mask="url(#mask15_0_1)">
<path d="M370.271 279.82L371.913 278.876C375.715 276.681 378.824 278.456 378.824 282.817V295.88C378.824 300.242 375.715 305.61 371.913 307.8L370.271 308.749C366.469 310.94 363.36 309.172 363.36 304.811V291.745C363.36 287.379 366.469 282.018 370.271 279.82Z" fill="url(#paint15_linear_0_1)"/>
</g>
<mask id="mask16_0_1" style="mask-type:luminance" maskUnits="userSpaceOnUse" x="387" y="264" width="16" height="32">
<path d="M394.118 266.056L395.761 265.107C399.556 262.917 402.671 264.691 402.671 269.045V282.111C402.671 286.48 399.556 291.841 395.761 294.037L394.118 294.981C390.323 297.179 387.201 295.408 387.201 291.043V277.977C387.201 273.615 390.323 268.246 394.118 266.056Z" fill="white"/>
</mask>
<g mask="url(#mask16_0_1)">
<path d="M394.118 266.056L395.761 265.107C399.556 262.917 402.671 264.691 402.671 269.045V282.111C402.671 286.48 399.556 291.841 395.761 294.037L394.118 294.981C390.323 297.179 387.201 295.408 387.201 291.043V277.977C387.201 273.615 390.323 268.246 394.118 266.056Z" fill="url(#paint16_linear_0_1)"/>
</g>
<mask id="mask17_0_1" style="mask-type:luminance" maskUnits="userSpaceOnUse" x="411" y="250" width="16" height="33">
<path d="M417.964 252.287L419.601 251.343C423.402 249.147 426.517 250.915 426.517 255.283V268.347C426.517 272.708 423.402 278.077 419.601 280.267L417.964 281.216C414.163 283.407 411.048 281.639 411.048 277.278V264.212C411.048 259.846 414.163 254.485 417.964 252.287Z" fill="white"/>
</mask>
<g mask="url(#mask17_0_1)">
<path d="M417.964 252.287L419.601 251.343C423.402 249.147 426.517 250.915 426.517 255.283V268.347C426.517 272.708 423.402 278.077 419.601 280.267L417.964 281.216C414.163 283.407 411.048 281.639 411.048 277.278V264.212C411.048 259.846 414.163 254.485 417.964 252.287Z" fill="url(#paint17_linear_0_1)"/>
</g>
<path d="M387.201 285.043C390.046 282.413 392.142 278.202 392.142 274.64V267.573C389.297 270.203 387.201 274.414 387.201 277.976V285.043Z" fill="#56586D"/>
<path d="M363.36 298.813C366.199 296.19 368.295 291.979 368.295 288.404V281.337C365.45 283.967 363.36 288.179 363.36 291.746V298.813Z" fill="#56586D"/>
<path d="M411.048 271.28C413.893 268.65 415.982 264.438 415.982 260.871V253.804C413.15 256.434 411.048 260.645 411.048 264.212V271.28Z" fill="#56586D"/>
<path d="M291.82 340.11C294.658 337.484 296.748 333.276 296.748 329.706V322.639C293.916 325.269 291.82 329.48 291.82 333.042V340.11Z" fill="#56586D"/>
<path d="M339.513 312.577C342.345 309.947 344.441 305.743 344.441 302.173V295.106C341.603 297.736 339.513 301.947 339.513 305.509V312.577Z" fill="#56586D"/>
<path d="M315.667 326.346C318.505 323.723 320.595 319.512 320.595 315.938V308.87C317.762 311.5 315.667 315.712 315.667 319.279V326.346Z" fill="#56586D"/>
<path d="M277.936 333.753L18.5979 184.029V177.749L277.936 327.467V333.753Z" fill="#ABACB4"/>
<path d="M439.067 234.447L179.729 84.7208L18.5979 177.749L277.936 327.467L439.067 234.447Z" fill="#DDDEDE"/>
<path d="M20.8133 176.465L277.936 324.842L435.807 234.056L179.729 84.7208L439.067 234.447L277.936 327.467L18.5979 177.749L20.8133 176.465Z" fill="#EAE7EA"/>
<path d="M275.255 313.861L277.671 312.74L277.93 312.376L277.791 311.766L277.477 311.363C276.942 310.923 276.161 311.105 275.362 311.476L273.348 312.413C271.869 313.098 269.641 313.231 268.074 312.715L268.067 312.71H268.061L267.608 312.526C265.934 311.759 266.016 310.444 267.734 309.637L270.151 308.519L270.245 307.933L269.421 307.366L269.251 307.373L268.093 307.745L266.104 308.664C263.328 309.959 262.919 312.457 265.248 313.836L266.752 314.514L266.771 314.522L267.495 314.728L267.514 314.736C270.012 315.358 272.976 314.925 275.255 313.861Z" fill="#BFBCC4"/>
<path d="M278.119 309.72V312.206L277.873 312.577L277.199 312.754L276.64 312.69C275.941 312.469 275.758 311.754 275.758 310.935V308.863C275.758 307.341 274.846 305.485 273.587 304.465L273.581 304.46L273.574 304.452L273.184 304.175C271.63 303.186 270.333 303.867 270.333 305.642V308.12L269.792 308.479L268.829 308.071L268.76 307.933L268.59 306.825V304.786C268.59 301.927 270.912 300.431 273.392 301.652L274.783 302.552L274.795 302.557L275.356 303.049L275.362 303.056C277.162 304.786 278.112 307.378 278.119 309.72Z" fill="#686C6E"/>
<path d="M273.574 304.452L273.184 304.175C271.629 303.186 270.333 303.867 270.333 305.642V308.12L269.792 308.479L269.817 305.502C269.867 304.679 270.943 302.23 273.574 304.452Z" fill="#4D5051"/>
<path d="M274.783 302.552C274.072 301.991 272.435 301.205 271 301.507C268.829 301.967 268.829 304.182 268.829 304.59V308.071L268.76 307.933L268.59 306.825V304.786C268.59 301.927 270.912 300.431 273.398 301.652L274.783 302.552Z" fill="#4D5051"/>
<path d="M277.873 312.577L277.2 312.754C277.187 307.555 276.835 307.221 276.293 305.836C275.733 304.389 274.821 303.331 272.97 302.282C270.566 300.922 269.075 303.13 269.528 302.35C269.981 301.564 271.195 301.197 272.02 301.355C272.844 301.527 274.695 302.451 276.193 304.408C277.974 306.756 277.873 309.807 277.861 312.223L277.873 312.577Z" fill="#9A9D9D"/>
<path d="M49.1605 183.293L51.5707 182.173L51.8288 181.808L51.6906 181.198L51.3759 180.795C50.8409 180.354 50.0603 180.537 49.261 180.908L47.2472 181.846C45.7681 182.538 43.5399 182.664 41.9728 182.148L41.9667 182.142H41.9602L41.5134 181.959C39.833 181.191 39.9151 179.876 41.6332 179.071L44.0499 177.95L44.1507 177.365L43.3198 176.799L43.1498 176.811L41.998 177.176L40.003 178.095C37.2274 179.391 36.8247 181.89 39.1471 183.268L40.6575 183.948L40.6701 183.954L41.4003 184.162L41.4129 184.168C43.9178 184.791 46.8759 184.357 49.1605 183.293Z" fill="#BFBCC4"/>
<path d="M52.0241 179.152V181.638L51.7786 182.009L51.0988 182.186L50.5389 182.123C49.8403 181.902 49.6702 181.185 49.6702 180.36V178.296C49.6702 176.773 48.7452 174.917 47.4864 173.897L47.48 173.891V173.885L47.0835 173.608C45.529 172.62 44.2326 173.299 44.2326 175.074V177.547L43.6911 177.912L42.7348 177.503L42.6592 177.365L42.4893 176.257V174.218C42.4893 171.361 44.8179 169.863 47.3039 171.084L48.6822 171.978L48.6948 171.99L49.255 172.481L49.2611 172.487C51.0674 174.218 52.0241 176.811 52.0241 179.152Z" fill="#686C6E"/>
<path d="M47.4736 173.885L47.0833 173.608C45.5288 172.62 44.2324 173.3 44.2324 175.074V177.548L43.6909 177.913L43.7161 174.936C43.7665 174.105 44.8428 171.663 47.4736 173.885Z" fill="#4D5051"/>
<path d="M48.6822 171.978C47.971 171.424 46.3348 170.637 44.8998 170.933C42.7348 171.399 42.7348 173.614 42.7348 174.023V177.503L42.6592 177.365L42.4893 176.257V174.218C42.4893 171.361 44.8179 169.863 47.3039 171.084L48.6822 171.978Z" fill="#4D5051"/>
<path d="M51.7783 182.009L51.0986 182.186C51.086 176.987 50.74 176.654 50.1988 175.269C49.6323 173.822 48.7197 172.758 46.8694 171.707C44.4652 170.354 42.9735 172.563 43.4266 171.783C43.886 170.996 45.0944 170.631 45.9189 170.788C46.7434 170.958 48.6002 171.883 50.0918 173.841C51.873 176.188 51.7783 179.24 51.7657 181.663L51.7783 182.009Z" fill="#9A9D9D"/>
<path d="M413.307 234.173L415.724 233.055L415.975 232.689L415.837 232.079L415.522 231.676L415.516 231.671C414.981 231.228 414.207 231.417 413.408 231.783L411.394 232.727C409.915 233.413 407.687 233.539 406.12 233.023H406.113L406.107 233.015L405.654 232.833C403.98 232.071 404.061 230.751 405.786 229.952L408.196 228.831L408.297 228.246L407.466 227.673L407.297 227.686L406.138 228.05L404.156 228.976C401.368 230.267 400.971 232.77 403.294 234.149L404.798 234.823L404.817 234.829L405.541 235.043H405.553C408.064 235.665 411.022 235.233 413.307 234.173Z" fill="#BFBCC4"/>
<path d="M416.165 230.034V232.514L415.926 232.89L415.246 233.06L414.692 233.003H414.686C413.987 232.784 413.811 232.059 413.811 231.236V229.171C413.811 227.654 412.892 225.798 411.633 224.773L411.627 224.765L411.621 224.76L411.237 224.483C409.676 223.495 408.386 224.18 408.386 225.948V228.428L407.844 228.788L406.875 228.379L406.812 228.239L406.63 227.138V225.093C406.63 222.243 408.958 220.739 411.444 221.958L412.835 222.853L412.848 222.866L413.402 223.357L413.408 223.362C415.214 225.093 416.165 227.686 416.165 230.034Z" fill="#686C6E"/>
<path d="M411.62 224.761L411.236 224.483C409.675 223.495 408.385 224.18 408.385 225.948V228.428L407.844 228.788L407.863 225.81C407.913 224.987 408.989 222.538 411.62 224.761Z" fill="#4D5051"/>
<path d="M412.835 222.853C412.112 222.305 410.482 221.513 409.047 221.816C406.875 222.272 406.875 224.49 406.875 224.898V228.379L406.812 228.246L406.63 227.138V225.099C406.63 222.243 408.958 220.739 411.444 221.958L412.835 222.853Z" fill="#4D5051"/>
<path d="M415.926 232.89L415.246 233.06C415.24 227.863 414.881 227.529 414.346 226.149C413.779 224.704 412.867 223.632 411.023 222.587C408.612 221.236 407.121 223.445 407.58 222.658C408.027 221.877 409.235 221.505 410.066 221.67C410.891 221.833 412.747 222.76 414.239 224.721C416.026 227.064 415.926 230.122 415.913 232.539L415.926 232.89Z" fill="#9A9D9D"/>
<path d="M187.206 103.607L189.623 102.48L189.875 102.121L189.736 101.511L189.428 101.108V101.102C188.893 100.655 188.113 100.85 187.307 101.215L185.293 102.159C183.814 102.845 181.592 102.971 180.025 102.455L180.012 102.449H180.006L179.553 102.272C177.885 101.505 177.961 100.183 179.685 99.3838L182.102 98.2636L182.197 97.6782L181.366 97.1055L181.196 97.1181L180.038 97.4832L178.055 98.4083C175.273 99.6984 174.871 102.203 177.193 103.581L178.703 104.255L178.716 104.261L179.446 104.475H179.459C181.964 105.098 184.922 104.664 187.206 103.607Z" fill="#BFBCC4"/>
<path d="M190.069 99.4593V101.945L189.824 102.323L189.144 102.493L188.59 102.436C187.892 102.216 187.709 101.492 187.709 100.668V98.6034C187.709 97.0867 186.796 95.2301 185.531 94.2043V94.198L185.525 94.1918L185.135 93.9149C183.574 92.9268 182.284 93.6128 182.284 95.3812V97.8608L181.743 98.2195L180.78 97.8105L180.711 97.672L180.534 96.5643V94.5253C180.534 91.6744 182.863 90.164 185.343 91.3912L186.734 92.2849L186.74 92.2912L187.306 92.782L187.313 92.7946C189.112 94.5253 190.063 97.1182 190.069 99.4593Z" fill="#686C6E"/>
<path d="M185.526 94.1921L185.136 93.9151C183.575 92.9271 182.285 93.613 182.285 95.3814V97.861L181.743 98.2197L181.768 95.243C181.819 94.4186 182.895 91.9705 185.526 94.1921Z" fill="#4D5051"/>
<path d="M186.734 92.285C186.016 91.7312 184.38 90.9382 182.945 91.2466C180.78 91.7123 180.78 93.9212 180.78 94.3303V97.8105L180.711 97.672L180.534 96.5707V94.5317C180.534 91.6745 182.863 90.1641 185.343 91.3913L186.734 92.285Z" fill="#4D5051"/>
<path d="M189.824 102.323L189.144 102.493C189.138 97.2944 188.786 96.9608 188.244 95.5826C187.678 94.1351 186.772 93.0653 184.921 92.0206C182.511 90.6675 181.025 92.8764 181.479 92.0898C181.925 91.3094 183.14 90.9381 183.965 91.1018C184.789 91.2654 186.646 92.1905 188.144 94.154C189.925 96.4951 189.824 99.5537 189.812 101.964L189.824 102.323Z" fill="#9A9D9D"/>
<path d="M672.311 257.761L474.878 371.754V202.651L637.154 108.918L672.311 88.6223V257.761ZM685.521 33.0144L680.832 3.88263L435.265 178.46L400.108 465.109L406.818 468.998L418.027 470.503L425.894 475.058L428.556 481.501L435.265 485.393L709.274 327.214V20.283L685.521 33.0144Z" fill="#CDCED1"/>
<path d="M425.882 168.138L425.894 475.058L428.538 481.521V174.589L425.882 168.138Z" fill="#8A8B99"/>
<path d="M418.015 163.595V470.52L425.894 475.058L425.882 168.139L418.015 163.595Z" fill="#A1A2AC"/>
<path d="M400.096 158.196L406.812 162.066L418.014 163.595L425.882 168.139L428.538 174.59L435.247 178.466L709.261 20.2897L702.553 16.4193L691.35 14.89L683.482 10.3462L680.827 3.87671L674.111 -5.86421e-06L400.096 158.196Z" fill="#DDDEDE"/>
<path d="M435.247 178.466V485.393L428.538 481.521V174.589L435.247 178.466Z" fill="#ABACB4"/>
<path d="M418.015 163.595V470.52L406.812 468.991V162.066L418.015 163.595Z" fill="#ABACB4"/>
<path d="M406.812 162.065L400.096 158.195V465.122L406.812 468.991V162.065Z" fill="#A1A2AC"/>
<path d="M401.865 157.176L406.812 160.228L420.085 161.411L428.217 166.377L431.162 173.079L434.668 174.841L704.661 19.4715L701.212 17.4514L691.828 16.0228L683.482 10.3462L691.35 14.89L702.553 16.4193L709.261 20.2897L435.247 178.466L428.538 174.59L425.882 168.139L418.014 163.595L406.812 162.066L400.096 158.196L401.865 157.176Z" fill="#EAE7EA"/>
<path d="M672.758 17.8599L676.315 19.3767L676.686 19.9053L676.44 20.843L675.956 21.4849C675.138 22.2086 673.986 21.9821 672.796 21.4786L669.838 20.2199C667.654 19.2948 664.331 19.2822 661.965 20.1947L661.946 20.201H661.94L661.254 20.5094C658.724 21.8121 658.78 23.8071 661.317 24.8896L664.879 26.4063L664.999 27.2873C664.866 27.5454 664.463 28.0677 663.733 28.2188H663.482C662.947 28.1873 662.361 28.0048 661.764 27.753L658.843 26.507C654.733 24.7637 654.249 20.994 657.786 18.7095C658.466 18.269 659.234 17.8788 660.071 17.5579L660.096 17.5516L661.191 17.1677H661.21C664.986 16.016 669.385 16.4377 672.758 17.8599Z" fill="#BFBCC4"/>
<path d="M662.708 23.5868V27.2873L663.066 27.8474L664.08 28.1055L664.904 28.0111H664.91C665.949 27.6901 666.213 26.6202 666.213 25.3867V22.3093C666.213 20.0437 667.585 17.2746 669.461 15.7517L669.473 15.7391L669.479 15.7328L670.059 15.3237C672.381 13.8447 674.307 14.8705 674.307 17.5074V21.1953L675.119 21.7303L676.547 21.1324L676.654 20.9248C676.85 20.459 676.919 19.8864 676.919 19.2759V16.23C676.919 11.9757 673.445 9.7352 669.744 11.554C669.027 11.9064 668.328 12.3595 667.673 12.8945L667.654 12.9134L666.824 13.6371L666.811 13.6496C664.124 16.2299 662.708 20.1003 662.708 23.5868Z" fill="#686C6E"/>
<path d="M669.479 15.7329L670.058 15.3238C672.38 13.8449 674.306 14.8707 674.306 17.5076V21.1955L675.118 21.7305C675.118 20.9375 675.111 17.7342 675.086 17.2999C675.004 16.0727 673.399 12.4226 669.479 15.7329Z" fill="#4D5051"/>
<path d="M667.674 12.8949C668.744 12.0641 671.186 10.8936 673.319 11.3404C676.548 12.0264 676.554 15.3304 676.554 15.9408V21.1328L676.655 20.9252C676.85 20.4595 676.919 19.8868 676.919 19.2763V16.2304C676.919 11.9761 673.445 9.7356 669.744 11.5544C669.027 11.9068 668.328 12.3599 667.674 12.8949Z" fill="#4D5051"/>
<path d="M663.066 27.8474L664.079 28.1055C664.098 20.3584 664.621 19.8612 665.42 17.797C666.263 15.651 667.623 14.0587 670.379 12.498C673.967 10.4715 676.182 13.7692 675.509 12.5987C674.841 11.4344 673.029 10.8806 671.801 11.126C670.568 11.3714 667.799 12.7497 665.577 15.6761C662.921 19.1689 663.066 23.719 663.085 27.3188L663.066 27.8474Z" fill="#9A9D9D"/>
<path d="M443.221 149.68L446.777 151.197L447.148 151.732L446.909 152.663L446.425 153.305V153.311C445.6 154.029 444.448 153.802 443.265 153.305L440.301 152.034C438.117 151.109 434.794 151.102 432.421 152.015L432.409 152.021L432.396 152.028L431.722 152.323C429.18 153.626 429.243 155.627 431.779 156.71L435.341 158.22L435.461 159.108C435.323 159.366 434.926 159.888 434.19 160.033H433.944C433.403 160.001 432.817 159.825 432.232 159.573L429.299 158.327C425.202 156.578 424.711 152.82 428.242 150.523C428.928 150.083 429.696 149.693 430.527 149.378L430.552 149.372L431.653 148.988L431.672 148.982C435.442 147.836 439.854 148.252 443.221 149.68Z" fill="#BFBCC4"/>
<path d="M433.163 155.407V159.108L433.535 159.661L434.541 159.926L435.372 159.838H435.378C436.417 159.504 436.681 158.434 436.681 157.207V154.13C436.681 151.864 438.053 149.095 439.916 147.572L439.935 147.566L439.941 147.559L440.52 147.138C442.843 145.665 444.769 146.685 444.769 149.322V153.022L445.581 153.551L447.009 152.946L447.116 152.739C447.311 152.279 447.381 151.707 447.381 151.09V148.05C447.381 143.79 443.906 141.549 440.206 143.374C439.488 143.72 438.796 144.174 438.135 144.708L438.116 144.727L437.286 145.457L437.273 145.47C434.592 148.05 433.169 151.914 433.163 155.407Z" fill="#686C6E"/>
<path d="M439.941 147.559L440.52 147.137C442.843 145.665 444.769 146.684 444.769 149.321V153.022L445.581 153.55C445.581 152.764 445.574 149.554 445.543 149.12C445.461 147.886 443.862 144.236 439.941 147.559Z" fill="#4D5051"/>
<path d="M438.136 144.715C439.206 143.884 441.641 142.707 443.787 143.161C447.01 143.847 447.01 147.151 447.01 147.755V152.947L447.117 152.739C447.312 152.286 447.381 151.707 447.381 151.09V148.051C447.381 143.79 443.907 141.549 440.2 143.375C439.489 143.727 438.797 144.174 438.136 144.715Z" fill="#4D5051"/>
<path d="M433.535 159.661L434.542 159.926C434.554 152.179 435.083 151.675 435.889 149.617C436.726 147.465 438.085 145.873 440.842 144.312C444.423 142.292 446.651 145.583 445.971 144.419C445.298 143.255 443.498 142.695 442.258 142.94C441.031 143.186 438.268 144.57 436.04 147.49C433.384 150.989 433.535 155.533 433.548 159.133L433.535 159.661Z" fill="#9A9D9D"/>
<path d="M672.311 257.761L474.878 371.754V331.174L637.155 237.477L672.311 257.761Z" fill="#E4E4E5"/>
<path d="M672.312 88.6222V257.761L637.155 237.477V108.918L672.312 88.6222Z" fill="#A1A2AC"/>
<path d="M474.878 369.866L670.543 256.744L670.468 89.6859L672.311 88.6223V257.761L474.878 371.754V369.866Z" fill="#EAE7EA"/>
<mask id="mask18_0_1" style="mask-type:luminance" maskUnits="userSpaceOnUse" x="637" y="88" width="36" height="86">
<path d="M672.312 88.6226L657.15 129.655L637.155 173.199V108.919L672.312 88.6226Z" fill="white"/>
</mask>
<g mask="url(#mask18_0_1)">
<path d="M672.312 88.6226L657.15 129.655L637.155 173.199V108.919L672.312 88.6226Z" fill="url(#paint18_linear_0_1)"/>
</g>
<defs>
<linearGradient id="paint0_linear_0_1" x1="305.817" y1="437.153" x2="293.29" y2="415.455" gradientUnits="userSpaceOnUse">
<stop stop-color="#A7A9B2"/>
<stop offset="0.854167" stop-color="#6A6B7E"/>
<stop offset="1" stop-color="#6A6B7E"/>
</linearGradient>
<linearGradient id="paint1_linear_0_1" x1="329.664" y1="423.384" x2="317.137" y2="401.685" gradientUnits="userSpaceOnUse">
<stop stop-color="#A7A9B2"/>
<stop offset="0.854167" stop-color="#6A6B7E"/>
<stop offset="1" stop-color="#6A6B7E"/>
</linearGradient>
<linearGradient id="paint2_linear_0_1" x1="353.51" y1="409.62" x2="340.984" y2="387.922" gradientUnits="userSpaceOnUse">
<stop stop-color="#A7A9B2"/>
<stop offset="0.854167" stop-color="#6A6B7E"/>
<stop offset="1" stop-color="#6A6B7E"/>
</linearGradient>
<linearGradient id="paint3_linear_0_1" x1="377.357" y1="395.85" x2="364.831" y2="374.152" gradientUnits="userSpaceOnUse">
<stop stop-color="#A7A9B2"/>
<stop offset="0.854167" stop-color="#6A6B7E"/>
<stop offset="1" stop-color="#6A6B7E"/>
</linearGradient>
<linearGradient id="paint4_linear_0_1" x1="401.205" y1="382.087" x2="388.678" y2="360.389" gradientUnits="userSpaceOnUse">
<stop stop-color="#A7A9B2"/>
<stop offset="0.854167" stop-color="#6A6B7E"/>
<stop offset="1" stop-color="#6A6B7E"/>
</linearGradient>
<linearGradient id="paint5_linear_0_1" x1="425.045" y1="368.317" x2="412.518" y2="346.619" gradientUnits="userSpaceOnUse">
<stop stop-color="#A7A9B2"/>
<stop offset="0.854167" stop-color="#6A6B7E"/>
<stop offset="1" stop-color="#6A6B7E"/>
</linearGradient>
<linearGradient id="paint6_linear_0_1" x1="305.817" y1="391.558" x2="293.291" y2="369.86" gradientUnits="userSpaceOnUse">
<stop stop-color="#A7A9B2"/>
<stop offset="0.854167" stop-color="#6A6B7E"/>
<stop offset="1" stop-color="#6A6B7E"/>
</linearGradient>
<linearGradient id="paint7_linear_0_1" x1="329.664" y1="377.788" x2="317.137" y2="356.09" gradientUnits="userSpaceOnUse">
<stop stop-color="#A7A9B2"/>
<stop offset="0.854167" stop-color="#6A6B7E"/>
<stop offset="1" stop-color="#6A6B7E"/>
</linearGradient>
<linearGradient id="paint8_linear_0_1" x1="353.51" y1="364.025" x2="340.983" y2="342.327" gradientUnits="userSpaceOnUse">
<stop stop-color="#A7A9B2"/>
<stop offset="0.854167" stop-color="#6A6B7E"/>
<stop offset="1" stop-color="#6A6B7E"/>
</linearGradient>
<linearGradient id="paint9_linear_0_1" x1="377.357" y1="350.255" x2="364.831" y2="328.557" gradientUnits="userSpaceOnUse">
<stop stop-color="#A7A9B2"/>
<stop offset="0.854167" stop-color="#6A6B7E"/>
<stop offset="1" stop-color="#6A6B7E"/>
</linearGradient>
<linearGradient id="paint10_linear_0_1" x1="401.205" y1="336.492" x2="388.678" y2="314.794" gradientUnits="userSpaceOnUse">
<stop stop-color="#A7A9B2"/>
<stop offset="0.854167" stop-color="#6A6B7E"/>
<stop offset="1" stop-color="#6A6B7E"/>
</linearGradient>
<linearGradient id="paint11_linear_0_1" x1="425.051" y1="322.722" x2="412.524" y2="301.024" gradientUnits="userSpaceOnUse">
<stop stop-color="#A7A9B2"/>
<stop offset="0.854167" stop-color="#6A6B7E"/>
<stop offset="1" stop-color="#6A6B7E"/>
</linearGradient>
<linearGradient id="paint12_linear_0_1" x1="305.817" y1="345.963" x2="293.291" y2="324.265" gradientUnits="userSpaceOnUse">
<stop stop-color="#A7A9B2"/>
<stop offset="0.854167" stop-color="#6A6B7E"/>
<stop offset="1" stop-color="#6A6B7E"/>
</linearGradient>
<linearGradient id="paint13_linear_0_1" x1="329.664" y1="332.193" x2="317.137" y2="310.495" gradientUnits="userSpaceOnUse">
<stop stop-color="#A7A9B2"/>
<stop offset="0.854167" stop-color="#6A6B7E"/>
<stop offset="1" stop-color="#6A6B7E"/>
</linearGradient>
<linearGradient id="paint14_linear_0_1" x1="353.51" y1="318.43" x2="340.984" y2="296.732" gradientUnits="userSpaceOnUse">
<stop stop-color="#A7A9B2"/>
<stop offset="0.854167" stop-color="#6A6B7E"/>
<stop offset="1" stop-color="#6A6B7E"/>
</linearGradient>
<linearGradient id="paint15_linear_0_1" x1="377.357" y1="304.66" x2="364.831" y2="282.962" gradientUnits="userSpaceOnUse">
<stop stop-color="#A7A9B2"/>
<stop offset="0.854167" stop-color="#6A6B7E"/>
<stop offset="1" stop-color="#6A6B7E"/>
</linearGradient>
<linearGradient id="paint16_linear_0_1" x1="401.205" y1="290.897" x2="388.678" y2="269.199" gradientUnits="userSpaceOnUse">
<stop stop-color="#A7A9B2"/>
<stop offset="0.854167" stop-color="#6A6B7E"/>
<stop offset="1" stop-color="#6A6B7E"/>
</linearGradient>
<linearGradient id="paint17_linear_0_1" x1="425.051" y1="277.127" x2="412.524" y2="255.429" gradientUnits="userSpaceOnUse">
<stop stop-color="#A7A9B2"/>
<stop offset="0.854167" stop-color="#6A6B7E"/>
<stop offset="1" stop-color="#6A6B7E"/>
</linearGradient>
<linearGradient id="paint18_linear_0_1" x1="683.508" y1="149.209" x2="625.161" y2="112.099" gradientUnits="userSpaceOnUse">
<stop stop-color="#B2B4BB"/>
<stop offset="0.854167" stop-color="#6A6B7E"/>
<stop offset="1" stop-color="#6A6B7E"/>
</linearGradient>
</defs>
</svg>
 