<svg width="618" height="526" viewBox="0 0 618 526" fill="none" xmlns="http://www.w3.org/2000/svg">
<path d="M592.314 103.179L603.907 118.176V155.905L565.106 133.507V95.7719L553.519 80.7748L592.314 103.179Z" fill="#425156"/>
<path d="M529.987 94.1104L568.794 116.515V176.176L529.987 153.778V94.1104Z" fill="#2A383C"/>
<path d="M592.313 103.179L568.794 116.515V176.176L603.906 155.905V118.176L592.313 103.179Z" fill="#364549"/>
<path d="M568.782 116.515L592.314 103.179L553.519 80.7748L529.987 94.1103L568.782 116.515Z" fill="#4E5E63"/>
<path d="M491.338 247.869L513.705 210.185L502.465 202.62L502.295 202.507L502.251 202.475L502.232 202.482C499.425 200.94 495.58 201.198 491.338 203.652C482.728 208.618 475.754 220.644 475.754 230.518C475.754 234.955 477.221 238.121 479.55 239.902L479.512 239.984L480.305 240.512L480.33 240.525L491.338 247.869Z" fill="#4E5F63"/>
<path d="M486.221 237.579C486.221 247.454 493.194 251.431 501.798 246.459C510.401 241.494 517.374 229.467 517.374 219.593C517.374 209.719 510.401 205.748 501.798 210.713C493.194 215.679 486.221 227.705 486.221 237.579Z" fill="#2A383C"/>
<path d="M491.721 234.407C491.721 240.789 496.234 243.363 501.798 240.147C507.361 236.937 511.874 229.152 511.874 222.771C511.874 216.377 507.361 213.809 501.798 217.025C496.234 220.235 491.721 228.02 491.721 234.407Z" fill="#AA681A"/>
<path d="M580.796 278.952L497.763 231.053L501.59 224.59L584.648 272.501L580.796 278.952Z" fill="#F4C619"/>
<path d="M582.823 272.722C581.35 273.565 580.154 275.629 580.154 277.316C580.154 279.009 581.35 279.688 582.823 278.839C584.295 277.989 585.491 275.925 585.491 274.238C585.491 272.552 584.295 271.866 582.823 272.722Z" fill="#F4C619"/>
<path d="M499.771 224.835C498.298 225.685 497.103 227.743 497.103 229.436C497.103 231.122 498.298 231.802 499.771 230.953C501.244 230.103 502.433 228.045 502.433 226.359C502.433 224.666 501.244 223.986 499.771 224.835Z" fill="#F4C619"/>
<path d="M583.603 289.159L537.64 179.032L500.898 229.901L497.77 227.384L539.843 163.557L590.979 286.082L583.603 289.159Z" fill="#F2DB1A"/>
<path d="M534.242 176.012C536.715 177.434 540.724 177.428 543.21 175.993C545.69 174.558 545.702 172.242 543.235 170.813C540.768 169.391 536.753 169.397 534.273 170.832C531.787 172.267 531.774 174.583 534.242 176.012Z" fill="#E4A316"/>
<path d="M534.242 108.258C536.715 109.68 540.724 109.674 543.21 108.239C545.69 106.81 545.702 104.494 543.235 103.066C540.768 101.644 536.753 101.65 534.273 103.085C531.787 104.513 531.774 106.836 534.242 108.258Z" fill="#E4A316"/>
<path d="M545.079 173.413V105.665H532.404V173.413H545.079Z" fill="#E4A316"/>
<path d="M431.239 239.146L539.44 176.679L534.223 167.862L425.978 230.348L431.239 239.146Z" fill="#F4C619"/>
<path d="M428.47 230.638C430.477 231.802 432.108 234.609 432.108 236.912C432.108 239.216 430.477 240.141 428.47 238.983C426.462 237.825 424.832 235.018 424.832 232.715C424.832 230.405 426.462 229.48 428.47 230.638Z" fill="#F4C619"/>
<path d="M536.696 168.195C538.71 169.36 540.334 172.16 540.334 174.464C540.334 176.773 538.71 177.698 536.696 176.54C534.689 175.382 533.065 172.569 533.065 170.266C533.065 167.963 534.689 167.037 536.696 168.195Z" fill="#F4C619"/>
<path d="M430.478 339.084L455.212 324.805V322.256L405.894 324.893L430.478 339.084Z" fill="#BE7D19"/>
<path d="M430.478 336.542L455.212 322.256L430.629 308.065L405.894 322.35L430.478 336.542Z" fill="#F7BE16"/>
<path d="M426.059 324.899C428.526 326.322 432.536 326.315 435.022 324.887C437.501 323.452 437.52 321.136 435.047 319.707C432.586 318.285 428.57 318.291 426.084 319.72C423.598 321.155 423.592 323.477 426.059 324.899Z" fill="#E4A316"/>
<path d="M426.059 194.521C428.526 195.949 432.536 195.937 435.022 194.508C437.501 193.073 437.52 190.751 435.047 189.329C432.586 187.9 428.57 187.913 426.084 189.347C423.598 190.782 423.592 193.098 426.059 194.521Z" fill="#E4A316"/>
<path d="M436.891 322.307V191.928H424.215V322.307H436.891Z" fill="#E4A316"/>
<path d="M405.894 322.35V324.893L430.478 339.084V336.542L405.894 322.35Z" fill="#93551A"/>
<path d="M398.43 76.8665C375.311 91.4544 372.368 126.011 391.866 154.06C411.364 182.11 445.91 193.022 469.033 178.447C492.162 163.859 495.101 129.303 475.603 101.253C456.112 73.2038 421.559 62.2911 398.43 76.8665Z" fill="#C88C17"/>
<mask id="mask0_1_6333" style="mask-type:luminance" maskUnits="userSpaceOnUse" x="372" y="46" width="28" height="109">
<path d="M391.866 154.061C372.366 126.011 375.311 91.4545 398.43 76.8666L399.55 46.8222C367.972 66.7406 363.955 113.934 390.582 152.242L391.866 154.061Z" fill="white"/>
</mask>
<g mask="url(#mask0_1_6333)">
<path d="M391.866 154.061L390.582 152.242C363.955 113.934 367.972 66.7406 399.55 46.8222L398.43 76.8666C375.311 91.4545 372.368 126.011 391.866 154.061Z" fill="#B17719"/>
</g>
<mask id="mask1_1_6333" style="mask-type:luminance" maskUnits="userSpaceOnUse" x="398" y="37" width="125" height="158">
<path d="M400.494 164.47C427.815 193.507 468.013 203.174 495.97 185.54C527.551 165.628 531.567 118.428 504.938 80.1203C478.316 41.8128 431.132 26.9102 399.55 46.8223L398.43 76.8667C421.559 62.2913 456.112 73.204 475.603 101.253C495.101 129.303 492.156 163.859 469.033 178.447C448.559 191.355 419.13 184.275 399.122 163.016L400.494 164.47Z" fill="white"/>
</mask>
<g mask="url(#mask1_1_6333)">
<path d="M398.43 76.8667L399.55 46.8223C410.401 39.9815 423.089 37.2502 436.154 38.1627L425.235 70.5293C415.668 69.8622 406.379 71.8635 398.43 76.8667Z" fill="#B17719"/>
</g>
<mask id="mask2_1_6333" style="mask-type:luminance" maskUnits="userSpaceOnUse" x="398" y="37" width="125" height="158">
<path d="M400.494 164.47C427.815 193.507 468.013 203.174 495.97 185.54C527.551 165.628 531.567 118.428 504.938 80.1203C478.316 41.8128 431.132 26.9102 399.55 46.8223L398.43 76.8667C421.559 62.2913 456.112 73.204 475.603 101.253C495.101 129.303 492.156 163.859 469.033 178.447C448.559 191.355 419.13 184.275 399.122 163.016L400.494 164.47Z" fill="white"/>
</mask>
<g mask="url(#mask2_1_6333)">
<path d="M425.235 70.5293L436.154 38.1627C445.488 38.8172 455.017 41.3345 464.205 45.5385L445.771 75.9353C439.05 72.8516 432.07 71.0076 425.235 70.5293Z" fill="#C28618"/>
</g>
<mask id="mask3_1_6333" style="mask-type:luminance" maskUnits="userSpaceOnUse" x="398" y="37" width="125" height="158">
<path d="M400.494 164.47C427.815 193.507 468.013 203.174 495.97 185.54C527.551 165.628 531.567 118.428 504.938 80.1203C478.316 41.8128 431.132 26.9102 399.55 46.8223L398.43 76.8667C421.559 62.2913 456.112 73.204 475.603 101.253C495.101 129.303 492.156 163.859 469.033 178.447C448.559 191.355 419.13 184.275 399.122 163.016L400.494 164.47Z" fill="white"/>
</mask>
<g mask="url(#mask3_1_6333)">
<path d="M445.771 75.9353L464.205 45.5384C471.066 48.6851 477.737 52.7757 483.993 57.7411L460.266 84.8655C455.684 81.2279 450.8 78.2323 445.771 75.9353Z" fill="#D29416"/>
</g>
<mask id="mask4_1_6333" style="mask-type:luminance" maskUnits="userSpaceOnUse" x="398" y="37" width="125" height="158">
<path d="M400.494 164.47C427.815 193.507 468.013 203.174 495.97 185.54C527.551 165.628 531.567 118.428 504.938 80.1203C478.316 41.8128 431.132 26.9102 399.55 46.8223L398.43 76.8667C421.559 62.2913 456.112 73.204 475.603 101.253C495.101 129.303 492.156 163.859 469.033 178.447C448.559 191.355 419.13 184.275 399.122 163.016L400.494 164.47Z" fill="white"/>
</mask>
<g mask="url(#mask4_1_6333)">
<path d="M460.266 84.8653L483.993 57.741C487.801 60.7618 491.445 64.0973 494.894 67.7475L468.246 92.1907C465.722 89.5223 463.054 87.0743 460.266 84.8653Z" fill="#E4A316"/>
</g>
<mask id="mask5_1_6333" style="mask-type:luminance" maskUnits="userSpaceOnUse" x="398" y="37" width="125" height="158">
<path d="M400.494 164.47C427.815 193.507 468.013 203.174 495.97 185.54C527.551 165.628 531.567 118.428 504.938 80.1203C478.316 41.8128 431.132 26.9102 399.55 46.8223L398.43 76.8667C421.559 62.2913 456.112 73.204 475.603 101.253C495.101 129.303 492.156 163.859 469.033 178.447C448.559 191.355 419.13 184.275 399.122 163.016L400.494 164.47Z" fill="white"/>
</mask>
<g mask="url(#mask5_1_6333)">
<path d="M468.246 92.191L494.894 67.7478C497.568 70.5798 500.13 73.6005 502.534 76.7975L473.841 98.8179C472.079 96.4768 470.21 94.2678 468.246 92.191Z" fill="#E9BD3D"/>
</g>
<mask id="mask6_1_6333" style="mask-type:luminance" maskUnits="userSpaceOnUse" x="398" y="37" width="125" height="158">
<path d="M400.494 164.47C427.815 193.507 468.013 203.174 495.97 185.54C527.551 165.628 531.567 118.428 504.938 80.1203C478.316 41.8128 431.132 26.9102 399.55 46.8223L398.43 76.8667C421.559 62.2913 456.112 73.204 475.603 101.253C495.101 129.303 492.156 163.859 469.033 178.447C448.559 191.355 419.13 184.275 399.122 163.016L400.494 164.47Z" fill="white"/>
</mask>
<g mask="url(#mask6_1_6333)">
<path d="M473.841 98.8177L502.534 76.7973C503.352 77.8861 504.158 78.9937 504.938 80.1202C507.21 83.3865 509.256 86.722 511.081 90.0889L480.103 108.553C478.763 106.08 477.265 103.645 475.603 101.253C475.031 100.429 474.445 99.617 473.841 98.8177Z" fill="#EBC956"/>
</g>
<mask id="mask7_1_6333" style="mask-type:luminance" maskUnits="userSpaceOnUse" x="398" y="37" width="125" height="158">
<path d="M400.494 164.47C427.815 193.507 468.013 203.174 495.97 185.54C527.551 165.628 531.567 118.428 504.938 80.1203C478.316 41.8128 431.132 26.9102 399.55 46.8223L398.43 76.8667C421.559 62.2913 456.112 73.204 475.603 101.253C495.101 129.303 492.156 163.859 469.033 178.447C448.559 191.355 419.13 184.275 399.122 163.016L400.494 164.47Z" fill="white"/>
</mask>
<g mask="url(#mask7_1_6333)">
<path d="M480.103 108.554L511.081 90.0891C512.938 93.5189 514.568 96.9866 515.971 100.479L483.678 116.156C482.652 113.601 481.463 111.058 480.103 108.554Z" fill="#EED26D"/>
</g>
<mask id="mask8_1_6333" style="mask-type:luminance" maskUnits="userSpaceOnUse" x="398" y="37" width="125" height="158">
<path d="M400.494 164.47C427.815 193.507 468.013 203.174 495.97 185.54C527.551 165.628 531.567 118.428 504.938 80.1203C478.316 41.8128 431.132 26.9102 399.55 46.8223L398.43 76.8667C421.559 62.2913 456.112 73.204 475.603 101.253C495.101 129.303 492.156 163.859 469.033 178.447C448.559 191.355 419.13 184.275 399.122 163.016L400.494 164.47Z" fill="white"/>
</mask>
<g mask="url(#mask8_1_6333)">
<path d="M483.678 116.156L515.971 100.479C518.18 105.986 519.829 111.536 520.924 117.049L487.31 128.296C486.504 124.255 485.296 120.19 483.678 116.156Z" fill="#EBC956"/>
</g>
<mask id="mask9_1_6333" style="mask-type:luminance" maskUnits="userSpaceOnUse" x="398" y="37" width="125" height="158">
<path d="M400.494 164.47C427.815 193.507 468.013 203.174 495.97 185.54C527.551 165.628 531.567 118.428 504.938 80.1203C478.316 41.8128 431.132 26.9102 399.55 46.8223L398.43 76.8667C421.559 62.2913 456.112 73.204 475.603 101.253C495.101 129.303 492.156 163.859 469.033 178.447C448.559 191.355 419.13 184.275 399.122 163.016L400.494 164.47Z" fill="white"/>
</mask>
<g mask="url(#mask9_1_6333)">
<path d="M487.31 128.296L520.924 117.049C522.026 122.594 522.567 128.094 522.554 133.456L488.499 140.303C488.505 136.383 488.109 132.355 487.31 128.296Z" fill="#E9BD3D"/>
</g>
<mask id="mask10_1_6333" style="mask-type:luminance" maskUnits="userSpaceOnUse" x="398" y="37" width="125" height="158">
<path d="M400.494 164.47C427.815 193.507 468.013 203.174 495.97 185.54C527.551 165.628 531.567 118.428 504.938 80.1203C478.316 41.8128 431.132 26.9102 399.55 46.8223L398.43 76.8667C421.559 62.2913 456.112 73.204 475.603 101.253C495.101 129.303 492.156 163.859 469.033 178.447C448.559 191.355 419.13 184.275 399.122 163.016L400.494 164.47Z" fill="white"/>
</mask>
<g mask="url(#mask10_1_6333)">
<path d="M488.499 140.303L522.554 133.456C522.529 142.777 520.849 151.675 517.532 159.674L484.83 159.504C487.247 153.645 488.487 147.125 488.499 140.303Z" fill="#E4A316"/>
</g>
<mask id="mask11_1_6333" style="mask-type:luminance" maskUnits="userSpaceOnUse" x="398" y="37" width="125" height="158">
<path d="M400.494 164.47C427.815 193.507 468.013 203.174 495.97 185.54C527.551 165.628 531.567 118.428 504.938 80.1203C478.316 41.8128 431.132 26.9102 399.55 46.8223L398.43 76.8667C421.559 62.2913 456.112 73.204 475.603 101.253C495.101 129.303 492.156 163.859 469.033 178.447C448.559 191.355 419.13 184.275 399.122 163.016L400.494 164.47Z" fill="white"/>
</mask>
<g mask="url(#mask11_1_6333)">
<path d="M484.83 159.504L517.532 159.674C514.372 167.308 509.74 174.117 503.654 179.681L474.666 174.155C479.115 170.083 482.514 165.093 484.83 159.504Z" fill="#D29416"/>
</g>
<mask id="mask12_1_6333" style="mask-type:luminance" maskUnits="userSpaceOnUse" x="398" y="37" width="125" height="158">
<path d="M400.494 164.47C427.815 193.507 468.013 203.174 495.97 185.54C527.551 165.628 531.567 118.428 504.938 80.1203C478.316 41.8128 431.132 26.9102 399.55 46.8223L398.43 76.8667C421.559 62.2913 456.112 73.204 475.603 101.253C495.101 129.303 492.156 163.859 469.033 178.447C448.559 191.355 419.13 184.275 399.122 163.016L400.494 164.47Z" fill="white"/>
</mask>
<g mask="url(#mask12_1_6333)">
<path d="M474.666 174.155L503.654 179.681C501.307 181.827 498.745 183.79 495.97 185.54C491.35 188.46 486.391 190.625 481.211 192.085L458.226 183.237C462.022 182.167 465.653 180.581 469.033 178.447C471.066 177.164 472.941 175.729 474.666 174.155Z" fill="#C28618"/>
</g>
<mask id="mask13_1_6333" style="mask-type:luminance" maskUnits="userSpaceOnUse" x="398" y="37" width="125" height="158">
<path d="M400.494 164.47C427.815 193.507 468.013 203.174 495.97 185.54C527.551 165.628 531.567 118.428 504.938 80.1203C478.316 41.8128 431.132 26.9102 399.55 46.8223L398.43 76.8667C421.559 62.2913 456.112 73.204 475.603 101.253C495.101 129.303 492.156 163.859 469.033 178.447C448.559 191.355 419.13 184.275 399.122 163.016L400.494 164.47Z" fill="white"/>
</mask>
<g mask="url(#mask13_1_6333)">
<path d="M458.226 183.236L481.211 192.085C455.073 199.448 423.303 188.712 400.494 164.47L399.122 163.016C415.826 180.763 439.087 188.63 458.226 183.236Z" fill="#B17719"/>
</g>
<mask id="mask14_1_6333" style="mask-type:luminance" maskUnits="userSpaceOnUse" x="390" y="152" width="11" height="13">
<path d="M399.122 163.016L400.494 164.47C396.957 160.713 393.634 156.628 390.582 152.242L391.866 154.061C394.1 157.276 396.529 160.266 399.122 163.016Z" fill="white"/>
</mask>
<g mask="url(#mask14_1_6333)">
<path d="M399.122 163.016L400.494 164.47C396.957 160.713 393.634 156.628 390.582 152.242L391.866 154.061C394.1 157.276 396.529 160.266 399.122 163.016Z" fill="#B17719"/>
</g>
<mask id="mask15_1_6333" style="mask-type:luminance" maskUnits="userSpaceOnUse" x="399" y="3" width="166" height="179">
<path d="M543.487 147.195C570.003 125.508 572.029 81.6811 547.018 45.6958C520.396 7.39457 473.212 -7.52073 441.63 12.3977L399.55 46.8223C431.132 26.9102 478.316 41.8128 504.938 80.1203C529.949 116.106 527.923 159.932 501.408 181.625C514.033 171.298 530.868 157.522 543.487 147.195Z" fill="white"/>
</mask>
<g mask="url(#mask15_1_6333)">
<path d="M399.55 46.8223L441.63 12.3976C464.703 -2.15257 496.102 1.88785 521.73 20.0567L479.65 54.4812C454.022 36.3061 422.623 32.2721 399.55 46.8223Z" fill="#B17719"/>
</g>
<mask id="mask16_1_6333" style="mask-type:luminance" maskUnits="userSpaceOnUse" x="399" y="3" width="166" height="179">
<path d="M543.487 147.195C570.003 125.508 572.029 81.6811 547.018 45.6958C520.396 7.39457 473.212 -7.52073 441.63 12.3977L399.55 46.8223C431.132 26.9102 478.316 41.8128 504.938 80.1203C529.949 116.106 527.923 159.932 501.408 181.625C514.033 171.298 530.868 157.522 543.487 147.195Z" fill="white"/>
</mask>
<g mask="url(#mask16_1_6333)">
<path d="M479.65 54.4814L521.73 20.0569C531.183 26.753 539.849 35.3748 547.018 45.6959C549.044 48.6034 550.889 51.5613 552.556 54.5569L510.477 88.9814C508.809 85.9858 506.965 83.0342 504.938 80.1204C497.77 69.7993 489.103 61.1775 479.65 54.4814Z" fill="#C28618"/>
</g>
<mask id="mask17_1_6333" style="mask-type:luminance" maskUnits="userSpaceOnUse" x="399" y="3" width="166" height="179">
<path d="M543.487 147.195C570.003 125.508 572.029 81.6811 547.018 45.6958C520.396 7.39457 473.212 -7.52073 441.63 12.3977L399.55 46.8223C431.132 26.9102 478.316 41.8128 504.938 80.1203C529.949 116.106 527.923 159.932 501.408 181.625C514.033 171.298 530.868 157.522 543.487 147.195Z" fill="white"/>
</mask>
<g mask="url(#mask17_1_6333)">
<path d="M510.477 88.9815L552.556 54.557C560.071 68.031 564.03 82.2287 564.571 95.6964L522.491 130.127C521.95 116.653 517.991 102.455 510.477 88.9815Z" fill="#D29416"/>
</g>
<mask id="mask18_1_6333" style="mask-type:luminance" maskUnits="userSpaceOnUse" x="399" y="3" width="166" height="179">
<path d="M543.487 147.195C570.003 125.508 572.029 81.6811 547.018 45.6958C520.396 7.39457 473.212 -7.52073 441.63 12.3977L399.55 46.8223C431.132 26.9102 478.316 41.8128 504.938 80.1203C529.949 116.106 527.923 159.932 501.408 181.625C514.033 171.298 530.868 157.522 543.487 147.195Z" fill="white"/>
</mask>
<g mask="url(#mask18_1_6333)">
<path d="M522.491 130.127L564.571 95.6963C565.131 109.844 561.921 123.186 555.068 134.06L512.988 168.491C519.835 157.61 523.052 144.274 522.491 130.127Z" fill="#C28618"/>
</g>
<mask id="mask19_1_6333" style="mask-type:luminance" maskUnits="userSpaceOnUse" x="399" y="3" width="166" height="179">
<path d="M543.487 147.195C570.003 125.508 572.029 81.6811 547.018 45.6958C520.396 7.39457 473.212 -7.52073 441.63 12.3977L399.55 46.8223C431.132 26.9102 478.316 41.8128 504.938 80.1203C529.949 116.106 527.923 159.932 501.408 181.625C514.033 171.298 530.868 157.522 543.487 147.195Z" fill="white"/>
</mask>
<g mask="url(#mask19_1_6333)">
<path d="M512.988 168.491L555.068 134.06C551.959 139.001 548.088 143.438 543.487 147.195L501.408 181.625C506.015 177.862 509.873 173.431 512.988 168.491Z" fill="#B17719"/>
</g>
<mask id="mask20_1_6333" style="mask-type:luminance" maskUnits="userSpaceOnUse" x="394" y="12" width="48" height="39">
<path d="M394.113 50.7429C395.825 49.3395 397.637 48.0305 399.55 46.8222L441.63 12.3975C439.717 13.6058 437.904 14.915 436.186 16.3184C423.567 26.6458 406.732 40.4093 394.113 50.7429Z" fill="white"/>
</mask>
<g mask="url(#mask20_1_6333)">
<path d="M394.113 50.7429L436.186 16.3184C437.904 14.915 439.717 13.6058 441.63 12.3975L399.55 46.8222C397.637 48.0305 395.825 49.3395 394.113 50.7429Z" fill="#B17719"/>
</g>
<mask id="mask21_1_6333" style="mask-type:luminance" maskUnits="userSpaceOnUse" x="465" y="0" width="109" height="121">
<path d="M465.647 4.0212C493.975 0.647972 526.563 16.268 547.018 45.6956C564.118 70.2963 568.58 98.5597 561.223 120.914C564.451 111.096 567.686 101.278 570.915 91.467C576.649 74.0408 573.174 52.0079 559.844 32.8384C543.902 9.8992 518.501 -2.27218 496.416 0.352136C486.158 1.57934 475.899 2.80029 465.647 4.0212Z" fill="white"/>
</mask>
<g mask="url(#mask21_1_6333)">
<path d="M465.647 4.02122L496.416 0.352159C518.501 -2.27845 543.902 9.89922 559.844 32.8384C573.174 52.0079 576.649 74.0408 570.915 91.467L561.223 120.914C568.58 98.5597 564.118 70.2963 547.018 45.6957C526.563 16.268 493.975 0.647995 465.647 4.02122Z" fill="#B17719"/>
</g>
<mask id="mask22_1_6333" style="mask-type:luminance" maskUnits="userSpaceOnUse" x="372" y="16" width="172" height="179">
<path d="M538.049 151.115C514.977 165.666 483.577 161.625 457.949 143.463C448.503 136.76 439.836 128.138 432.661 117.817C430.641 114.91 428.797 111.952 427.129 108.956C419.615 95.4761 415.65 81.2846 415.108 67.8169C414.548 53.6694 417.764 40.3213 424.612 29.4464C427.727 24.5062 431.591 20.082 436.192 16.3186L394.112 50.7431C389.505 54.5065 385.647 58.9307 382.532 63.8772C375.682 74.7521 372.469 88.0939 373.029 102.241C373.568 115.709 377.534 129.907 385.05 143.387C386.717 146.377 388.561 149.334 390.582 152.242C397.757 162.563 406.417 171.185 415.87 177.887C441.498 196.05 472.897 200.09 495.97 185.54C497.883 184.332 499.696 183.023 501.407 181.626L543.487 147.195C541.775 148.598 539.963 149.907 538.049 151.115Z" fill="white"/>
</mask>
<g mask="url(#mask22_1_6333)">
<path d="M463.482 194.823V194.193H454.041V193.564H450.894V192.935H447.118V192.305H444.601V191.676H442.712V191.047H440.824V190.417H438.936V189.788H437.048V189.159H435.16V188.529H433.901V187.9H432.643V187.271H430.754V186.641H429.496V186.012H428.237V185.383H426.978V184.753H425.719V184.124H424.461V183.495H423.202V182.865H422.573V182.236H421.314V181.607H420.055V180.977H419.426V180.348H418.167V179.719H417.538V179.089H416.279V178.46H415.65V177.831H414.391V177.201H413.761V176.572H413.132V175.943H411.873V175.313H411.244V174.684H410.615V174.055H409.985V173.425H409.356V172.796H408.097V172.167H407.468V171.537H406.838V170.908H406.209V170.279H405.58V169.649H404.95V169.02H404.321V168.391H403.692V167.761H403.062V167.132H402.433V166.503H401.803V165.873H401.174V165.244H400.545V164.615H399.915V163.985H399.286V163.356H398.657V162.727H398.027V162.097H397.398V161.468H396.768V160.839H396.139V159.58H395.51V158.951H394.88V158.321H394.251V157.692H393.622V156.433H392.992V155.804H392.363V155.175H391.734V153.916H391.104V153.287H390.475V152.657H389.845V151.399H389.216V150.14H388.587V149.511H387.957V148.252H387.328V147.623H386.699V146.364H386.069V145.105H385.44V143.847H384.81V143.217H384.181V141.959H383.552V140.7H382.922V139.441H382.293V138.183H381.664V136.924H381.034V135.036H380.405V133.777H379.776V131.889H379.146V130.631H378.517V128.743H377.887V127.484H377.258V125.596H376.629V123.708H375.999V120.561H375.37V118.044H374.741V114.897H374.111V112.38H373.482V105.457H372.852V92.2414H373.482V87.2068H374.111V82.8014H374.741V80.9134H375.37V79.0254H375.999V77.1374H376.629V75.2494H377.258V73.3614H377.887V71.4734H378.517V70.2148H379.146V68.9561H379.776V67.6974H380.405V66.4388H381.034V65.8094H381.664V64.5508H382.293V63.2921H382.922V62.6628H383.552V61.4041H384.181V60.1454H384.81V59.5161H385.44V58.8868H386.069V58.2574H386.699V56.9988H387.328V56.3695H387.957V55.7401H388.587V55.1108H389.216V54.4815H389.845V53.8521H390.475V53.2228H391.104V52.5935H391.734V51.9641H392.363V51.3348H392.992V50.7055H393.622V50.0761H394.88V49.4468H395.51V48.8175H396.139V48.1881H396.768V47.5588H397.398V46.9295H398.657V46.3001H399.286V45.6708H399.915V45.0415H400.545V44.4121H401.803V43.7828H402.433V43.1535H403.062V42.5241H403.692V41.8948H404.321V41.2655H405.58V40.6361H406.209V40.0068H406.838V39.3775H407.468V38.7481H408.727V38.1188H409.356V37.4895H409.985V36.8601H410.615V36.2308H411.244V35.6015H412.503V34.9721H413.132V34.3428H413.761V33.7135H414.391V33.0841H415.65V32.4548H416.279V31.8255H416.908V31.1961H417.538V30.5668H418.167V29.9375H419.426V29.3081H420.055V28.6788H420.685V28.0495H421.314V27.4201H422.573V26.7908H423.202V26.1615H423.831V25.5321H424.461V24.9028H425.09V24.2735H426.349V23.6441H426.978V23.0148H427.608V22.3855H428.237V21.7561H429.496V21.1268H430.125V20.4975H430.754V19.8681H431.384V19.2388H432.013V18.6095H433.272V17.9801H433.901V17.3508H434.531V16.7215H435.16V16.0921H436.419V16.7215H435.789V17.3508H435.16V17.9801H434.531V18.6095H433.901V19.2388H433.272V19.8681H432.643V20.4975H432.013V21.1268H431.384V21.7561H430.754V22.3855H430.125V23.0148H429.496V24.2735H428.866V24.9028H428.237V25.5321H427.608V26.1615H426.978V27.4201H426.349V28.0495H425.719V29.3081H425.09V29.9375H424.461V31.1961H423.831V31.8255H423.202V33.0841H422.573V34.9721H421.943V36.2308H421.314V37.4895H420.685V38.7481H420.055V40.6361H419.426V42.5241H418.796V44.4121H418.167V46.3001H417.538V48.8175H416.908V52.5935H416.279V56.3695H415.65V73.3614H416.279V78.3961H416.908V80.9134H417.538V84.0601H418.167V86.5774H418.796V89.0948H419.426V90.9828H420.055V92.2414H420.685V94.1294H421.314V96.0174H421.943V97.9054H422.573V99.1641H423.202V100.423H423.831V102.311H424.461V103.569H425.09V104.828H425.719V106.087H426.349V107.345H426.978V108.604H427.608V109.233H428.237V110.492H428.866V111.751H429.496V112.38H430.125V113.639H430.754V114.897H431.384V115.527H432.013V116.785H432.643V117.415H433.272V118.673H433.901V119.303H434.531V119.932H435.16V121.191H435.789V121.82H436.419V122.449H437.048V123.079H437.678V124.337H438.307V124.967H438.936V125.596H439.566V126.225H440.195V126.855H440.824V127.484H441.454V128.113H442.083V129.372H442.712V130.001H443.342V130.631H443.971V131.26H444.601V131.889H445.23V132.519H445.859V133.148H446.489V133.777H447.118V134.407H447.747V135.036H448.377V135.665H449.636V136.295H450.265V136.924H450.894V137.553H451.524V138.183H452.153V138.812H452.782V139.441H454.041V140.071H454.67V140.7H455.3V141.329H455.929V141.959H457.188V142.588H457.817V143.217H459.076V143.847H459.705V144.476H460.335V145.105H461.594V145.735H462.852V146.364H463.482V146.993H464.74V147.623H465.999V148.252H466.629V148.881H467.887V149.511H469.146V150.14H470.405V150.769H471.663V151.399H472.922V152.028H474.181V152.657H476.069V153.287H477.328V153.916H478.587V154.545H480.475V155.175H482.363V155.804H484.251V156.433H486.768V157.063H488.656V157.692H491.803V158.321H495.58V158.951H499.985V159.58H512.573V158.951H516.978V158.321H520.125V157.692H522.642V157.063H525.16V156.433H526.419V155.804H528.307V155.175H529.565V154.545H531.454V153.916H532.712V153.287H533.971V152.657H535.23V152.028H536.489V151.399H537.118V150.769H538.377V150.14H539.006V149.511H540.265V148.881H540.894V148.252H541.524V147.623H542.782V146.993H544.041V147.623H543.412V148.252H542.782V148.881H541.524V149.511H540.894V150.14H540.265V150.769H539.635V151.399H538.377V152.028H537.747V152.657H537.118V153.287H536.489V153.916H535.859V154.545H534.6V155.175H533.971V155.804H533.342V156.433H532.712V157.063H531.454V157.692H530.824V158.321H530.195V158.951H529.565V159.58H528.936V160.209H527.677V160.839H527.048V161.468H526.419V162.097H525.789V162.727H524.531V163.356H523.901V163.985H523.272V164.615H522.642V165.244H522.013V165.873H520.754V166.503H520.125V167.132H519.496V167.761H518.866V168.391H517.607V169.02H516.978V169.649H516.349V170.279H515.719V170.908H515.09V171.537H513.831V172.167H513.202V172.796H512.573V173.425H511.943V174.055H510.684V174.684H510.055V175.313H509.426V175.943H508.796V176.572H508.167V177.201H506.908V177.831H506.279V178.46H505.649V179.089H505.02V179.719H503.761V180.348H503.132V180.977H502.503V181.607H501.873V182.236H501.244V182.865H499.985V183.495H499.356V184.124H498.097V184.753H497.468V185.383H496.838V186.012H495.58V186.641H494.321V187.271H493.062V187.9H491.803V188.529H490.545V189.159H489.286V189.788H488.027V190.417H486.139V191.047H484.251V191.676H482.363V192.305H479.845V192.935H477.957V193.564H473.552V194.193H468.517V194.823" fill="url(#paint0_linear_1_6333)"/>
</g>
<path d="M477.705 6.8848C453.091 22.4042 449.956 59.1949 470.707 89.0504C491.463 118.906 528.237 130.53 552.858 115.004C577.467 99.4848 580.601 62.6941 559.844 32.8385C539.094 2.98293 502.32 -8.64085 477.705 6.8848Z" fill="#C88C17"/>
<mask id="mask23_1_6333" style="mask-type:luminance" maskUnits="userSpaceOnUse" x="415" y="0" width="156" height="160">
<path d="M552.859 115.004C540.233 122.965 524.417 123.783 509.199 118.673C502.226 116.332 495.378 112.745 489.022 108.025C482.413 103.11 476.34 96.98 471.204 89.7553L470.713 89.0503C460.587 74.4876 456.143 58.2697 457.113 43.6755C457.647 35.5697 459.857 27.961 463.683 21.4159C466.887 15.947 471.223 11.2144 476.667 7.55798L477.705 6.8847C483.408 3.28491 489.764 1.1451 496.417 0.35214L465.647 4.0212C457.1 5.03443 448.95 7.7845 441.63 12.3975L440.302 13.2598C433.316 17.9546 427.752 24.0214 423.643 31.0447C418.734 39.44 415.901 49.2009 415.209 59.6038C413.976 78.3265 419.671 99.1259 432.662 117.817L433.297 118.717C439.88 127.987 447.678 135.854 456.156 142.16C464.312 148.214 473.098 152.821 482.042 155.829C501.565 162.38 521.856 161.323 538.049 151.115C549.347 143.991 557.119 133.368 561.223 120.914L570.915 91.467C567.718 101.178 561.663 109.453 552.859 115.004Z" fill="white"/>
</mask>
<g mask="url(#mask23_1_6333)">
<path d="M552.859 115.004C540.233 122.965 524.417 123.783 509.199 118.673C502.226 116.332 495.378 112.745 489.022 108.025C482.413 103.11 476.34 96.98 471.204 89.7553L470.713 89.0503C460.587 74.4876 456.143 58.2697 457.113 43.6755C457.647 35.5697 459.857 27.961 463.683 21.4159C466.887 15.947 471.223 11.2144 476.667 7.55798L477.705 6.8847C483.408 3.28491 489.764 1.1451 496.417 0.35214L465.647 4.0212C457.1 5.03443 448.95 7.7845 441.63 12.3975L440.302 13.2598C433.316 17.9546 427.752 24.0214 423.643 31.0447C418.734 39.44 415.901 49.2009 415.209 59.6038C413.976 78.3265 419.671 99.1259 432.662 117.817L433.297 118.717C439.88 127.987 447.678 135.854 456.156 142.16C464.312 148.214 473.098 152.821 482.042 155.829C501.565 162.38 521.856 161.323 538.049 151.115C549.347 143.991 557.119 133.368 561.223 120.914L570.915 91.467C567.718 101.178 561.663 109.453 552.859 115.004Z" fill="url(#paint1_linear_1_6333)"/>
</g>
<path d="M567.214 84.5697C564.961 95.8914 558.988 104.853 550.033 110.479C546.433 112.789 542.486 114.425 538.32 115.382C535.104 116.169 531.667 116.565 528.118 116.565C508.519 116.565 488.184 104.853 475.112 86.036C471.059 80.2335 467.906 74.0913 465.817 67.842C462.273 57.5902 461.367 46.9985 463.343 37.313C465.596 25.9913 471.569 17.036 480.519 11.4034C486.944 7.34423 494.27 5.31767 502.433 5.31767C522.038 5.31767 542.373 17.0359 555.502 35.9033C566.144 51.2213 570.424 68.9686 567.214 84.5697Z" fill="#7D4D17"/>
<path d="M538.32 115.382C535.104 116.169 531.668 116.565 528.118 116.565C508.519 116.565 488.184 104.853 475.112 86.036C471.059 80.2335 467.906 74.0913 465.817 67.842C472.859 67.9553 480.915 69.6419 489.418 72.8578C504.913 78.7672 519.559 89.1323 529.534 101.297C533.474 106.03 536.4 110.819 538.32 115.382Z" fill="#BDBA7E"/>
<path d="M496.416 0.352089C486.158 1.57929 475.905 2.80024 465.647 4.02115C457.1 5.03438 448.949 7.78445 441.63 12.3975L477.705 6.88465C483.407 3.28486 489.764 1.14505 496.416 0.352089Z" fill="#D69F17"/>
<path d="M603.057 270.676L602.887 270.569L602.837 270.538L602.824 270.544C600.011 269.002 596.172 269.26 591.923 271.714C583.32 276.68 576.346 288.713 576.346 298.587C576.346 303.017 577.807 306.183 580.142 307.958L580.098 308.046L580.897 308.575L580.916 308.587L591.923 315.931L614.297 278.253L603.057 270.676Z" fill="#4E5F63"/>
<path d="M586.806 305.642C586.806 315.516 593.786 319.493 602.39 314.522C610.987 309.556 617.966 297.53 617.966 287.655C617.966 277.781 610.987 273.81 602.39 278.776C593.786 283.741 586.806 295.768 586.806 305.642Z" fill="#2A383C"/>
<path d="M592.307 302.47C592.307 308.851 596.82 311.425 602.39 308.216C607.953 305 612.466 297.215 612.466 290.834C612.466 284.446 607.953 281.872 602.39 285.088C596.82 288.297 592.307 296.082 592.307 302.47Z" fill="#B78518"/>
<path d="M593.113 301.394C593.113 306.876 596.983 309.084 601.76 306.328C606.537 303.571 610.414 296.888 610.414 291.406C610.414 285.919 606.537 283.716 601.76 286.472C596.983 289.229 593.113 295.913 593.113 301.394Z" fill="#F2DB1A"/>
<path d="M390.915 110.813C387.013 110.813 383.445 111.707 380.329 113.507C372.597 117.975 368.339 127.641 368.339 140.738C368.339 169.404 388.669 204.458 413.654 218.882C425.185 225.534 435.834 226.724 443.65 222.211C451.379 217.749 455.633 208.076 455.633 194.98C455.633 166.32 435.305 131.26 410.325 116.836C403.396 112.839 396.781 110.813 390.915 110.813ZM433.083 231.569C426.034 231.569 418.293 229.253 410.325 224.653C383.495 209.165 361.676 171.525 361.676 140.738C361.676 125.162 367.115 113.444 376.995 107.736C386.957 101.983 399.978 103.173 413.654 111.065C440.478 126.553 462.298 164.199 462.298 194.98C462.298 210.562 456.861 222.274 446.98 227.982C442.82 230.38 438.131 231.569 433.083 231.569Z" fill="#E4A316"/>
<path d="M456.873 204.791L421.421 178.057C420.458 177.403 419.451 176.836 418.387 176.358L365.59 152.437L369.165 150.31C369.165 150.31 388.039 159.121 413.812 162.941C418.362 163.62 422.522 165.892 425.549 169.353C439.169 184.967 457.628 200.14 457.628 200.14L456.873 204.791Z" fill="#B17719"/>
<path d="M455.029 207.05L415.593 180.052C414.636 179.397 413.623 178.831 412.566 178.359L362.75 156.005V151.084C362.75 151.084 382.211 161.115 407.99 164.942C412.534 165.615 416.694 167.887 419.715 171.348C433.341 186.962 455.69 202.613 455.69 202.613L455.029 207.05Z" fill="#F2DB1A"/>
<path d="M599.268 298.87C599.268 300.884 600.69 301.69 602.44 300.683C604.196 299.669 605.612 297.215 605.612 295.208C605.612 293.2 604.196 292.388 602.44 293.401C600.69 294.408 599.268 296.863 599.268 298.87Z" fill="#4E5F63"/>
<path d="M601.326 301.652L600.036 300.796L603.309 293.955L604.668 293.162L605.883 293.98L601.326 301.652Z" fill="#4E5F63"/>
<path d="M600.281 299.556C600.281 301.57 601.704 302.376 603.46 301.363C605.209 300.356 606.632 297.907 606.632 295.894C606.632 293.88 605.209 293.074 603.46 294.087C601.704 295.094 600.281 297.542 600.281 299.556Z" fill="#2A383C"/>
<path d="M387.636 114.249C383.734 114.249 380.166 115.142 377.046 116.942C369.32 121.404 365.059 131.077 365.059 144.174C365.059 172.84 385.389 207.894 410.375 222.318C421.905 228.976 432.554 230.153 440.371 225.647C448.1 221.185 452.354 211.512 452.354 198.416C452.354 169.75 432.026 134.696 407.04 120.272C400.117 116.275 393.502 114.249 387.636 114.249ZM429.804 235.005C422.755 235.005 415.014 232.689 407.04 228.089C380.218 212.601 358.396 174.954 358.396 144.174C358.396 128.598 363.837 116.873 373.715 111.171C383.677 105.419 396.699 106.603 410.375 114.501C437.199 129.989 459.019 167.635 459.019 198.416C459.019 213.992 453.582 225.71 443.7 231.418C439.54 233.816 434.852 235.005 429.804 235.005Z" fill="#F2DB1A"/>
<path d="M109.333 447.034L122.791 459.488L236.139 524.92L222.684 512.472L109.333 447.034Z" fill="#7F756A"/>
<path d="M412.113 401.017L298.766 335.585L310.867 328.637L424.215 394.076L412.113 401.017Z" fill="#F2998F"/>
<path d="M122.791 459.482L109.336 447.034L122.791 409.199L281.173 317.763L298.766 335.579L281.173 368.053L122.791 459.482Z" fill="#B95D21"/>
<path d="M236.139 474.637L122.791 409.198L281.171 317.763L394.522 383.201L236.139 474.637Z" fill="#D4D6D3"/>
<path d="M352.84 407.267L288.777 444.246L175.432 378.815L239.495 341.829L352.84 407.267Z" fill="#F2998F"/>
<path d="M210.581 519.414L97.235 453.976L109.333 447.034L222.683 512.472L210.581 519.414Z" fill="#D97075"/>
<path d="M109.333 447.034L122.791 409.198L236.139 474.636L222.684 512.472L109.333 447.034Z" fill="#BDBFBD"/>
<path d="M236.139 524.92L222.684 512.472L236.139 474.636L394.522 383.201L412.112 401.017L394.522 433.484L236.139 524.92Z" fill="#8E9090"/>
<path d="M352.84 407.267L288.777 444.246L292.18 492.566L356.243 455.58L352.84 407.267Z" fill="#8C3439"/>
<path d="M236.139 524.92L222.684 512.472L290.761 472.421L292.18 492.566L356.243 455.58L354.775 434.756L412.112 401.017L394.522 433.484L281.466 498.752L273.616 503.284L236.139 524.92Z" fill="#777B7D"/>
<path d="M292.18 492.566L290.761 472.421L354.775 434.756L356.243 455.58L292.18 492.566Z" fill="#782C31"/>
<path d="M109.333 393.792L122.791 406.241L236.139 471.679L222.684 459.23L109.333 393.792Z" fill="#7F756A"/>
<path d="M412.113 347.776L298.766 282.338L310.867 275.396L424.215 340.834L412.113 347.776Z" fill="#F2998F"/>
<path d="M122.791 406.241L109.336 393.792L122.791 355.957L281.173 264.521L298.766 282.338L281.173 314.805L122.791 406.241Z" fill="#B95D21"/>
<path d="M394.54 329.922L387.995 333.742L286.024 392.591L236.181 421.42L122.752 355.932L174.51 326.102L257.558 278.165L281.208 264.521L394.54 329.922Z" fill="#D4D6D3"/>
<path d="M352.84 354.019L288.777 391.005L175.429 325.567L239.495 288.581L352.84 354.019Z" fill="#F2998F"/>
<path d="M210.581 466.172L97.235 400.734L109.333 393.792L222.683 459.231L210.581 466.172Z" fill="#D97075"/>
<path d="M109.333 393.792L122.791 355.957L236.139 421.395L222.684 459.23L109.333 393.792Z" fill="#BDBFBD"/>
<path d="M236.139 471.679L222.684 459.23L236.139 421.395L394.522 329.953L412.112 347.776L394.522 380.243L236.139 471.679Z" fill="#8E9090"/>
<path d="M352.84 354.019L288.777 391.004L292.18 439.325L356.243 402.339L352.84 354.019Z" fill="#8C3439"/>
<path d="M236.139 471.679L222.684 459.23L290.761 419.173L292.18 439.325L356.243 402.339L354.775 381.514L412.112 347.776L394.522 380.243L350.276 405.781L286.218 442.767L236.139 471.679Z" fill="#777B7D"/>
<path d="M292.18 439.325L290.761 419.173L354.775 381.514L356.243 402.339L292.18 439.325Z" fill="#782C31"/>
<defs>
<linearGradient id="paint0_linear_1_6333" x1="471.374" y1="155.326" x2="381.095" y2="42.8475" gradientUnits="userSpaceOnUse">
<stop stop-color="#784B17"/>
<stop offset="0.0201643" stop-color="#784B17"/>
<stop offset="0.37729" stop-color="#C48618"/>
<stop offset="0.823723" stop-color="#FAD217"/>
<stop offset="1" stop-color="#FAD217"/>
</linearGradient>
<linearGradient id="paint1_linear_1_6333" x1="440.315" y1="-3.11549" x2="525.041" y2="146.035" gradientUnits="userSpaceOnUse">
<stop stop-color="#F1B118"/>
<stop offset="0.00419784" stop-color="#F1B118"/>
<stop offset="0.325521" stop-color="#FAD217"/>
<stop offset="0.626837" stop-color="#F1B118"/>
<stop offset="0.979836" stop-color="#845218"/>
<stop offset="1" stop-color="#845218"/>
</linearGradient>
</defs>
</svg>
