<svg width="713" height="566" viewBox="0 0 713 566" fill="none" xmlns="http://www.w3.org/2000/svg">
<path d="M528.148 331.659L647.955 262.495V255.591L528.148 324.761V331.659Z" fill="#663B1D"/>
<path d="M516.096 317.801L528.149 324.761L647.955 255.591L635.903 248.631L516.096 317.801Z" fill="#774520"/>
<path d="M528.149 331.659L516.096 324.698V317.801L528.149 324.761V331.659Z" fill="#492413"/>
<path d="M326.486 215.226L446.293 146.062V139.165L326.486 208.328V215.226Z" fill="#663B1D"/>
<path d="M314.433 201.374L326.485 208.328L446.292 139.164L434.24 132.204L314.433 201.374Z" fill="#774520"/>
<path d="M326.485 215.226L314.433 208.272V201.374L326.485 208.328V215.226Z" fill="#492413"/>
<path d="M606.776 297.857L359.546 155.118V96.7285L606.776 239.461V297.857Z" fill="#ADAEB5"/>
<path d="M668.29 293.729L674.98 289.865V281.356L668.29 285.22V293.729Z" fill="#CDCED1"/>
<path d="M668.29 293.729L606.775 297.857V239.461L668.29 285.22V293.729Z" fill="#ADAEB5"/>
<path d="M668.29 285.22L606.775 239.461L650.51 214.213L674.98 281.356L668.29 285.22Z" fill="#E7E6E7"/>
<path d="M362.146 95.2308L609.18 238.077L668.29 283.628L673.344 280.645L650.51 214.213L674.98 281.356L668.29 285.22L606.776 239.461L359.546 96.7286L362.146 95.2308Z" fill="#F2F1F4"/>
<path d="M655.948 262.64L606.775 239.461L650.51 214.212L663.589 258.58L655.948 262.64Z" fill="#ADAEB5"/>
<path d="M650.51 214.213L606.776 239.461L359.546 96.7286L403.281 71.4609L650.51 214.213Z" fill="#787B88"/>
<path d="M550.805 330.174L303.564 187.434V129.045L550.805 271.784V330.174Z" fill="#A1A2AC"/>
<path d="M612.314 326.045L619.011 322.181V313.672L612.314 317.536V326.045Z" fill="#CDCED1"/>
<path d="M612.313 326.045L550.805 330.174V271.784L612.313 317.537V326.045Z" fill="#ADAEB5"/>
<path d="M612.313 317.536L550.805 271.784L594.54 246.529L619.01 313.672L612.313 317.536Z" fill="#E7E6E7"/>
<path d="M306.17 127.541L553.203 270.393L612.314 315.944L617.368 312.961L594.54 246.529L619.01 313.672L612.314 317.536L550.805 271.784L303.564 129.045L306.17 127.541Z" fill="#F2F1F4"/>
<path d="M599.965 294.956L550.805 271.784L594.54 246.529L607.612 290.897L599.965 294.956Z" fill="#ADAEB5"/>
<path d="M594.54 246.529L550.805 271.784L303.564 129.045L347.311 103.777L594.54 246.529Z" fill="#787B88"/>
<path d="M528.148 268.663L647.955 199.492V192.595L528.148 261.759V268.663Z" fill="#663B1D"/>
<path d="M516.096 254.805L528.149 261.759L647.955 192.595L635.903 185.635L516.096 254.805Z" fill="#774520"/>
<path d="M528.149 268.663L516.096 261.702V254.805L528.149 261.759V268.663Z" fill="#492413"/>
<path d="M326.486 152.229L446.293 83.0657V76.1682L326.486 145.332V152.229Z" fill="#663B1D"/>
<path d="M314.433 138.372L326.485 145.332L446.292 76.1682L434.24 69.2014L314.433 138.372Z" fill="#774520"/>
<path d="M326.485 152.229L314.433 145.275V138.372L326.485 145.332V152.229Z" fill="#492413"/>
<path d="M606.776 226.396L359.546 83.6575V25.268L606.776 168.007V226.396Z" fill="#A1A2AC"/>
<path d="M668.29 222.274L674.98 218.404V209.895L668.29 213.76V222.274Z" fill="#CDCED1"/>
<path d="M668.29 222.274L606.775 226.396V168.007L668.29 213.76V222.274Z" fill="#ADAEB5"/>
<path d="M668.29 213.76L606.775 168.007L650.51 142.758L674.98 209.895L668.29 213.76Z" fill="#E7E6E7"/>
<path d="M650.51 142.758L606.776 168.007L359.546 25.2678L403.281 2.22278e-05L650.51 142.758Z" fill="#DDDEDE"/>
<path d="M362.146 23.77L609.18 166.622L668.29 212.174L673.344 209.184L650.51 142.758L674.98 209.895L668.29 213.76L606.776 168.007L359.546 25.2679L362.146 23.77Z" fill="#F2F1F4"/>
<path d="M602.269 129.12L605.938 130.681L606.322 131.229L606.077 132.192L605.579 132.852L605.573 132.859C604.73 133.601 603.54 133.368 602.319 132.852L599.267 131.55C597.02 130.593 593.596 130.587 591.16 131.524L591.142 131.531H591.135L590.437 131.845C587.818 133.186 587.875 135.244 590.493 136.358L594.156 137.918L594.288 138.831C594.144 139.095 593.735 139.637 592.979 139.788H592.721C592.167 139.756 591.563 139.567 590.959 139.309L587.938 138.025C583.715 136.232 583.211 132.349 586.849 129.989C587.554 129.536 588.347 129.139 589.203 128.812L589.228 128.799L590.367 128.409L590.386 128.403C594.269 127.22 598.813 127.654 602.269 129.12Z" fill="#BFBCC4"/>
<path d="M591.922 135.017V138.831L592.294 139.41L593.338 139.674L594.194 139.58C595.271 139.24 595.541 138.139 595.541 136.874V133.702C595.541 131.373 596.951 128.516 598.877 126.949L598.889 126.936L598.896 126.93L599.5 126.502C601.892 124.986 603.874 126.037 603.874 128.755V132.563L604.705 133.11L606.184 132.487L606.291 132.273C606.492 131.801 606.562 131.21 606.562 130.574V127.44C606.562 123.054 602.987 120.75 599.173 122.626C598.436 122.991 597.719 123.456 597.039 124.004L597.02 124.023L596.171 124.772L596.158 124.784C593.389 127.44 591.929 131.417 591.922 135.017Z" fill="#686C6E"/>
<path d="M598.896 126.93L599.5 126.502C601.892 124.986 603.874 126.037 603.874 128.755V132.563L604.705 133.11C604.705 132.292 604.699 128.988 604.674 128.541C604.592 127.276 602.943 123.519 598.896 126.93Z" fill="#4D5051"/>
<path d="M597.04 124.004C598.141 123.154 600.659 121.94 602.855 122.405C606.184 123.11 606.184 126.515 606.184 127.138V132.487L606.291 132.273C606.493 131.801 606.562 131.21 606.562 130.574V127.44C606.562 123.054 602.987 120.75 599.173 122.626C598.431 122.991 597.719 123.456 597.04 124.004Z" fill="#4D5051"/>
<path d="M592.293 139.41L593.338 139.674C593.351 131.694 593.892 131.172 594.723 129.057C595.592 126.842 596.995 125.2 599.827 123.595C603.522 121.505 605.806 124.904 605.114 123.702C604.415 122.5 602.559 121.927 601.287 122.179C600.022 122.437 597.177 123.853 594.887 126.867C592.142 130.467 592.294 135.156 592.313 138.862L592.293 139.41Z" fill="#9A9D9D"/>
<path d="M421.357 24.6638L425.02 26.2246L425.404 26.7657L425.158 27.7349L424.661 28.3957H424.655C423.812 29.1384 422.622 28.9055 421.401 28.3894L418.349 27.093C416.102 26.1364 412.678 26.1238 410.242 27.0615L410.223 27.0741H410.217L409.512 27.3887C406.9 28.7292 406.957 30.7873 409.575 31.9012L413.245 33.4619L413.37 34.3681C413.225 34.6324 412.817 35.1737 412.061 35.3247H411.803C411.249 35.2995 410.651 35.1107 410.035 34.8527L407.02 33.5688C402.797 31.7689 402.293 27.8922 405.931 25.5322C406.636 25.0791 407.429 24.6764 408.285 24.3492L408.316 24.3429L409.449 23.9463L409.468 23.94C413.358 22.7632 417.889 23.1912 421.357 24.6638Z" fill="#BFBCC4"/>
<path d="M411.003 30.5605V34.368L411.375 34.947L412.419 35.2175L413.275 35.1232C414.352 34.7834 414.622 33.682 414.622 32.417V29.2452C414.622 26.9103 416.032 24.0595 417.958 22.4861L417.977 22.4798L417.983 22.4735L418.581 22.0456C420.973 20.5226 422.955 21.58 422.955 24.2924V28.1062L423.786 28.6473L425.265 28.0243L425.372 27.8104C425.573 27.3384 425.642 26.7467 425.642 26.1174V22.9833C425.642 18.5969 422.068 16.2936 418.254 18.1627C417.517 18.5277 416.806 18.9934 416.12 19.5472L416.101 19.5661L415.252 20.315L415.239 20.3276C412.47 22.9833 411.01 26.9607 411.003 30.5605Z" fill="#686C6E"/>
<path d="M417.983 22.4734L418.581 22.0455C420.973 20.5225 422.955 21.5799 422.955 24.2923V28.1061L423.786 28.6472C423.786 27.8354 423.779 24.5314 423.754 24.0846C423.666 22.8196 422.023 19.0561 417.983 22.4734Z" fill="#4D5051"/>
<path d="M416.121 19.5471C417.222 18.6912 419.733 17.4766 421.942 17.9486C425.265 18.6534 425.266 22.0581 425.266 22.6812V28.0305L425.372 27.8103C425.574 27.3383 425.643 26.7529 425.643 26.1173V22.9833C425.643 18.5968 422.068 16.2935 418.254 18.1626C417.512 18.5276 416.8 18.9933 416.121 19.5471Z" fill="#4D5051"/>
<path d="M411.375 34.947L412.42 35.2175C412.432 27.2313 412.974 26.7153 413.805 24.6008C414.673 22.3792 416.07 20.743 418.915 19.1382C422.603 17.0488 424.888 20.4471 424.195 19.2388C423.503 18.0431 421.64 17.4705 420.375 17.7222C419.104 17.9802 416.259 19.3962 413.962 22.4107C411.224 26.0105 411.375 30.699 411.394 34.4058L411.375 34.947Z" fill="#9A9D9D"/>
<path d="M550.805 258.713L303.564 115.974V57.5903L550.805 200.323V258.713Z" fill="#A1A2AC"/>
<path d="M612.314 254.584L619.011 250.72V242.212L612.314 246.076V254.584Z" fill="#CDCED1"/>
<path d="M612.313 254.584L550.805 258.713V200.323L612.313 246.076V254.584Z" fill="#ADAEB5"/>
<path d="M612.313 246.076L550.805 200.323L594.54 175.074L619.01 242.212L612.313 246.076Z" fill="#E7E6E7"/>
<path d="M594.54 175.074L550.805 200.323L303.564 57.5904L347.311 32.3227L594.54 175.074Z" fill="#DDDEDE"/>
<path d="M306.17 56.0863L553.203 198.939L612.314 244.49L617.368 241.5L594.54 175.074L619.01 242.212L612.314 246.076L550.805 200.323L303.564 57.5903L306.17 56.0863Z" fill="#F2F1F4"/>
<path d="M546.3 161.437L549.969 162.998L550.341 163.545L550.095 164.508L549.598 165.169V165.175C548.748 165.918 547.565 165.685 546.35 165.169L543.292 163.866C541.045 162.909 537.621 162.897 535.179 163.841L535.166 163.847L535.16 163.853L534.455 164.168C531.843 165.502 531.906 167.566 534.518 168.674L538.188 170.235L538.313 171.141C538.168 171.412 537.753 171.953 537.004 172.098H536.746C536.192 172.072 535.594 171.884 534.984 171.626L531.963 170.342C527.746 168.548 527.237 164.672 530.881 162.312C531.579 161.852 532.372 161.456 533.234 161.128L533.26 161.116L534.386 160.726L534.405 160.719C538.294 159.536 542.832 159.97 546.3 161.437Z" fill="#BFBCC4"/>
<path d="M535.947 167.333V171.141L536.324 171.726L537.363 171.99L538.219 171.896H538.225C539.295 171.556 539.566 170.455 539.566 169.19V166.018C539.566 163.683 540.975 160.832 542.908 159.265L542.92 159.253L542.926 159.246L543.518 158.819C545.91 157.302 547.898 158.353 547.898 161.065V164.879L548.735 165.427L550.208 164.804L550.315 164.59C550.517 164.118 550.58 163.526 550.58 162.89V159.763C550.58 155.37 547.005 153.066 543.197 154.942C542.454 155.301 541.743 155.773 541.07 156.32L541.045 156.339L540.195 157.088L540.176 157.101C537.413 159.763 535.947 163.74 535.947 167.333Z" fill="#686C6E"/>
<path d="M542.926 159.247L543.518 158.819C545.909 157.302 547.898 158.353 547.898 161.066V164.879L548.735 165.427C548.735 164.615 548.729 161.305 548.698 160.858C548.616 159.593 546.961 155.829 542.926 159.247Z" fill="#4D5051"/>
<path d="M541.063 156.32C542.171 155.464 544.676 154.256 546.885 154.722C550.208 155.427 550.208 158.831 550.208 159.454V164.804L550.315 164.59C550.516 164.118 550.579 163.526 550.579 162.897V159.763C550.579 155.376 547.004 153.067 543.197 154.942C542.454 155.307 541.743 155.773 541.063 156.32Z" fill="#4D5051"/>
<path d="M536.324 171.726L537.363 171.99C537.375 164.011 537.923 163.495 538.747 161.374C539.61 159.158 541.013 157.522 543.851 155.911C547.546 153.828 549.83 157.22 549.138 156.018C548.446 154.816 546.583 154.243 545.318 154.495C544.047 154.753 541.196 156.175 538.905 159.184C536.167 162.783 536.324 167.472 536.337 171.179L536.324 171.726Z" fill="#9A9D9D"/>
<path d="M365.381 56.9798L369.051 58.5405L369.422 59.0881L369.183 60.051L368.679 60.7117C367.836 61.4543 366.646 61.2277 365.432 60.7054L362.373 59.4028C360.126 58.4525 356.702 58.4399 354.26 59.3839L354.248 59.3902H354.235L353.537 59.7048C350.925 61.0453 350.988 63.1032 353.6 64.2171L357.269 65.7778L357.395 66.684C357.25 66.9546 356.841 67.4896 356.085 67.6406H355.828C355.274 67.6092 354.676 67.4267 354.065 67.1686L351.044 65.8849C346.821 64.085 346.318 60.2083 349.962 57.8483C350.667 57.3889 351.46 56.9986 352.316 56.6714L352.334 56.6588L353.468 56.2687L353.486 56.2561C357.376 55.0792 361.913 55.5071 365.381 56.9798Z" fill="#BFBCC4"/>
<path d="M355.028 62.8767V66.684L355.406 67.2631L356.444 67.5337L357.3 67.4394H357.306C358.37 67.0995 358.64 65.9981 358.64 64.7332V61.5613C358.64 59.2265 360.057 56.3756 361.989 54.8086L362.001 54.8023L362.007 54.7897L362.599 54.3618C364.991 52.8451 366.979 53.896 366.979 56.6084V60.4159L367.81 60.9635L369.289 60.3468L369.396 60.1264C369.598 59.6544 369.661 59.0692 369.661 58.4336V55.2995C369.661 50.913 366.092 48.6033 362.278 50.4787C361.536 50.8437 360.824 51.3095 360.151 51.8634L360.132 51.876L359.276 52.6248L359.263 52.6374C356.494 55.2995 355.028 59.2769 355.028 62.8767Z" fill="#686C6E"/>
<path d="M362.007 54.7898L362.599 54.3619C364.99 52.8452 366.979 53.8961 366.979 56.6085V60.416L367.81 60.9636C367.81 60.1518 367.804 56.8478 367.779 56.401C367.697 55.136 366.042 51.3725 362.007 54.7898Z" fill="#4D5051"/>
<path d="M360.151 51.8635C361.246 51.0076 363.757 49.7993 365.96 50.265C369.289 50.9698 369.289 54.3683 369.289 54.9976V60.3469L369.396 60.1329C369.604 59.6546 369.667 59.0694 369.667 58.4337V55.2997C369.667 50.9132 366.092 48.6098 362.278 50.4852C361.535 50.8439 360.824 51.3097 360.151 51.8635Z" fill="#4D5051"/>
<path d="M355.406 67.2631L356.444 67.5337C356.463 59.5475 357.004 59.0315 357.829 56.9169C358.691 54.7017 360.095 53.059 362.933 51.4479C366.627 49.3648 368.912 52.7633 368.22 51.5613C367.527 50.3593 365.671 49.7865 364.393 50.0382C363.128 50.2899 360.277 51.7122 357.992 54.7267C355.248 58.3265 355.406 63.0088 355.425 66.7218L355.406 67.2631Z" fill="#9A9D9D"/><path d="M269.893 550.749L198.51 509.54V494.291L269.893 535.5V550.749Z" fill="#A1A2AC"/>
<path d="M257.998 510.452L210.405 482.969L226.731 383.648L250.716 397.493L257.998 510.452Z" fill="#A1A2AC"/>
<path d="M269.893 535.5L198.51 494.291L210.405 482.969L257.998 510.452L269.893 535.5Z" fill="#A1A2AC"/>
<path d="M464.135 438.614L392.746 397.399V382.15L464.135 423.365V438.614Z" fill="#ABACB4"/>
<path d="M452.24 398.312L404.641 370.835L412.25 276.548L436.235 290.393L452.24 398.312Z" fill="#ABACB4"/>
<path d="M464.135 423.365L392.746 382.15L404.641 370.835L452.24 398.311L464.135 423.365Z" fill="#ABACB4"/>
<path d="M269.893 550.749L464.135 438.614V423.365L269.893 535.5V550.749Z" fill="#BFBCC4"/>
<path d="M269.893 535.5L464.135 423.365L452.24 398.311L257.998 510.452L269.893 535.5Z" fill="#DDDEDE"/>
<path d="M250.716 397.493L436.236 290.393L452.241 398.311L257.998 510.452L250.716 397.493Z" fill="#CDCED1"/>
<path d="M226.731 383.648L412.25 276.548L436.235 290.393L250.716 397.493L226.731 383.648Z" fill="#DDDEDE"/>
<path d="M300.361 474.096L273.556 489.571L272.87 482.655L266.966 408.475L266.425 402.956L293.217 387.487L300.361 474.096Z" fill="#ABACB4"/>
<path d="M293.639 470.666L272.87 482.655L266.966 408.475L287.855 396.417L293.639 470.666Z" fill="#C3C4C7"/>
<path d="M287.855 396.417L293.217 387.487L266.425 402.956L266.966 408.475L287.855 396.417Z" fill="#B6B6BE"/>
<path d="M300.361 474.096L293.639 470.666L272.87 482.655L273.556 489.571L300.361 474.096Z" fill="#EDECED"/>
<path d="M342.535 449.753L315.73 465.222L315.05 458.306L309.14 384.133L308.599 378.613L335.391 363.138L342.535 449.753Z" fill="#ABACB4"/>
<path d="M335.813 446.323L315.05 458.306L309.14 384.133L330.035 372.068L335.813 446.323Z" fill="#C3C4C7"/>
<path d="M330.035 372.068L335.391 363.138L308.599 378.613L309.14 384.133L330.035 372.068Z" fill="#B6B6BE"/>
<path d="M342.535 449.753L335.813 446.323L315.05 458.306L315.73 465.222L342.535 449.753Z" fill="#EDECED"/>
<path d="M384.709 425.404L357.904 440.873L357.224 433.957L351.321 359.784L350.773 354.264L377.565 338.795L384.709 425.404Z" fill="#ABACB4"/>
<path d="M377.994 421.975L357.225 433.957L351.321 359.784L372.21 347.726L377.994 421.975Z" fill="#C3C4C7"/>
<path d="M372.209 347.726L377.565 338.795L350.773 354.264L351.321 359.784L372.209 347.726Z" fill="#B6B6BE"/>
<path d="M384.709 425.404L377.993 421.974L357.224 433.957L357.904 440.873L384.709 425.404Z" fill="#EDECED"/>
<path d="M426.889 401.055L400.084 416.531L399.398 409.614L393.495 335.435L392.953 329.922L419.746 314.446L426.889 401.055Z" fill="#ABACB4"/>
<path d="M420.168 397.625L399.399 409.614L393.496 335.435L414.384 323.377L420.168 397.625Z" fill="#C3C4C7"/>
<path d="M414.383 323.377L419.746 314.446L392.953 329.922L393.495 335.435L414.383 323.377Z" fill="#B6B6BE"/>
<path d="M426.889 401.055L420.168 397.625L399.398 409.614L400.084 416.531L426.889 401.055Z" fill="#EDECED"/>
<path d="M413.728 286.454L416.661 287.7L416.963 288.134L416.768 288.908L416.365 289.43V289.437C415.692 290.028 414.742 289.846 413.766 289.43L411.33 288.392C409.53 287.631 406.799 287.618 404.848 288.373L404.835 288.379L404.269 288.631C402.186 289.701 402.23 291.344 404.319 292.231L407.252 293.483L407.353 294.207C407.233 294.421 406.906 294.849 406.308 294.969H406.1L404.697 294.591L402.28 293.565C398.907 292.13 398.504 289.034 401.411 287.152C401.978 286.781 402.614 286.466 403.293 286.202L403.312 286.196L404.219 285.887L404.237 285.875C407.34 284.937 410.965 285.277 413.728 286.454Z" fill="#BFBCC4"/>
<path d="M405.465 291.161V294.207L405.767 294.666L406.598 294.88L407.278 294.805C408.14 294.534 408.354 293.653 408.354 292.646V290.11C408.354 288.247 409.48 285.969 411.022 284.717L411.029 284.71L411.035 284.704L411.513 284.364C413.427 283.15 415.006 283.987 415.006 286.158V289.197L415.674 289.638L416.851 289.141L416.939 288.971L417.153 287.618V285.107C417.153 281.608 414.301 279.764 411.255 281.262C410.664 281.557 410.091 281.929 409.55 282.369L409.537 282.382L408.857 282.973L408.845 282.986C406.629 285.107 405.465 288.291 405.465 291.161Z" fill="#686C6E"/>
<path d="M411.042 284.704L411.514 284.364C413.427 283.15 415.006 283.987 415.006 286.158V289.198L415.674 289.638C415.674 288.99 415.674 286.347 415.648 285.994C415.579 284.975 414.264 281.973 411.042 284.704Z" fill="#4D5051"/>
<path d="M409.55 282.369C410.431 281.684 412.432 280.714 414.201 281.092C416.851 281.652 416.851 284.371 416.851 284.868V289.141L416.939 288.971L417.153 287.618V285.113C417.153 281.608 414.295 279.764 411.255 281.262C410.664 281.558 410.091 281.929 409.55 282.369Z" fill="#4D5051"/>
<path d="M405.768 294.666L406.598 294.88C406.611 288.505 407.039 288.09 407.7 286.403C408.392 284.629 409.506 283.32 411.778 282.036C414.73 280.368 416.555 283.087 416.001 282.124C415.447 281.167 413.956 280.708 412.942 280.909C411.935 281.111 409.657 282.243 407.832 284.654C405.642 287.53 405.768 291.268 405.78 294.232L405.768 294.666Z" fill="#9A9D9D"/>
<path d="M253.605 378.909L256.532 380.155L256.84 380.589L256.639 381.357L256.243 381.886V381.892C255.563 382.484 254.613 382.301 253.643 381.886L251.201 380.848C249.407 380.086 246.67 380.073 244.725 380.829L244.712 380.835H244.706L244.146 381.087C242.056 382.157 242.107 383.799 244.196 384.693L247.123 385.932L247.224 386.663C247.11 386.877 246.783 387.304 246.179 387.424H245.971L244.561 387.046L242.157 386.021C238.778 384.586 238.381 381.49 241.289 379.608C241.849 379.236 242.478 378.922 243.171 378.658L243.189 378.651L244.089 378.337L244.102 378.33C247.211 377.393 250.836 377.732 253.605 378.909Z" fill="#BFBCC4"/>
<path d="M245.334 383.616V386.662L245.63 387.122L246.467 387.336L247.153 387.26C248.003 386.99 248.223 386.109 248.223 385.102V382.565C248.223 380.703 249.35 378.424 250.892 377.172L250.898 377.166L250.904 377.159L251.383 376.82C253.296 375.605 254.882 376.442 254.882 378.613V381.653L255.549 382.093L256.726 381.596L256.814 381.426L257.028 380.067V377.568C257.028 374.063 254.171 372.219 251.125 373.717C250.539 374.006 249.967 374.378 249.425 374.825L249.406 374.837L248.727 375.435L248.72 375.441C246.505 377.569 245.334 380.747 245.334 383.616Z" fill="#686C6E"/>
<path d="M250.905 377.159L251.383 376.82C253.297 375.605 254.883 376.442 254.883 378.613V381.653L255.55 382.094C255.55 381.445 255.544 378.802 255.519 378.443C255.456 377.436 254.134 374.428 250.905 377.159Z" fill="#4D5051"/>
<path d="M249.426 374.825C250.307 374.139 252.309 373.17 254.071 373.547C256.727 374.107 256.727 376.826 256.727 377.323V381.596L256.815 381.427L257.029 380.067V377.569C257.029 374.063 254.172 372.219 251.126 373.723C250.54 374.007 249.968 374.378 249.426 374.825Z" fill="#4D5051"/>
<path d="M245.63 387.122L246.467 387.336C246.474 380.961 246.908 380.545 247.569 378.859C248.261 377.084 249.381 375.781 251.647 374.491C254.599 372.823 256.424 375.542 255.87 374.579C255.316 373.616 253.831 373.163 252.818 373.365C251.805 373.566 249.526 374.699 247.695 377.109C245.511 379.985 245.63 383.723 245.643 386.694L245.63 387.122Z" fill="#9A9D9D"/>
<path d="M227.939 382.949L250.716 395.498L432.409 290.154L412.25 276.548L436.235 290.393L250.716 397.493L226.731 383.648L227.939 382.949Z" fill="#F2F1F4"/>
<path d="M251.95 396.782L259.288 509.703L270.586 532.907L461.09 423.132L452.241 398.311L464.136 423.365L269.893 535.5L257.998 510.452L250.716 397.493L251.95 396.782Z" fill="#F2F1F4"/>
<path d="M10.7944 385.121L158.048 300.104V293.924L10.7944 378.934V385.121Z" fill="#663B1D"/>
<path d="M0 372.704L10.7936 378.934L158.047 293.924L147.26 287.681L0 372.704Z" fill="#774520"/>
<path d="M10.7936 385.121L0 378.884V372.704L10.7936 378.934V385.121Z" fill="#492413"/>
<path d="M97.1616 434.977L244.415 349.966V343.786L97.1616 428.796V434.977Z" fill="#663B1D"/>
<path d="M86.3687 422.566L97.1623 428.796L244.416 343.786L233.622 337.543L86.3687 422.566Z" fill="#774520"/>
<path d="M97.1623 434.977L86.3687 428.746V422.566L97.1623 428.796V434.977Z" fill="#492413"/>
<mask id="mask0_0_1" style="mask-type:luminance" maskUnits="userSpaceOnUse" x="20" y="232" width="195" height="171">
<path d="M214.646 232.381C214.81 246.799 205.42 261.205 186.426 272.168C148.626 293.993 87.1425 293.88 49.1034 271.916C30.1468 260.972 20.5992 246.673 20.4545 232.369L20.4419 232.394V346.549L20.4545 346.561C20.6181 360.847 30.172 375.127 49.1034 386.058C87.1425 408.016 148.626 408.129 186.426 386.31C205.401 375.353 214.798 360.96 214.653 346.561V346.549V232.394L214.646 232.381Z" fill="white"/>
</mask>
<g mask="url(#mask0_0_1)">
<path d="M214.646 232.381C214.81 246.799 205.42 261.205 186.426 272.168C148.626 293.993 87.1425 293.88 49.1034 271.916C30.1468 260.972 20.5992 246.673 20.4545 232.369L20.4419 232.394V346.549L20.4545 346.561C20.6181 360.847 30.172 375.127 49.1034 386.058C87.1425 408.016 148.626 408.129 186.426 386.31C205.401 375.353 214.798 360.96 214.653 346.561V346.549V232.394L214.646 232.381Z" fill="url(#paint0_linear_0_1)"/>
</g>
<mask id="mask1_0_1" style="mask-type:luminance" maskUnits="userSpaceOnUse" x="3" y="182" width="229" height="133">
<path d="M198.648 294.855C154.139 320.551 81.7488 320.419 36.9692 294.566C-7.81674 268.713 -8.04335 226.919 36.4594 201.223C80.9684 175.527 153.352 175.659 198.138 201.519C242.924 227.372 243.15 269.159 198.648 294.855Z" fill="white"/>
</mask>
<g mask="url(#mask1_0_1)">
<path d="M198.648 294.855C154.139 320.551 81.7488 320.419 36.9692 294.566C-7.81674 268.713 -8.04335 226.919 36.4594 201.223C80.9684 175.527 153.352 175.659 198.138 201.519C242.924 227.372 243.15 269.159 198.648 294.855Z" fill="url(#paint1_linear_0_1)"/>
</g>
<mask id="mask2_0_1" style="mask-type:luminance" maskUnits="userSpaceOnUse" x="3" y="222" width="229" height="27">
<path d="M3.229 248.039V222.343H231.879V248.039H3.229Z" fill="white"/>
</mask>
<g mask="url(#mask2_0_1)">
<path d="M3.229 248.039V222.343H231.879V248.039H3.229Z" fill="url(#paint2_linear_0_1)"/>
</g>
<path d="M198.648 270.815C154.139 296.511 81.7488 296.378 36.9692 270.525C-7.81674 244.672 -8.04335 202.878 36.4594 177.189C80.9684 151.493 153.352 151.625 198.138 177.478C242.924 203.331 243.15 245.125 198.648 270.815Z" fill="#DDDEDE"/>
<path d="M203.96 244.855C199.442 251.186 192.714 257.133 183.827 262.249C147.456 283.256 88.2888 283.137 51.6973 262.029C42.584 256.755 35.7365 250.682 31.1358 244.206V244.181C17.2834 224.678 23.9861 201.506 51.2944 185.748C87.6657 164.741 146.801 164.866 183.405 185.974C211.035 201.934 217.914 225.333 203.96 244.855Z" fill="#A1A2AC"/>
<path d="M203.96 244.855C199.441 251.186 192.713 257.133 183.827 262.249C147.455 283.256 88.2884 283.137 51.6968 262.029C42.5836 256.755 35.7361 250.682 31.1354 244.206V244.181C27.3466 229.021 35.4841 213.086 55.6114 201.462C89.5973 181.833 144.9 181.934 179.106 201.689C199.542 213.482 207.824 229.593 203.96 244.855Z" fill="#CFD0D1"/>
<mask id="mask3_0_1" style="mask-type:luminance" maskUnits="userSpaceOnUse" x="49" y="197" width="137" height="80">
<path d="M166.053 265.22C160.275 268.556 153.724 271.174 146.706 273.055C128.323 277.977 106.855 277.914 88.4455 272.841C81.5287 270.953 75.0717 268.348 69.357 265.05C42.5584 249.575 42.4263 224.578 69.0549 209.216C95.6772 193.848 138.978 193.935 165.751 209.386C192.55 224.861 192.675 249.858 166.053 265.22Z" fill="white"/>
</mask>
<g mask="url(#mask3_0_1)">
<path d="M166.053 265.22C160.275 268.556 153.724 271.174 146.706 273.055C128.323 277.977 106.855 277.914 88.4455 272.841C81.5287 270.953 75.0717 268.348 69.357 265.05C42.5584 249.575 42.4263 224.578 69.0549 209.216C95.6772 193.848 138.978 193.935 165.751 209.386C192.55 224.861 192.675 249.858 166.053 265.22Z" fill="url(#paint3_linear_0_1)"/>
</g>
<mask id="mask4_0_1" style="mask-type:luminance" maskUnits="userSpaceOnUse" x="49" y="197" width="137" height="50">
<path d="M69.0484 228.209C95.6645 212.834 138.965 212.916 165.757 228.385C174.971 233.703 181.032 240.147 183.934 246.944C189.491 233.942 183.436 219.593 165.757 209.392C138.965 193.923 95.6645 193.847 69.0484 209.216C51.5834 219.298 45.6359 233.52 51.1744 246.485C54.038 239.782 59.9918 233.439 69.0484 228.209Z" fill="white"/>
</mask>
<g mask="url(#mask4_0_1)">
<path d="M69.0484 228.209C95.6645 212.834 138.965 212.916 165.757 228.385C174.971 233.703 181.032 240.147 183.934 246.944C189.491 233.942 183.436 219.593 165.757 209.392C138.965 193.923 95.6645 193.847 69.0484 209.216C51.5834 219.298 45.6359 233.52 51.1744 246.485C54.038 239.782 59.9918 233.439 69.0484 228.209Z" fill="url(#paint4_linear_0_1)"/>
</g>
<path d="M10.7944 251.853L158.048 166.843V160.663L10.7944 245.679V251.853Z" fill="#663B1D"/>
<path d="M0 239.442L10.7936 245.679L158.047 160.663L147.26 154.426L0 239.442Z" fill="#774520"/>
<path d="M10.7936 251.853L0 245.629V239.442L10.7936 245.679V251.853Z" fill="#492413"/>
<path d="M97.1616 301.721L244.415 216.705V210.525L97.1616 295.535V301.721Z" fill="#663B1D"/>
<path d="M86.3687 289.305L97.1623 295.535L244.416 210.525L233.622 204.288L86.3687 289.305Z" fill="#774520"/>
<path d="M97.1623 301.721L86.3687 295.485V289.305L97.1623 295.535V301.721Z" fill="#492413"/>
<mask id="mask5_0_1" style="mask-type:luminance" maskUnits="userSpaceOnUse" x="20" y="102" width="195" height="171">
<path d="M214.646 102.361C214.81 116.773 205.42 131.185 186.426 142.148C148.626 163.967 87.1425 163.86 49.1034 141.896C30.1468 130.952 20.5992 116.653 20.4545 102.349L20.4419 102.374V216.522L20.4545 216.547C20.6181 230.821 30.172 245.107 49.1034 256.038C87.1425 277.996 148.626 278.109 186.426 256.283C205.401 245.327 214.798 230.94 214.653 216.535V216.522V102.374L214.646 102.361Z" fill="white"/>
</mask>
<g mask="url(#mask5_0_1)">
<path d="M214.646 102.361C214.81 116.773 205.42 131.185 186.426 142.148C148.626 163.967 87.1425 163.86 49.1034 141.896C30.1468 130.952 20.5992 116.653 20.4545 102.349L20.4419 102.374V216.522L20.4545 216.547C20.6181 230.821 30.172 245.107 49.1034 256.038C87.1425 277.996 148.626 278.109 186.426 256.283C205.401 245.327 214.798 230.94 214.653 216.535V216.522V102.374L214.646 102.361Z" fill="url(#paint5_linear_0_1)"/>
</g>
<mask id="mask6_0_1" style="mask-type:luminance" maskUnits="userSpaceOnUse" x="3" y="52" width="229" height="133">
<path d="M198.648 164.835C154.139 190.531 81.7488 190.399 36.9692 164.546C-7.81674 138.686 -8.04335 96.8987 36.4594 71.203C80.9684 45.5073 153.352 45.6394 198.138 71.4987C242.924 97.3518 243.15 139.14 198.648 164.835Z" fill="white"/>
</mask>
<g mask="url(#mask6_0_1)">
<path d="M198.648 164.835C154.139 190.531 81.7488 190.399 36.9692 164.546C-7.81674 138.686 -8.04335 96.8987 36.4594 71.203C80.9684 45.5073 153.352 45.6394 198.138 71.4987C242.924 97.3518 243.15 139.14 198.648 164.835Z" fill="url(#paint6_linear_0_1)"/>
</g>
<mask id="mask7_0_1" style="mask-type:luminance" maskUnits="userSpaceOnUse" x="3" y="92" width="229" height="27">
<path d="M3.229 118.019V92.3172H231.879V118.019H3.229Z" fill="white"/>
</mask>
<g mask="url(#mask7_0_1)">
<path d="M3.229 118.019V92.3172H231.879V118.019H3.229Z" fill="url(#paint7_linear_0_1)"/>
</g>
<path d="M198.648 140.795C154.139 166.49 81.7488 166.358 36.9692 140.505C-7.81674 114.652 -8.04335 72.8582 36.4594 47.1625C80.9684 21.4731 153.352 21.599 198.138 47.4583C242.924 73.3113 243.15 115.099 198.648 140.795Z" fill="#DDDEDE"/>
<path d="M203.96 114.834C199.442 121.165 192.714 127.113 183.827 132.229C147.456 153.236 88.2888 153.11 51.6973 132.002C42.584 126.735 35.7365 120.662 31.1358 114.186V114.161C17.2834 94.6579 23.9861 71.4921 51.2944 55.7273C87.6657 34.7202 146.801 34.8461 183.405 55.9539C211.035 71.9138 217.914 95.306 203.96 114.834Z" fill="#A1A2AC"/>
<path d="M203.96 114.834C199.441 121.165 192.713 127.113 183.827 132.229C147.455 153.236 88.2884 153.11 51.6968 132.002C42.5836 126.735 35.7361 120.662 31.1354 114.186V114.161C27.3466 99.0003 35.4841 83.0592 55.6114 71.4417C89.5973 51.8065 144.9 51.9136 179.106 71.6621C199.542 83.4621 207.824 99.5792 203.96 114.834Z" fill="#CFD0D1"/>
<mask id="mask8_0_1" style="mask-type:luminance" maskUnits="userSpaceOnUse" x="49" y="67" width="137" height="80">
<path d="M166.053 135.2C160.275 138.535 153.724 141.147 146.706 143.035C128.323 147.956 106.855 147.893 88.4455 142.821C81.5287 140.933 75.0717 138.327 69.357 135.03C42.5584 119.554 42.4263 94.5573 69.0549 79.1953C95.6772 63.8269 138.978 63.9088 165.751 79.3652C192.55 94.8342 192.675 119.831 166.053 135.2Z" fill="white"/>
</mask>
<g mask="url(#mask8_0_1)">
<path d="M166.053 135.2C160.275 138.535 153.724 141.147 146.706 143.035C128.323 147.956 106.855 147.893 88.4455 142.821C81.5287 140.933 75.0717 138.327 69.357 135.03C42.5584 119.554 42.4263 94.5573 69.0549 79.1953C95.6772 63.8269 138.978 63.9088 165.751 79.3652C192.55 94.8342 192.675 119.831 166.053 135.2Z" fill="url(#paint8_linear_0_1)"/>
</g>
<mask id="mask9_0_1" style="mask-type:luminance" maskUnits="userSpaceOnUse" x="49" y="67" width="137" height="50">
<path d="M69.0484 98.1886C95.6645 82.8139 138.965 82.8958 165.757 98.3648C174.971 103.683 181.032 110.127 183.934 116.924C189.491 103.922 183.436 89.573 165.757 79.3653C138.965 63.9025 95.6645 63.8207 69.0484 79.1953C51.5834 89.2772 45.6359 103.5 51.1744 116.458C54.038 109.762 59.9918 103.412 69.0484 98.1886Z" fill="white"/>
</mask>
<g mask="url(#mask9_0_1)">
<path d="M69.0484 98.1886C95.6645 82.8139 138.965 82.8958 165.757 98.3648C174.971 103.683 181.032 110.127 183.934 116.924C189.491 103.922 183.436 89.573 165.757 79.3653C138.965 63.9025 95.6645 63.8207 69.0484 79.1953C51.5834 89.2772 45.6359 103.5 51.1744 116.458C54.038 109.762 59.9918 103.412 69.0484 98.1886Z" fill="url(#paint9_linear_0_1)"/>
</g>
<defs>
<linearGradient id="paint0_linear_0_1" x1="20.4419" y1="317.486" x2="214.66" y2="317.486" gradientUnits="userSpaceOnUse">
<stop stop-color="#828491"/>
<stop offset="0.231771" stop-color="#9A99A4"/>
<stop offset="1" stop-color="#CDCED1"/>
</linearGradient>
<linearGradient id="paint1_linear_0_1" x1="60.6901" y1="248.039" x2="314.439" y2="248.039" gradientUnits="userSpaceOnUse">
<stop stop-color="#828491"/>
<stop offset="0.231771" stop-color="#9A99A4"/>
<stop offset="1" stop-color="#CDCED1"/>
</linearGradient>
<linearGradient id="paint2_linear_0_1" x1="60.6905" y1="235.194" x2="314.439" y2="235.194" gradientUnits="userSpaceOnUse">
<stop stop-color="#828491"/>
<stop offset="0.231771" stop-color="#9A99A4"/>
<stop offset="1" stop-color="#CDCED1"/>
</linearGradient>
<linearGradient id="paint3_linear_0_1" x1="-48.5364" y1="258.971" x2="87.0684" y2="241.211" gradientUnits="userSpaceOnUse">
<stop stop-color="#CDCED1"/>
<stop offset="0.768229" stop-color="#9A99A4"/>
<stop offset="1" stop-color="#828491"/>
</linearGradient>
<linearGradient id="paint4_linear_0_1" x1="12.1346" y1="222.343" x2="166.032" y2="222.343" gradientUnits="userSpaceOnUse">
<stop stop-color="#CDCED1"/>
<stop offset="0.768229" stop-color="#9A99A4"/>
<stop offset="1" stop-color="#828491"/>
</linearGradient>
<linearGradient id="paint5_linear_0_1" x1="20.4419" y1="187.466" x2="214.66" y2="187.466" gradientUnits="userSpaceOnUse">
<stop stop-color="#828491"/>
<stop offset="0.231771" stop-color="#9A99A4"/>
<stop offset="1" stop-color="#CDCED1"/>
</linearGradient>
<linearGradient id="paint6_linear_0_1" x1="60.6901" y1="118.019" x2="314.439" y2="118.019" gradientUnits="userSpaceOnUse">
<stop stop-color="#828491"/>
<stop offset="0.231771" stop-color="#9A99A4"/>
<stop offset="1" stop-color="#CDCED1"/>
</linearGradient>
<linearGradient id="paint7_linear_0_1" x1="60.6905" y1="105.168" x2="314.439" y2="105.168" gradientUnits="userSpaceOnUse">
<stop stop-color="#828491"/>
<stop offset="0.231771" stop-color="#9A99A4"/>
<stop offset="1" stop-color="#CDCED1"/>
</linearGradient>
<linearGradient id="paint8_linear_0_1" x1="-48.5364" y1="128.95" x2="87.0684" y2="111.19" gradientUnits="userSpaceOnUse">
<stop stop-color="#CDCED1"/>
<stop offset="0.768229" stop-color="#9A99A4"/>
<stop offset="1" stop-color="#828491"/>
</linearGradient>
<linearGradient id="paint9_linear_0_1" x1="12.1346" y1="92.3232" x2="166.032" y2="92.3232" gradientUnits="userSpaceOnUse">
<stop stop-color="#CDCED1"/>
<stop offset="0.768229" stop-color="#9A99A4"/>
<stop offset="1" stop-color="#828491"/>
</linearGradient>
</defs>
</svg>
