<svg width="238" height="168" viewBox="0 0 238 168" fill="none" xmlns="http://www.w3.org/2000/svg">
<g clip-path="url(#clip0_467_2712)">
<path d="M0 8C0 3.58172 3.58172 0 8 0H230C234.418 0 238 3.58172 238 8V160C238 164.418 234.418 168 230 168H8C3.58172 168 0 164.418 0 160V8Z" fill="#737373"/>
<g clip-path="url(#clip1_467_2712)">
<rect x="22" y="20" width="246" height="168" rx="4" fill="#292929"/>
<rect width="157" height="50" transform="translate(72 20) rotate(90)" fill="#424242"/>
<path d="M39 29C39 27.8954 39.8954 27 41 27H65C66.1046 27 67 27.8954 67 29V31C67 32.1046 66.1046 33 65 33H41C39.8954 33 39 32.1046 39 31V29Z" fill="#737373"/>
<rect x="27" y="40" width="29" height="4" rx="1" fill="#737373"/>
<rect x="27" y="50" width="29" height="4" rx="1" fill="#737373"/>
<rect x="27" y="60" width="29" height="4" rx="1" fill="#737373"/>
<rect x="27" y="70" width="29" height="4" rx="1" fill="#737373"/>
<path d="M27 28C27 26.8954 27.8954 26 29 26H33C34.1046 26 35 26.8954 35 28V32C35 33.1046 34.1046 34 33 34H29C27.8954 34 27 33.1046 27 32V28Z" fill="#737373"/>
<rect x="82" y="27" width="60" height="6" rx="1" fill="#737373"/>
<rect x="82" y="40" width="121" height="57" rx="2" fill="#424242"/>
<rect x="82" y="101" width="121" height="57" rx="2" fill="#424242"/>
<rect x="207" y="40" width="121" height="57" rx="2" fill="#424242"/>
<rect x="207" y="101" width="121" height="57" rx="2" fill="#424242"/>
<rect x="82" y="162" width="121" height="57" rx="2" fill="#424242"/>
<rect x="207" y="162" width="121" height="57" rx="2" fill="#424242"/>
<rect x="216" y="27" width="21" height="6" rx="1" fill="#737373"/>
</g>
</g>
<defs>
<clipPath id="clip0_467_2712">
<path d="M0 8C0 3.58172 3.58172 0 8 0H230C234.418 0 238 3.58172 238 8V160C238 164.418 234.418 168 230 168H8C3.58172 168 0 164.418 0 160V8Z" fill="white"/>
</clipPath>
<clipPath id="clip1_467_2712">
<rect x="22" y="20" width="246" height="168" rx="4" fill="white"/>
</clipPath>
</defs>
</svg>
