<svg width="805" height="705" viewBox="0 0 805 705" fill="none" xmlns="http://www.w3.org/2000/svg">
<path d="M136.781 310.342L141.942 307.365V29.7035L136.781 32.6802V310.342Z" fill="#5B5F61"/>
<path d="M136.781 310.342L131.626 307.365V29.7035L136.781 32.6802V310.342Z" fill="#86898A"/>
<path d="M131.626 307.365L136.781 310.342L58.5312 71.9003L55.6487 73.568L131.626 307.365Z" fill="#353638"/>
<path d="M61.3448 345.157L56.2217 342.224L129.317 300.266L134.887 302.947L61.3448 345.157Z" fill="#86898A"/>
<path d="M60.8033 345.472L55.6802 342.533L131.116 30.0624L136.239 32.9888L60.8033 345.472Z" fill="#86898A"/>
<path d="M61.3445 345.157L60.8032 354.207L136.781 310.342L134.886 302.947L61.3445 345.157Z" fill="#5B5F61"/>
<path d="M136.781 310.342L136.875 304.609L63.692 74.8833L60.0542 76.5447L136.781 310.342Z" fill="#5B5F61"/>
<path d="M60.8032 354.207V345.471L136.239 32.9886V41.4846L60.8032 354.207Z" fill="#5B5F61"/>
<path d="M55.6487 357.19L60.8033 354.207V76.5448L55.6487 79.5216V357.19Z" fill="#5B5F61"/>
<path d="M55.6486 357.19L50.4878 354.207V76.5448L55.6486 79.5216V357.19Z" fill="#86898A"/>
<path d="M312.161 411.595L317.315 408.612V254.092L312.161 257.069V411.595Z" fill="#5B5F61"/>
<path d="M312.161 411.595L307 408.612V254.092L312.161 257.069V411.595Z" fill="#86898A"/>
<path d="M307 408.612L312.161 411.595L233.905 296.289L231.022 297.957L307 408.612Z" fill="#353638"/>
<path d="M236.718 446.404L231.595 443.471L302.852 402.571L307.975 405.503L236.718 446.404Z" fill="#86898A"/>
<path d="M236.184 446.719L231.054 443.78L306.497 254.445L311.62 257.384L236.184 446.719Z" fill="#86898A"/>
<path d="M236.718 446.404L236.184 455.454L312.161 411.595L307.976 405.503L236.718 446.404Z" fill="#5B5F61"/>
<path d="M312.161 411.595L312.249 405.856L239.066 299.266L236.184 300.933L312.161 411.595Z" fill="#5B5F61"/>
<path d="M236.184 455.454V446.718L311.62 257.384V265.867L236.184 455.454Z" fill="#5B5F61"/>
<path d="M231.022 458.43L236.183 455.454V300.933L231.022 303.91V458.43Z" fill="#5B5F61"/>
<path d="M231.022 458.43L225.868 455.454V300.933L231.022 303.91V458.43Z" fill="#86898A"/>
<path d="M390.889 460.161L396.043 457.184V302.658L390.889 305.635V460.161Z" fill="#5B5F61"/>
<path d="M390.889 460.161L385.734 457.184V302.658L390.889 305.635V460.161Z" fill="#86898A"/>
<path d="M385.734 457.184L390.889 460.161L312.633 344.861L309.75 346.522L385.734 457.184Z" fill="#353638"/>
<path d="M315.453 494.976L310.323 492.037L381.581 451.136L386.71 454.075L315.453 494.976Z" fill="#86898A"/>
<path d="M314.911 495.284L309.782 492.351L385.218 303.017L390.348 305.949L314.911 495.284Z" fill="#86898A"/>
<path d="M315.452 494.976L314.911 504.026L390.889 460.161L386.71 454.076L315.452 494.976Z" fill="#5B5F61"/>
<path d="M390.889 460.161L390.983 454.428L317.794 347.838L314.911 349.499L390.889 460.161Z" fill="#5B5F61"/>
<path d="M314.911 504.026V495.284L390.347 305.949V314.433L314.911 504.026Z" fill="#5B5F61"/>
<path d="M309.75 507.002L314.911 504.026V349.499L309.75 352.476V507.002Z" fill="#5B5F61"/>
<path d="M309.75 507.002L304.596 504.026V349.499L309.75 352.476V507.002Z" fill="#86898A"/>
<path d="M219.31 357.989L224.471 355.012V131.013L219.31 133.99V357.989Z" fill="#5B5F61"/>
<path d="M219.31 357.989L214.156 355.012V131.013L219.31 133.99V357.989Z" fill="#86898A"/>
<path d="M214.156 355.012L219.31 357.989L141.06 173.21L138.178 174.878L214.156 355.012Z" fill="#353638"/>
<path d="M143.874 392.804L138.75 389.871L211.292 348.228L216.421 351.167L143.874 392.804Z" fill="#86898A"/>
<path d="M143.333 393.118L138.209 390.179L213.646 131.366L218.775 134.299L143.333 393.118Z" fill="#86898A"/>
<path d="M143.874 392.804L143.333 401.853L219.31 357.989L219.404 349.455L143.874 392.804Z" fill="#5B5F61"/>
<path d="M219.31 357.989L219.404 352.256L146.215 176.187L142.332 177.131L219.31 357.989Z" fill="#5B5F61"/>
<path d="M143.333 401.853V393.118L218.775 134.299V142.788L143.333 401.853Z" fill="#5B5F61"/>
<path d="M138.178 404.83L143.333 401.853V177.855L138.178 180.831V404.83Z" fill="#5B5F61"/>
<path d="M138.178 404.83L133.017 401.853V177.855L138.178 180.831V404.83Z" fill="#86898A"/>
<path d="M707.512 631.252L723.014 622.303V594.014L707.512 602.963V631.252Z" fill="#63635B"/>
<path d="M707.512 602.963L723.013 594.014L707.606 585.122L692.099 594.071L707.512 602.963Z" fill="#CDC6B5"/>
<path d="M692.099 622.359L707.512 631.252V602.963L692.099 594.071V622.359Z" fill="#B8B2A1"/>
<path d="M645.884 595.676L661.385 586.72V558.438L645.884 567.387V595.676Z" fill="#63635B"/>
<path d="M645.884 567.387L661.385 558.438L645.979 549.539L630.471 558.488L645.884 567.387Z" fill="#CDC6B5"/>
<path d="M630.471 586.777L645.884 595.676V567.387L630.471 558.488V586.777Z" fill="#B8B2A1"/>
<path d="M584.256 560.093L599.751 551.144V522.855L584.256 531.804V560.093Z" fill="#63635B"/>
<path d="M584.256 531.804L599.751 522.855L584.351 513.963L568.843 522.912L584.256 531.804Z" fill="#CDC6B5"/>
<path d="M568.843 551.2L584.256 560.093V531.804L568.843 522.912V551.2Z" fill="#B8B2A1"/>
<path d="M522.628 524.51L538.124 515.561V487.273L522.628 496.228V524.51Z" fill="#63635B"/>
<path d="M522.629 496.228L538.124 487.273L522.717 478.38L507.215 487.329L522.629 496.228Z" fill="#CDC6B5"/>
<path d="M507.215 515.618L522.629 524.51V496.228L507.215 487.329V515.618Z" fill="#B8B2A1"/>
<path d="M469.113 493.623L484.614 484.667V456.379L469.113 465.334V493.623Z" fill="#63635B"/>
<path d="M469.113 465.334L484.614 456.379L469.207 447.486L453.7 456.442L469.113 465.334Z" fill="#CDC6B5"/>
<path d="M453.7 484.724L469.113 493.623V465.334L453.7 456.441V484.724Z" fill="#B8B2A1"/>
<path d="M462.845 456.385L466.835 454.088V334.603L462.845 336.906V456.385Z" fill="#5B5F61"/>
<path d="M521.181 483.308L525.146 481.036L466.81 334.641L462.845 336.906L521.181 483.308Z" fill="#353638"/>
<path d="M462.845 456.385L458.867 454.088V334.603L462.845 336.906V456.385Z" fill="#424446"/>
<path d="M466.835 454.088L462.845 456.385L523.359 367.234L525.587 368.517L466.835 454.088Z" fill="#353638"/>
<path d="M496.937 410.249L492.979 412.514L494.193 415.566L496.937 410.249Z" fill="#353638"/>
<path d="M462.845 456.385L462.782 451.954L519.368 369.537L521.596 370.827L462.845 456.385Z" fill="#424446"/>
<path d="M521.181 483.308L525.146 481.036L470.044 449.412L466.08 451.678L521.181 483.308Z" fill="#353638"/>
<path d="M521.181 490.061V483.308L462.845 449.821V456.385L521.181 490.061Z" fill="#424446"/>
<path d="M525.171 366.126L529.136 363.861L462.832 325.773L458.867 328.039L525.171 366.126Z" fill="#353638"/>
<path d="M525.171 372.885V366.126L458.867 328.039V334.603L525.171 372.885Z" fill="#424446"/>
<path d="M521.181 490.061V483.308L462.845 336.906V343.47L521.181 490.061Z" fill="#424446"/>
<path d="M525.171 492.364L529.161 490.061V363.823L525.171 366.126V492.364Z" fill="#5B5F61"/>
<path d="M525.171 492.364L521.181 490.061V370.582L525.171 372.885V492.364Z" fill="#424446"/>
<path d="M525.171 492.364L529.161 490.061V370.582L525.171 372.885V492.364Z" fill="#5B5F61"/>
<path d="M583.501 519.281L587.46 517.015L529.136 370.613L525.171 372.885L583.501 519.281Z" fill="#353638"/>
<path d="M525.171 492.364L521.181 490.061V370.582L525.171 372.885V492.364Z" fill="#424446"/>
<path d="M529.161 490.061L525.171 492.364L585.672 403.213L587.906 404.497L529.161 490.061Z" fill="#353638"/>
<path d="M559.258 446.221L555.293 448.487L556.508 451.546L559.258 446.221Z" fill="#353638"/>
<path d="M525.171 492.364L525.102 487.933L581.682 405.51L583.916 406.8L525.171 492.364Z" fill="#424446"/>
<path d="M583.501 519.281L587.46 517.015L532.365 485.391L528.4 487.657L583.501 519.281Z" fill="#353638"/>
<path d="M583.501 526.04V519.281L525.171 485.8V492.364L583.501 526.04Z" fill="#424446"/>
<path d="M587.485 402.105L591.45 399.833L529.136 363.861L521.181 364.018L587.485 402.105Z" fill="#353638"/>
<path d="M587.485 408.864V402.105L521.181 364.018V370.582L587.485 408.864Z" fill="#424446"/>
<path d="M583.501 526.04V519.281L525.171 372.885V379.449L583.501 526.04Z" fill="#424446"/>
<path d="M587.485 528.343L591.475 526.04V399.802L587.485 402.105V528.343Z" fill="#5B5F61"/>
<path d="M587.485 528.343L583.501 526.04V406.561L587.485 408.864V528.343Z" fill="#424446"/>
<path d="M587.485 528.343L591.475 526.04V406.561L587.485 408.864V528.343Z" fill="#5B5F61"/>
<path d="M645.821 555.26L649.786 552.994L591.45 406.592L587.485 408.864L645.821 555.26Z" fill="#353638"/>
<path d="M587.485 528.343L583.501 526.04V406.561L587.485 408.864V528.343Z" fill="#424446"/>
<path d="M591.475 526.04L587.485 528.343L647.992 439.185L650.227 440.476L591.475 526.04Z" fill="#353638"/>
<path d="M621.578 482.201L617.613 484.466L618.834 487.525L621.578 482.201Z" fill="#353638"/>
<path d="M587.485 528.343L587.416 523.913L644.009 441.495L646.237 442.779L587.485 528.343Z" fill="#424446"/>
<path d="M645.821 555.26L649.786 552.994L594.685 521.364L590.72 523.636L645.821 555.26Z" fill="#353638"/>
<path d="M645.821 562.019V555.26L587.485 521.779V528.343L645.821 562.019Z" fill="#424446"/>
<path d="M649.812 438.084L653.77 435.812L591.45 399.833L583.501 399.997L649.812 438.084Z" fill="#353638"/>
<path d="M649.812 444.843V438.084L583.501 399.997V406.561L649.812 444.843Z" fill="#424446"/>
<path d="M645.821 562.019V555.26L587.485 408.864V415.422L645.821 562.019Z" fill="#424446"/>
<path d="M649.812 564.322L653.795 562.019V435.781L649.812 438.084V564.322Z" fill="#5B5F61"/>
<path d="M649.811 564.322L645.821 562.019V442.54L649.811 444.843V564.322Z" fill="#424446"/>
<path d="M649.812 564.322L653.795 562.019V442.54L649.812 444.843V564.322Z" fill="#5B5F61"/>
<path d="M708.141 591.239L712.1 588.973L653.77 442.571L649.812 444.843L708.141 591.239Z" fill="#353638"/>
<path d="M649.811 564.322L645.821 562.019V442.54L649.811 444.843V564.322Z" fill="#424446"/>
<path d="M653.795 562.019L649.812 564.322L710.313 475.165L712.541 476.455L653.795 562.019Z" fill="#353638"/>
<path d="M683.898 518.179L679.933 520.445L681.148 523.503L683.898 518.179Z" fill="#353638"/>
<path d="M649.811 564.322L649.742 559.892L706.323 477.468L708.557 478.758L649.811 564.322Z" fill="#424446"/>
<path d="M708.141 591.239L712.1 588.973L657.005 557.349L653.04 559.615L708.141 591.239Z" fill="#353638"/>
<path d="M708.141 597.998V591.239L649.812 557.758V564.322L708.141 597.998Z" fill="#424446"/>
<path d="M712.125 474.063L716.115 471.76L653.77 435.812L645.821 435.976L712.125 474.063Z" fill="#353638"/>
<path d="M712.125 480.822V474.063L645.821 435.976V442.54L712.125 480.822Z" fill="#424446"/>
<path d="M708.141 597.998V591.239L649.812 444.843V451.401L708.141 597.998Z" fill="#424446"/>
<path d="M712.125 600.301L716.116 597.998V471.76L712.125 474.063V600.301Z" fill="#5B5F61"/>
<path d="M712.125 600.301L708.141 597.998V478.512L712.125 480.822V600.301Z" fill="#424446"/>
<path d="M618.941 682.385L634.442 673.436V645.147L618.941 654.097V682.385Z" fill="#63635B"/>
<path d="M618.941 654.096L634.442 645.147L619.041 636.249L603.534 645.204L618.941 654.096Z" fill="#CDC6B5"/>
<path d="M603.534 673.486L618.941 682.385V654.097L603.534 645.204V673.486Z" fill="#B8B2A1"/>
<path d="M557.313 646.809L572.814 637.853V609.565L557.313 618.514V646.809Z" fill="#63635B"/>
<path d="M557.313 618.514L572.815 609.565L557.408 600.672L541.906 609.622L557.313 618.514Z" fill="#CDC6B5"/>
<path d="M541.906 637.91L557.313 646.809V618.514L541.906 609.621V637.91Z" fill="#B8B2A1"/>
<path d="M495.679 611.226L511.186 602.271V573.989L495.679 582.938V611.226Z" fill="#63635B"/>
<path d="M495.679 582.938L511.186 573.989L495.78 565.09L480.278 574.045L495.679 582.938Z" fill="#CDC6B5"/>
<path d="M480.278 602.334L495.679 611.226V582.938L480.278 574.045V602.334Z" fill="#B8B2A1"/>
<path d="M434.051 575.644L449.559 566.695V538.406L434.051 547.355V575.644Z" fill="#63635B"/>
<path d="M434.051 547.355L449.559 538.406L434.152 529.514L418.644 538.463L434.051 547.355Z" fill="#CDC6B5"/>
<path d="M418.644 566.751L434.051 575.644V547.355L418.644 538.463V566.751Z" fill="#B8B2A1"/>
<path d="M380.542 544.75L396.043 535.801V507.512L380.542 516.468V544.75Z" fill="#63635B"/>
<path d="M380.542 516.468L396.043 507.512L380.636 498.62L365.135 507.569L380.542 516.468Z" fill="#CDC6B5"/>
<path d="M365.135 535.858L380.542 544.75V516.468L365.135 507.569V535.858Z" fill="#B8B2A1"/>
<path d="M42.2372 73.6497L287.043 380.148C302.047 398.933 318.921 416.19 337.361 431.608L586.233 639.559C588.555 641.504 591.299 642.68 594.182 642.995C597.41 643.41 600.714 642.787 603.628 641.082L660.788 608.061C665.332 605.462 669.121 601.742 671.858 597.299L672.519 596.223C680.613 582.994 677.762 565.839 665.886 555.876L429.551 358.411C411.079 342.96 394.206 325.736 379.202 306.918L141.86 9.79755C133.842 -0.27179 119.675 -2.94019 108.529 3.479L71.7546 24.7253C66.128 27.9916 60.0169 30.7355 54.4973 34.0332C50.4631 36.4687 46.7183 39.1749 43.7288 42.6111C42.5519 43.8949 41.5071 45.2857 40.5694 46.815C35.4337 55.2166 36.0946 65.9467 42.2372 73.6497Z" fill="#1C1913"/>
<path d="M42.2372 73.6498L287.043 380.148C302.047 398.933 318.921 416.19 337.361 431.608L586.233 639.559C588.555 641.504 591.299 642.68 594.182 642.995C595.012 641.957 595.78 640.874 596.473 639.767L597.134 638.69C605.19 625.456 602.376 608.306 590.469 598.344L354.134 400.84C335.693 385.422 318.82 368.165 303.816 349.38L66.4743 52.2274C60.8477 45.2167 49.5505 36.1479 43.7288 42.6112C42.5519 43.895 41.5071 45.2858 40.5694 46.8151C35.4337 55.2167 36.0946 65.9468 42.2372 73.6498Z" fill="#14110E"/>
<path d="M595.195 622.485C595.195 630.037 589.858 633.077 583.274 629.276C576.691 625.481 571.36 616.274 571.36 608.728C571.36 601.176 576.691 598.13 583.274 601.931C589.858 605.732 595.195 614.933 595.195 622.485Z" fill="#303133"/>
<path d="M496.528 540.917C496.528 548.469 491.191 551.509 484.614 547.708C478.037 543.913 472.7 534.712 472.7 527.16C472.7 519.608 478.037 516.562 484.614 520.363C491.191 524.164 496.528 533.365 496.528 540.917Z" fill="#303133"/>
<path d="M428.148 483.169C428.148 490.721 422.81 493.761 416.227 489.966C409.644 486.165 404.313 476.958 404.313 469.412C404.313 461.854 409.644 458.814 416.227 462.615C422.81 466.41 428.148 475.617 428.148 483.169Z" fill="#303133"/>
<path d="M343.252 410.431C343.252 417.983 337.915 421.023 331.331 417.228C324.754 413.427 319.411 404.226 319.411 396.667C319.411 389.115 324.754 386.076 331.331 389.877C337.915 393.678 343.252 402.879 343.252 410.431Z" fill="#303133"/>
<path d="M247.757 294.193C247.757 301.745 242.427 304.785 235.844 300.984C229.26 297.189 223.923 287.982 223.923 280.436C223.923 272.878 229.26 269.838 235.844 273.639C242.427 277.44 247.757 286.641 247.757 294.193Z" fill="#303133"/>
<path d="M156.707 183.468C156.707 191.02 151.37 194.06 144.793 190.265C138.21 186.464 132.873 177.263 132.873 169.711C132.873 162.159 138.21 159.113 144.793 162.914C151.37 166.716 156.707 175.916 156.707 183.468Z" fill="#303133"/>
<path d="M69.6775 74.0967C69.6775 81.6424 64.3467 84.6882 57.7635 80.8871C51.1803 77.0859 45.8496 67.8851 45.8496 60.3331C45.8496 52.7811 51.1803 49.7414 57.7635 53.5426C64.3467 57.3375 69.6775 66.5384 69.6775 74.0967Z" fill="#303133"/>
<path d="M374.978 507.122L378.962 504.819V385.34L374.978 387.637V507.122Z" fill="#5B5F61"/>
<path d="M433.302 534.039L437.267 531.767L378.931 385.371L374.978 387.637L433.302 534.039Z" fill="#9C9F9F"/>
<path d="M374.979 507.122L370.988 504.819V385.34L374.979 387.637V507.122Z" fill="#86898A"/>
<path d="M378.962 504.819L374.978 507.122L435.479 417.964L437.707 419.255L378.962 504.819Z" fill="#353638"/>
<path d="M409.065 460.979L405.1 463.245L406.314 466.303L409.065 460.979Z" fill="#9C9F9F"/>
<path d="M374.978 507.122L374.903 502.685L431.489 420.268L433.724 421.558L374.978 507.122Z" fill="#86898A"/>
<path d="M433.302 534.039L437.267 531.767L382.166 500.143L378.201 502.415L433.302 534.039Z" fill="#9C9F9F"/>
<path d="M433.302 540.798V534.039L374.978 500.558V507.122L433.302 540.798Z" fill="#86898A"/>
<path d="M437.292 416.857L441.257 414.591L374.953 376.504L370.988 378.776L437.292 416.857Z" fill="#9C9F9F"/>
<path d="M437.292 423.616V416.857L370.988 378.776V385.34L437.292 423.616Z" fill="#86898A"/>
<path d="M433.302 540.798V534.039L374.978 387.637V394.201L433.302 540.798Z" fill="#86898A"/>
<path d="M437.292 543.101L441.283 540.798V414.56L437.292 416.857V543.101Z" fill="#5B5F61"/>
<path d="M437.292 543.101L433.302 540.798V421.312L437.292 423.616V543.101Z" fill="#86898A"/>
<path d="M437.292 543.101L441.283 540.798V421.312L437.292 423.616V543.101Z" fill="#5B5F61"/>
<path d="M495.622 570.018L499.581 567.746L441.257 421.35L437.292 423.616L495.622 570.018Z" fill="#9C9F9F"/>
<path d="M437.292 543.101L433.302 540.798V421.312L437.292 423.616V543.101Z" fill="#86898A"/>
<path d="M441.283 540.798L437.292 543.101L497.8 453.943L500.028 455.233L441.283 540.798Z" fill="#353638"/>
<path d="M471.379 496.958L467.414 499.224L468.635 502.282L471.379 496.958Z" fill="#9C9F9F"/>
<path d="M437.292 543.101L437.223 538.664L493.809 456.247L496.037 457.531L437.292 543.101Z" fill="#86898A"/>
<path d="M495.622 570.018L499.581 567.746L444.486 536.122L440.527 538.394L495.622 570.018Z" fill="#9C9F9F"/>
<path d="M495.622 576.777V570.018L437.292 536.537V543.101L495.622 576.777Z" fill="#86898A"/>
<path d="M499.612 452.836L503.571 450.57L441.257 414.591L433.302 414.755L499.612 452.836Z" fill="#9C9F9F"/>
<path d="M499.612 459.595V452.836L433.302 414.755V421.312L499.612 459.595Z" fill="#86898A"/>
<path d="M495.622 576.777V570.018L437.292 423.616V430.18L495.622 576.777Z" fill="#86898A"/>
<path d="M499.612 579.074L503.603 576.777V450.539L499.612 452.836V579.074Z" fill="#5B5F61"/>
<path d="M499.612 579.074L495.622 576.777V457.291L499.612 459.595V579.074Z" fill="#86898A"/>
<path d="M499.612 579.074L503.603 576.777V457.291L499.612 459.595V579.074Z" fill="#5B5F61"/>
<path d="M557.942 605.997L561.907 603.725L503.571 457.329L499.612 459.595L557.942 605.997Z" fill="#9C9F9F"/>
<path d="M499.612 579.074L495.622 576.777V457.291L499.612 459.595V579.074Z" fill="#86898A"/>
<path d="M503.603 576.777L499.612 579.074L560.12 489.922L562.348 491.206L503.603 576.777Z" fill="#353638"/>
<path d="M533.699 532.931L529.734 535.203L530.955 538.261L533.699 532.931Z" fill="#9C9F9F"/>
<path d="M499.612 579.074L499.543 574.643L556.13 492.226L558.358 493.51L499.612 579.074Z" fill="#86898A"/>
<path d="M557.942 605.997L561.907 603.725L506.806 572.101L502.841 574.366L557.942 605.997Z" fill="#9C9F9F"/>
<path d="M557.942 612.749V605.997L499.612 572.51V579.074L557.942 612.749Z" fill="#86898A"/>
<path d="M561.932 488.815L565.897 486.549L503.571 450.57L495.622 450.727L561.932 488.815Z" fill="#9C9F9F"/>
<path d="M561.932 495.574V488.815L495.622 450.727V457.291L561.932 495.574Z" fill="#86898A"/>
<path d="M557.942 612.749V605.997L499.612 459.595V466.159L557.942 612.749Z" fill="#86898A"/>
<path d="M561.933 615.052L565.917 612.749V486.511L561.933 488.815V615.052Z" fill="#5B5F61"/>
<path d="M561.932 615.052L557.942 612.749V493.27L561.932 495.574V615.052Z" fill="#86898A"/>
<path d="M561.933 615.052L565.917 612.749V493.27L561.933 495.574V615.052Z" fill="#5B5F61"/>
<path d="M620.263 641.969L624.221 639.704L565.898 493.302L561.933 495.574L620.263 641.969Z" fill="#9C9F9F"/>
<path d="M561.932 615.052L557.942 612.749V493.27L561.932 495.574V615.052Z" fill="#86898A"/>
<path d="M565.917 612.749L561.933 615.052L622.434 525.901L624.662 527.185L565.917 612.749Z" fill="#353638"/>
<path d="M596.019 568.916L592.054 571.176L593.275 574.234L596.019 568.916Z" fill="#9C9F9F"/>
<path d="M561.932 615.052L561.863 610.622L618.45 528.198L620.678 529.488L561.932 615.052Z" fill="#86898A"/>
<path d="M620.262 641.969L624.221 639.704L569.126 608.08L565.161 610.345L620.262 641.969Z" fill="#9C9F9F"/>
<path d="M620.263 648.728V641.969L561.933 608.489V615.053L620.263 648.728Z" fill="#86898A"/>
<path d="M624.253 524.794L628.243 522.49L565.898 486.549L557.942 486.706L624.253 524.794Z" fill="#9C9F9F"/>
<path d="M624.253 531.553V524.794L557.942 486.706V493.27L624.253 531.553Z" fill="#86898A"/>
<path d="M620.263 648.728V641.969L561.933 495.574V502.138L620.263 648.728Z" fill="#86898A"/>
<path d="M624.252 651.032L628.243 648.728V522.49L624.252 524.794V651.032Z" fill="#5B5F61"/>
<path d="M624.252 651.032L620.262 648.728V529.249L624.252 531.553V651.032Z" fill="#86898A"/>
<path d="M614.774 480.287L804.548 370.727V293.992L614.774 403.553V480.287Z" fill="#F4A316"/>
<path d="M794.547 364.95V311.324L624.781 409.33V462.962L794.547 364.95Z" fill="#E29817"/>
<path d="M788.87 362.621V314.59L794.547 311.324V364.95L624.781 462.962V457.355L788.87 362.621Z" fill="#F9AF20"/>
<path d="M624.253 524.794L716.115 471.76L804.548 370.727L614.774 480.287L624.253 524.794Z" fill="#8B5819"/>
<path d="M624.253 524.794L370.963 378.807L263.58 277.78L614.775 480.287L624.253 524.794Z" fill="#E29817"/>
<path d="M788.871 362.621L794.548 364.949V311.324L788.871 314.59V362.621Z" fill="#F1B018"/>
<path d="M441.32 177.559L694.944 345.717L614.774 391.998L344.202 236.037L441.32 177.559Z" fill="#BDBA7E"/>
<path d="M617.902 198.031L603.817 285.301L508.751 331.035L448.149 296.044L617.902 198.031Z" fill="#C48618"/>
<path d="M614.775 391.998L508.908 330.959L540.471 315.773L643.09 375.654L614.775 391.998Z" fill="#9A935F"/>
<path d="M614.775 403.553L804.548 293.992L453.354 91.4851L263.58 201.04L614.775 403.553Z" fill="#FBD217"/>
<path d="M784.541 293.992L453.354 103.033L283.594 201.039L614.775 391.998L784.541 293.992Z" fill="#F9DD2D"/>
<path d="M614.775 480.287L263.58 277.78V201.04L614.775 403.553V480.287Z" fill="#F8CB17"/>
<path d="M604.767 409.33L273.587 218.372V272.003L604.767 462.962V409.33Z" fill="#F1B018"/>
<path d="M279.339 221.695V269.253L604.767 456.883V462.962L273.587 272.003V218.372L279.339 221.695Z" fill="#FBD217"/>
<path d="M279.339 269.253L273.587 272.003V218.371L279.339 221.694V269.253Z" fill="#E29817"/>
<path d="M453.354 103.033L441.32 177.559L344.202 236.037L283.594 201.039L453.354 103.033Z" fill="#C48618"/>
<path d="M344.24 236.012L283.594 201.04L373.537 218.371L344.24 236.012Z" fill="#9F6919"/>
<path d="M448.25 295.98L344.24 236.011L373.537 218.371L477.553 279.064L448.25 295.98Z" fill="#9A935F"/>
<path d="M508.908 330.959L448.25 295.981L477.553 279.064L540.471 315.773L508.908 330.959Z" fill="#9F6919"/>
<path d="M617.902 198.031L606.127 191.121L437.267 289.65L448.149 296.044L617.902 198.031Z" fill="#FBD217"/>
</svg>
