<?xml version="1.0" encoding="UTF-8"?><svg id="a" xmlns="http://www.w3.org/2000/svg" xmlns:xlink="http://www.w3.org/1999/xlink" viewBox="0 0 238 170"><defs><style>.d{fill:#f5f5f5;}.e{fill:#d6d6d6;}.f{clip-path:url(#b);}.g{fill:#fdfdfd;}.h{fill:none;}.i{clip-path:url(#c);}.j{fill:#d0d5dd;}.k{fill:#98a2b3;}</style><clipPath id="b"><rect class="h" width="238" height="168" rx="8" ry="8"/></clipPath><clipPath id="c"><rect class="h" x="22" y="20" width="246" height="168" rx="4" ry="4"/></clipPath></defs><g class="f"><g><path class="e" d="m0,8C0,3.58,3.58,0,8,0h222c4.42,0,8,3.58,8,8v152c0,4.42-3.58,8-8,8H8c-4.42,0-8-3.58-8-8V8Z"/><g class="i"><g><rect class="d" x="22" y="20" width="246" height="168" rx="4" ry="4"/><rect class="g" x="22" y="20" width="50" height="157"/><path class="j" d="m39,29c0-1.1.9-2,2-2h24c1.1,0,2,.9,2,2v2c0,1.1-.9,2-2,2h-24c-1.1,0-2-.9-2-2v-2Z"/><rect class="j" x="27" y="40" width="29" height="4" rx="1" ry="1"/><rect class="j" x="27" y="50" width="29" height="4" rx="1" ry="1"/><rect class="j" x="27" y="60" width="29" height="4" rx="1" ry="1"/><rect class="j" x="27" y="70" width="29" height="4" rx="1" ry="1"/><path class="j" d="m27,28c0-1.1.9-2,2-2h4c1.1,0,2,.9,2,2v4c0,1.1-.9,2-2,2h-4c-1.1,0-2-.9-2-2v-4Z"/><rect class="k" x="82" y="27" width="60" height="6" rx="1" ry="1"/><rect class="g" x="82" y="40" width="121" height="57" rx="2" ry="2"/><rect class="g" x="82" y="101" width="121" height="57" rx="2" ry="2"/><rect class="g" x="207" y="40" width="121" height="57" rx="2" ry="2"/><rect class="g" x="207" y="101" width="121" height="57" rx="2" ry="2"/><rect class="g" x="82" y="162" width="121" height="57" rx="2" ry="2"/><rect class="g" x="207" y="162" width="121" height="57" rx="2" ry="2"/><rect class="k" x="216" y="27" width="21" height="6" rx="1" ry="1"/></g></g></g></g></svg>