<svg width="62" height="64" viewBox="0 0 62 64" fill="none" xmlns="http://www.w3.org/2000/svg">
<g style="mix-blend-mode:multiply" opacity="0.157" filter="url(#filter0_f_1280_59080)">
<path d="M57.1483 35.2003H29.59C28.7064 35.1778 27.8383 35.4457 27.1086 35.9663L27.0837 35.9903L26.7148 36.3573L22.0202 41.0203L21.6513 41.3873L21.6312 41.4063C21.2049 41.8293 21.6264 42.1723 22.5701 42.1723H34.5059L33.2748 43.3953L28.6348 47.4453C28.517 47.5623 29.4588 48.0003 30.4743 48.0003C31.0887 48.0429 31.7019 47.9006 32.241 47.5903L36.9519 43.3953L38.1831 42.1723H50.1237C51.007 42.1946 51.8747 41.9266 52.6042 41.4063L52.6243 41.3873L58.0614 35.9873L58.0854 35.9633C58.5117 35.5403 58.0921 35.1973 57.1474 35.1973" fill="#040504"/>
</g>
<path d="M28.6777 32.4043V47.4303C28.6777 47.7453 29.5649 47.9993 30.6591 47.9993C31.7532 47.9993 32.6404 47.7443 32.6404 47.4303V32.4043H28.6777Z" fill="#DD001A"/>
<path d="M28.6777 32.4043V47.4303C28.6777 47.7453 29.5649 47.9993 30.6591 47.9993C31.7532 47.9993 32.6404 47.7443 32.6404 47.4303V32.4043H28.6777Z" fill="url(#paint0_linear_1280_59080)"/>
<path d="M45.9878 17.8027H15.3301V30.6027H45.9878V17.8027Z" fill="white"/>
<path d="M15.3301 17.8C15.3263 17.3271 15.5024 16.8719 15.8198 16.5345C16.1373 16.197 16.57 16.0048 17.0231 16H44.2959C44.749 16.0048 45.1817 16.197 45.4991 16.5345C45.8165 16.8719 45.9927 17.3271 45.9888 17.8V17.857H15.3301V17.8ZM45.9888 30.558V30.6C45.9927 31.0727 45.8167 31.5277 45.4995 31.8652C45.1823 32.2027 44.7498 32.395 44.2968 32.4H17.0231C16.57 32.3952 16.1373 32.203 15.8198 31.8655C15.5024 31.5281 15.3263 31.0729 15.3301 30.6V30.555L45.9888 30.558Z" fill="#FC9F00"/>
<path d="M36.5478 24.1837C36.5648 25.0639 36.8304 25.9193 37.3113 26.6426C37.7921 27.3659 38.4669 27.925 39.251 28.2496C40.0351 28.5742 40.8935 28.65 41.7187 28.4675C42.5439 28.285 43.299 27.8522 43.8895 27.2235C44.48 26.5948 44.8795 25.7981 45.0379 24.9333C45.1963 24.0686 45.1066 23.1743 44.78 22.3625C44.4534 21.5508 43.9045 20.8578 43.202 20.3704C42.4996 19.8829 41.6749 19.6228 40.8314 19.6227C40.2632 19.6285 39.7017 19.7512 39.1789 19.9836C38.6561 20.216 38.1823 20.5536 37.7845 20.9771C37.3867 21.4007 37.0728 21.9018 36.8606 22.452C36.6484 23.0022 36.5421 23.5906 36.5478 24.1837ZM16.1282 24.1837C16.1169 25.3805 16.5614 26.5331 17.3639 27.3881C18.1663 28.2432 19.2612 28.7307 20.4079 28.7437C21.5555 28.7259 22.6504 28.2376 23.4559 27.3843C24.2615 26.531 24.713 25.3811 24.713 24.1832C24.713 22.9852 24.2615 21.8353 23.4559 20.982C22.6504 20.1287 21.5555 19.6404 20.4079 19.6227C19.2611 19.6356 18.166 20.1233 17.3635 20.9785C16.561 21.8338 16.1167 22.9866 16.1282 24.1837ZM45.9888 29.6947H24.8707C25.2988 29.3541 25.6768 28.9498 25.9926 28.4947L28.1425 25.5717L29.0824 26.8357L30.1277 25.3547L29.2137 24.1157L31.4038 21.1407C31.4775 21.05 31.5331 20.9448 31.5671 20.8313C31.6012 20.7178 31.6131 20.5984 31.6021 20.48C31.5911 20.3617 31.5575 20.2468 31.5033 20.1423C31.449 20.0377 31.3752 19.9456 31.2863 19.8713C31.1973 19.797 31.095 19.7422 30.9853 19.7099C30.8757 19.6777 30.7609 19.6687 30.6479 19.6836C30.5349 19.6984 30.4258 19.7368 30.3273 19.7964C30.2287 19.856 30.1426 19.9357 30.074 20.0307L28.1387 22.6617L26.1718 19.9977C26.1018 19.9067 26.0154 19.831 25.9174 19.775C25.8194 19.7189 25.7118 19.6835 25.6008 19.6708C25.4897 19.6582 25.3773 19.6684 25.27 19.7011C25.1628 19.7338 25.0627 19.7881 24.9756 19.8612C24.8885 19.9342 24.816 20.0244 24.7622 20.1266C24.7085 20.2289 24.6746 20.3412 24.6625 20.4571C24.6503 20.5731 24.6602 20.6904 24.6915 20.8023C24.7227 20.9143 24.7749 21.0187 24.8448 21.1097L27.0685 24.1177L24.6628 27.3867C23.8082 28.5477 22.9555 29.6127 21.2616 29.6957H15.3301V18.7227H36.3361C35.9294 19.0559 35.569 19.4462 35.2649 19.8827L33.115 22.8057L32.1751 21.5427L31.1298 23.0227L32.0438 24.2607L29.8546 27.2367C29.7132 27.4206 29.6476 27.6556 29.6722 27.89C29.6968 28.1245 29.8097 28.3391 29.9859 28.4867C30.1621 28.6343 30.3873 28.7027 30.6119 28.677C30.8365 28.6513 31.0421 28.5336 31.1835 28.3497L33.1188 25.7207L35.0858 28.3847C35.1542 28.4802 35.2404 28.5605 35.3391 28.6206C35.4379 28.6806 35.5472 28.7194 35.6606 28.7344C35.774 28.7495 35.8892 28.7405 35.9992 28.7082C36.1092 28.6758 36.2119 28.6206 36.3011 28.5459C36.3902 28.4713 36.4641 28.3786 36.5182 28.2735C36.5724 28.1684 36.6057 28.053 36.6162 27.9342C36.6267 27.8154 36.6142 27.6956 36.5794 27.5819C36.5446 27.4683 36.4882 27.3631 36.4137 27.2727L34.19 24.2607L36.5995 20.9927C36.9221 20.4171 37.356 19.918 37.8737 19.5271C38.3913 19.1363 38.9813 18.8623 39.606 18.7227H45.9888V29.6947ZM38.2666 24.1837C38.2766 23.6565 38.4355 23.1442 38.7234 22.711C39.0113 22.2778 39.4153 21.9429 39.8848 21.7484C40.3543 21.554 40.8684 21.5085 41.3625 21.6178C41.8567 21.7271 42.3089 21.9862 42.6625 22.3627C43.0161 22.7392 43.2553 23.2163 43.3501 23.7342C43.4449 24.2521 43.3911 24.7876 43.1954 25.2737C42.9998 25.7597 42.6709 26.1746 42.2502 26.4664C41.8295 26.7582 41.3356 26.9138 40.8304 26.9137C40.4902 26.9105 40.154 26.8374 39.8409 26.6984C39.5278 26.5594 39.2441 26.3574 39.0059 26.1038C38.7678 25.8502 38.5799 25.5501 38.453 25.2206C38.3262 24.8911 38.2628 24.5387 38.2666 24.1837ZM17.8479 24.1837C17.8436 23.8286 17.9065 23.4761 18.0329 23.1464C18.1593 22.8167 18.3467 22.5163 18.5845 22.2623C18.8223 22.0084 19.1058 21.8059 19.4187 21.6664C19.7316 21.527 20.0677 21.4533 20.4079 21.4497C21.0931 21.4633 21.7457 21.757 22.2256 22.2676C22.7055 22.7782 22.9744 23.4649 22.9744 24.1802C22.9744 24.8954 22.7055 25.5821 22.2256 26.0927C21.7457 26.6033 21.0931 26.897 20.4079 26.9107C20.0677 26.9075 19.7315 26.8344 19.4184 26.6954C19.1053 26.5564 18.8216 26.3544 18.5834 26.1008C18.3453 25.8472 18.1574 25.5471 18.0305 25.2176C17.9036 24.8881 17.8403 24.5357 17.8441 24.1807" fill="#DD001A"/>
<defs>
<filter id="filter0_f_1280_59080" x="19.4648" y="33.1973" width="40.7871" height="16.8105" filterUnits="userSpaceOnUse" color-interpolation-filters="sRGB">
<feFlood flood-opacity="0" result="BackgroundImageFix"/>
<feBlend mode="normal" in="SourceGraphic" in2="BackgroundImageFix" result="shape"/>
<feGaussianBlur stdDeviation="1" result="effect1_foregroundBlur_1280_59080"/>
</filter>
<linearGradient id="paint0_linear_1280_59080" x1="30.6591" y1="36.2251" x2="30.6591" y2="32.4043" gradientUnits="userSpaceOnUse">
<stop stop-opacity="0"/>
<stop offset="1" stop-opacity="0.243"/>
</linearGradient>
</defs>
</svg>
