<?xml version="1.0" encoding="utf-8"?>
<!-- Generator: Adobe Illustrator 27.2.0, SVG Export Plug-In . SVG Version: 6.00 Build 0)  -->
<svg version="1.1" id="box" xmlns="http://www.w3.org/2000/svg" xmlns:xlink="http://www.w3.org/1999/xlink" x="0px" y="0px"
	 viewBox="0 0 20 20" style="enable-background:new 0 0 20 20;" xml:space="preserve">
<style type="text/css">
	.st0{fill:#E5E5E5;}
</style>
<g>
	<path class="st0" d="M18.3,6.4L12,0.1C11.9,0,11.6,0,11.5,0L1.9,3.2C1.7,3.3,1.6,3.5,1.6,3.7v9.7c0,0.1,0.1,0.3,0.1,0.4l6.4,6.1
		C8.2,20,8.3,20,8.4,20c0.1,0,0.1,0,0.1,0l9.5-3.1c0.2-0.1,0.4-0.3,0.4-0.5V6.8C18.4,6.7,18.4,6.6,18.3,6.4L18.3,6.4z M11.5,1.1
		L17,6.6l-3.8,1.3L7.8,2.3L11.5,1.1z M8.5,9.4L3,3.9l3.8-1.2l5.4,5.6L8.5,9.4L8.5,9.4z M2.6,4.9l5.2,5.3v8l-5.2-5V4.9z M8.8,18.8
		v-8.5l8.6-2.9v8.5L8.8,18.8z"/>
	<ellipse transform="matrix(0.6464 -0.763 0.763 0.6464 -2.409 15.2455)" class="st0" cx="15.2" cy="10.2" rx="1.2" ry="0.8"/>
	<ellipse transform="matrix(0.6464 -0.763 0.763 0.6464 -5.0892 12.4067)" class="st0" cx="10.8" cy="11.7" rx="1.2" ry="0.8"/>
	<path class="st0" d="M13.2,15.9c2.7-1,2.6-3.7,2.6-3.7l-5.6,1.9C10.2,14.1,10.5,16.8,13.2,15.9z"/>
</g>
</svg>
