<?xml version="1.0" encoding="UTF-8"?><svg id="logo-login_copia" xmlns="http://www.w3.org/2000/svg" viewBox="0 0 48.92 11.01"><defs><style>.cls-1{fill:#fff;}</style></defs><g><polygon class="cls-1" points="3.92 7.15 1.59 1.74 0 1.74 3.14 9.06 4.63 9.06 7.53 1.74 5.99 1.74 3.92 7.15"/><polygon class="cls-1" points="14.21 7.15 11.88 1.74 10.3 1.74 13.44 9.06 14.93 9.06 17.82 1.74 16.29 1.74 14.21 7.15"/><rect class="cls-1" x="8.22" y="1.74" width="1.47" height="7.32"/><rect class="cls-1" x="18.48" y="1.74" width="1.47" height="7.32"/><path class="cls-1" d="M25.31,1.61c-1,0-1.96,.37-2.65,1.04l-.41-.91h-.9l-.07,9.27h1.55v-2.62c.68,.58,1.56,.89,2.49,.89,2.01,0,3.8-1.47,3.8-3.84s-1.79-3.85-3.8-3.85Zm0,6.29c-1.13,0-2.3-.79-2.3-2.45s1.16-2.45,2.3-2.45,2.31,.79,2.31,2.45-1.16,2.45-2.31,2.45Z"/><path class="cls-1" d="M33.52,1.61c-2,0-3.79,1.47-3.79,3.85s1.79,3.84,3.79,3.84,3.8-1.47,3.8-3.84-1.79-3.85-3.8-3.85Zm0,6.29c-1.13,0-2.3-.79-2.3-2.45s1.16-2.45,2.3-2.45,2.31,.79,2.31,2.45-1.16,2.45-2.31,2.45Z"/><path class="cls-1" d="M47.43,7.74c-.53,0-.77-.55-.77-1.01V3.07h2.13V1.82h-2.15V0h-.24l-2.54,2.7v.37h1.34v3.86c0,1.69,1.36,2.15,2.35,2.15h1.36v-1.34h-1.49Z"/></g><path class="cls-1" d="M41.67,4.72l-1.04-.2c-.55-.11-.81-.43-.81-.84,0-.49,.61-.82,1.17-.82,0,0,.68-.03,1,.12l.86-.94c-.42-.35-.96-.44-1.81-.44-1.41,0-2.66,.86-2.66,2.18,0,1.12,.77,1.89,1.95,2.13l1.04,.13c.58,.12,1.3,.27,1.3,.96,0,.53-.34,.91-1.6,.91-1.17,0-1.29-.64-1.5-1.15h-1.45c.18,1.03,.75,2.44,2.94,2.44s3.08-1.16,3.08-2.3c0-1.05-1.11-1.93-2.47-2.2Z"/></svg>