<?xml version="1.0" encoding="utf-8"?>
<!-- Generator: Adobe Illustrator 26.5.1, SVG Export Plug-In . SVG Version: 6.00 Build 0)  -->
<svg version="1.1" id="box" xmlns="http://www.w3.org/2000/svg" xmlns:xlink="http://www.w3.org/1999/xlink" x="0px" y="0px"
	 viewBox="0 0 92.6 110" style="enable-background:new 0 0 92.6 110;" xml:space="preserve">
<style type="text/css">
	.st0{fill:#FFFFFF;}
	.st1{fill:#212121;}
</style>
<g>
	<path class="st0" d="M91.8,35.5L91.8,35.5L91.8,35.5L57.1,0.8c-0.7-0.7-1.9-1-2.9-0.7L1.9,17.6C0.8,17.9,0,19,0,20.2v53.4
		c0,0.8,0.3,1.5,0.9,2l35,33.6c0.5,0.5,1.2,0.8,1.9,0.8c0.3,0,0.6,0,0.9-0.1l52-17c1.1-0.4,1.9-1.4,1.9-2.7V37.5
		C92.6,36.7,92.3,36,91.8,35.5z"/>
	<path class="st1" d="M89.7,36.4L56.6,3.3c-0.7-0.7-1.8-1-2.7-0.6L4,19.3c-1.1,0.4-1.8,1.4-1.8,2.5v50.9c0,0.7,0.3,1.4,0.8,1.9
		l33.4,32c0.5,0.5,1.2,0.7,1.8,0.7c0.3,0,0.6,0,0.8-0.1l49.6-16.2c1.1-0.4,1.8-1.4,1.8-2.5V38.3C90.5,37.6,90.2,36.9,89.7,36.4
		L89.7,36.4L89.7,36.4z M54,8.3l28.8,28.8l-19.8,6.6L35,14.6C35,14.6,54,8.3,54,8.3z M38.2,51.9L9.7,23l19.6-6.5l28.1,29.1
		L38.2,51.9L38.2,51.9L38.2,51.9z M7.5,28.3l27.4,27.8v41.8L7.5,71.6V28.3z M40.2,101.3V56.9l45-14.9v44.7L40.2,101.3z"/>
	<ellipse transform="matrix(0.6464 -0.763 0.763 0.6464 -16.1421 76.8925)" class="st1" cx="74.9" cy="55.9" rx="6.5" ry="4.6"/>
	<ellipse transform="matrix(0.6464 -0.763 0.763 0.6464 -30.9051 61.325)" class="st1" cx="50.7" cy="64" rx="6.5" ry="4.6"/>
	<path class="st1" d="M63.5,87C78,81.6,78,67.1,78,67.1L47.5,77.2C47.5,77.2,49,92.3,63.5,87z"/>
</g>
</svg>
