<svg width="37" height="36" viewBox="0 0 37 36" fill="none" xmlns="http://www.w3.org/2000/svg">
<g id="Image">
<rect x="0.5" width="36" height="36" rx="4" fill="#363636"/>
<g id="Group">
<path id="Vector" d="M26.7785 14.292L20.75 8.22581C20.544 8.01824 20.2317 7.94609 19.9537 8.04155L10.515 11.2894C10.2614 11.3771 10.0753 11.5847 10.0177 11.8444C10.0122 11.8688 10.0089 11.8944 10.0066 11.9188H10V21.3793C10 21.6624 10.113 21.9343 10.3134 22.1352L16.2134 28.0227C16.5014 28.3102 16.9278 28.4079 17.3121 28.2747L26.2845 25.1633C26.7131 25.0146 27 24.6106 27 24.1566V14.8503H26.9978C27.0044 14.645 26.9291 14.444 26.7796 14.2942L26.7785 14.292ZM20.1198 9.13712L25.6277 14.6783L21.7413 15.9803L16.3906 10.4203L20.1198 9.13712ZM15.2554 10.811L20.5983 16.3643L17.0098 17.5665L11.3811 12.1441L15.2554 10.811ZM11.0876 21.3693V13.3751L16.3231 18.419V26.5941L11.0876 21.3693ZM17.4118 27.0859V18.5821L25.9113 15.7339V24.1377L17.4118 27.0859Z" fill="#E5E5E5"/>
<path id="Vector_2" d="M19.9111 20.558C20.3618 20.1063 20.4414 19.4537 20.0889 19.1004C19.7364 18.7471 19.0852 18.8269 18.6345 19.2786C18.1838 19.7303 18.1042 20.3828 18.4568 20.7361C18.8093 21.0894 19.4604 21.0096 19.9111 20.558Z" fill="#E5E5E5"/>
<path id="Vector_3" d="M23.2589 17.7796C22.8081 18.2314 22.7284 18.8841 23.0817 19.237C23.4339 19.59 24.0851 19.5112 24.5359 19.0594C24.9867 18.6077 25.0664 17.955 24.7131 17.602C24.3609 17.249 23.7097 17.3278 23.2589 17.7796Z" fill="#E5E5E5"/>
<path id="Vector_4" d="M21.0824 24.4574C24.3464 23.9124 24.4826 20.5047 24.4826 20.5047L18.6346 22.4127C18.6346 22.4127 18.9193 24.8181 21.0824 24.4574Z" fill="#E5E5E5"/>
</g>
</g>
</svg>
