<?xml version="1.0" encoding="utf-8"?>
<!-- Generator: Adobe Illustrator 27.2.0, SVG Export Plug-In . SVG Version: 6.00 Build 0)  -->
<svg version="1.1" id="box" xmlns="http://www.w3.org/2000/svg" xmlns:xlink="http://www.w3.org/1999/xlink" x="0px" y="0px"
	 viewBox="0 0 92.6 110" style="enable-background:new 0 0 92.6 110;" xml:space="preserve">
<style type="text/css">
	.st0{fill:#F1FAEE;}
</style>
<g>
	<polygon class="st0" points="7.2,71.7 34.8,98.2 34.8,56.1 7.2,28.1 	"/>
	<polygon class="st0" points="83.1,37 54.1,8 34.9,14.3 63.2,43.6 	"/>
	<polygon class="st0" points="29.2,16.1 9.4,22.7 38.2,51.9 57.5,45.5 	"/>
	<path class="st0" d="M91.8,35.5L57.1,0.8c-0.8-0.8-1.9-1-2.9-0.7L1.9,17.5C0.8,17.9,0,19,0,20.2v53.4c0,0.8,0.3,1.5,0.9,2l35,33.6
		c0.5,0.5,1.2,0.8,1.9,0.8c0.3,0,0.6-0.1,0.9-0.1l52-17c1.2-0.4,1.9-1.4,1.9-2.7V37.5C92.6,36.7,92.3,36,91.8,35.5z M90.7,88.8
		c0,1.2-0.7,2.2-1.8,2.6L39,107.7c-0.3,0-0.6,0.1-0.9,0.1c-0.7,0-1.3-0.3-1.8-0.8L2.7,74.8c-0.6-0.5-0.9-1.2-0.9-1.9V21.6
		c0-1.2,0.8-2.2,1.8-2.6L53.9,2.3c1-0.3,2-0.1,2.8,0.7L90,36.3c0.5,0.5,0.8,1.2,0.8,1.9V88.8z"/>
	<path class="st0" d="M40.2,101.6l45.2-14.8v-45L40.2,56.9V101.6z M63.6,87.2c-14.5,5.4-16.1-9.8-16.1-9.9l30.7-10.2
		C78.2,67.1,78.2,81.8,63.6,87.2z M71.6,52.9c2.3-2.8,5.8-3.6,7.7-2c1.9,1.6,1.6,5.2-0.7,8c-2.3,2.8-5.8,3.6-7.7,2
		C68.9,59.2,69.3,55.6,71.6,52.9z M47.2,61.1c2.3-2.8,5.8-3.6,7.7-2c1.9,1.6,1.6,5.2-0.7,8c-2.3,2.8-5.8,3.6-7.7,2
		C44.5,67.4,44.9,63.8,47.2,61.1z"/>
</g>
</svg>
