<?xml version="1.0" encoding="utf-8"?>
<!-- Generator: Adobe Illustrator 27.2.0, SVG Export Plug-In . SVG Version: 6.00 Build 0)  -->
<svg version="1.1" id="box" xmlns="http://www.w3.org/2000/svg" xmlns:xlink="http://www.w3.org/1999/xlink" x="0px" y="0px"
	 viewBox="0 0 100 100" style="enable-background:new 0 0 100 100;" xml:space="preserve">
<style type="text/css">
	.st0{fill:#FFFFFF;}
	.st1{fill:#212121;}
</style>
<g>
	<path class="st0" d="M91.3,32.3L91.3,32.3L59.8,0.8C59,0,58-0.2,57.1,0.1L9.6,15.9c-1,0.4-1.7,1.4-1.7,2.5v48.5
		c0,0.7,0.3,1.4,0.8,1.8l31.8,30.5c0.5,0.5,1.1,0.7,1.7,0.7c0.3,0,0.5,0,0.8-0.1l47.3-15.4c1-0.4,1.7-1.4,1.7-2.5V34.1
		C92,33.4,91.8,32.7,91.3,32.3z"/>
	<path class="st1" d="M90,32.8L59.5,2.3c-0.6-0.6-1.6-0.9-2.5-0.6L10.9,17c-1,0.4-1.7,1.3-1.7,2.4v47c0,0.6,0.3,1.3,0.7,1.8
		l30.8,29.5c0.5,0.5,1.1,0.7,1.7,0.7c0.3,0,0.5,0,0.7-0.1l45.8-15c1-0.4,1.7-1.3,1.7-2.4V34.6C90.8,33.9,90.5,33.3,90,32.8L90,32.8z
		 M57.1,6.8l26.6,26.6l-18.3,6.1l-26-26.9L57.1,6.8z M42.5,47.2L16.1,20.5l18.2-6l26,26.9L42.5,47.2L42.5,47.2z M14.1,25.4L39.3,51
		v38.6L14.1,65.4V25.4z M44.3,92.8v-41L85.9,38v41.3L44.3,92.8z"/>
	<ellipse transform="matrix(0.6464 -0.763 0.763 0.6464 -12.1106 75.3995)" class="st1" cx="75.3" cy="50.8" rx="5.7" ry="4.1"/>
	<ellipse transform="matrix(0.6464 -0.763 0.763 0.6464 -25.2224 61.6265)" class="st1" cx="53.9" cy="58" rx="5.7" ry="4.1"/>
	<path class="st1" d="M65.2,78.4C78.1,73.6,78,60.7,78,60.7l-27.1,9C51,69.7,52.4,83.1,65.2,78.4z"/>
</g>
</svg>
