<?xml version="1.0" encoding="utf-8"?>
<!-- Generator: Adobe Illustrator 26.5.1, SVG Export Plug-In . SVG Version: 6.00 Build 0)  -->
<svg version="1.1" id="Capa_10" xmlns="http://www.w3.org/2000/svg" xmlns:xlink="http://www.w3.org/1999/xlink" x="0px" y="0px"
	 viewBox="0 0 48.6 10.9" style="enable-background:new 0 0 48.6 10.9;" xml:space="preserve">
<style type="text/css">
	.st0{fill:#212121;}
</style>
<g>
	<polygon class="st0" points="3.9,7.1 1.6,1.7 0,1.7 3.1,9 4.6,9 7.5,1.7 6,1.7 	"/>
	<polygon class="st0" points="14.1,7.1 11.8,1.7 10.2,1.7 13.4,9 14.8,9 17.7,1.7 16.2,1.7 	"/>
	<rect x="8.2" y="1.7" class="st0" width="1.5" height="7.3"/>
	<rect x="18.4" y="1.7" class="st0" width="1.5" height="7.3"/>
	<path class="st0" d="M25.2,1.6c-1,0-1.9,0.4-2.6,1l-0.4-0.9h-0.9L21.1,11h1.5V8.4c0.7,0.6,1.5,0.9,2.5,0.9c2,0,3.8-1.5,3.8-3.8
		S27.1,1.6,25.2,1.6z M25.2,7.9c-1.1,0-2.3-0.8-2.3-2.4S24,3,25.2,3s2.3,0.8,2.3,2.4S26.3,7.9,25.2,7.9z"/>
	<path class="st0" d="M33.3,1.6c-2,0-3.8,1.5-3.8,3.8s1.8,3.8,3.8,3.8s3.8-1.5,3.8-3.8S35.3,1.6,33.3,1.6z M33.3,7.9
		c-1.1,0-2.3-0.8-2.3-2.4S32.2,3,33.3,3s2.3,0.8,2.3,2.4S34.5,7.9,33.3,7.9z"/>
	<path class="st0" d="M47.2,7.7c-0.5,0-0.8-0.6-0.8-1V3h2.1V1.8h-2.1V0h-0.2l-2.5,2.7v0.4h1.3v3.8c0,1.7,1.3,2.1,2.3,2.1h1.3V7.7
		L47.2,7.7L47.2,7.7z"/>
</g>
<path class="st0" d="M41.4,4.7l-1-0.2c-0.5-0.1-0.8-0.4-0.8-0.8c0-0.5,0.6-0.8,1.2-0.8c0,0,0.7,0,1,0.1L42.6,2
	c-0.4-0.3-1-0.4-1.8-0.4c-1.4,0-2.6,0.8-2.6,2.2c0,1.1,0.8,1.9,1.9,2.1l1,0.1c0.6,0.1,1.3,0.3,1.3,1c0,0.5-0.3,0.9-1.6,0.9
	c-1.2,0-1.3-0.6-1.5-1.1h-1.4c0.2,1,0.7,2.4,2.9,2.4s3.1-1.1,3.1-2.3C43.9,5.8,42.8,5,41.4,4.7L41.4,4.7z"/>
</svg>
