<svg width="108" height="52" viewBox="0 0 108 52" fill="none" xmlns="http://www.w3.org/2000/svg">
<path d="M31.8041 7.42659L24.6885 0.266532C24.4454 0.0215311 24.0767 -0.0636297 23.7486 0.0490446L12.6079 3.88259C12.3085 3.9861 12.0889 4.2311 12.0209 4.53768C12.0144 4.5665 12.0105 4.59663 12.0078 4.62546H12V15.792C12 16.1261 12.1333 16.4471 12.37 16.6842L19.3339 23.6334C19.6738 23.9727 20.1771 24.088 20.6307 23.9308L31.2211 20.2584C31.727 20.0828 32.0656 19.6059 32.0656 19.07V8.08561H32.063C32.0708 7.84323 31.9819 7.60609 31.8054 7.42921L31.8041 7.42659ZM23.9447 1.34218L30.4458 7.88253L25.8586 9.41936L19.5431 2.85673L23.9447 1.34218ZM18.2031 3.31791L24.5094 9.87267L20.2738 11.2916L13.6302 4.89142L18.2031 3.31791ZM13.2838 15.7802V6.3444L19.4633 12.2978V21.9472L13.2838 15.7802ZM20.7484 22.5276V12.4904L30.7805 9.1285V19.0478L20.7484 22.5276Z" fill="#2878D6"/>
<path d="M23.6985 14.8221C24.2305 14.2889 24.3244 13.5187 23.9083 13.1017C23.4923 12.6847 22.7237 12.7789 22.1917 13.312C21.6598 13.8451 21.5658 14.6154 21.9819 15.0324C22.398 15.4494 23.1665 15.3552 23.6985 14.8221Z" fill="#2878D6"/>
<path d="M27.6492 11.5423C27.1172 12.0755 27.023 12.8459 27.4401 13.2625C27.8558 13.6792 28.6245 13.5861 29.1565 13.0529C29.6886 12.5197 29.7827 11.7493 29.3657 11.3327C28.95 10.916 28.1813 11.009 27.6492 11.5423Z" fill="#2878D6"/>
<path d="M25.0805 19.4253C28.9331 18.782 29.0939 14.7598 29.0939 14.7598L22.1914 17.0119C22.1914 17.0119 22.5274 19.8511 25.0805 19.4253Z" fill="#2878D6"/>
<g clip-path="url(#clip0_468_3579)">
<path d="M8.65413 43.5859L3.51022 31.793H0L6.93213 47.7494H10.2216L16.6239 31.793H13.224L8.65413 43.5859Z" fill="#101828"/>
<path d="M31.3703 43.5859L26.2264 31.793H22.7383L29.6704 47.7494H32.9599L39.3401 31.793H35.9623L31.3703 43.5859Z" fill="#101828"/>
<path d="M21.3918 31.793H18.1465V47.7494H21.3918V31.793Z" fill="#101828"/>
<path d="M44.0441 31.793H40.7988V47.7494H44.0441V31.793Z" fill="#101828"/>
<path d="M55.8774 31.5104C53.6698 31.5104 51.5504 32.3169 50.0271 33.7774L49.1219 31.7938H47.135L46.9805 52.0009H50.4024V46.2897C51.9036 47.554 53.8464 48.2297 55.8995 48.2297C60.337 48.2297 64.2887 45.0254 64.2887 39.8592C64.2887 34.693 60.337 31.4668 55.8995 31.4668L55.8774 31.5104ZM55.8774 45.2216C53.3828 45.2216 50.7998 43.4995 50.7998 39.881C50.7998 36.2624 53.3607 34.5404 55.8774 34.5404C58.3942 34.5404 60.9772 36.2624 60.9772 39.881C60.9772 43.4995 58.4163 45.2216 55.8774 45.2216Z" fill="#101828"/>
<path d="M74.0019 31.5098C69.5865 31.5098 65.6348 34.7141 65.6348 39.9021C65.6348 45.0901 69.5865 48.2727 74.0019 48.2727C78.4173 48.2727 82.3911 45.0683 82.3911 39.9021C82.3911 34.7359 78.4393 31.5098 74.0019 31.5098ZM74.0019 45.2209C71.5072 45.2209 68.9242 43.4989 68.9242 39.8803C68.9242 36.2618 71.4851 34.5397 74.0019 34.5397C76.5187 34.5397 79.1017 36.2618 79.1017 39.8803C79.1017 43.4989 76.5407 45.2209 74.0019 45.2209Z" fill="#101828"/>
<path d="M104.712 44.8719C103.541 44.8719 103.012 43.673 103.012 42.6703V34.6921H107.714V31.9673H102.967V28H102.438L96.8301 33.8856V34.6921H99.7884V43.1063C99.7884 46.7902 102.791 47.7929 104.976 47.7929H107.979V44.8719H104.689H104.712Z" fill="#101828"/>
<path d="M91.9935 38.2894L89.6975 37.8534C88.4833 37.6136 87.9093 36.9161 87.9093 36.0223C87.9093 34.9542 89.256 34.2349 90.4923 34.2349C90.4923 34.2349 91.9935 34.1695 92.7 34.4965L94.5986 32.4474C93.6714 31.6845 92.4792 31.4883 90.6027 31.4883C87.4899 31.4883 84.7303 33.3629 84.7303 36.2403C84.7303 38.6817 86.4302 40.3602 89.0352 40.8834L91.3312 41.1668C92.6117 41.4283 94.2012 41.7553 94.2012 43.2594C94.2012 44.4147 93.4506 45.243 90.6689 45.243C88.0859 45.243 87.821 43.848 87.3574 42.7362H84.1562C84.5536 44.9815 85.812 48.055 90.6469 48.055C95.4817 48.055 97.4465 45.5264 97.4465 43.0414C97.4465 40.7526 94.996 38.8343 91.9935 38.2458V38.2894Z" fill="#101828"/>
</g>
<defs>
<clipPath id="clip0_468_3579">
<rect width="108" height="24" fill="white" transform="translate(0 28)"/>
</clipPath>
</defs>
</svg>
